<?xml version="1.0" encoding="utf-8"?>
<!-- Generator: Adobe Illustrator 24.0.1, SVG Export Plug-In . SVG Version: 6.00 Build 0)  -->
<svg version="1.1" id="Warstwa_1" xmlns="http://www.w3.org/2000/svg" xmlns:xlink="http://www.w3.org/1999/xlink" x="0px" y="0px"
	 viewBox="0 0 166 162" style="enable-background:new 0 0 166 162;" xml:space="preserve">
<style type="text/css">
	.st0{display:none;}
	.st1{display:inline;fill:#FFFFFF;}
	.st2{fill:#3C3E40;}
	.st3{fill:#6F7275;}
	.st4{fill:#2C2C42;}
	.st5{fill:#85462B;}
	.st6{fill:#5C311E;}
	.st7{fill:#22272E;}
	.st8{fill:#617085;}
	.st9{fill:#515D6E;stroke:#515D6E;stroke-miterlimit:10;}
	.st10{fill:#515D6E;}
	.st11{fill:#8C4C09;}
	.st12{fill:#C28C4B;}
	.st13{fill:#EBE6E2;}
	.st14{fill:#D8826C;}
	.st15{fill:#FFFFFF;}
	.st16{fill:#F5F0EB;}
	.st17{fill:#F5AE94;}
	.st18{fill:#DD876C;}
	.st19{fill:#0D0D0C;}
	.st20{fill:#5C8696;}
	.st21{fill:#242422;}
	.st22{fill:#F0A98F;}
	.st23{fill:#D5503B;}
	.st24{fill:#838792;}
	.st25{fill:#B87744;}
	.st26{fill:#DC5271;}
</style>
<g id="BACKGROUNDv" class="st0">
	<rect x="-277" y="-296" class="st1" width="500" height="500"/>
</g>
<g id="OBJECTS">
	<g>
		<g>
			<g>
				<g>
					<rect x="75.7" y="109.4" class="st2" width="5.5" height="18.3"/>
				</g>
				<g>
					<g>
						<g>
							<g>
								<path class="st3" d="M90.4,146.9h0.9v-4.4c0-1-0.1-1.8-0.8-2.4c-0.6-0.6-1.4-1.5-2.6-1.7c-0.8-0.1-1.3-0.6-1.4-0.6h-5.3v1.8
									h5.4c0.6,0,2.4,0.5,3.2,1.3c0.3,0.3,0.6,1.1,0.6,1.6C90.4,142.5,90.4,146.9,90.4,146.9z"/>
							</g>
						</g>
						<g>
							<path class="st4" d="M93.1,148.4c0,0.1,0,0.2,0,0.3c-0.2,1.2-1.2,2.1-2.4,2.1c-1.2,0-2.3-0.9-2.4-2.1c0-0.1,0-0.2,0-0.3
								c0-1.3,1.1-2.4,2.4-2.4S93.1,147.1,93.1,148.4z"/>
							<path class="st3" d="M93.1,148.4c0,0.1,0,0.3,0,0.3h-4.8c0,0,0-0.2,0-0.3c0-1.3,1.1-2.4,2.4-2.4S93.1,147.1,93.1,148.4z"/>
						</g>
					</g>
					<g>
						<g>
							<g>
								<path class="st3" d="M65.6,146.9h-1.8v-4.4c0-1,0.5-1.8,1.1-2.4c0.6-0.6,1.6-1.5,2.8-1.7c0.8-0.1,1.4-0.6,1.6-0.6h6.5v1.8
									h-6.5c-0.6,0-2.3,0.5-3.1,1.3c-0.3,0.3-0.5,1.1-0.5,1.6v4.4H65.6z"/>
							</g>
						</g>
						<g>
							<path class="st4" d="M62.6,148.4c0,0.1,0,0.2,0,0.3c0.1,1.2,1.2,2.1,2.4,2.1c1.2,0,2.3-0.9,2.4-2.1c0-0.1,0-0.2,0-0.3
								c0-1.3-1.1-2.4-2.4-2.4C63.7,146,62.6,147.1,62.6,148.4z"/>
							<path class="st3" d="M62.6,148.4c0,0.1,0,0.3,0,0.3h4.8c0,0,0-0.2,0-0.3c0-1.3-1.1-2.4-2.4-2.4
								C63.7,146,62.6,147.1,62.6,148.4z"/>
						</g>
					</g>
				</g>
				<g>
					<rect x="77.5" y="139.6" class="st3" width="1.8" height="7.3"/>
					<g>
						<path class="st4" d="M80.3,148.4c0,0.1,0,0.2,0,0.3c-0.2,1.2-1.2,2.1-2.4,2.1c-1.2,0-2.3-0.9-2.4-2.1c0-0.1,0-0.2,0-0.3
							c0-1.3,1.1-2.4,2.4-2.4C79.2,146,80.3,147.1,80.3,148.4z"/>
						<path class="st3" d="M80.3,148.4c0,0.1,0,0.3,0,0.3h-4.8c0,0,0-0.2,0-0.3c0-1.3,1.1-2.4,2.4-2.4
							C79.2,146,80.3,147.1,80.3,148.4z"/>
					</g>
				</g>
				<rect x="73.9" y="124.9" class="st3" width="8.2" height="15.6"/>
			</g>
			<rect x="67.5" y="107.5" class="st3" width="20.2" height="3.7"/>
			<rect x="74.8" y="94.7" class="st3" width="6.4" height="9.2"/>
			<g>
				<g>
					<g>
						<g>
							<path class="st3" d="M62,102.9v2.7h-7.2c-1.5,0-2.8-0.3-3.8-1.3s-1.5-2.3-1.8-4.2c-0.2-1.2,0-2,0-2.2V87.4h2.7V98
								c0,0.9-0.1,3.2,1.2,4.5c0.5,0.5,0.9,0.5,1.7,0.5L62,102.9L62,102.9z"/>
						</g>
					</g>
					<g>
						<path class="st5" d="M56.2,87.9v0.6c0,1.3-1,2.3-2.3,2.3H47c-1.3,0-2.3-1-2.3-2.3v-0.6c0-1.3,1-2.3,2.3-2.3h6.9H54
							c0.4,0,0.7,0.1,1,0.3c0,0,0.1,0,0.1,0.1C55.7,86.3,56.2,87,56.2,87.9z"/>
					</g>
				</g>
				<g>
					<g>
						<g>
							<path class="st3" d="M94,102.9v2.7h6.9c1.5,0,2.8-0.3,3.8-1.3s1.6-2.3,1.9-4.2c0.2-1.2,0.2-2,0.2-2.2V87.4h-2.7V98
								c0,0.9-0.1,3.2-1.3,4.5c-0.5,0.5-1.1,0.5-1.8,0.5L94,102.9L94,102.9z"/>
						</g>
					</g>
					<g>
						<path class="st5" d="M111.4,87.6c0-1.3-1.3-3-2.6-3H102c-1.3,0-2.5,1.7-2.5,3v0.7c0,1.3,1.2,1.8,2.5,1.8h6.8
							c1.3,0,2.6-0.5,2.6-1.8V87.6z"/>
					</g>
				</g>
			</g>
			<g>
				<path class="st6" d="M95,98.8c0,1.3-1,2.3-2.3,2.3H62.5c-1.3,0-2.3-1-2.3-2.3V59.5c0-1.3,1-2.3,2.3-2.3h30.2
					c1.3,0,2.3,1,2.3,2.3V98.8z"/>
			</g>
			<g>
				<path class="st5" d="M101.4,105.8c0,1.4-1.2,2.6-2.6,2.6H59.1c-1.4,0-2.6-1.2-2.6-2.6v-2.1c0-1.4,1.2-2.6,2.6-2.6h39.7
					c1.4,0,2.6,1.2,2.6,2.6V105.8z"/>
			</g>
		</g>
		<g>
			<g>
				<g>
					<g>
						<g>
							<g>
								<path class="st7" d="M97.7,150.2l-11.4-1.3c0.5-0.9,0.8-3.3,1-5.3c0.2-2.7,0.1-5.9,0.1-5.9s7.5-0.9,7.5,0
									c0,1.8,0.4,3.9,0.9,5.9C96.6,146.7,97.7,150.2,97.7,150.2z"/>
								<path class="st7" d="M97.9,151C97.9,151.1,97.9,150.9,97.9,151c0,0.5-0.2,0.5-0.5,1.4H85.5c-0.3-0.9-0.4-0.9-0.5-1.5
									c0-0.1,0,0,0,0c0-2.8,2.9-5.1,6.4-5.1C95,145.8,97.9,148.2,97.9,151z"/>
							</g>
							<path class="st8" d="M87.3,143.3c0.2-2.7,0.1-5.5,0.1-5.5s7.5-0.9,7.5,0c0,1.8,0.4,3.7,0.9,5.5H87.3z"/>
						</g>
						<path class="st9" d="M97.9,150.1c0,0-0.2,1.8-0.5,1.8H85.5c-0.3,0-0.4-1.8-0.5-1.8H97.9z"/>
					</g>
					<path class="st10" d="M93.6,146.7c-0.9-1.2-3-0.8-4,0c-0.2,0.1,0,0.3,0.2,0.3c0.6-0.1,1.1-0.4,1.8-0.5c0.7,0,1.2,0.4,1.9,0.4
						C93.6,147.1,93.7,146.9,93.6,146.7z"/>
					<path class="st10" d="M93.2,148c-1-0.7-2.9-0.9-3.8,0.1c-0.1,0.1,0,0.4,0.2,0.3c0.6-0.2,1.3-0.2,1.8-0.2c0.6,0,1.1,0.4,1.7,0.3
						C93.4,148.4,93.4,148.1,93.2,148z"/>
				</g>
				<g>
					<g>
						<path class="st7" d="M99.2,100c-0.4-0.2-9.8-5.8-9.8-5.8l-8.8,0.1v8.3c2.9,5.3,8.1,5.1,10,6.3c-1.6,7.4-3.4,26-4.3,33.2h10.2
							C99.8,124.1,108.4,104.7,99.2,100z"/>
					</g>
				</g>
			</g>
			<g>
				<g>
					<g>
						<g>
							<g>
								<path class="st7" d="M58.9,150.2l11.4-1.3c-0.5-0.9-0.8-3.3-1-5.3c-0.2-2.7-0.1-5.9-0.1-5.9s-7.5-0.9-7.5,0
									c0,1.8-0.4,3.9-0.9,5.9C59.9,146.7,58.9,150.2,58.9,150.2z"/>
								<path class="st7" d="M58.7,151C58.7,151.1,58.7,150.9,58.7,151c0,0.5,0.2,0.5,0.5,1.4h11.9c0.3-0.9,0.4-0.9,0.5-1.5
									c0-0.1,0,0,0,0c0-2.8-2.9-5.1-6.4-5.1C61.5,145.8,58.7,148.2,58.7,151z"/>
							</g>
							<path class="st8" d="M69.3,143.3c-0.2-2.7-0.1-5.5-0.1-5.5s-7.5-0.9-7.5,0c0,1.8-0.4,3.7-0.9,5.5H69.3z"/>
						</g>
						<path class="st9" d="M58.7,150.1c0,0,0.2,1.8,0.5,1.8h11.9c0.3,0,0.4-1.8,0.5-1.8H58.7z"/>
					</g>
					<path class="st10" d="M62.9,146.7c0.9-1.2,3-0.8,4,0c0.2,0.1,0,0.3-0.2,0.3c-0.6-0.1-1.1-0.4-1.8-0.5c-0.7,0-1.2,0.4-1.9,0.4
						C63,147.1,62.8,146.9,62.9,146.7z"/>
					<path class="st10" d="M63.3,148c1-0.7,2.9-0.9,3.8,0.1c0.1,0.1,0,0.4-0.2,0.3c-0.6-0.2-1.3-0.2-1.8-0.2c-0.6,0-1.1,0.4-1.7,0.3
						C63.1,148.4,63.1,148.1,63.3,148z"/>
				</g>
				<g>
					<g>
						<path class="st7" d="M57.2,100c0.4-0.2,9.8-5.8,9.8-5.8l8.8,0.1v8.3c-2.9,5.3-8.1,5.1-10,6.3c1.6,7.4,3.4,26,4.3,33.2H59.9
							C56.6,124.1,48,104.7,57.2,100z"/>
					</g>
				</g>
			</g>
			<path class="st7" d="M90.6,102.1c-0.5,2.6-21.9,1.7-24.2,0.6c-1.6-0.8-0.7-8.1-0.1-12.6c0.3-2.1,0.6-3.5,0.6-3.5l22.6,0.2
				c0,0,0.1,1.2,0.3,2.8C90.3,93.5,91,100.3,90.6,102.1z"/>
			<g>
				<path class="st11" d="M87.4,90.7c0.8-0.3,1.6-0.7,2.4-1.2C89.7,88,89.5,87,89.5,87h-2.9C86.9,88.2,87.1,89.4,87.4,90.7z"/>
				<path class="st11" d="M84.4,91.5c-0.8,0.2-1.7,0.4-2.5,0.5c-2.7,0.4-5.2,0.3-7.6,0c-0.7-0.1-1.4-0.2-2.1-0.4
					c0.2-1.7,0.2-3.3,0.3-5l10.7,0.1C83.6,88.3,84,89.9,84.4,91.5z"/>
				<path class="st11" d="M69.4,86.8h-2.5c0,0-0.3,1.3-0.6,3.2c0.8,0.3,1.7,0.6,2.7,1C68.9,89.6,69.1,88.2,69.4,86.8z"/>
				<path class="st12" d="M82,92c-2.7,0.4-5.2,0.3-7.6,0L74,87.3l7.6-0.6L82,92z"/>
			</g>
			<g>
				<path class="st13" d="M62.7,51.6c0,0,16.1-3,31.5-0.4c0,0-3.4,29.3-4.6,35.5c0,0-12.1,3-22.6-0.2C66.9,86.5,62.5,57.3,62.7,51.6
					z"/>
				<path class="st14" d="M84,49.8c0,2.7-2.8,4.9-5.5,4.9l0,0c-2.7,0-5.5-2.2-5.5-4.9v-6.2c0-2.7,2.8-4.9,5.5-4.9l0,0
					c2.7,0,5.5,2.2,5.5,4.9V49.8z"/>
				<g>
					<path class="st15" d="M78.7,58.5c0,0.4-0.3,0.7-0.7,0.7c-0.4,0-0.7-0.3-0.7-0.7s0.3-0.7,0.7-0.7C78.4,57.8,78.7,58.1,78.7,58.5
						z"/>
					<path class="st15" d="M78.7,65.7c0,0.4-0.3,0.7-0.7,0.7c-0.4,0-0.7-0.3-0.7-0.7c0-0.4,0.3-0.7,0.7-0.7
						C78.4,65,78.7,65.3,78.7,65.7z"/>
					<path class="st15" d="M78.7,80.2c0,0.4-0.3,0.7-0.7,0.7c-0.4,0-0.7-0.3-0.7-0.7c0-0.4,0.3-0.7,0.7-0.7
						C78.4,79.5,78.7,79.8,78.7,80.2z"/>
					<path class="st15" d="M78.7,72.9c0,0.4-0.3,0.7-0.7,0.7c-0.4,0-0.7-0.3-0.7-0.7c0-0.4,0.3-0.7,0.7-0.7
						C78.4,72.2,78.7,72.5,78.7,72.9z"/>
				</g>
				<g>
					<path class="st16" d="M73.2,46.8l-3.8,4l3.2,8.5l5.4-4.6C78,54.7,73.8,50.2,73.2,46.8z"/>
					<path class="st16" d="M82.9,46.8l3.8,4l-3.2,8.5L78,54.7C78,54.7,82.2,50.2,82.9,46.8z"/>
				</g>
			</g>
			<g>
				<g>
					<path class="st17" d="M90.1,36.7c0,4.1-4.3,7.4-7.2,8.9c-2.9,1.5-5.4,1-5.4,1c-11.5-2.5-10.7-8-11.4-12.5
						c-0.3-2.2-0.6-6.4,0.4-11.5c0.1-0.7,0.3-1.3,0.6-1.9c1.8-3.7,6-5.1,6-5.1c2.5-0.9,5.4-1.1,8-0.6c3.8,0.7,6.7,2.6,7.7,6.5
						c0.3,1.2,0.5,2.5,0.6,3.8c0.3,2.6,0.5,5.2,0.6,7.9C90,34.3,90,35.5,90.1,36.7z"/>
				</g>
				<path class="st18" d="M78,25.3c0,0-0.9-0.8-0.8,2.2c0,3,0.4,6.1,0.4,6.1s-2.1-1-1.3,0.6c0.4,0.9,1.3,1.3,2.2,1.4
					c0.8,0.2,1.3-0.1,1.8-0.7c0.2-0.2,1.4-1.6,1-1.9c-0.2-0.2-1.2,0.3-1.5,0.4C79.7,33.5,79.4,24.6,78,25.3z"/>
				<path class="st19" d="M81.4,23.2c0,0,5.2-1,6.8,2.8c0,0-5.8-1.7-6.9-0.9L81.4,23.2z"/>
				<path class="st19" d="M75.2,23.7c0,0-5.1-1.4-7,2.3c0,0,5.9-1.4,7-0.4V23.7z"/>
				<g>
					<path class="st15" d="M69.4,29.8c0.1,1.5,1.5,2.6,3.2,2.5s2.9-1.4,2.8-2.9s-1.5-2.6-3.2-2.5C70.6,27,69.3,28.3,69.4,29.8z"/>
					<g>
						<path class="st20" d="M74.4,29.3c0.1,1.3-0.7,2.5-1.7,2.5c-1,0.1-1.9-0.9-2-2.3c-0.1-1.3,0.7-2.5,1.7-2.5S74.3,28,74.4,29.3z"
							/>
						<path class="st19" d="M73.9,29.4c0.1,0.9-0.5,1.7-1.2,1.8c-0.7,0-1.4-0.7-1.4-1.6c-0.1-0.9,0.5-1.7,1.2-1.8
							S73.8,28.4,73.9,29.4z"/>
						<path class="st15" d="M73.8,27.7c0,0.3-0.3,0.5-0.7,0.5c-0.4,0-0.7-0.2-0.7-0.4c0-0.3,0.3-0.5,0.7-0.5
							C73.5,27.3,73.8,27.5,73.8,27.7z"/>
					</g>
				</g>
				<g>
					<path class="st15" d="M81.4,29.4c0.1,1.5,1.5,2.7,3.2,2.5c1.7-0.1,2.9-1.4,2.8-2.9s-1.5-2.6-3.2-2.5
						C82.6,26.6,81.3,27.9,81.4,29.4z"/>
					<g>
						<path class="st20" d="M86,29c0.1,1.3-0.7,2.5-1.7,2.5c-1,0.1-1.9-0.9-2-2.3c-0.1-1.3,0.7-2.5,1.7-2.5S85.9,27.7,86,29z"/>
						<path class="st19" d="M85.4,29c0.1,0.9-0.5,1.7-1.2,1.8c-0.7,0-1.4-0.7-1.4-1.6c-0.1-0.9,0.5-1.7,1.2-1.8
							C84.7,27.4,85.4,28.1,85.4,29z"/>
						<path class="st15" d="M85.4,27.4c0,0.3-0.3,0.5-0.7,0.5c-0.4,0-0.7-0.2-0.7-0.4c0-0.3,0.3-0.5,0.7-0.5S85.4,27.2,85.4,27.4z"
							/>
					</g>
				</g>
				<path class="st21" d="M93.8,13.3c-0.7,0.9-1.8,1.9-3,2.1c1-1,1.9-2.4,1.8-3.9c0-0.1-0.1-0.1-0.2-0.1c-0.2,0.1-0.4,0.3-0.5,0.4
					c-0.9,0.8-2.4,0.8-3.4,0.4c-1.9-0.7-3.4-2-5.1-3c-1.8-1.1-3.9-1.8-6.1-1.7c-1.2,0-2.3,0.3-3.4,0.7c-2.7,1-5.9,2.9-6.6,5.9
					c-0.1,0.4-0.1,0.8-0.1,1.3c0,0.3,0.2,1.1,0.1,1.3c-0.1,0.1,0.1,0.2,0.1,0.2s0.1,0,0.1-0.1s0-0.1,0-0.1c1.3-1,3.4,3,4.2,3.6
					c3,2.5,7.2,2.8,10.7,1.9c3.9-1.1,8.3-3.8,10.6-7.1c0.4-0.5,0.7-1.1,1-1.7C94,13.3,93.9,13.2,93.8,13.3z"/>
				<g>
					<g>
						<path class="st22" d="M89.6,28.2c0,0,2.5-5.7,4.6-1.2c1.6,3.6-1.1,7-3.3,6.8C88.6,33.6,89.6,28.2,89.6,28.2z"/>
						<path class="st14" d="M89.7,29.1c0,0,1.9-3.6,2.8-2.3c1,1.3,1,3.1,1,3.1s-0.7-1.9-2-0.7c0,0,1.8,3-1.2,2.4
							C90.3,31.6,89,30.7,89.7,29.1z"/>
					</g>
				</g>
				<path class="st21" d="M70.2,16.2c0,0,0.3,4.6-1.6,6.9s-2.1,6.8-2.1,6.8s-7.1-9,1-14.3C67.4,15.7,69,15.1,70.2,16.2z"/>
				<path class="st21" d="M85.7,18.1c0,0,3.3,4.4,4,10.6c0,0,4.6-6.9,0.2-12.6C89.9,16,85.1,14,85.7,18.1z"/>
				<g>
					<g>
						<path class="st22" d="M66.6,29.1c0,0-2.5-5.7-4.6-1.2c-1.6,3.6,1.1,7,3.3,6.8C67.5,34.4,66.6,29.1,66.6,29.1z"/>
						<path class="st14" d="M66.4,30c0,0-1.9-3.6-2.8-2.3c-1,1.3-1,3.1-1,3.1s0.7-1.9,2-0.7c0,0-1.8,3,1.2,2.4
							C65.9,32.4,67.2,31.6,66.4,30z"/>
					</g>
				</g>
				<g>
					<g>
						
							<image style="overflow:visible;enable-background:new    ;" width="7" height="8" xlink:href="97DCADD8.png"  transform="matrix(1 0 0 1 68 26)">
						</image>
						
							<image style="overflow:visible;enable-background:new    ;" width="6" height="8" xlink:href="97DCADD9.png"  transform="matrix(1 0 0 1 82 26)">
						</image>
					</g>
					<path class="st6" d="M89.9,30.8c1-3,0.7-4.3,0.7-4.4l-0.1-0.2l-0.2-0.1c-0.2-0.1-4.5-1.8-9.2,0.4c-0.5,0.2-1,0.5-1.4,0.8v-0.1
						L78,27.3v-0.1L77.6,27c-0.5-0.3-1-0.5-1.6-0.7c-4.8-1.8-9.1,0.2-9.3,0.2l-0.2,0.1l-0.1,0.2c0,0.1-0.2,1.4,1,4.4
						c0.4,1.1,1.3,1.8,2.4,2.3c1.4,0.5,2.9,0.4,3,0.4c3.4-0.4,4-2,4.4-3.1c0-0.1,0-0.1,0.1-0.2c0.3-0.7,0.4-1.4,0.5-1.9
						c0.3-0.1,0.8-0.2,1.5,0c0.1,0.6,0.3,1.3,0.7,2.1c0,0.1,0,0.2,0,0.2c0.5,1.1,1.2,2.7,4.6,2.8c0.1,0,1.5,0,2.9-0.6
						C88.7,32.7,89.5,31.9,89.9,30.8z M72.7,32.9c0,0-1.3,0.1-2.5-0.3c-0.9-0.3-1.5-0.9-1.9-1.7c-0.8-1.9-0.9-3.1-0.9-3.5
						c1-0.4,4.5-1.5,8.2-0.1c0.4,0.2,0.8,0.3,1.2,0.5c0,0.4-0.1,1.3-0.5,2.5c0,0.1,0,0.1-0.1,0.2C75.9,31.5,75.5,32.6,72.7,32.9z
						 M87.2,32.3c-1.2,0.5-2.5,0.5-2.5,0.5c-2.8-0.1-3.3-1.2-3.7-2.2c0-0.1-0.1-0.1-0.1-0.2c-0.5-1.1-0.6-2.1-0.7-2.5
						c0.4-0.2,0.8-0.4,1.1-0.6c3.7-1.7,7.2-0.7,8.2-0.4c0,0.5,0,1.6-0.7,3.6C88.6,31.3,88,31.9,87.2,32.3z"/>
				</g>
				<path class="st23" d="M73,36.8c0,0,6.4,6.6,10.4-1C83.5,35.8,79.9,39.5,73,36.8z"/>
			</g>
			<g>
				<path class="st13" d="M62.7,52C62,52.1,44.9,63.2,43.3,78c0,0,2.7,8.7,22.4-16C65.7,62,65.7,51.8,62.7,52z"/>
				<path class="st13" d="M67.4,76.2C53.9,67.3,43.3,78,43.3,78c-1.8,3.2,16.6,3.6,24.1,2.9V76.2z"/>
				<path class="st17" d="M62.6,81.4c0,0,5.7-11.7,14.6-0.2L62.6,81.4z"/>
			</g>
			<g>
				<path class="st13" d="M94.2,52c0,0,6.9,11,13,14.9c6.9,4.3,18.2,8.7,18.2,8.7s4.5,4.5-0.1,5.1c-11.5,1.5-27.5-0.3-32.1-10.2
					C88.6,60.5,87.5,58.5,94.2,52z"/>
				<g>
					<path class="st7" d="M128.2,81.2c-0.7-3.2-2.9-5.5-5.5-5.5s-4.9,2.3-5.5,5.5H128.2z"/>
					<path class="st22" d="M119.6,78.6c0,0.7-0.8,1.3-1.7,1.3s-1.7-0.6-1.7-1.3c0-0.7,0.8-1.3,1.7-1.3S119.6,77.9,119.6,78.6z"/>
					<path class="st22" d="M122,75.7c0,1-0.5,1.9-1.2,1.9c-0.6,0-1.2-0.8-1.2-1.9c0-1,0.5-1.9,1.2-1.9C121.4,73.8,122,74.6,122,75.7
						z"/>
					<path class="st22" d="M125.3,75.8c-0.4,1-1.1,1.6-1.7,1.4s-0.8-1.2-0.4-2.2s1.1-1.6,1.7-1.4C125.5,73.9,125.7,74.8,125.3,75.8z
						"/>
					<path class="st22" d="M128.1,78.4c-0.7,0.8-1.6,1.1-2.1,0.7s-0.3-1.4,0.3-2.2c0.7-0.8,1.6-1.1,2.1-0.7
						C128.9,76.6,128.7,77.6,128.1,78.4z"/>
					<path class="st22" d="M128.9,81c-1,0.3-2,0.1-2.2-0.5s0.5-1.4,1.5-1.7c1-0.3,2-0.1,2.2,0.5C130.5,79.9,129.9,80.7,128.9,81z"/>
				</g>
			</g>
		</g>
		<g>
			<g>
				<polygon class="st24" points="24.9,153.1 39.5,87.5 36,86.3 21.2,153.1 				"/>
				<polygon class="st24" points="140.8,153.1 126.2,87.5 129.7,86.3 144.5,153.1 				"/>
			</g>
			<rect x="10.2" y="80.7" class="st25" width="145.3" height="7.1"/>
		</g>
		<g>
			<path class="st7" d="M107.7,76.3c0,1-0.8,1.8-1.8,1.8H72.8c-1,0-1.8-0.8-1.8-1.8V58.2c0-1,0.8-1.8,1.8-1.8H106
				c1,0,1.8,0.8,1.8,1.8v18.1H107.7z"/>
			<path class="st7" d="M68.1,77.9L68.1,77.9c0,1.6,1.2,2.9,2.8,2.9h37c1.5,0,2.8-1.2,2.8-2.8v-0.1H68.1z"/>
			<path class="st26" d="M91.5,67.4c0,1.2-1,2.2-2.2,2.2s-2.2-1-2.2-2.2s1-2.2,2.2-2.2C90.6,65.2,91.5,66.2,91.5,67.4z"/>
		</g>
	</g>
</g>
<g id="DESIGNED_BY_FREEPIK" class="st0">
</g>
</svg>
