<?xml version="1.0" encoding="utf-8"?>
<!-- Generator: Adobe Illustrator 24.0.1, SVG Export Plug-In . SVG Version: 6.00 Build 0)  -->
<svg version="1.1" id="Layer_1" xmlns="http://www.w3.org/2000/svg" xmlns:xlink="http://www.w3.org/1999/xlink" x="0px" y="0px"
	 viewBox="0 0 246.5 220.38" style="enable-background:new 0 0 246.5 220.38;" xml:space="preserve">
<style type="text/css">
	.st0{display:none;}
	.st1{display:inline;}
	.st2{fill:#7AC7C7;}
	.st3{fill:#914EDA;}
	.st4{opacity:0.1;}
	.st5{fill:#E53399;}
	.st6{fill:#FF76C4;}
	.st7{fill:#73C139;}
	.st8{fill:#4D9B12;}
	.st9{fill:url(#SVGID_1_);}
	.st10{fill:#FFE85F;}
	.st11{fill:url(#SVGID_2_);}
	.st12{fill:url(#SVGID_3_);}
	.st13{fill:#95C4DE;}
	.st14{fill:#DEF6FF;}
	.st15{fill:url(#SVGID_4_);}
	.st16{fill:#A9D6EA;}
	.st17{fill:#72B5D3;}
	.st18{fill:url(#SVGID_5_);}
	.st19{fill:#FFFFFE;}
	.st20{fill:#ED8001;}
	.st21{fill:#58361A;}
	.st22{fill:#F79534;}
	.st23{fill:#FACD00;}
	.st24{enable-background:new    ;}
	.st25{fill:#649DD5;}
	.st26{fill:#8FC1EA;}
	.st27{opacity:0.8;}
	.st28{fill:#E89818;}
	.st29{fill:#111114;}
	.st30{fill:#24323D;}
	.st31{fill:#2B3C4B;}
	.st32{fill:#314656;}
	.st33{fill:#2A3944;}
	.st34{fill:#EFB185;}
	.st35{fill:#DEF0F9;}
	.st36{fill:#C1DBE5;}
	.st37{fill:#F3FCFF;}
	.st38{fill:#DD9569;}
	.st39{fill:#E6A376;}
	.st40{fill:#221101;}
	.st41{fill:#341C09;}
	.st42{fill:#0A1014;}
	.st43{fill:#131C24;}
	.st44{fill:#1D1D21;}
	.st45{fill:#161619;}
	.st46{fill:#779F29;}
	.st47{fill:#1D2833;}
	.st48{fill:#9CBC35;}
	.st49{fill:#FEFFFF;}
	.st50{fill:#F2B78F;}
	.st51{fill:#CC963E;}
	.st52{fill:#F7C479;}
	.st53{fill:#B4B9BC;}
	.st54{fill:#7D8183;}
	.st55{fill:#E3E5E5;}
	.st56{fill:#BDBBBB;}
	.st57{fill:#D2D0D0;}
	.st58{fill:#D5DFE6;}
	.st59{fill:#E9F0F4;}
	.st60{fill:#8CB230;}
	.st61{display:inline;fill:#FFFFFF;}
</style>
<g>
	<g class="st0">
		<g class="st1">
			<rect x="-2" y="-23.94" class="st2" width="250" height="250"/>
		</g>
	</g>
	<ellipse class="st3" cx="123" cy="138.46" rx="100.83" ry="58.21"/>
	<g>
		<g>
			<g>
				<g class="st4">
					<g>
						<path d="M39.24,86.77c-8.2,4.73-8.22,12.39-0.11,17.1c8.12,4.73,21.31,4.73,29.51-0.01c8.17-4.71,8.21-12.36,0.1-17.07
							C60.62,82.08,47.4,82.06,39.24,86.77z"/>
					</g>
				</g>
				<g>
					<g>
						<path class="st5" d="M37.43,55.58c-6.31,3.65-6.34,9.55-0.08,13.2c6.28,3.64,16.47,3.64,22.78,0
							c6.32-3.65,6.35-9.55,0.08-13.2C53.95,51.94,43.75,51.94,37.43,55.58z"/>
					</g>
					<path class="st6" d="M37.36,68.78c6.28,3.64,16.47,3.64,22.78,0c6.32-3.65,6.35-9.55,0.08-13.2c-6.26-3.64-16.47-3.65-22.78,0
						C31.12,59.23,31.09,65.14,37.36,68.78z M39.49,56.77c5.18-2.99,13.55-2.99,18.69,0c5.15,2.99,5.12,7.84-0.06,10.82
						c-5.18,3-13.55,3-18.69,0C34.29,64.61,34.31,59.76,39.49,56.77z"/>
					<g>
						<path class="st7" d="M58.16,38.57c0,0.01,0,0.02,0,0.03c0.01,0.05,0.03,0.11,0.06,0.17c0,0.01,0.01,0.03,0.02,0.04
							c0.03,0.05,0.07,0.12,0.12,0.17c0.03,0.04,0.07,0.07,0.11,0.11c0.03,0.04,0.06,0.06,0.1,0.09c0.14,0.11,0.32,0.21,0.5,0.28
							c0.03,0.01,0.05,0.02,0.08,0.03c0.19,0.07,0.38,0.12,0.59,0.15c0.01,0,0.02,0,0.02,0c0.22,0.03,0.44,0.04,0.64,0.02
							c0.01,0,0.01,0,0.03-0.01c0.21-0.02,0.41-0.06,0.59-0.14c0.37-0.15,0.57-0.39,0.61-0.65l-6.19,47.02
							c-0.03,0.26-0.24,0.5-0.61,0.65c-0.08,0.04-0.18,0.07-0.27,0.09c-0.07,0.02-0.15,0.03-0.22,0.04c-0.03,0-0.07,0.01-0.11,0.01
							c-0.01,0-0.01,0-0.03,0c-0.01,0-0.03,0.01-0.05,0.01c-0.06,0-0.11,0.01-0.17,0.01l0-0.02l0,0l0,0.02c-0.06,0-0.12,0-0.17,0
							c-0.06,0-0.11-0.01-0.17-0.01c-0.02,0-0.04-0.01-0.06-0.01c-0.01,0-0.02,0-0.02,0c-0.03-0.01-0.06-0.01-0.09-0.01
							c-0.06-0.01-0.13-0.02-0.19-0.04c-0.07-0.02-0.14-0.03-0.22-0.06c-0.03-0.01-0.06-0.02-0.09-0.04
							c-0.03-0.01-0.06-0.02-0.08-0.03c-0.05-0.02-0.1-0.04-0.15-0.06c-0.13-0.06-0.25-0.14-0.36-0.22c0,0-0.01-0.01-0.02-0.01
							c-0.03-0.02-0.05-0.05-0.07-0.07c-0.04-0.03-0.09-0.07-0.12-0.11c0-0.01-0.01-0.01-0.01-0.01c-0.03-0.04-0.07-0.09-0.09-0.13
							c0-0.01-0.01-0.02-0.01-0.03c0-0.01-0.01-0.01-0.01-0.03c-0.01-0.02-0.02-0.03-0.03-0.05c-0.01-0.03-0.03-0.07-0.03-0.1
							c0,0,0-0.01,0-0.01c0-0.01,0-0.02-0.01-0.03c0-0.02-0.01-0.04-0.01-0.06c0-0.03,0-0.07,0-0.1c0-0.01,0-0.01,0-0.02l6.19-47.02
							C58.15,38.46,58.15,38.51,58.16,38.57z"/>
						<g>
							<path class="st8" d="M58.77,37.75c-0.74,0.3-0.83,0.94-0.2,1.42c0.62,0.49,1.72,0.64,2.46,0.33c0.73-0.3,0.82-0.94,0.2-1.42
								C60.6,37.6,59.5,37.44,58.77,37.75z"/>
						</g>
					</g>
					<g>
						<path class="st7" d="M48.06,36.39c0,0.01,0,0.02,0,0.03c0.01,0.05,0.03,0.11,0.06,0.17c0.01,0.01,0.01,0.02,0.02,0.03
							c0.03,0.06,0.07,0.11,0.12,0.17c0.03,0.04,0.08,0.07,0.11,0.11c0.03,0.03,0.06,0.06,0.1,0.09c0.15,0.11,0.31,0.21,0.5,0.28
							c0.03,0.01,0.06,0.02,0.08,0.04c0.19,0.06,0.39,0.12,0.59,0.14c0.01,0,0.02,0,0.02,0c0.22,0.03,0.43,0.03,0.64,0.02
							c0.01,0,0.02,0,0.03,0c0.21-0.03,0.41-0.07,0.59-0.14c0.37-0.15,0.58-0.39,0.61-0.65l-6.19,47.02
							c-0.04,0.26-0.24,0.5-0.61,0.64c-0.08,0.04-0.17,0.07-0.27,0.09c-0.07,0.02-0.15,0.04-0.22,0.04c-0.04,0-0.07,0.01-0.11,0.01
							c-0.01,0.01-0.02,0.01-0.03,0.01c-0.02,0-0.04,0.01-0.05,0.01c-0.06,0-0.12,0.01-0.18,0.01l0.01-0.02l0,0l-0.01,0.02
							c-0.06,0-0.11,0-0.17,0c-0.06,0-0.12-0.01-0.17-0.02c-0.02,0-0.04-0.01-0.06-0.01c-0.01,0-0.02,0-0.02,0
							c-0.03,0-0.06,0-0.09-0.01c-0.06-0.01-0.13-0.03-0.19-0.04c-0.07-0.01-0.15-0.04-0.22-0.06c-0.03-0.01-0.06-0.03-0.09-0.04
							c-0.03-0.01-0.05-0.02-0.08-0.03c-0.05-0.02-0.1-0.04-0.14-0.06c-0.13-0.06-0.25-0.14-0.36-0.22c-0.01,0-0.02-0.01-0.02-0.01
							c-0.03-0.03-0.05-0.05-0.08-0.08c-0.04-0.04-0.08-0.07-0.12-0.11c0,0,0-0.01-0.01-0.01c-0.04-0.04-0.07-0.09-0.09-0.13
							c0-0.01-0.01-0.02-0.01-0.03c-0.01-0.01-0.01-0.02-0.02-0.03c-0.01-0.02-0.02-0.03-0.02-0.05c-0.02-0.04-0.03-0.07-0.04-0.11
							c0-0.01,0-0.01,0-0.01c0-0.01,0-0.02,0-0.03c0-0.02-0.01-0.04-0.01-0.06c0-0.03,0-0.07,0-0.1c0-0.01,0-0.02,0-0.02l6.19-47.02
							C48.05,36.27,48.05,36.32,48.06,36.39z"/>
						<g>
							<path class="st8" d="M48.67,35.56c-0.73,0.3-0.82,0.94-0.2,1.42c0.62,0.49,1.72,0.64,2.45,0.33c0.73-0.3,0.83-0.94,0.2-1.43
								C50.5,35.41,49.4,35.26,48.67,35.56z"/>
						</g>
					</g>
					<g>
						<path class="st7" d="M31.32,41.36c0.01,0.01,0.02,0.01,0.02,0.02c0.03,0.04,0.07,0.09,0.12,0.13
							c0.01,0.01,0.02,0.02,0.03,0.02c0.05,0.04,0.11,0.08,0.17,0.11c0.05,0.02,0.1,0.03,0.15,0.05c0.04,0.02,0.08,0.03,0.13,0.04
							c0.18,0.04,0.37,0.05,0.57,0.04c0.03,0,0.06,0,0.09-0.01c0.19-0.02,0.4-0.06,0.59-0.12c0.01,0,0.02,0,0.03,0
							c0.2-0.07,0.4-0.16,0.58-0.26c0.01-0.01,0.02-0.01,0.03-0.01c0.18-0.11,0.34-0.24,0.47-0.38c0.27-0.29,0.36-0.59,0.27-0.84
							l14.48,45.16c0.08,0.25-0.01,0.55-0.27,0.85c-0.06,0.07-0.13,0.13-0.2,0.19c-0.06,0.04-0.12,0.09-0.18,0.13
							c-0.03,0.02-0.06,0.04-0.09,0.06c-0.01,0.01-0.02,0.01-0.03,0.01c-0.01,0.01-0.03,0.02-0.05,0.03
							c-0.05,0.03-0.1,0.05-0.15,0.08l0-0.02l0,0l0,0.02c-0.05,0.02-0.1,0.05-0.16,0.07c-0.05,0.02-0.11,0.04-0.17,0.06
							c-0.01,0.01-0.04,0.01-0.06,0.02c-0.01,0-0.01,0-0.03,0.01c-0.02,0.01-0.05,0.02-0.08,0.03c-0.07,0.02-0.13,0.04-0.19,0.05
							c-0.08,0.01-0.15,0.03-0.22,0.04c-0.04,0.01-0.06,0-0.1,0.01c-0.02,0-0.06,0-0.09,0c-0.05,0-0.1,0.01-0.16,0.01
							c-0.14,0-0.28-0.01-0.42-0.04c-0.01,0-0.01,0-0.02,0c-0.04-0.01-0.07-0.02-0.1-0.03c-0.05-0.02-0.1-0.03-0.14-0.05
							c-0.01,0-0.01,0-0.02,0c-0.05-0.02-0.09-0.05-0.14-0.08c-0.01-0.01-0.02-0.01-0.02-0.02c-0.01-0.01-0.02-0.01-0.03-0.02
							c-0.01-0.01-0.03-0.02-0.04-0.04c-0.03-0.02-0.06-0.05-0.08-0.08c0,0,0-0.01,0-0.01c0-0.01-0.01-0.02-0.02-0.02
							c-0.01-0.02-0.03-0.03-0.03-0.05c-0.02-0.03-0.03-0.06-0.04-0.1c0,0,0-0.01-0.01-0.01L31.24,41.2
							C31.26,41.26,31.28,41.31,31.32,41.36z"/>
						<g>
							<path class="st8" d="M31.51,40.35c-0.54,0.58-0.34,1.19,0.43,1.37c0.77,0.17,1.83-0.17,2.36-0.75
								c0.53-0.59,0.34-1.2-0.43-1.37C33.11,39.43,32.05,39.76,31.51,40.35z"/>
						</g>
					</g>
					<g>
						
							<linearGradient id="SVGID_1_" gradientUnits="userSpaceOnUse" x1="376.8119" y1="64.9466" x2="387.3311" y2="64.9466" gradientTransform="matrix(-1 0 0 1 434.0391 0)">
							<stop  offset="0" style="stop-color:#FFDF02"/>
							<stop  offset="0.1253" style="stop-color:#F9D402"/>
							<stop  offset="0.4425" style="stop-color:#ECBD01"/>
							<stop  offset="0.7411" style="stop-color:#E4AF00"/>
							<stop  offset="1" style="stop-color:#E1AA00"/>
						</linearGradient>
						<path class="st9" d="M46.77,41.54c0,0,0,0.01,0.01,0.02c0.03,0.05,0.06,0.1,0.1,0.15c0.01,0.01,0.02,0.02,0.02,0.02
							c0.05,0.05,0.1,0.09,0.16,0.13c0.04,0.02,0.09,0.05,0.14,0.07c0.04,0.02,0.07,0.04,0.11,0.07c0.17,0.07,0.37,0.1,0.56,0.12
							c0.03,0,0.06,0.01,0.09,0.01c0.2,0.01,0.4,0.01,0.61-0.02c0,0,0.01,0,0.02,0c0.21-0.03,0.42-0.09,0.62-0.16
							c0.01,0,0.02-0.01,0.02-0.01c0.2-0.08,0.38-0.18,0.53-0.3c0.32-0.25,0.44-0.53,0.41-0.79l7.04,46.9
							c0.04,0.26-0.1,0.54-0.41,0.79c-0.07,0.06-0.15,0.11-0.23,0.16c-0.06,0.04-0.13,0.07-0.2,0.1c-0.03,0.01-0.07,0.03-0.1,0.04
							c-0.01,0-0.01,0-0.02,0.01c-0.02,0.01-0.04,0.02-0.06,0.02c-0.05,0.02-0.11,0.04-0.17,0.05c-0.05,0.02-0.11,0.03-0.17,0.04
							c-0.06,0.01-0.11,0.03-0.17,0.03c-0.02,0.01-0.04,0.01-0.07,0.01c-0.01,0-0.01,0.01-0.02,0.01c-0.03,0-0.06,0.01-0.09,0.01
							c-0.06,0.01-0.13,0.01-0.2,0.02c-0.07,0-0.15,0.01-0.22,0c-0.04,0-0.07-0.01-0.1-0.01c-0.03,0-0.06,0-0.08-0.01
							c-0.05,0-0.1,0-0.16-0.02c-0.15-0.02-0.28-0.06-0.41-0.11c-0.01-0.01-0.02-0.01-0.03-0.01c-0.03-0.01-0.06-0.03-0.09-0.05
							c-0.05-0.03-0.1-0.04-0.14-0.07c0,0-0.01,0-0.01-0.01c-0.05-0.03-0.09-0.07-0.13-0.1c-0.01-0.01-0.01-0.02-0.03-0.02
							c-0.01-0.01-0.01-0.02-0.02-0.03c-0.01-0.01-0.03-0.03-0.04-0.04c-0.03-0.03-0.04-0.06-0.06-0.09c-0.01,0-0.01-0.01-0.01-0.01
							c0-0.01,0-0.01-0.01-0.02c-0.01-0.02-0.02-0.04-0.03-0.06c-0.01-0.03-0.02-0.06-0.03-0.1c0,0,0,0,0-0.01l-7.04-46.9
							C46.72,41.42,46.74,41.49,46.77,41.54z"/>
						<g>
							<path class="st10" d="M47.12,40.58c-0.62,0.49-0.53,1.13,0.2,1.42c0.73,0.29,1.83,0.13,2.46-0.36
								c0.62-0.49,0.53-1.13-0.2-1.42C48.84,39.92,47.74,40.08,47.12,40.58z"/>
						</g>
					</g>
					<g>
						
							<linearGradient id="SVGID_2_" gradientUnits="userSpaceOnUse" x1="373.8287" y1="86.1663" x2="384.3476" y2="86.1663" gradientTransform="matrix(-0.9906 -0.137 -0.137 0.9906 431.1068 27.3133)">
							<stop  offset="0" style="stop-color:#FFDF02"/>
							<stop  offset="0.1253" style="stop-color:#F9D402"/>
							<stop  offset="0.4425" style="stop-color:#ECBD01"/>
							<stop  offset="0.7411" style="stop-color:#E4AF00"/>
							<stop  offset="1" style="stop-color:#E1AA00"/>
						</linearGradient>
						<path class="st11" d="M41.83,36.84c0,0.01,0,0.01,0.01,0.02c0.02,0.05,0.05,0.1,0.08,0.16c0.01,0.01,0.02,0.02,0.02,0.03
							c0.04,0.05,0.08,0.1,0.14,0.15c0.04,0.03,0.08,0.06,0.13,0.09c0.04,0.02,0.07,0.05,0.11,0.07c0.16,0.09,0.34,0.15,0.54,0.2
							c0.03,0,0.06,0.01,0.08,0.02c0.2,0.04,0.4,0.07,0.61,0.07c0,0,0.02,0,0.02,0c0.21,0,0.44-0.03,0.64-0.08c0,0,0.01,0,0.02,0
							c0.21-0.05,0.4-0.13,0.57-0.22c0.35-0.2,0.51-0.47,0.51-0.73l0.55,47.42c0,0.26-0.17,0.52-0.51,0.73
							c-0.08,0.04-0.17,0.09-0.25,0.13c-0.07,0.03-0.14,0.05-0.22,0.07c-0.03,0.01-0.06,0.02-0.1,0.03c-0.01,0-0.01,0-0.02,0
							c-0.02,0-0.04,0.01-0.06,0.01c-0.06,0.01-0.11,0.02-0.17,0.03c-0.06,0.01-0.12,0.01-0.17,0.02c-0.06,0.01-0.12,0.01-0.17,0.01
							c-0.02,0-0.04,0-0.07,0c-0.01,0-0.01,0-0.02,0c-0.03,0-0.06,0-0.09,0c-0.07,0-0.13,0-0.2-0.01c-0.08-0.01-0.15-0.02-0.23-0.03
							c-0.03-0.01-0.06-0.02-0.1-0.02c-0.02-0.01-0.05-0.02-0.08-0.02c-0.05-0.01-0.1-0.02-0.16-0.04
							c-0.14-0.04-0.27-0.09-0.39-0.16c-0.01-0.01-0.01-0.01-0.02-0.02c-0.03-0.02-0.06-0.04-0.09-0.06
							c-0.05-0.03-0.09-0.06-0.13-0.09c0,0-0.01,0-0.01-0.01c-0.04-0.04-0.08-0.08-0.11-0.12c-0.01-0.01-0.01-0.02-0.02-0.03
							c-0.01-0.01-0.01-0.02-0.02-0.03c-0.01-0.02-0.02-0.03-0.03-0.05c-0.02-0.03-0.03-0.07-0.05-0.1c0-0.01,0-0.01,0-0.02
							c0-0.01,0-0.01,0-0.02c-0.01-0.02-0.02-0.04-0.02-0.07c-0.01-0.03-0.01-0.06-0.01-0.1c0-0.01,0-0.01,0-0.02L41.8,36.65
							C41.8,36.71,41.81,36.78,41.83,36.84z"/>
						<g>
							<path class="st10" d="M42.31,35.93c-0.68,0.4-0.68,1.04,0,1.43c0.69,0.39,1.8,0.38,2.48-0.02c0.69-0.4,0.68-1.05,0-1.44
								C44.1,35.52,43,35.53,42.31,35.93z"/>
						</g>
					</g>
					<path class="st6" d="M60.14,68.78c-6.31,3.64-16.51,3.64-22.78,0c-4.33-2.52-5.65-6.12-3.97-9.3h3.07
						c-1.78,2.73-0.8,5.92,2.97,8.11c5.15,3,13.51,3,18.69,0c3.8-2.2,4.82-5.39,3.06-8.11h3.04C65.86,62.66,64.5,66.26,60.14,68.78z
						"/>
					
						<linearGradient id="SVGID_3_" gradientUnits="userSpaceOnUse" x1="385.2061" y1="68.0595" x2="385.2061" y2="108.1356" gradientTransform="matrix(-1 0 0 1 434.0391 0)">
						<stop  offset="0" style="stop-color:#FF4CAA"/>
						<stop  offset="1" style="stop-color:#E53399"/>
					</linearGradient>
					<path class="st12" d="M32.72,62.7c0.02,0.17,0.03,0.33,0.06,0.5c0.02,0.14,0.07,0.27,0.1,0.41c0.04,0.16,0.08,0.32,0.14,0.49
						c0.05,0.13,0.1,0.25,0.16,0.38c0.07,0.17,0.15,0.34,0.24,0.51c0.07,0.12,0.14,0.24,0.21,0.36c0.12,0.19,0.24,0.38,0.38,0.57
						c0.14,0.18,0.27,0.35,0.42,0.53c0.04,0.04,0.07,0.08,0.11,0.12c0.21,0.23,0.44,0.45,0.68,0.67c0.16,0.14,0.33,0.28,0.5,0.42
						c0.15,0.12,0.29,0.24,0.44,0.35c0.19,0.13,0.38,0.26,0.58,0.39c0.2,0.13,0.4,0.26,0.61,0.4c0.49,0.28,0.99,0.53,1.52,0.77
						c0.15,0.07,0.31,0.13,0.46,0.2c0.41,0.17,0.83,0.33,1.26,0.48c0.15,0.06,0.31,0.11,0.46,0.16c0.27,0.09,0.55,0.16,0.83,0.23
						c0.21,0.06,0.42,0.12,0.64,0.17c0.29,0.07,0.59,0.13,0.88,0.19c0.21,0.04,0.41,0.09,0.62,0.12c0.6,0.11,1.21,0.19,1.83,0.26
						c0.19,0.02,0.38,0.03,0.57,0.04c0.36,0.03,0.73,0.06,1.09,0.08c0.23,0.01,0.46,0.01,0.69,0.02c0.29,0.01,0.59,0.01,0.88,0.01
						c0.25-0.01,0.5-0.01,0.75-0.02c0.27-0.01,0.54-0.03,0.81-0.04c0.25-0.01,0.49-0.04,0.74-0.06c0.27-0.02,0.54-0.06,0.81-0.09
						c0.24-0.03,0.48-0.06,0.72-0.1c0.29-0.04,0.57-0.09,0.85-0.15c0.22-0.04,0.44-0.09,0.66-0.13c0.34-0.07,0.68-0.16,1.01-0.25
						c0.18-0.05,0.37-0.09,0.55-0.14c0.59-0.17,1.17-0.37,1.73-0.59c0.28-0.11,0.57-0.23,0.84-0.36c0.12-0.05,0.26-0.1,0.39-0.17
						c0.41-0.19,0.8-0.39,1.18-0.61c3.18-1.84,4.77-4.25,4.76-6.65l0.09,31.62c0,2.41-1.58,4.81-4.76,6.64
						c-0.38,0.22-0.78,0.43-1.19,0.62c-0.14,0.07-0.29,0.12-0.43,0.19c-0.24,0.11-0.47,0.22-0.72,0.31
						c-0.03,0.01-0.05,0.01-0.08,0.02c-0.56,0.22-1.14,0.42-1.74,0.59c-0.04,0.01-0.09,0.03-0.13,0.04c-0.13,0.04-0.27,0.06-0.4,0.1
						c-0.34,0.09-0.68,0.17-1.02,0.25c-0.09,0.02-0.17,0.04-0.26,0.06c-0.13,0.03-0.26,0.04-0.39,0.07
						c-0.29,0.05-0.57,0.1-0.86,0.15c-0.11,0.01-0.23,0.04-0.35,0.06c-0.12,0.02-0.25,0.03-0.38,0.04
						c-0.27,0.03-0.54,0.07-0.82,0.09c-0.12,0.01-0.25,0.03-0.37,0.04c-0.12,0-0.23,0-0.35,0.02c-0.28,0.02-0.56,0.03-0.83,0.04
						c-0.14,0.01-0.27,0.02-0.4,0.02c-0.11,0-0.21,0-0.32,0c-0.3,0-0.59,0-0.89,0c-0.14,0-0.29,0-0.43,0
						c-0.09,0-0.18-0.02-0.26-0.02c-0.37-0.01-0.74-0.04-1.11-0.07c-0.14-0.01-0.28-0.01-0.42-0.02c-0.04-0.01-0.08-0.01-0.13-0.02
						c-0.62-0.07-1.23-0.15-1.84-0.25c-0.03-0.01-0.06-0.01-0.09-0.01c-0.17-0.03-0.34-0.07-0.51-0.11
						c-0.31-0.06-0.61-0.12-0.91-0.2c-0.21-0.05-0.41-0.11-0.62-0.17c-0.29-0.08-0.56-0.15-0.84-0.24
						c-0.05-0.02-0.12-0.03-0.17-0.05c-0.1-0.03-0.18-0.07-0.28-0.1c-0.44-0.15-0.86-0.31-1.28-0.49c-0.15-0.07-0.3-0.13-0.45-0.19
						c-0.53-0.24-1.04-0.49-1.52-0.77c-0.06-0.04-0.13-0.07-0.2-0.11c-0.14-0.09-0.27-0.19-0.41-0.28c-0.2-0.13-0.4-0.25-0.58-0.39
						c-0.16-0.12-0.3-0.25-0.46-0.36c-0.17-0.13-0.33-0.27-0.49-0.4c-0.03-0.03-0.07-0.06-0.1-0.08c-0.21-0.19-0.4-0.39-0.58-0.59
						c-0.03-0.04-0.07-0.08-0.1-0.12c-0.11-0.12-0.22-0.24-0.31-0.36c-0.04-0.06-0.07-0.11-0.11-0.17
						c-0.14-0.18-0.26-0.37-0.38-0.56c-0.05-0.08-0.11-0.16-0.16-0.24c-0.02-0.04-0.04-0.08-0.06-0.12
						c-0.09-0.17-0.16-0.33-0.23-0.5c-0.05-0.1-0.11-0.2-0.14-0.3c-0.01-0.03-0.02-0.07-0.03-0.11c-0.06-0.15-0.09-0.3-0.13-0.46
						c-0.03-0.11-0.08-0.23-0.1-0.34c-0.01-0.03-0.01-0.06-0.02-0.09c-0.03-0.16-0.04-0.33-0.05-0.49
						c-0.01-0.12-0.04-0.23-0.04-0.35c0-0.05,0-0.1,0-0.14l-0.09-31.62C32.68,62.39,32.7,62.54,32.72,62.7z"/>
				</g>
			</g>
			<g>
				<g class="st4">
					<polygon points="201.49,149.68 139.56,185.68 36.1,125.94 98.02,89.96 					"/>
				</g>
				<g>
					<path class="st13" d="M190.89,148.2c-0.73,2.72-47.55,27.66-47.55,27.66c-3.04,1.76-9.11,1.48-12.17-0.29
						c-21.17-12.22-83.02-48.32-83.02-48.32c-3.04-1.76-3.97-6.32-0.95-8.08l48.78-26.75C95.98,92.42,197.81,122.69,190.89,148.2z"
						/>
				</g>
				<g>
					<path class="st14" d="M191.23,146.06l-47.89,27.84c-3.04,1.75-9.11,1.49-12.17-0.28c-21.17-12.23-83.55-48.63-83.55-48.63
						c-3.07-1.78-3.08-4.62-0.05-6.38l48.41-28.14L191.23,146.06z"/>
				</g>
				<path class="st13" d="M203.87,79.36c-0.04-0.35-0.1-0.71-0.18-1.08c-0.04-0.1-0.05-0.2-0.08-0.31c-0.1-0.37-0.21-0.75-0.36-1.1
					c-0.01-0.06-0.04-0.13-0.05-0.17c-0.13-0.31-0.27-0.61-0.43-0.9c-0.09-0.15-0.15-0.28-0.25-0.42c-0.15-0.24-0.3-0.48-0.47-0.68
					c-0.03-0.07-0.1-0.15-0.13-0.2c-0.22-0.3-0.47-0.54-0.72-0.78c-0.08-0.06-0.12-0.1-0.21-0.17c-0.27-0.24-0.55-0.45-0.87-0.63
					L116,24.38c-0.32-0.19-0.65-0.32-0.98-0.42c-0.12-0.04-0.21-0.06-0.33-0.09c-0.15-0.05-0.3-0.06-0.45-0.09
					c-0.13-0.02-0.27-0.02-0.4-0.02c-0.1,0-0.21,0-0.3,0c-0.22,0.02-0.41,0.05-0.6,0.1l2.39-0.59c0.14-0.04,0.28-0.07,0.42-0.08
					c0.07,0,0.13,0,0.19,0c0.1-0.01,0.18-0.01,0.3-0.01c0.06,0,0.13,0,0.19,0c0.06,0,0.13,0.01,0.2,0.02
					c0.13,0.02,0.28,0.05,0.43,0.09c0.08,0.01,0.13,0.01,0.22,0.04c0.04,0.01,0.11,0.03,0.13,0.06c0.33,0.09,0.68,0.21,0.99,0.41
					l84.11,48.56c0.31,0.17,0.6,0.39,0.87,0.64c0.06,0.04,0.12,0.09,0.17,0.13c0.25,0.24,0.52,0.52,0.74,0.8
					c0.05,0.06,0.09,0.11,0.13,0.16c0.09,0.11,0.2,0.23,0.28,0.36c0.08,0.11,0.12,0.26,0.21,0.37c0.09,0.13,0.17,0.26,0.24,0.39
					c0.04,0.07,0.08,0.13,0.11,0.2c0.12,0.25,0.25,0.51,0.33,0.77c0.03,0.03,0.05,0.06,0.06,0.08c0,0.01,0,0.01,0,0.01
					c0.13,0.28,0.22,0.57,0.29,0.86c0.03,0.09,0.03,0.2,0.06,0.29c0.03,0.09,0.04,0.18,0.06,0.25c0.04,0.12,0.06,0.23,0.07,0.33
					c0.06,0.26,0.09,0.51,0.12,0.78c0,0.04,0.02,0.09,0.03,0.12c0,0,0,0.03,0,0.05c0.03,0.37,0.03,0.75,0.03,1.13
					c0,0.03-0.02,0.06-0.02,0.08c-0.01,0.49-0.09,0.94-0.18,1.42l-15.22,66.63l-2.02,1.18l14.86-67.22c0.1-0.46,0.15-0.95,0.18-1.43
					c0-0.41,0-0.83-0.03-1.24C203.87,79.45,203.87,79.41,203.87,79.36z"/>
				<g>
					<path class="st14" d="M116,24.38c-2.73-1.59-5.61-0.05-6.4,3.45L95.98,90.47l93.39,56.69l14.36-65
						c0.78-3.49-0.84-7.62-3.6-9.21L116,24.38z"/>
				</g>
				
					<linearGradient id="SVGID_4_" gradientUnits="userSpaceOnUse" x1="314.6455" y1="38.0883" x2="245.4708" y2="145.0788" gradientTransform="matrix(-1 0 0 1 434.0391 0)">
					<stop  offset="0" style="stop-color:#1A6BB2"/>
					<stop  offset="1" style="stop-color:#1B4B92"/>
				</linearGradient>
				<polygon class="st15" points="200.44,83.99 111.48,33.22 99.68,87.04 187.46,140.88 				"/>
				<g>
					<g>
						<g>
							<path class="st16" d="M92.64,99.25l84.8,48.96l-28.3,16.47l-84.82-48.97L92.64,99.25z M129,150.51l3.8-2.22L93.3,125.5
								l-3.81,2.21L129,150.51L129,150.51z M103.89,119.34l-3.81,2.22l3.5,2.02l3.81-2.21L103.89,119.34L103.89,119.34z
								 M91.58,116.65l3.81-2.21l-3.49-2.03l-3.81,2.24L91.58,116.65L91.58,116.65z M139.57,144.37l3.82-2.22l-3.5-2.02l-3.81,2.22
								L139.57,144.37L139.57,144.37z M127.89,133.2l-3.82,2.22l3.5,2.03l3.81-2.23L127.89,133.2L127.89,133.2z M151.55,151.29
								l3.82-2.21l-3.49-2.03l-3.81,2.22L151.55,151.29L151.55,151.29z M112.08,128.5l3.48,2.01l3.83-2.21l-3.49-2.03L112.08,128.5
								L112.08,128.5z M111.88,123.96l-3.79,2.21l3.5,2.02l3.81-2.2L111.88,123.96L111.88,123.96z M159.57,155.91l3.82-2.21
								l-3.49-2.02l-3.84,2.21L159.57,155.91L159.57,155.91z M87.57,114.35l3.83-2.21l-3.49-2.04l-3.81,2.22L87.57,114.35
								L87.57,114.35z M123.9,130.9l-3.81,2.2l3.5,2.03l3.8-2.21L123.9,130.9L123.9,130.9z M99.57,121.27l3.82-2.2l-3.49-2.03
								l-3.82,2.22L99.57,121.27L99.57,121.27z M135.9,137.82l-3.82,2.21l3.49,2.03l3.82-2.21L135.9,137.82L135.9,137.82z
								 M147.57,148.97l3.82-2.21l-3.5-2.01l-3.83,2.2L147.57,148.97L147.57,148.97z M140.99,157.44l3.8-2.2l-3.51-2.03l-3.79,2.21
								L140.99,157.44L140.99,157.44z M86.29,119.72l3.81-2.2l-3.5-2.04l-3.81,2.21L86.29,119.72L86.29,119.72z M122.58,136.29
								l-3.79,2.21l3.49,2.01l3.8-2.2L122.58,136.29L122.58,136.29z M109.17,116.27l-3.79,2.2l3.49,2.03l3.8-2.21L109.17,116.27
								L109.17,116.27z M96.88,113.56l3.8-2.21l-3.5-2.02l-3.8,2.21L96.88,113.56L96.88,113.56z M114.09,131.37l-3.52-2.01
								l-3.8,2.21l3.51,2.02L114.09,131.37L114.09,131.37z M117.39,125.4l3.49,2.04l3.81-2.21l-3.51-2.03L117.39,125.4L117.39,125.4
								z M98.58,122.42l-3.8,2.21l3.5,2.02l3.8-2.22L98.58,122.42L98.58,122.42z M81,122.81l3.81-2.23l-3.51-2.01l-3.81,2.21
								L81,122.81L81,122.81z M133.19,130.12l-3.81,2.2l3.48,2.04l3.82-2.21L133.19,130.12L133.19,130.12z M146.28,154.36l3.8-2.2
								l-3.5-2.03l-3.8,2.22L146.28,154.36L146.28,154.36z M134.28,147.44l3.81-2.2l-3.5-2.02l-3.82,2.2L134.28,147.44
								L134.28,147.44z M144.87,141.29l3.79-2.22l-3.48-2.02l-3.81,2.21L144.87,141.29L144.87,141.29z M156.87,148.2l3.82-2.2
								l-3.51-2.03l-3.79,2.21L156.87,148.2L156.87,148.2z M117.19,120.88l-3.81,2.22l3.51,2.02l3.81-2.21L117.19,120.88
								L117.19,120.88z M142.28,152.07l3.81-2.23l-3.51-2.01l-3.8,2.2L142.28,152.07L142.28,152.07z M152.87,145.91l3.81-2.21
								l-3.49-2.03l-3.82,2.22L152.87,145.91L152.87,145.91z M118.6,133.98l-3.8,2.2l3.5,2.03l3.82-2.21L118.6,133.98L118.6,133.98z
								 M104.89,118.19l3.79-2.21l-3.49-2l-3.81,2.21L104.89,118.19L104.89,118.19z M129.18,127.81l-3.81,2.2l3.51,2.03l3.79-2.2
								L129.18,127.81L129.18,127.81z M94.29,124.35l3.81-2.21l-3.51-2.02l-3.8,2.22L94.29,124.35L94.29,124.35z M106.58,127.04
								l-3.8,2.21l3.5,2.02l3.8-2.2L106.58,127.04L106.58,127.04z M89.01,127.43l3.79-2.21l-3.51-2.03l-3.79,2.2L89.01,127.43
								L89.01,127.43z M130.59,140.9l-3.81,2.2l3.5,2.02l3.8-2.21L130.59,140.9L130.59,140.9z M141.19,134.73l-3.82,2.22l3.51,2.03
								l3.8-2.23L141.19,134.73L141.19,134.73z M149,162.07l3.81-2.22l-3.51-2.02l-3.79,2.2L149,162.07L149,162.07z M77.01,120.5
								l3.8-2.21l-3.5-2.02l-3.8,2.21L77.01,120.5L77.01,120.5z M82.3,117.42l3.81-2.2l-3.5-2.03l-3.8,2.23L82.3,117.42L82.3,117.42
								z M154.29,158.98l3.8-2.21l-3.49-2.03l-3.81,2.21L154.29,158.98L154.29,158.98z M92.89,111.27l3.8-2.22l-3.49-2.02
								l-3.81,2.22L92.89,111.27L92.89,111.27z M137,155.14l3.8-2.21l-3.51-2.02l-3.81,2.2L137,155.14L137,155.14z M164.88,152.82
								l3.79-2.2l-3.51-2.02l-3.8,2.21L164.88,152.82L164.88,152.82z M83.57,112.02l3.83-2.21l-3.5-2.02l-3.81,2.21L83.57,112.02
								L83.57,112.02z M131.9,135.51l-3.81,2.21l3.48,2l3.81-2.2L131.9,135.51L131.9,135.51z M143.57,146.66l3.82-2.21l-3.49-2.02
								l-3.82,2.21L143.57,146.66L143.57,146.66z M95.57,118.96l3.83-2.21l-3.5-2.01l-3.81,2.21L95.57,118.96L95.57,118.96z
								 M107.9,121.66l-3.81,2.21l3.48,2.03l3.82-2.23L107.9,121.66L107.9,121.66z M155.56,153.59l3.81-2.21l-3.48-2.02l-3.82,2.21
								L155.56,153.59L155.56,153.59z M116.09,130.81l3.48,2l3.8-2.21l-3.46-2.02L116.09,130.81L116.09,130.81z M160.85,150.51
								l3.81-2.22l-3.49-2l-3.79,2.2L160.85,150.51L160.85,150.51z M78.3,115.11l3.8-2.2l-3.49-2.01l-3.81,2.2L78.3,115.11
								L78.3,115.11z M150.29,156.68l3.8-2.22l-3.5-2.01l-3.8,2.21L150.29,156.68L150.29,156.68z M102.59,124.73l-3.8,2.23l3.5,2.02
								l3.8-2.21L102.59,124.73L102.59,124.73z M100.88,115.88l3.79-2.21l-3.47-2.02l-3.83,2.21L100.88,115.88L100.88,115.88z
								 M113.2,118.58l-3.81,2.21l3.49,2.02l3.79-2.23L113.2,118.58L113.2,118.58z M132.99,152.82l3.8-2.2l-3.49-2.02l-3.8,2.21
								L132.99,152.82L132.99,152.82z M73,118.19l3.78-2.21l-3.47-2l-3.82,2.21L73,118.19L73,118.19z M138.29,149.75l3.79-2.21
								l-3.5-2.02l-3.81,2.21L138.29,149.75L138.29,149.75z M90.3,122.04l3.8-2.23l-3.49-2l-3.81,2.21L90.3,122.04L90.3,122.04z
								 M148.86,143.58l3.81-2.21l-3.48-2.01l-3.82,2.2L148.86,143.58L148.86,143.58z M145,159.75l3.78-2.22l-3.49-2.02l-3.78,2.21
								L145,159.75L145,159.75z M137.2,132.43l-3.82,2.2l3.48,2.02l3.81-2.2L137.2,132.43L137.2,132.43z M84.98,125.1l3.82-2.2
								l-3.49-2.01l-3.81,2.2L84.98,125.1L84.98,125.1z M121.39,127.71l3.49,2.02l3.8-2.21l-3.48-2.02L121.39,127.71L121.39,127.71z
								 M118.09,133.67l-3.5-2.01l-3.79,2.21l3.49,2.04L118.09,133.67L118.09,133.67z M88.88,108.96l3.79-2.21l-3.48-2.01l-3.81,2.2
								L88.88,108.96L88.88,108.96z M126.59,138.59l-3.79,2.21l3.49,2.02l3.8-2.22L126.59,138.59L126.59,138.59z M122.99,119.06
								l-2.64,1.53l3.5,2.03l2.63-1.52L122.99,119.06L122.99,119.06z M148.31,133.67l-2.63,1.54l3.51,2.02l2.64-1.55L148.31,133.67
								L148.31,133.67z M99,105.2l-2.67,1.54l3.51,2.03l2.63-1.55L99,105.2L99,105.2z M113.65,113.67l-2.64,1.54l3.47,2.01
								l2.67-1.53L113.65,113.67L113.65,113.67z M108.32,110.6l-2.65,1.54l3.5,2.03l2.66-1.54L108.32,110.6L108.32,110.6z
								 M162.99,142.14l-2.66,1.54l3.51,2.03l2.63-1.53L162.99,142.14L162.99,142.14z M168.3,145.23l-2.62,1.53l3.5,2.03l2.63-1.55
								L168.3,145.23L168.3,145.23z M154.5,140.31l2.65-1.54l-3.49-2.02l-2.64,1.56L154.5,140.31L154.5,140.31z M94.51,105.68
								l2.65-1.53l-3.48-2.02l-2.65,1.52L94.51,105.68L94.51,105.68z M128.33,122.14l-2.65,1.54l3.49,2.02l2.64-1.54L128.33,122.14
								L128.33,122.14z"/>
						</g>
					</g>
				</g>
				<g>
					<g>
						<g>
							<polygon class="st17" points="120.69,122.9 116.89,125.12 113.38,123.1 117.19,120.9 							"/>
						</g>
						<g>
							<polygon class="st17" points="92.67,106.74 88.88,108.96 85.38,106.93 89.19,104.73 							"/>
						</g>
						<g>
							<polygon class="st17" points="108.68,115.98 104.89,118.19 101.38,116.18 105.19,113.97 							"/>
						</g>
						<g>
							<polygon class="st17" points="98.1,122.14 94.29,124.35 90.79,122.33 94.59,120.12 							"/>
						</g>
						<g>
							<polygon class="st17" points="97.16,104.15 94.51,105.68 91.03,103.66 93.68,102.14 							"/>
						</g>
						<g>
							<polygon class="st17" points="102.48,107.22 99.85,108.77 96.34,106.74 99,105.2 							"/>
						</g>
						<g>
							<polygon class="st17" points="96.68,109.05 92.89,111.27 89.39,109.25 93.19,107.03 							"/>
						</g>
						<g>
							<polygon class="st17" points="87.4,109.81 83.57,112.02 80.09,110.01 83.9,107.8 							"/>
						</g>
						<g>
							<polygon class="st17" points="100.68,111.36 96.88,113.56 93.39,111.54 97.18,109.34 							"/>
						</g>
						<g>
							<polygon class="st17" points="111.83,112.63 109.17,114.17 105.67,112.14 108.32,110.6 							"/>
						</g>
						<g>
							<polygon class="st17" points="91.4,112.14 87.57,114.35 84.1,112.32 87.91,110.1 							"/>
						</g>
						<g>
							<polygon class="st17" points="82.1,112.9 78.3,115.11 74.8,113.09 78.61,110.89 							"/>
						</g>
						<g>
							<polygon class="st17" points="104.67,113.67 100.88,115.88 97.38,113.86 101.21,111.66 							"/>
						</g>
						<g>
							<polygon class="st17" points="95.39,114.44 91.58,116.65 88.08,114.64 91.9,112.41 							"/>
						</g>
						<g>
							<polygon class="st17" points="117.16,115.7 114.49,117.23 111.02,115.21 113.65,113.67 							"/>
						</g>
						<g>
							<polygon class="st17" points="86.1,115.21 82.3,117.42 78.8,115.41 82.6,113.18 							"/>
						</g>
						<g>
							<polygon class="st17" points="76.79,115.98 73,118.19 69.5,116.18 73.32,113.97 							"/>
						</g>
						<g>
							<polygon class="st17" points="99.4,116.74 95.57,118.96 92.09,116.94 95.9,114.73 							"/>
						</g>
						<g>
							<polygon class="st17" points="90.1,117.52 86.29,119.72 82.79,117.7 86.6,115.49 							"/>
						</g>
						<g>
							<polygon class="st17" points="112.68,118.29 108.88,120.5 105.39,118.47 109.17,116.27 							"/>
						</g>
						<g>
							<polygon class="st17" points="103.39,119.06 99.57,121.27 96.08,119.25 99.9,117.04 							"/>
						</g>
						<g>
							<polygon class="st17" points="94.09,119.82 90.3,122.04 86.79,120.03 90.6,117.82 							"/>
						</g>
						<g>
							<polygon class="st17" points="126.47,121.09 123.84,122.62 120.35,120.59 122.99,119.06 							"/>
						</g>
						<g>
							<polygon class="st17" points="116.67,120.59 112.88,122.81 109.39,120.79 113.2,118.58 							"/>
						</g>
						<g>
							<polygon class="st17" points="107.39,121.36 103.58,123.58 100.08,121.56 103.89,119.34 							"/>
						</g>
						<g>
							<polygon class="st17" points="88.8,122.9 84.98,125.1 81.5,123.1 85.31,120.9 							"/>
						</g>
						<g>
							<polygon class="st17" points="131.81,124.15 129.18,125.7 125.68,123.68 128.33,122.14 							"/>
						</g>
						<g>
							<polygon class="st17" points="111.38,123.67 107.57,125.9 104.09,123.87 107.9,121.66 							"/>
						</g>
						<g>
							<polygon class="st17" points="102.09,124.43 98.29,126.65 94.78,124.63 98.58,122.42 							"/>
						</g>
						<g>
							<polygon class="st17" points="124.69,125.22 120.88,127.43 117.39,125.4 121.18,123.19 							"/>
						</g>
						<g>
							<polygon class="st17" points="92.8,125.22 89.01,127.43 85.5,125.4 89.29,123.19 							"/>
						</g>
						<g>
							<polygon class="st17" points="106.09,126.76 102.29,128.97 98.79,126.96 102.59,124.73 							"/>
						</g>
						<g>
							<polygon class="st17" points="128.67,127.52 124.88,129.73 121.39,127.71 125.19,125.5 							"/>
						</g>
						<g>
							<polygon class="st17" points="119.38,128.3 115.56,130.51 112.08,128.5 115.9,126.26 							"/>
						</g>
						<g>
							<polygon class="st17" points="110.09,129.07 106.29,131.27 102.79,129.25 106.58,127.04 							"/>
						</g>
						<g>
							<polygon class="st17" points="132.68,129.84 128.89,132.05 125.38,130.01 129.18,127.81 							"/>
						</g>
						<g>
							<polygon class="st17" points="123.37,130.6 119.57,132.81 116.09,130.81 119.91,128.58 							"/>
						</g>
						<g>
							<polygon class="st17" points="114.09,131.37 110.28,133.59 106.77,131.56 110.58,129.36 							"/>
						</g>
						<g>
							<polygon class="st17" points="136.68,132.15 132.86,134.36 129.38,132.32 133.19,130.12 							"/>
						</g>
						<g>
							<polygon class="st17" points="127.39,132.91 123.59,135.13 120.1,133.1 123.9,130.9 							"/>
						</g>
						<g>
							<polygon class="st17" points="118.09,133.67 114.29,135.9 110.8,133.87 114.59,131.66 							"/>
						</g>
						<g>
							<polygon class="st17" points="140.67,134.46 136.87,136.65 133.38,134.64 137.2,132.43 							"/>
						</g>
						<g>
							<polygon class="st17" points="151.82,135.69 149.18,137.24 145.67,135.21 148.31,133.67 							"/>
						</g>
						<g>
							<polygon class="st17" points="131.39,135.21 127.58,137.44 124.08,135.41 127.89,133.2 							"/>
						</g>
						<g>
							<polygon class="st17" points="122.11,135.99 118.29,138.2 114.79,136.18 118.6,133.98 							"/>
						</g>
						<g>
							<polygon class="st17" points="144.68,136.75 140.88,138.98 137.37,136.95 141.19,134.73 							"/>
						</g>
						<g>
							<polygon class="st17" points="135.38,137.53 131.56,139.73 128.09,137.73 131.9,135.51 							"/>
						</g>
						<g>
							<polygon class="st17" points="157.14,138.77 154.5,140.31 151.02,138.31 153.66,136.75 							"/>
						</g>
						<g>
							<polygon class="st17" points="126.09,138.31 122.29,140.51 118.79,138.5 122.58,136.29 							"/>
						</g>
						<g>
							<polygon class="st17" points="148.66,139.07 144.87,141.29 141.38,139.26 145.19,137.05 							"/>
						</g>
						<g>
							<polygon class="st17" points="139.39,139.84 135.57,142.05 132.08,140.03 135.9,137.82 							"/>
						</g>
						<g>
							<polygon class="st17" points="130.09,140.6 126.29,142.82 122.8,140.8 126.59,138.59 							"/>
						</g>
						<g>
							<polygon class="st17" points="152.68,141.38 148.86,143.58 145.38,141.57 149.2,139.37 							"/>
						</g>
						<g>
							<polygon class="st17" points="143.39,142.14 139.57,144.37 136.08,142.34 139.89,140.12 							"/>
						</g>
						<g>
							<polygon class="st17" points="134.09,142.91 130.29,145.12 126.79,143.1 130.59,140.9 							"/>
						</g>
						<g>
							<polygon class="st17" points="166.46,144.18 163.83,145.71 160.33,143.68 162.99,142.14 							"/>
						</g>
						<g>
							<polygon class="st17" points="156.68,143.7 152.87,145.91 149.37,143.88 153.18,141.67 							"/>
						</g>
						<g>
							<polygon class="st17" points="147.39,144.45 143.57,146.66 140.08,144.64 143.9,142.43 							"/>
						</g>
						<g>
							<polygon class="st17" points="160.68,146 156.87,148.2 153.38,146.18 157.17,143.97 							"/>
						</g>
						<g>
							<polygon class="st17" points="171.81,147.25 169.18,148.8 165.68,146.77 168.3,145.23 							"/>
						</g>
						<g>
							<polygon class="st17" points="151.39,146.77 147.57,148.97 144.07,146.95 147.89,144.76 							"/>
						</g>
						<g>
							<polygon class="st17" points="142.08,147.53 138.29,149.75 134.78,147.73 138.59,145.52 							"/>
						</g>
						<g>
							<polygon class="st17" points="164.67,148.29 160.85,150.51 157.38,148.49 161.18,146.29 							"/>
						</g>
						<g>
							<polygon class="st17" points="132.79,148.29 129,150.51 89.5,127.71 93.3,125.5 							"/>
						</g>
						<g>
							<polygon class="st17" points="155.38,149.08 151.55,151.29 148.07,149.27 151.88,147.05 							"/>
						</g>
						<g>
							<polygon class="st17" points="146.09,149.84 142.28,152.07 138.78,150.03 142.58,147.83 							"/>
						</g>
						<g>
							<polygon class="st17" points="168.67,150.62 164.88,152.82 161.37,150.81 165.16,148.6 							"/>
						</g>
						<g>
							<polygon class="st17" points="136.78,150.62 132.99,152.82 129.49,150.81 133.29,148.6 							"/>
						</g>
						<g>
							<polygon class="st17" points="159.37,151.38 155.56,153.59 152.07,151.58 155.89,149.36 							"/>
						</g>
						<g>
							<polygon class="st17" points="150.08,152.16 146.28,154.36 142.79,152.35 146.58,150.13 							"/>
						</g>
						<g>
							<polygon class="st17" points="140.8,152.92 137,155.14 133.48,153.1 137.29,150.9 							"/>
						</g>
						<g>
							<polygon class="st17" points="163.38,153.7 159.57,155.91 156.06,153.88 159.9,151.67 							"/>
						</g>
						<g>
							<polygon class="st17" points="154.08,154.46 150.29,156.68 146.79,154.66 150.59,152.45 							"/>
						</g>
						<g>
							<polygon class="st17" points="144.79,155.24 140.99,157.44 137.49,155.42 141.29,153.21 							"/>
						</g>
						<g>
							<polygon class="st17" points="158.08,156.77 154.29,158.98 150.78,156.96 154.59,154.75 							"/>
						</g>
						<g>
							<polygon class="st17" points="148.78,157.53 145,159.75 141.5,157.73 145.29,155.51 							"/>
						</g>
						<g>
							<polygon class="st17" points="152.8,159.84 149,162.07 145.49,160.03 149.29,157.83 							"/>
						</g>
						<g>
							<polygon class="st17" points="115.4,125.99 111.59,128.2 108.09,126.17 111.88,123.96 							"/>
						</g>
						<g>
							<polygon class="st17" points="138.09,145.23 134.28,147.44 130.77,145.42 134.59,143.21 							"/>
						</g>
						<g>
							<polygon class="st17" points="84.81,120.59 81,122.81 77.5,120.79 81.31,118.58 							"/>
						</g>
						<g>
							<polygon class="st17" points="80.81,118.29 77.01,120.5 73.5,118.49 77.3,116.27 							"/>
						</g>
					</g>
				</g>
				<g>
					<path class="st17" d="M109.7,143.9c1.21,0.7,1.23,1.85,0.01,2.55l-7.96,4.61c-1.21,0.71-3.2,0.71-4.43,0.02l-10.82-6.25
						c-1.2-0.71-1.21-1.85,0-2.56l7.95-4.63c1.2-0.68,3.19-0.68,4.42,0L109.7,143.9z"/>
				</g>
				<g>
					<g>
						<path class="st16" d="M109.7,144.28c1.21,0.71,1.23,1.86,0.01,2.55l-7.96,4.62c-1.21,0.72-3.2,0.72-4.43,0.02l-10.82-6.25
							c-1.2-0.7-1.21-1.85,0-2.57l7.95-4.62c1.2-0.7,3.19-0.7,4.42,0L109.7,144.28z"/>
					</g>
				</g>
			</g>
			<g>
				<g class="st4">
					<g>
						<path d="M217.88,167.45c8.54,4.92,8.57,12.9,0.12,17.81c-8.46,4.92-22.19,4.92-30.72-0.01c-8.51-4.91-8.55-12.87-0.1-17.78
							C195.63,162.55,209.39,162.54,217.88,167.45z"/>
					</g>
				</g>
				<linearGradient id="SVGID_5_" gradientUnits="userSpaceOnUse" x1="197.2588" y1="148.4518" x2="197.2588" y2="196.7113">
					<stop  offset="0" style="stop-color:#FFDF02"/>
					<stop  offset="0.1253" style="stop-color:#F9D402"/>
					<stop  offset="0.4425" style="stop-color:#ECBD01"/>
					<stop  offset="0.7411" style="stop-color:#E4AF00"/>
					<stop  offset="1" style="stop-color:#E1AA00"/>
				</linearGradient>
				<path class="st18" d="M211.34,178.58c0.1-0.36,0.16-0.73,0.18-1.09l5.88-35.28h-40.29l5.88,35.4c0.02,0.33,0.08,0.67,0.16,1
					l0.04,0.21h0.02c0.5,1.58,1.8,3.08,3.9,4.3c5.56,3.24,14.61,3.24,20.21,0c2.11-1.22,3.43-2.72,3.95-4.3h0.02L211.34,178.58z"/>
				<g>
					<g>
						<path class="st19" d="M183.06,133.96c-7.89,4.55-7.94,11.95-0.1,16.5c7.85,4.56,20.61,4.56,28.5,0
							c7.89-4.55,7.93-11.93,0.09-16.5C203.7,129.4,190.96,129.4,183.06,133.96z"/>
					</g>
				</g>
				<g>
					<g>
						<path class="st10" d="M183.06,133.96c-7.89,4.55-7.94,11.95-0.1,16.5c7.85,4.56,20.61,4.56,28.5,0
							c7.89-4.55,7.93-11.93,0.09-16.5C203.7,129.4,190.96,129.4,183.06,133.96z"/>
					</g>
				</g>
				<g>
					<g>
						<path class="st20" d="M185.15,135.17c-6.73,3.89-6.77,10.19-0.08,14.08c6.69,3.89,17.57,3.89,24.31,0
							c6.73-3.89,6.77-10.19,0.07-14.08C202.76,131.29,191.88,131.29,185.15,135.17z"/>
					</g>
				</g>
				<g>
					<path class="st21" d="M209.37,149.25c-6.73,3.89-17.62,3.89-24.31,0c-2.03-1.18-3.43-2.57-4.22-4.06
						c0.58-1.98,2.18-3.89,4.82-5.41c6.73-3.89,17.61-3.89,24.29,0c2.03,1.18,3.43,2.58,4.22,4.07
						C213.61,145.82,212.02,147.72,209.37,149.25z"/>
				</g>
				<g>
					<g>
						<path class="st22" d="M207.23,173.39c-0.03-0.01-0.06-0.03-0.09-0.05c-0.29-0.12-0.57-0.26-0.86-0.43l1.91-1.11
							c0.29,0.17,0.58,0.31,0.86,0.43c0.08,0.04,0.17,0.07,0.24,0.1c0.16,0.07,0.32,0.12,0.48,0.17c0.09,0.03,0.18,0.06,0.28,0.08
							c0.09,0.02,0.19,0.04,0.28,0.06c0.11,0.02,0.23,0.04,0.33,0.05c0.07,0.01,0.14,0.02,0.21,0.02c0.12,0.01,0.24,0.01,0.37,0.01
							c0.05,0,0.1,0,0.14,0c0.16-0.01,0.32-0.03,0.47-0.05c0.03-0.01,0.06-0.02,0.09-0.02c0.13-0.03,0.25-0.06,0.37-0.1
							c0.04-0.02,0.08-0.03,0.11-0.04c0.14-0.06,0.29-0.13,0.42-0.2l-1.91,1.11c-0.01,0.01-0.03,0.01-0.04,0.02
							c-0.1,0.06-0.2,0.11-0.31,0.16c-0.02,0.01-0.05,0.01-0.07,0.02c-0.03,0.01-0.08,0.03-0.12,0.05
							c-0.04,0.01-0.08,0.03-0.13,0.05c-0.07,0.02-0.14,0.03-0.21,0.05c-0.04,0.01-0.07,0.02-0.11,0.03c-0.01,0-0.03,0.01-0.04,0.01
							c-0.13,0.02-0.26,0.04-0.39,0.04c-0.01,0-0.03,0-0.04,0c-0.06,0-0.1,0-0.16,0c-0.08,0-0.15,0.01-0.23,0c-0.04,0-0.08,0-0.13,0
							c-0.08-0.01-0.15-0.01-0.22-0.02c-0.04-0.01-0.09-0.01-0.13-0.02c-0.06-0.01-0.12-0.03-0.18-0.04
							c-0.09-0.02-0.19-0.04-0.29-0.06c-0.04-0.02-0.08-0.02-0.12-0.03c-0.06-0.01-0.11-0.04-0.16-0.05
							c-0.16-0.05-0.32-0.1-0.49-0.16C207.33,173.42,207.28,173.41,207.23,173.39z"/>
					</g>
					<g>
						<path class="st22" d="M214.96,171.09c0-0.29-0.01-0.58-0.04-0.88c0-0.09-0.01-0.17-0.02-0.26c-0.02-0.19-0.04-0.38-0.07-0.57
							c-0.02-0.19-0.06-0.38-0.1-0.57c-0.04-0.17-0.07-0.35-0.11-0.52c-0.03-0.13-0.06-0.25-0.1-0.38
							c-0.05-0.22-0.11-0.43-0.18-0.64c-0.03-0.1-0.05-0.19-0.09-0.29c-0.1-0.3-0.2-0.61-0.32-0.9c-0.02-0.05-0.04-0.1-0.06-0.14
							c-0.1-0.25-0.21-0.52-0.33-0.78c-0.03-0.08-0.07-0.16-0.1-0.24c-0.13-0.27-0.27-0.56-0.41-0.83
							c-0.01-0.02-0.03-0.04-0.04-0.07c-0.15-0.3-0.32-0.59-0.49-0.87c-0.05-0.08-0.1-0.17-0.15-0.26c-0.13-0.21-0.26-0.41-0.4-0.61
							c-0.06-0.1-0.13-0.2-0.19-0.29c-0.15-0.21-0.3-0.42-0.45-0.62c-0.05-0.08-0.12-0.15-0.17-0.23c-0.14-0.18-0.29-0.35-0.43-0.53
							c-0.09-0.12-0.18-0.24-0.28-0.35c-0.06-0.08-0.13-0.14-0.19-0.21c-0.23-0.25-0.47-0.51-0.7-0.75
							c-0.15-0.14-0.29-0.29-0.44-0.42c-0.09-0.09-0.19-0.18-0.29-0.27c-0.17-0.15-0.35-0.3-0.52-0.44
							c-0.08-0.08-0.18-0.16-0.28-0.23c-0.19-0.15-0.4-0.3-0.59-0.44c-0.08-0.05-0.16-0.11-0.23-0.16
							c-0.28-0.19-0.56-0.37-0.85-0.54l1.91-1.11c0.28,0.17,0.56,0.34,0.85,0.54c0.07,0.05,0.16,0.11,0.23,0.17
							c0.2,0.14,0.4,0.28,0.6,0.44c0.09,0.08,0.18,0.16,0.28,0.23c0.17,0.14,0.35,0.29,0.52,0.44c0.1,0.1,0.2,0.18,0.29,0.28
							c0.1,0.09,0.2,0.18,0.3,0.28c0.05,0.05,0.09,0.09,0.13,0.14c0.25,0.25,0.49,0.5,0.72,0.77c0.05,0.05,0.1,0.1,0.15,0.15
							c0.01,0.02,0.02,0.03,0.03,0.05c0.12,0.13,0.23,0.26,0.34,0.41c0.11,0.14,0.22,0.26,0.34,0.41c0.01,0.02,0.03,0.03,0.04,0.05
							c0.07,0.09,0.14,0.18,0.2,0.27c0.11,0.15,0.23,0.31,0.34,0.46c0.03,0.05,0.07,0.09,0.1,0.15c0.06,0.09,0.12,0.18,0.18,0.26
							c0.07,0.11,0.15,0.22,0.22,0.34c0.07,0.1,0.13,0.21,0.19,0.31c0.05,0.09,0.1,0.16,0.15,0.25c0.03,0.05,0.07,0.1,0.1,0.16
							c0.14,0.23,0.27,0.47,0.4,0.7c0,0.01,0.01,0.01,0.01,0.02c0,0,0.01,0.01,0.01,0.02c0.12,0.22,0.23,0.44,0.34,0.65
							c0.03,0.07,0.06,0.14,0.09,0.22c0.04,0.08,0.08,0.16,0.12,0.24c0.03,0.08,0.07,0.16,0.11,0.25c0.08,0.17,0.14,0.35,0.22,0.53
							c0.02,0.05,0.04,0.11,0.06,0.15c0.01,0.01,0.02,0.02,0.02,0.04c0.09,0.25,0.19,0.5,0.27,0.75c0.01,0.04,0.03,0.08,0.04,0.12
							c0.03,0.09,0.06,0.18,0.08,0.27c0.04,0.13,0.08,0.27,0.13,0.4c0.02,0.08,0.04,0.17,0.05,0.25c0.04,0.13,0.07,0.25,0.1,0.38
							c0.02,0.08,0.04,0.17,0.06,0.25c0.02,0.09,0.03,0.17,0.04,0.26c0.04,0.19,0.07,0.39,0.1,0.58c0.01,0.08,0.03,0.15,0.04,0.24
							c0.01,0.1,0.02,0.21,0.03,0.32c0.01,0.09,0.02,0.18,0.03,0.28c0.02,0.29,0.04,0.59,0.04,0.87c-0.01,2.45-0.89,4.17-2.33,5
							l-1.91,1.11C214.07,175.25,214.95,173.53,214.96,171.09z"/>
					</g>
					<g>
						<g>
							<path class="st23" d="M206.32,156.76l-0.01,2.49c3.5,2.03,6.35,6.72,6.33,10.5c-0.01,3.77-2.86,5.18-6.37,3.16l-0.01,2.49
								c4.79,2.76,8.68,0.83,8.69-4.32C214.98,165.94,211.1,159.53,206.32,156.76z"/>
						</g>
					</g>
				</g>
			</g>
			<g>
				<g class="st24">
					<g>
						<polygon class="st25" points="125.33,45.34 124.77,47.53 136.84,54.96 137.4,52.77 						"/>
					</g>
					<g>
						<g>
							<path class="st25" d="M140.34,108.23l-27.96-17.21l6.95-27.2l27.96,17.21L140.34,108.23z M117.25,80.17l23.74,14.61
								l3.13-12.24l-23.74-14.61L117.25,80.17L117.25,80.17z"/>
						</g>
					</g>
					<g>
						<polygon class="st25" points="121.76,54.31 121.24,56.36 149.2,73.57 149.72,71.52 						"/>
					</g>
					<g>
						<polygon class="st25" points="157.77,80.14 157.33,81.85 174.03,92.13 174.47,90.42 						"/>
					</g>
					<g>
						<polygon class="st25" points="158.75,76.28 158.32,78 175.01,88.27 175.45,86.56 						"/>
					</g>
					<g>
						<path class="st26" d="M167.4,126.28l-21.33-13.13l10.67-41.78l21.33,13.12L167.4,126.28z M149.55,112.34l16.7,10.28l3.1-12.14
							l-16.7-10.28L149.55,112.34L149.55,112.34z M155.16,90.34l16.7,10.28l0.44-1.72l-16.7-10.27L155.16,90.34L155.16,90.34z
							 M158.32,78l16.7,10.28l0.44-1.71l-16.7-10.28L158.32,78L158.32,78z M156.15,86.48l16.7,10.28l0.44-1.71l-16.7-10.28
							L156.15,86.48L156.15,86.48z M157.33,81.85l16.7,10.28l0.44-1.71l-16.7-10.28L157.33,81.85L157.33,81.85z"/>
					</g>
					<g>
						<polygon class="st25" points="120.58,58.94 120.05,60.99 148.02,78.2 148.54,76.15 						"/>
					</g>
					<g>
						<polygon class="st25" points="149.07,59.95 148.51,62.14 178.99,80.9 179.55,78.71 						"/>
					</g>
					<g class="st27">
						<g>
							<path class="st25" d="M108.89,92.84l60.16,37.03l15.72-54.82L122.8,39.36L108.89,92.84z M120.05,60.99l0.52-2.06l27.96,17.21
								l0,0l-0.52,2.06l-17.73-10.91L120.05,60.99L120.05,60.99z M121.76,54.31l27.96,17.21l-0.52,2.05l-27.96-17.21L121.76,54.31
								L121.76,54.31z M122.22,52.51l0.53-2.06l27.96,17.21l-0.53,2.06L122.22,52.51L122.22,52.51z M180.65,78.05l-1.18,4.63
								l-56.13-34.55l1.18-4.63L180.65,78.05L180.65,78.05z M167.4,126.28l-21.33-13.13l10.67-41.78l21.33,13.12L167.4,126.28
								L167.4,126.28z M147.29,81.03l-6.95,27.19l-27.96-17.21l6.95-27.2L147.29,81.03L147.29,81.03z"/>
						</g>
					</g>
					<g>
						<polygon class="st26" points="117.25,80.17 120.38,67.94 144.11,82.55 140.99,94.79 						"/>
					</g>
					<g>
						<polygon class="st25" points="122.75,50.45 122.22,52.51 150.18,69.71 150.71,67.66 						"/>
					</g>
					<g>
						<polygon class="st25" points="152.64,100.2 149.55,112.34 166.24,122.62 169.35,110.48 						"/>
					</g>
					<g>
						<path class="st26" d="M179.47,82.68l-56.13-34.55l1.43-5.75l56.89,33.9L179.47,82.68z M148.51,62.14l30.48,18.76l0.56-2.19
							l-30.48-18.76L148.51,62.14L148.51,62.14z M124.77,47.53l12.07,7.43l0.56-2.19l-12.07-7.43L124.77,47.53L124.77,47.53z"/>
					</g>
				</g>
				<g>
					<polygon class="st25" points="156.59,84.77 156.15,86.48 172.85,96.76 173.29,95.05 					"/>
				</g>
				<g>
					<polygon class="st25" points="155.6,88.63 155.16,90.34 171.86,100.62 172.3,98.9 					"/>
				</g>
			</g>
			<g>
				<g>
					<g>
						<polygon class="st28" points="84.35,31.08 84.33,37.88 78.81,34.69 78.83,27.89 						"/>
					</g>
				</g>
				<g>
					<path class="st4" d="M69.53,114.2c-9.51,5.49-9.56,14.4-0.11,19.89c9.44,5.5,24.81,5.5,34.33,0c9.51-5.49,9.56-14.4,0.11-19.88
						C94.41,108.71,79.04,108.71,69.53,114.2z"/>
				</g>
				<path class="st29" d="M84.94,114.65c0,0,2.29,0.34,1.73,1.66c-0.55,1.32-3.18,3.32-3.53,4.16c-0.35,0.83-2.5,3.81-3.19,3.54
					c-0.7-0.28-2.5,0.14-2.29-3.26C77.87,117.35,81.89,114.5,84.94,114.65z"/>
				<path class="st29" d="M89.31,127.12c0,0-1.11,3.26,1.66,4.02c2.77,0.76,1.95-0.97,7.97,0.55c6.04,1.53,6.73-1.59,6.59-2.29
					c-0.14-0.69-4.16-1.94-5.48-2.28c-1.31-0.34-3.81-0.97-3.81-0.97h-7.15L89.31,127.12z"/>
				<path class="st30" d="M77.91,69.91c0,0-0.04,19.68-0.04,21.9c0,2.22-2.48,19.68-0.99,27.3c0,0,4.29,4.3,8.09,0
					c0,0,1.21-21.86,2.31-26.79c1.1-4.93,0.73-20.03,0.73-20.03L77.91,69.91z"/>
				<path class="st31" d="M85.44,72.71c0,0,0.98,12.71,1.98,25.31c0,0,0.64,25.01,1.23,28.61c0,0,8.06,2,8.87-1.8
					c0,0-0.2-22.01,0-26.61c0.2-4.6,0.68-17.43-1.14-24.83C94.57,65.99,85.44,72.71,85.44,72.71z"/>
				<path class="st32" d="M88.65,126.63c-0.59-3.6-1.23-28.61-1.23-28.61c-0.68-8.48-1.34-17.01-1.7-21.68l4.98,1.22
					c0,0,3.59,9.43,3.04,23.57c-0.43,10.94-0.6,21.71-0.66,26.02C90.87,127.18,88.65,126.63,88.65,126.63z"/>
				<path class="st33" d="M76.89,119.12c-1.49-7.63,0.99-25.09,0.99-27.3c0-2.11,0.04-20.06,0.04-21.75l4.33,3.33
					c0,0,1.37,14.07,0,22.08c-1.25,7.29-0.45,21.48-1.06,25.56C78.79,121.03,76.89,119.12,76.89,119.12z"/>
				<g>
					<path class="st34" d="M75.69,37.6c2.45-0.07,4.11,7.85,6.5,14.15l11.63-5.12c0.5-0.61,1.53-1.89,1.91-2.69
						c0.51-1.08,1.04-1.18,1.28-1.14c0.24,0.04-0.07,0.74-0.11,1.23c-0.04,0.49-0.84,1.42-0.21,1.3c0.62-0.13,3.52-1.8,4.26-1.23
						c0.34,0.26,0.93,0.07-0.88,2.12c-1.29,1.46-3.51,2.39-4.67,2.8c-5.54,5.36-13.41,8.57-13.41,8.57v0
						c-0.87,0.25-1.84-0.1-1.84-0.1c-3.89-3.09-5.94-9.42-6.72-15.32C72.87,37.94,75.69,37.6,75.69,37.6z"/>
					<path class="st35" d="M76.63,37.19c-1.26-0.38-3.67-0.09-3.67,3.78s0.13,5.2,1.44,8.35c0.65,1.56,5.31,0.85,6.53-1.69
						C81.63,46.16,79.14,37.95,76.63,37.19z"/>
					<path class="st35" d="M75.81,36.51c0,0-3.7,1.94-1.45,8.25c2.25,6.32,3.83,10.4,3.75,12.77c-0.08,2.37-0.79,10.37-1.26,11.99
						c0,0-0.52,5.25,11.5,8.13c0,0,9.86,0.8,8.12-5.65c-1.75-6.45-2.58-16.91-2.38-19.4c0.2-2.5,1.6-7.51-4.7-10.75
						C83.08,38.61,79.79,36.19,75.81,36.51z"/>
					<path class="st36" d="M94.08,52.6c-0.2,2.49,0.63,12.95,2.38,19.4c1.21,4.47-3.16,5.46-5.96,5.64
						c-0.95-2.87,0.46-8.06-1.74-14.34c-2.71-7.75-2.46-12.92-1.17-17.1c0.83-2.71,2.45-2.81,3.6-3.22
						C95.38,46.17,94.26,50.38,94.08,52.6z"/>
					<path class="st37" d="M76.84,69.52c0.47-1.63,1.18-9.62,1.26-11.99c0.08-2.37-1.56-6.43-3.75-12.77
						c-2.07-5.98,0.18-7.61,1.45-8.25c0.72,3.1,11.54,4.21,11.33,6.3c-0.24,2.33-3.09,4.55-3.17,8.7
						c-0.09,4.16,0.58,10.3,1.37,13.35c0.68,2.66,0.5,9.13-0.06,11.92C76.41,73.84,76.84,69.52,76.84,69.52z"/>
					<g>
						<path class="st34" d="M80.17,33.28c0,0,0.46,3.31-0.63,5.41c-1,1.91,6.86,3.47,7.01,1.72c0.01-0.19-1.54-3.01,0.28-6.44
							C87.78,32.18,80.17,33.28,80.17,33.28z"/>
					</g>
					<g>
						<path class="st38" d="M79.58,38.81c0.81-1.57,0.77-3.79,0.69-4.83l5.77,2.72c0,0,0,0.01,0,0.01c-0.21,0.05-4.05,1.11-4.83,3.9
							C80.03,40.15,79.22,39.51,79.58,38.81z"/>
					</g>
					<g>
						<path class="st34" d="M88.24,24.3c0,0,1.28,2.99,1.09,5.59c-0.21,2.8,0.22,3.36,0.07,4.6c-0.06,0.53-0.09,1.33-0.6,1.84
							c-0.85,0.85-2.62,1.19-5.04,0.36c-2.93-1.01-6.08-4.95-4.91-8.58C80.02,24.49,83.79,21.45,88.24,24.3z"/>
					</g>
					<g>
						<path class="st39" d="M79.05,32.01c1.1-3.26,3.92-7.2,3.89-7.41c-0.02-0.12,0.93-0.75,2.01-1.41
							c1.03,0.04,2.13,0.38,3.28,1.12c0,0,0.34,0.8,0.64,1.93c-0.68,0.79-2.07,1.7-2.28,2.36c-0.47,1.57-0.14,3.91,0.35,4.94
							c0.48,1.03-1.36,2.59-0.95,3.5c0.02,0.04,0.02,0.08,0.02,0.12c-0.67-0.04-1.43-0.17-2.26-0.46
							C81.87,36.05,79.92,34.21,79.05,32.01z"/>
					</g>
					<g>
						<path class="st40" d="M88.42,23.67c0,0,0.47,2.13-1.39,3.25c-1.46,0.88-1.33,3.25-1.24,3.7c0.08,0.46,0.57,2.53,0.39,2.8
							c-0.34,0.52-1.58-1.06-2.14-0.94c-1.44,0.31-0.85,1.65,0.5,3.04c1.42,1.48-2.24,2.17-3.97,0.96
							c-0.92-0.64-1.25-1.03-2.49-3.37c-1.8-3.41-1.97-7.55,2.06-9.84C84.15,20.97,86.87,22.81,88.42,23.67z"/>
					</g>
					<g>
						<path class="st41" d="M80.55,36.48c-0.92-0.64-1.62-0.87-2.85-3.22c-1.8-3.41-2.23-9.17,2.4-10.73
							c4.39-1.48,7.36,0.32,8.32,1.14c0,0,0.08,0.33,0,0.93c-1.29,0.24-4.15,0.49-5.03,2.03c-1.09,1.89-2.34,1.31-2.2,3.63
							c0.14,2.24-0.38,5.18,3.4,6.38C83.2,37.66,81.22,36.94,80.55,36.48z"/>
					</g>
					<path class="st35" d="M86.09,39.39l2.59,2.1c0,0-7.89,2.43-10.28-1.41c-0.34-0.54,0.02-2.4,1.4-2.77
						C79.79,37.31,80.12,40.46,86.09,39.39z"/>
					<path class="st34" d="M90.73,43.4c2.44-0.07,4.11,7.85,6.5,14.15l11.63-5.12c0.51-0.61,1.53-1.89,1.91-2.69
						c0.51-1.08,1.04-1.18,1.28-1.14c0.24,0.04-0.07,0.74-0.1,1.23c-0.04,0.49-0.84,1.42-0.22,1.3c0.63-0.12,3.52-1.79,4.26-1.23
						c0.34,0.26,0.93,0.07-0.88,2.12c-1.29,1.46-3.51,2.39-4.67,2.8c-5.54,5.36-13.41,8.57-13.41,8.57l0-0.01
						c-0.87,0.25-1.84-0.1-1.84-0.1c-3.89-3.09-5.95-9.42-6.72-15.32C87.9,43.74,90.73,43.4,90.73,43.4z"/>
					<path class="st35" d="M91.66,42.99c-1.26-0.38-3.67-0.09-3.67,3.78s0.13,5.2,1.44,8.35c0.65,1.56,5.31,0.84,6.54-1.69
						C96.67,51.95,94.18,43.75,91.66,42.99z"/>
				</g>
			</g>
			<g>
				<path class="st42" d="M97.35,152.66c0,0,3.09,2.6,2.44,5.31c0,0-1.04,1.1-2-0.84C96.82,155.19,95.8,152.6,97.35,152.66z"/>
				<path class="st29" d="M99.79,158.24c0,0-4.68,1.61-5.46,0.08c-0.79-1.52-1.66-2.74-2.22-3.29c-0.58-0.55-4.43-7.04-3.17-8.08
					c1.28-1.03,3.12,0.81,3.67,1.26c0.55,0.46,6.43,5.01,6.43,5.01L99.79,158.24z"/>
				<path class="st43" d="M138.53,129.44c0,0-16.38,9.39-20.09,12.58c-3.08,2.64-20.12,10.8-20.12,10.8s0.8,1.61,1.38,5.27
					c0,0,15.57-0.23,25.36-9.22c0,0,32.87-6.85,30.07-23.81C155.14,125.06,144.3,127.01,138.53,129.44z"/>
				<path class="st44" d="M92.11,155.03c-0.51-0.49-3.62-5.68-3.38-7.54c0.55-0.08,1.44,0.02,1.94,1.23
					c0.77,1.87,3.14,6.15,3.57,6.7c0.37,0.46,2.49,2.51,2.14,3.55c-0.93,0.06-1.76-0.07-2.05-0.64
					C93.54,156.8,92.68,155.58,92.11,155.03z"/>
				<path class="st45" d="M106.88,166.39c0,0-5.3,0.83-5.85-0.55c-0.56-1.39-1.21-2.51-1.66-3.04c-0.45-0.52-3.27-6.45-2.09-7.24
					c1.18-0.8,2.63,0.94,3.08,1.38c0.44,0.44,5.28,4.8,5.28,4.8L106.88,166.39z"/>
				<path class="st44" d="M99.36,162.8c-0.4-0.47-2.67-5.21-2.32-6.8c0.49-0.02,1.24,0.13,1.58,1.22c0.52,1.68,2.22,5.58,2.56,6.09
					c0.28,0.43,1.95,2.38,1.57,3.25c-0.81-0.03-1.52-0.21-1.73-0.72C100.46,164.46,99.81,163.33,99.36,162.8z"/>
				<path class="st46" d="M145.61,99c0,0,3.11,0.38,2.98,3.91c-0.12,3.53-3.38,18.77-7.13,21.79c-3.74,3.03-3.66-4.18-3.66-4.18
					S140.09,98.23,145.61,99z"/>
				<path class="st47" d="M141.28,127.94c0,0,2.72,8.07,4.13,9.83c0,0-16.37,9.39-20.09,12.59C122.24,153,104.83,161,104.83,161
					s1.17,1.77,1.76,5.43c0,0,15.57-0.22,25.37-9.22c0,0,32.87-6.85,30.06-23.81C162.02,133.4,151.14,137.72,141.28,127.94z"/>
				<path class="st48" d="M154.48,100.21c0,0,8.89,4.99,9.08,5.6c0.19,0.61,1.22,1.09-1.7,8c0,0-2.75,6.11-0.79,13.62
					c1.14,4.35,0.96,5.82,0.96,5.82s-3.45,7.4-13.27,3.79c-1.98-0.73-7.52-6.01-8.53-8.19c0,0,3.12-3.84,1.9-11.34
					c-1.23-7.5-1.92-17.24,2.33-18.54C144.47,98.97,145.55,97.67,154.48,100.21z"/>
				<path class="st49" d="M151.72,97.8c0,0-5.72,3.01-3.17,7.33l-2.69,1.48C145.85,106.62,143.21,99.06,151.72,97.8z"/>
				<path class="st34" d="M155.39,94.76c0,0-2.41,3.66-0.5,6.13c1.07,1.38-1.45,4.65-5.73,4.39c0,0-1.92-0.47-1.72-1.16
					c0.45-1.58-0.19-2.47-0.87-3.68C145.89,99.23,155.39,94.76,155.39,94.76z"/>
				<path class="st38" d="M154.89,100.89c0.13,0.17,0.2,0.36,0.23,0.57c-1.61-1.63-4.69-1.76-4.69-1.76l4.08-4.5
					c0.16-0.08,0.29-0.14,0.41-0.2l0.13,0.4C154.45,96.55,153.47,99.05,154.89,100.89z"/>
				<path class="st50" d="M147.44,104.12c0.41-2.51-0.19-2.47-0.87-3.68c-0.18-0.33,0.4-0.91,1.34-1.57
					c0.23,0.17,0.47,0.43,0.7,0.79c1.66,2.56,1.65,4.56,1.45,5.63c-0.29,0.02-0.59,0.05-0.89,0
					C148.65,105.2,147.32,104.89,147.44,104.12z"/>
				<g>
					<path class="st34" d="M156.28,92.72c0,0-1.04,4.84-4.37,7.04c-2.95,1.94-6.38,3.22-7.01-0.3c-0.5-2.8-1.88-9.92,0.59-11.36
						c3.19-1.84,4.35-4.11,8.04-2.76C153.53,85.34,157.74,87.27,156.28,92.72z"/>
					<path class="st39" d="M156.28,92.72c0,0-0.38,4.15-4.36,7.1c-0.85,0.63-1.95,1.13-2.79,1.48c1.55-1.14,1.71-1.49,2.91-2.89
						c1.2-1.4-1.79-0.86,0.26-4.44c0.69-1.22-2.72,0.35-3.48,0.33c-4.54-0.11-4.2-2.71-4.29-3.81c0.09-0.49,0.22-0.94,0.37-1.34
						l0.43-0.83c0.05-0.08,0.1-0.15,0.15-0.22c0.49-0.62,0.98-1.16,1.47-1.62c1.94,0.04,7.47,0.16,7.58,0.19
						c0.08,0.02,1.02,1.31,1.91,2.53C156.65,90.16,156.65,91.32,156.28,92.72z"/>
					<path class="st51" d="M154.29,97.41c0,0,3.67-3.38,2.4-8.22c0,0-0.68-3.9-5.01-4.41c-2.06-0.25-6.04-0.12-7.61,4.05
						c-0.49,1.3-0.16,4.16,4.95,2.83c0.73-0.19,2.67-0.45,3.36,0.18c0.69,0.62,0.76,1.78,0.43,2.77c-0.29,0.87,0.47,0.96,0.58,0.77
						c0.1-0.18,1.09-2.66,2.01-1.69C156.23,94.56,154.38,97.24,154.29,97.41z"/>
					<path class="st51" d="M154.29,97.41c0.09-0.17,1.94-2.85,1.11-3.72c-0.92-0.97-1.91,1.51-2.01,1.69
						c-0.11,0.18-0.87,0.09-0.58-0.77c0.33-0.99,0.26-2.15-0.43-2.77c-0.62-0.57-2.33-0.28-3.36-0.18c0.84-0.54,2.54-0.73,3.14-2.15
						c0.8-1.89,1.94-2.78,3.01-3.11c1.25,1.27,1.52,2.79,1.52,2.79C157.96,94.03,154.29,97.41,154.29,97.41z"/>
				</g>
				<path class="st49" d="M154.3,99.71c0,0-0.87,4.32-5.75,5.43l1.4,3.41C149.94,108.54,158.71,104.15,154.3,99.71z"/>
				<path class="st52" d="M144.06,88.82c0,0-0.75,4.66,5.18,2.97c0,0,2.97-0.79,4.16-3.54c0.25-0.59,0.94-1.56,1.94-1.66
					c0,0-1.58-2.24-5.66-1.95c-1.92,0.14-3.92,2.01-4.41,2.31C144.78,87.26,145.58,89.2,144.06,88.82z"/>
				<path class="st34" d="M124.47,123.32c0,0-4.27,0.8-7.19-0.41c-2.92-1.21-2.22-1.31-1.99-1.75c0.49-0.96,4.34-0.7,5.05-0.88
					c0.71-0.19-0.59-0.75-0.88-1.24c-0.29-0.49-0.97-1.06-0.73-1.22c0.23-0.16,0.82-0.32,1.91,0.54c1.09,0.87,3.82,2.04,3.82,2.04
					L124.47,123.32z"/>
				<path class="st46" d="M123.86,119.97c0,0,0.24,0.81,0.23,1.9c-0.01,1.31-0.61,2.19-0.61,2.19s13.95,2.8,17.49,1
					c0,0,3.43-5.28-1.81-6.68L123.86,119.97z"/>
				<g>
					<g>
						<g class="st24">
							<g>
								<polygon class="st53" points="150.48,138.72 150.54,139.44 140.08,146.89 140.02,146.17 								"/>
							</g>
							<g>
								<polygon class="st54" points="140.02,146.17 140.08,146.89 120.56,137.92 120.49,137.2 								"/>
							</g>
							<g>
								<polygon class="st55" points="150.48,138.72 140.02,146.17 120.49,137.2 130.95,129.74 								"/>
							</g>
						</g>
					</g>
					<g>
						<g class="st24">
							<g>
								<polygon class="st56" points="136.88,133.79 137.66,133.07 140.92,146.13 140.14,146.85 								"/>
							</g>
							<g>
								<polygon class="st57" points="116.48,124.41 117.25,123.69 137.66,133.07 136.88,133.79 								"/>
							</g>
							<g>
								<polygon class="st58" points="136.88,133.79 140.14,146.85 119.73,137.47 116.48,124.41 								"/>
							</g>
							<g>
								<polygon class="st59" points="136.88,133.79 136.88,133.79 119.73,137.47 116.48,124.41 								"/>
							</g>
						</g>
					</g>
				</g>
				<g>
					<path class="st34" d="M150,138.51c0,0-3.86,4.74-8.57,4.75c0,0-0.23-1.18,1.7-2.02c1.93-0.84,2.39-2.53,2.32-2.77
						c-0.06-0.24-1.67-0.05-2.38,0.05c-0.72,0.11-1.75-0.69-0.06-1.14c1.7-0.45,4.5-1.69,6.25-1.66
						C149.27,135.73,151.29,137.18,150,138.51z"/>
					<path class="st46" d="M159.66,105.09c0,0,2.91-1.16,4.5,1.99c1.58,3.16,6.04,18.09,4.21,22.54
						c-1.83,4.45-18.46,9.91-18.46,9.91c0.71-2.84-1.46-4.63-1.46-4.63l13.49-9.09C161.94,125.82,154.46,107.05,159.66,105.09z"/>
					<path class="st60" d="M161.94,125.82l-13.49,9.09c0,0,0.62,0.54,1.09,1.46c3.13-1.73,15.12-6.03,14.3-8.63
						c-4.21-13.41-5.78-20.55-5.78-20.55l-0.22,1.74C157.62,114.99,161.94,125.82,161.94,125.82z"/>
				</g>
			</g>
		</g>
		<g class="st0">
			<path class="st61" d="M92.95,203.22h2.14v7.65h3.75v1.79h-5.9V203.22z"/>
			<path class="st61" d="M102.67,210.24l-0.67,2.42h-2.21l2.89-9.44h2.8l2.93,9.44h-2.3l-0.73-2.42H102.67z M105.06,208.64l-0.59-2
				c-0.17-0.56-0.34-1.26-0.48-1.82h-0.03c-0.14,0.56-0.28,1.27-0.43,1.82l-0.56,2H105.06z"/>
			<path class="st61" d="M109.93,203.35c0.66-0.11,1.58-0.2,2.88-0.2c1.32,0,2.26,0.25,2.89,0.76c0.6,0.48,1.01,1.26,1.01,2.19
				c0,0.92-0.31,1.71-0.87,2.24c-0.73,0.69-1.81,0.99-3.07,0.99c-0.28,0-0.53-0.01-0.73-0.04v3.38h-2.12V203.35z M112.05,207.63
				c0.18,0.04,0.41,0.06,0.71,0.06c1.13,0,1.83-0.57,1.83-1.54c0-0.87-0.6-1.39-1.67-1.39c-0.43,0-0.73,0.04-0.88,0.08V207.63z"/>
			<path class="st61" d="M120.17,205.01h-2.54v-1.79h7.26v1.79h-2.58v7.65h-2.14V205.01z"/>
			<path class="st61" d="M134.53,207.84c0,3.1-1.88,4.97-4.64,4.97c-2.8,0-4.44-2.12-4.44-4.8c0-2.83,1.81-4.95,4.59-4.95
				C132.95,203.07,134.53,205.24,134.53,207.84z M127.71,207.97c0,1.85,0.87,3.15,2.3,3.15c1.44,0,2.27-1.37,2.27-3.21
				c0-1.7-0.81-3.15-2.28-3.15C128.55,204.76,127.71,206.13,127.71,207.97z"/>
			<path class="st61" d="M136.21,203.35c0.66-0.11,1.58-0.2,2.88-0.2c1.32,0,2.26,0.25,2.89,0.76c0.6,0.48,1.01,1.26,1.01,2.19
				c0,0.92-0.31,1.71-0.87,2.24c-0.73,0.69-1.81,0.99-3.07,0.99c-0.28,0-0.53-0.01-0.73-0.04v3.38h-2.12V203.35z M138.33,207.63
				c0.18,0.04,0.41,0.06,0.71,0.06c1.13,0,1.83-0.57,1.83-1.54c0-0.87-0.6-1.39-1.67-1.39c-0.43,0-0.73,0.04-0.88,0.08V207.63z"/>
		</g>
	</g>
</g>
</svg>
