<?xml version="1.0" encoding="utf-8"?>
<!-- Generator: Adobe Illustrator 24.0.1, SVG Export Plug-In . SVG Version: 6.00 Build 0)  -->
<svg version="1.1" id="Tryb_izolacji" xmlns="http://www.w3.org/2000/svg" xmlns:xlink="http://www.w3.org/1999/xlink" x="0px"
	 y="0px" viewBox="0 0 245.9 267.7" style="enable-background:new 0 0 245.9 267.7;" xml:space="preserve">
<style type="text/css">
	.st0{fill:#321B4D;}
	.st1{fill:#FCC397;}
	.st2{fill:#E5E5E5;}
	.st3{fill:#333333;}
	.st4{fill:#161616;}
	.st5{fill:#515151;}
	.st6{fill:#EA9F6C;}
	.st7{fill:#875D41;}
	.st8{fill:#FFFFFF;}
	.st9{fill:#7B9368;}
	.st10{fill:#EA8C63;}
	.st11{fill:#D87350;}
	.st12{opacity:0.4;fill:#FFFFFF;enable-background:new    ;}
	.st13{fill:#212121;}
	.st14{fill:#DA627D;}
</style>
<g>
	<path class="st0" d="M1.6,142.5c0,66.9,54.3,121.2,121.2,121.2s121.2-54.3,121.2-121.2S189.7,21.4,122.8,21.4S1.6,75.6,1.6,142.5z"
		/>
	<path class="st1" d="M150.8,110.2c-4.8-1.9-9.1-6.6-10.1-10L140.5,87c-2.9,2.1-5.7,3.5-9,5.6c-1.6,0.4-7.6,0.6-9.6-0.1
		c-4.9-2.9-10.4-6.1-15.6-10.9l-0.6,19c-1.2,3.3-5.8,7.6-10.5,9.5l28.3,7.3L150.8,110.2z"/>
	<path class="st2" d="M140.7,186.8c1.2-0.2,2.3,0.1,3.4,0.8V118h-43.9v74.9C109.6,191.9,121.3,189.8,140.7,186.8z"/>
	<path class="st3" d="M193.2,124.5c-2.5-6.6-8.8-11.3-16.2-11.3l-26.1-3.1c-1-0.4-4.6-0.9-5.5-1.6l-20.7,80.7
		c-0.6,0.1-1.2,0.2-1.8,0.3l-21.3-83.5c-1.8,1.6-4,3-6.2,3.9l-25.9,3.2c-6.9,0-13.2,4.1-15.9,10.5c-5.4,10.6-6.9,48.8-4.9,69.9
		c1,13,5.8,27.9,18.6,30.4c2.6,0.5,5.6,0.8,9,1c-0.7,30.8-0.6,25.9-0.7,28.9c14.6,6.2,30.6,9.6,47.4,9.6c17.1,0,33.4-3.6,48.2-10
		l-0.4-26.1c10-1.3,17.8-3.5,19.5-6.7C198.4,205.2,199.3,136.7,193.2,124.5z"/>
	<path class="st4" d="M169,153c0,0-3.6,22.2-5.1,35.2c-0.7,0.6-7.2,2.7-7.2,2.7S162,179.1,169,153z"/>
	<path class="st5" d="M99.5,232.2l-4.4,0.1c0.3,1.3,0.4,2.7,0.5,4.2c0.1,4.2-1.2,8.1-3.3,11.4c-2.5,4-6.4,7.1-10.9,8.6
		c1.2,0.4,3.6,1.3,6,2c7.6-4.4,12.6-12.7,12.5-22.1C99.8,234.9,99.7,233.5,99.5,232.2z"/>
	<path class="st6" d="M122.1,89.1c0,0-6.9-2-16.1-6.9v8.5c2.6,1.7,6.5,4.2,9.2,5.9c1.4,0.8,3.9,1.1,3.9,1.1h10c0,0,2.6-0.2,3.9-1.1
		c2.2-1.4,4.7-3.5,7.4-5.3V82C130.7,86.8,122.1,89.1,122.1,89.1z"/>
	<path class="st1" d="M156.4,45.4c-0.9-0.3-1.8-0.2-2.8,0.2c0.4-10.7,0.3-20.4-1.1-22.5C145,11.2,136.1,6,123,5.5l0,0l0,0
		C109.9,6,102,11.2,94.5,23c-1.4,2.2-1.6,12.3-1.4,23.3c-1.4-1-2.8-1.4-4.1-1c-2.9,1-3.9,5.7-2.3,10.5c1.4,4.2,4.3,7.1,7,7.2
		c0.2,5.3,0.5,10,0.7,13c0.1,2.4,2.1,5,2.9,5.6c7.4,5.1,12.6,8.6,17.1,11.3c1.3,0.8,3.2,0.9,3.2,0.9h10.6c0,0,2.5-0.3,3.6-1
		c4.5-2.7,9.6-6.2,16.9-11.1c0.9-0.6,3.1-3.3,3.3-5.6c0.2-3.1,0.6-7.9,0.9-13.4c2.3-0.7,4.6-3.4,5.9-7
		C160.3,51.1,159.3,46.3,156.4,45.4z"/>
	<path class="st7" d="M130.5,40.7c1-0.4,12.4-3.3,15,2.8c2.2,5.1-2.4-0.3-5.8-0.7c-4.2-0.5-5.4-0.5-8.8-0.5
		C129.5,42.4,129.2,41.2,130.5,40.7z"/>
	<path class="st7" d="M114.3,41.1c-0.9-0.4-12-3.1-14.6,2.3c-2.4,5,2.3-0.2,5.6-0.5c4.1-0.3,6.7-0.1,8.5-0.1
		C115.2,42.7,115.5,41.6,114.3,41.1z"/>
	<path class="st8" d="M114.8,50.3c-3.6,1.2-5.2,1.3-7,1.3c-2.8,0-5.4-1-5.4-2.8s2.6-3.1,5.4-3.1C110.7,45.8,114.4,48.9,114.8,50.3z"
		/>
	<path class="st9" d="M110.7,48.7c0,1.6-1.2,2.9-2.7,2.9c-1.5,0-2.7-1.3-2.7-2.9c0-1.6,1.2-2.9,2.7-2.9
		C109.5,45.8,110.7,47.1,110.7,48.7z"/>
	<path d="M109.8,48.7c0,1-0.8,1.8-1.8,1.8s-1.8-0.8-1.8-1.8c0-1,0.8-1.8,1.8-1.8C109,46.9,109.8,47.7,109.8,48.7z"/>
	<path class="st8" d="M110.7,48.8c0,0.4-0.4,0.7-0.9,0.7s-0.9-0.3-0.9-0.7s0.4-0.7,0.9-0.7S110.7,48.4,110.7,48.8z"/>
	<path class="st6 eye" d="M114.8,50.3c0,0-1-1.6-5-2.8c-2.8-0.9-7.1,0.4-7.2,2.4c-1.2-0.9-1.2-2.5,1.8-3.6c3.4-1.3,7.5-0.4,10,3.2
		C114.6,49.7,114.8,50,114.8,50.3z"/>
	<path class="st8" d="M130.3,50.3c3.6,1.2,4.9,1.3,6.9,1.3c2.8-0.1,5.4-0.8,5.4-2.6s-2.5-3.2-5.3-3.2S130.7,48.9,130.3,50.3z"/>
	<path class="st9" d="M134.4,48.6c0,1.6,1.2,2.9,2.7,2.9c1.5,0,2.7-1.3,2.7-2.9s-1.2-2.9-2.7-2.9C135.6,45.7,134.4,47,134.4,48.6z"
		/>
	<path d="M135.4,48.6c0,1,0.8,1.8,1.8,1.8s1.8-0.8,1.8-1.8c0-1-0.8-1.8-1.8-1.8C136.2,46.8,135.4,47.6,135.4,48.6z"/>
	<path class="st8" d="M138.1,48.5c0,0.4,0.4,0.7,0.9,0.7c0.5,0,0.9-0.3,0.9-0.7s-0.4-0.7-0.9-0.7C138.5,47.8,138.1,48.1,138.1,48.5z
		"/>
	<path class="st6" d="M130.3,50.3c0,0,1-1.6,5-2.8c2.8-0.9,7.1,0.4,7.2,2.4c1.2-0.9,1.1-2.5-2-3.7c-3.4-1.3-7.3-0.3-9.8,3.3
		C130.5,49.7,130.4,50,130.3,50.3z"/>
	<path class="st6" d="M124.7,66.1h-4.6c-1.5,0-2.8-1-3.3-2.5c-0.2,0.4-0.3,0.9-0.3,1.4c0,2.2,2.7,2.9,4.6,2.9h2.4
		c2,0,4.6-0.7,4.6-2.9c0-0.5-0.1-1-0.3-1.4C127.5,65,126.2,66.1,124.7,66.1z"/>
	<path class="st6" d="M86.9,48.9c0-0.4,0.7-2.2,1.7-1.8c1.5,0.5,2.4,3.3,3,6.2c0.6,2.8,0.3,4.9,0,4.2c-0.5-1.1-0.9-4.5-2.6-7.8
		C87.9,47.4,87.2,52,86.9,48.9z"/>
	<path class="st6" d="M158.4,48.9c0-0.4-0.7-2.2-1.7-1.8c-1.5,0.5-2.4,3.3-3,6.2c-0.6,2.8-0.3,4.9,0,4.2c0.5-1.1,0.9-4.5,2.6-7.8
		C157.5,47.4,158.2,52,158.4,48.9z"/>
	<path class="st7" d="M146.4,7.1c-4.9-8.6-32.9-4.9-41.8-2.5C95.7,7.1,89.8,12,90.1,19.7c0.3,6.6,0.3,21.6,0.3,25.5
		c0.8,0.1,1.5,0.4,2.3,0.9l1.7,8.1l1.8-12.6c0,0-3.7-24.6,20.3-20.3c-3.4,1.8-9.5,8.3-9.5,8.3s14.2-3.4,19.7-5.5
		c5.5-2.1,0,4.6,0,4.6s10.8-4,14.2-5.2s6.8-0.3,7.4,5.5c0.6,5.8,2.1,28,2.1,28l3.9-11.6c0.3-0.1,0.6-0.1,0.9-0.2
		c0.1-2.3,0.3-5.3,0.5-8.9C157.5,1.3,150.1,13.6,146.4,7.1z"/>
	<g>
		<path class="st10" d="M114.3,76.1c0.2,1.1,1.9,3.7,2.9,3.7h10.1c1,0,2.7-2.6,2.9-3.7H114.3z"/>
		<path class="st11" d="M127.1,76.5c-2.1-0.3-9.2-0.2-10.3-0.1c-2.8,0.1-4.5-1.4-4.4-1.8c0.2-0.5,0.5-0.4,0.8,0.1
			c0.3,0.4,2.1,0.3,3.1,0.1c4.7-1,3.5,0.1,5.7,0.2c2.1,0,1.4-1,5.4-0.1c1.4,0.3,3.2,0.8,3.9,0.4c0.5-0.2,0.8-0.5,1,0
			C132.5,75.8,130.5,77,127.1,76.5z"/>
	</g>
	<path class="st12" d="M118.7,51.4c0,2.7-2.2,4.8-4.8,4.8h-11c-2.7,0-4.8-2.2-4.8-4.8v-4.5c0-2.7,2.2-4.8,4.8-4.8h11
		c2.7,0,4.8,2.2,4.8,4.8V51.4z"/>
	<path class="st12" d="M146.3,51.4c0,2.7-2.1,4.8-4.8,4.8h-11c-2.7,0-4.8-2.2-4.8-4.8v-4.5c0-2.7,2.2-4.8,4.8-4.8h11
		c2.6,0,4.8,2.2,4.8,4.8V51.4z"/>
	<path class="st13" d="M155.2,43.5l-8.9,0.2c-0.8-1.4-2.4-2.4-4.1-2.4H130c-2.7,0-4.8,2.2-4.8,4.8V47c-0.7-0.2-5.5-0.1-5.9,0v-0.9
		c0-2.7-2.2-4.8-4.8-4.8h-12.1c-1.8,0-3.4,1-4.2,2.5l-7.8-0.2v1.5l7.2,2.9V52c0,2.7,2.2,4.8,4.8,4.8h12.1c2.7,0,4.8-2.2,4.8-4.8
		v-2.9c0.7-0.2,5.5-0.1,5.9,0V52c0,2.7,2.2,4.8,4.8,4.8h12.1c2.7,0,4.8-2.2,4.8-4.8v-4l8.3-2.9V43.5z M117.7,51.4
		c0,2.3-1.8,4.1-4.1,4.1h-10.4c-2.3,0-4.1-1.8-4.1-4.1v-5c0-2.3,1.8-4.1,4.1-4.1h10.4c2.3,0,4.1,1.8,4.1,4.1V51.4z M145.4,51.4
		c0,2.3-1.8,4.1-4.1,4.1h-10.4c-2.3,0-4.1-1.8-4.1-4.1v-2.3c0,0,0,0,0-0.1c0,0,0,0,0-0.1v-2.5c0-2.3,1.8-4.1,4.1-4.1h10.4
		c2.3,0,4.1,1.8,4.1,4.1V51.4z"/>
	<path class="st4" d="M79.8,153.3c0,0,1.5,18.3,2.1,22.2c0.6,3.9,2.7,18,2.7,18l12.3-0.6C96.9,192.9,85.8,180.6,79.8,153.3z"/>
	<path class="st14" d="M122.7,189.6c0.5-0.1,1.1-0.2,1.6-0.3l6.1-24.1l-4.2-33.5l5.1-7.4l-3-8.1l-10.4-0.3l-2.7,8.8l4.7,6.8
		l-4.8,28.3L122.7,189.6z"/>
	<g>
		<path class="st5" d="M135.4,187.6l17.9-33.3l-2.3-11.5l11.2-2l-1.9-29.5l-8.7-1.3c-1.3-0.5-2.5-1.2-3.7-2l-4.6,6.5l-19,74.8
			C127.7,188.8,131.4,188.3,135.4,187.6z"/>
		<path class="st5" d="M94.5,154l19.3,37c2.8-0.4,5.7-0.9,9-1.4l-19.2-75.3l-4.6-6.2c-1.2,0.8-2.4,1.5-3.7,2l-8.2,1l-1.5,29.5
			l11.2,2L94.5,154z"/>
	</g>
	<path class="st1" d="M75.3,189.1l4.9,4.4c9.9,0.6,17.6,0,29.7-1.8c-4.9-5.8-5.4-6.6-6.4-7.3l-15.3-13.5c-1.9-1.7-4.3-2.1-5.3-1
		s-0.3,3.4,1.7,5.1l12.2,10.7l-0.3,0.2l-13.3-11.7c-1.9-1.7-4.3-2.1-5.3-1c-1,1.1-0.3,3.4,1.7,5.1l12.6,11.1l-0.2,0.2l-12.7-11.1
		c-1.8-1.6-4-2-5-0.9c-0.9,1.1-0.2,3.2,1.6,4.8L88,193l-0.3,0.2l-9.1-8c-1.8-1.6-4-2-5-0.9C72.8,185.3,73.5,187.5,75.3,189.1z"/>
	<path class="st4" d="M109.9,223.6c-12.1,1.2-24.5,2-34.1,1.5v11.3l28.2-6.6l66.4,6.6v-8.9C148.3,230.4,114.9,228.6,109.9,223.6z"/>
	<path class="st5" d="M154.4,247.4c-2.1-3.3-3.4-7.2-3.4-11.4c0-0.5,0-0.9,0.1-1.4l-4.3-0.4c-0.1,0.6-0.1,1.2-0.1,1.9
		c0,9.5,5.2,17.7,12.9,22c2.5-0.8,4.2-1.4,6-2.1C161,254.4,157,251.4,154.4,247.4z"/>
	<path class="st4" d="M98.9,224.8c0,0,33.6-2.8,47.3-8.6c1.6-0.7,1.1-6.9,1.1-9.7c1.1,3.2,2.9,11.2,0.7,12.9
		C142.1,223.9,114.1,226.2,98.9,224.8z"/>
	
		<rect x="143.6" y="186.1" transform="matrix(0.9377 -0.3475 0.3475 0.9377 -59.0134 63.1154)" class="st8" width="5.7" height="20"/>
	<path class="st1" d="M164,187.8l-15.6-1.2c-0.8-0.1-1.6,0.1-2.3,0.4l6.4,17.4c6-2.5,8.6-4.4,9.6-7.6
		C162.7,195.2,163.4,191.9,164,187.8C164,187.8,164,187.8,164,187.8z"/>
	<path class="st4" d="M121.7,231.4v32.3c0.3,0,0.7,0,1,0c0.1,0,0.2,0,0.4,0v-32.3L121.7,231.4L121.7,231.4z"/>
	<g>
		<path class="st5" d="M131.6,248.1c0,1.6-1.3,2.8-2.8,2.8c-1.6,0-2.8-1.3-2.8-2.8c0-1.6,1.3-2.8,2.8-2.8
			C130.4,245.3,131.6,246.6,131.6,248.1z"/>
		<g>
			<path class="st3" d="M130.2,248.1c0,0.2-0.2,0.4-0.4,0.4c-0.2,0-0.4-0.2-0.4-0.4s0.2-0.4,0.4-0.4S130.2,247.9,130.2,248.1z"/>
			<path class="st3" d="M128.4,248.1c0,0.2-0.2,0.4-0.4,0.4c-0.2,0-0.4-0.2-0.4-0.4s0.2-0.4,0.4-0.4S128.4,247.9,128.4,248.1z"/>
		</g>
	</g>
	<polygon class="st8" points="105.1,100.1 123.5,115.9 110,129.4 96.8,109 	"/>
	<polygon class="st8" points="141.8,100.1 123.5,115.9 136.9,129.4 150.1,109 	"/>
</g>
</svg>
