<?xml version="1.0" encoding="utf-8"?>
<!-- Generator: Adobe Illustrator 24.0.1, SVG Export Plug-In . SVG Version: 6.00 Build 0)  -->
<svg version="1.1" id="Layer_1" xmlns="http://www.w3.org/2000/svg" xmlns:xlink="http://www.w3.org/1999/xlink" x="0px" y="0px"
	 viewBox="0 0 200 200" style="enable-background:new 0 0 200 200;" xml:space="preserve">
<style type="text/css">
	.st0{display:none;fill:#F7F7F7;}
	.st1{fill:#321B4D;}
	.st2{fill:#FCD8B8;}
	.st3{opacity:0.3;fill:#FEB783;enable-background:new    ;}
	.st4{fill:#4E3475;}
	.st5{display:none;fill:url(#SVGID_1_);}
	.st6{fill:#BE6FD3;}
	.st7{fill:url(#SVGID_2_);}
	.st8{fill:url(#SVGID_3_);}
	.st9{opacity:0.2;fill:#FEB783;enable-background:new    ;}
	.st10{fill:url(#SVGID_4_);}
	.st11{fill:#FFFFFF;}
	.st12{opacity:0.1;enable-background:new    ;}
	.st13{fill:#F7C9D9;}
	.st14{fill:#DC5271;}
	.st15{fill:#F8AE35;}
	.st16{opacity:0.3;fill:url(#SVGID_5_);enable-background:new    ;}
	.st17{fill:url(#SVGID_6_);}
	.st18{fill:url(#SVGID_7_);}
	.st19{fill:url(#SVGID_8_);}
</style>
<g>
	<rect y="0" class="st0" width="200" height="200"/>
	<g>
		<path class="st1" d="M105.2,23.1c4.1,5.4,9.7,9.8,16.6,12.4c9.5,3.6,17.2,0.5,28.5,4.8c19.3,7.3,29.1,28.8,21.8,48.1
			c-4.4,11.7-14.1,19.9-25.3,22.9c0,0.1-17.6,3.4-24,20.5c-2.8,7.4-2.2,13.6-5,21.1c-8.4,22.4-33.5,33.8-55.9,25.3
			c-22.4-8.4-33.8-33.5-25.3-55.9c3.3-8.8,9.6-12.7,13.6-23.4c4-10.5,2-21.8-4.1-30.2c0,0-11.1-13.8-3.6-33.7
			c7.2-19.3,28.7-29,48-21.8C96.3,15.4,101.2,18.9,105.2,23.1C105.1,23.1,105.1,23.1,105.2,23.1z"/>
		<path class="st1" d="M45.4,91.3c0.8-7.9-4.4-14.9-11.6-15.7c-7.2-0.8-8.9,5.9-9.8,13.8c-0.8,7.9-0.5,14.1,6.8,14.9
			C38.1,105,44.6,99.2,45.4,91.3z"/>
	</g>
	<path class="st2" d="M126.4,200c-1.8-6.2-3.3-10.7-4.3-12.7c-12.6-5.1-18.9-24-20.2-27.3s-4.3-5.5-9.4-4.6
		c-5,0.9-11.8,2.5-16.1,0.7c-4.3-1.9-3.1-5.3,2-6.8s14-5.2,14-5.2l3.5-30.2c0,0,21.6-15.6,26.5-11.2c0,0,20.4,30.3,21.2,37
		c0.8,7.6,1,20,5.6,35.7c1.3,4.4,5.5,13.6,10.9,24.5h-33.7V200z"/>
	<path class="st2" d="M122.5,102.8c0,0,0.7,1.1,1.9,2.9c0.2,7.7,0.8,23.6,1.5,24.7c0.9,1.5,4.6,6.8,4.6,6.8s-6.8-5.9-9.7-8.2
		c-2.3-1.9-1.3-19.7-0.8-26.9C121,102,121.9,102.2,122.5,102.8z"/>
	<path class="st3" d="M93.9,147.6l0.2-1.4l22.5,0.2l2.3,6.4l-26.7-4.6C93.3,147.9,93.9,147.6,93.9,147.6z"/>
	<path class="st2" d="M73.2,108.1c0,0-6-0.1-6.3,4.5s2.8,6.6,6.3,7h1l-0.1-11.2L73.2,108.1z"/>
	<path class="st2" d="M73.3,129.5c0,0-8-1.4-7.8,5.1c0.1,5.1,6.6,5.5,8.1,6l1.3-0.2l-0.5-10.5L73.3,129.5z"/>
	<path class="st2" d="M116.9,182.1c1-2.1,4.3-3.1,4.4-3.1h0.2c0,0-3.2,1.7-4.2,3.4c-0.1,0.2-0.3,0.7-0.5,1.1c0-0.1-0.1-0.2-0.1-0.3
		c-0.1,0-0.1-0.1-0.2-0.1C116.6,182.9,116.7,182.5,116.9,182.1z"/>
	<g>
		<path class="st4" d="M117.4,44.9c3.3,0,5.9,2.6,5.9,5.9v92.1c0,3.3-2.6,5.9-5.9,5.9H78.8c-3.3,0-5.9-2.6-5.9-5.9V50.8
			c0-3.3,2.6-5.9,5.9-5.9L117.4,44.9z"/>
		<g>
			<path class="st4" d="M72.5,76.8c0,0.4,0.2,0.7,0.4,0.7c0.2,0,0.4-0.3,0.4-0.7V66.5c0-0.4-0.2-0.7-0.4-0.7c-0.2,0-0.4,0.3-0.4,0.7
				V76.8z"/>
		</g>
		<g>
			<path class="st4" d="M123.1,80c0,0.4,0.2,0.7,0.4,0.7c0.2,0,0.4-0.3,0.4-0.7v-6c0-0.4-0.2-0.7-0.4-0.7c-0.2,0-0.4,0.3-0.4,0.7V80
				z"/>
		</g>
		<g>
			<path class="st4" d="M123.1,71.7c0,0.4,0.2,0.7,0.4,0.7c0.2,0,0.4-0.3,0.4-0.7v-6c0-0.4-0.2-0.7-0.4-0.7c-0.2,0-0.4,0.3-0.4,0.7
				V71.7z"/>
		</g>
		<g>
			<path class="st4" d="M123.1,62.8c0,0.4,0.2,0.7,0.4,0.7c0.2,0,0.4-0.3,0.4-0.7v-4c0-0.4-0.2-0.7-0.4-0.7c-0.2,0-0.4,0.3-0.4,0.7
				V62.8z"/>
		</g>
	</g>
	
		<linearGradient id="SVGID_1_" gradientUnits="userSpaceOnUse" x1="32.25" y1="101.0555" x2="68.2501" y2="101.0555" gradientTransform="matrix(-1 0 0 -1 154.1846 197.9055)">
		<stop  offset="0" style="stop-color:#4C2A71"/>
		<stop  offset="1" style="stop-color:#7D3F95"/>
	</linearGradient>
	<path class="st5" d="M73.3,142.9c0,3.1,2.5,5.6,5.6,5.6h38.6c3.1,0,5.6-2.5,5.6-5.6V50.8c0-3.1-2.5-5.6-5.6-5.6H78.9
		c-3.1,0-5.6,2.5-5.6,5.6V142.9z"/>
	<rect x="74.8" y="56.1" class="st6" width="46.6" height="81.6"/>
	<g>
		<g>
			<g>
				
					<linearGradient id="SVGID_2_" gradientUnits="userSpaceOnUse" x1="46.6671" y1="147.3055" x2="69" y2="147.3055" gradientTransform="matrix(-1 0 0 -1 154.1846 197.9055)">
					<stop  offset="0" style="stop-color:#814DB0"/>
					<stop  offset="1" style="stop-color:#BE6FD3"/>
				</linearGradient>
				<path class="st7" d="M104.6,50.6c0,0.3-0.2,0.5-0.5,0.5H90.7c-0.3,0-0.5-0.2-0.5-0.5l0,0c0-0.3,0.2-0.5,0.5-0.5h13.4
					C104.4,50.1,104.6,50.3,104.6,50.6L104.6,50.6z"/>
			</g>
			<g>
				
					<linearGradient id="SVGID_3_" gradientUnits="userSpaceOnUse" x1="46.667" y1="147.2055" x2="68.9997" y2="147.2055" gradientTransform="matrix(-1 0 0 -1 154.1846 197.9055)">
					<stop  offset="0" style="stop-color:#814DB0"/>
					<stop  offset="1" style="stop-color:#BE6FD3"/>
				</linearGradient>
				<path class="st8" d="M108.5,50.7c0,0.5-0.4,0.9-0.9,0.9s-0.9-0.4-0.9-0.9s0.4-0.9,0.9-0.9S108.5,50.2,108.5,50.7z"/>
			</g>
		</g>
	</g>
	<g>
		<g>
			<path class="st6" d="M98.4,140.4c0.7,0,1.5,0.3,2,0.8s0.8,1.2,0.8,2c0,0.7-0.3,1.5-0.8,2s-1.2,0.8-2,0.8h-0.3
				c-1.5,0-2.8-1.3-2.8-2.8s1.3-2.8,2.8-2.8H98.4z"/>
		</g>
	</g>
	<path class="st2" d="M134.6,141.3c0,0-12.5-12.6-17.1-14c-4.2-1.3-14.3-1.3-17.2,0c-2.8,1.2-1.9,10.4,13.3,12.1
		c2.2,2.2,6.8,25.5,19.7,34.5L134.6,141.3z"/>
	<g>
		<path class="st9" d="M120,154c3,7.2,7.3,15,13.6,19.5c0,0-4.1-1.6-6.4-4.5c-5.8-7.2-8.8-16.5-11-22.9l-0.6-2.1
			C115.6,144,118.7,150.8,120,154z"/>
	</g>
	<g>
		<path class="st9" d="M136.2,144.2l-2-2.5l0,0c-0.1-0.1-6.4-7.2-11.7-11.3c0,0,4.2,2.7,6,4.3c3.5,3.2,3.9,3.5,4.8,4.6
			C135.5,141.9,136.2,144.2,136.2,144.2z"/>
	</g>
	
		<linearGradient id="SVGID_4_" gradientUnits="userSpaceOnUse" x1="44.0791" y1="68.3033" x2="47.9126" y2="69.9694" gradientTransform="matrix(-1 0 0 -1 154.1846 197.9055)">
		<stop  offset="0" style="stop-color:#FCD7F9"/>
		<stop  offset="1" style="stop-color:#FCEBF9"/>
	</linearGradient>
	<path class="st10" d="M101.1,127.4c2.2-0.7,7.1-0.9,9.3-0.6c-1.5,1-2.5,3.2-2.8,4c-1.2,0.2-5.1-1.5-6.8-2.4
		C100.4,128.1,100.6,127.5,101.1,127.4z"/>
	<g>
		<path class="st9" d="M118.7,128.2c0,0-3.2,1.7-4.2,3.4c-0.4,0.7-1.2,3.1-1.2,3.1s0-1.8,0.9-3.5c1-2.1,4.3-3.1,4.4-3.1L118.7,128.2
			z"/>
	</g>
	<g>
		<g>
			<g>
				<circle class="st6" cx="54.2" cy="68.7" r="4.9"/>
			</g>
		</g>
		<g>
			<path class="st11" d="M55.5,67.1c0,0.8-0.6,1.4-1.4,1.4c-0.8,0-1.4-0.6-1.4-1.4s0.6-1.4,1.4-1.4C54.9,65.8,55.5,66.4,55.5,67.1z"
				/>
			<path class="st11" d="M56.8,70.9c-0.4-1.1-1.4-1.9-2.7-1.9l0,0l0,0l0,0l0,0c-1.2,0-2.3,0.8-2.7,1.9c0,0.1,0,0.3,0.3,0.3h4.8
				C56.8,71.2,56.9,71,56.8,70.9z"/>
		</g>
	</g>
	<path class="st9" d="M124.8,188c0.4,1.2,2.1,5.8,4.3,12h-2.6c-1.8-6.2-3.3-10.7-4.3-12.7c-7.6-3.1-12.8-11.1-16.2-17.8
		c2.8,3.9,9,11.7,12.8,13.5c3.6,1.7,7.5,0.2,8,0C126.3,183.2,123.6,184.5,124.8,188z"/>
	<path class="st12" d="M108.3,72.5c0,1.5-1.2,2.7-2.7,2.7l-45.8-0.1c0-0.5,0-10.7,0-10.7c0-1.5,1.2-2.7,2.7-2.7h43.1
		c1.5,0,2.7,1.2,2.7,2.7V72.5z"/>
	<path class="st11" d="M109.9,71c0,1.5-1.2,2.7-2.7,2.7l-45.8-0.1c0-0.5,0-10.7,0-10.7c0-1.5,1.2-2.7,2.7-2.7h43.1
		c1.5,0,2.7,1.2,2.7,2.7V71z"/>
	<g>
		<g>
			<g>
				<path class="st13" d="M98.1,65.3h6.8l0,0c0.3,0,0.5-0.2,0.5-0.5s-0.2-0.5-0.5-0.5l0,0h-6.8l0,0c-0.3,0-0.5,0.2-0.5,0.5
					C97.6,65,97.8,65.3,98.1,65.3L98.1,65.3z"/>
			</g>
			<g>
				<path class="st13" d="M80.3,65.3h14.1l0,0c0.3,0,0.5-0.2,0.5-0.5s-0.2-0.5-0.5-0.5l0,0H80.3l0,0c-0.3,0-0.5,0.2-0.5,0.5
					C79.8,65,80.1,65.3,80.3,65.3L80.3,65.3z"/>
			</g>
			<g>
				<path class="st13" d="M65.5,65.3h11.2l0,0c0.3,0,0.5-0.2,0.5-0.5s-0.2-0.5-0.5-0.5l0,0H65.5l0,0c-0.3,0-0.5,0.2-0.5,0.5
					C65,65,65.2,65.3,65.5,65.3L65.5,65.3z"/>
			</g>
			<g>
				<path class="st13" d="M94.9,69.6h4.9l0,0c0.3,0,0.5-0.2,0.5-0.5s-0.2-0.5-0.5-0.5l0,0h-4.9l0,0c-0.3,0-0.5,0.2-0.5,0.5
					S94.6,69.6,94.9,69.6L94.9,69.6z"/>
			</g>
			<g>
				<path class="st13" d="M73.1,69.6h18.6l0,0c0.3,0,0.5-0.2,0.5-0.5s-0.2-0.5-0.5-0.5l0,0H73.1l0,0c-0.3,0-0.5,0.2-0.5,0.5
					S72.8,69.6,73.1,69.6L73.1,69.6z"/>
			</g>
			<g>
				<path class="st13" d="M65.4,69.6h4.8l0,0c0.3,0,0.5-0.2,0.5-0.5s-0.2-0.5-0.5-0.5l0,0h-4.8l0,0c-0.3,0-0.5,0.2-0.5,0.5
					S65.2,69.6,65.4,69.6L65.4,69.6z"/>
			</g>
		</g>
	</g>
	<g>
		<g>
			<g>
				<circle class="st6" cx="54.2" cy="117.4" r="4.9"/>
			</g>
		</g>
		<g>
			<path class="st11" d="M55.5,115.8c0,0.8-0.6,1.4-1.4,1.4c-0.8,0-1.4-0.6-1.4-1.4s0.6-1.4,1.4-1.4S55.5,115.1,55.5,115.8z"/>
			<path class="st11" d="M56.8,119.5c-0.4-1.1-1.4-1.9-2.7-1.9l0,0l0,0l0,0l0,0c-1.2,0-2.3,0.8-2.7,1.9c0,0.1,0,0.3,0.3,0.3h4.8
				C56.8,119.9,56.9,119.6,56.8,119.5z"/>
		</g>
	</g>
	<path class="st12" d="M108.3,121.2c0,1.5-1.2,2.7-2.7,2.7l-45.8-0.1c0-0.5,0-10.7,0-10.7c0-1.5,1.2-2.7,2.7-2.7h43.1
		c1.5,0,2.7,1.2,2.7,2.7V121.2z"/>
	<path class="st11" d="M109.9,119.6c0,1.5-1.2,2.7-2.7,2.7l-45.8-0.1c0-0.5,0-10.7,0-10.7c0-1.5,1.2-2.7,2.7-2.7h43.1
		c1.5,0,2.7,1.2,2.7,2.7V119.6z"/>
	<g>
		<g>
			<g>
				<path class="st13" d="M94.8,113.9h10l0,0c0.3,0,0.5-0.2,0.5-0.5s-0.2-0.5-0.5-0.5l0,0h-10l0,0c-0.3,0-0.5,0.2-0.5,0.5
					S94.5,113.9,94.8,113.9L94.8,113.9z"/>
			</g>
			<g>
				<path class="st13" d="M75.9,113.9h15.5l0,0c0.3,0,0.5-0.2,0.5-0.5s-0.2-0.5-0.5-0.5l0,0H75.9l0,0c-0.3,0-0.5,0.2-0.5,0.5
					S75.6,113.9,75.9,113.9L75.9,113.9z"/>
			</g>
			<g>
				<path class="st13" d="M83.5,118.3h11.8l0,0c0.3,0,0.5-0.2,0.5-0.5s-0.2-0.5-0.5-0.5l0,0H83.5l0,0c-0.3,0-0.5,0.2-0.5,0.5
					S83.2,118.3,83.5,118.3L83.5,118.3z"/>
			</g>
			<g>
				<path class="st13" d="M75.8,118.3h4.8l0,0c0.3,0,0.5-0.2,0.5-0.5s-0.2-0.5-0.5-0.5l0,0h-4.8l0,0c-0.3,0-0.5,0.2-0.5,0.5
					S75.5,118.3,75.8,118.3L75.8,118.3z"/>
			</g>
		</g>
	</g>
	<path class="st12" d="M85.3,101.2c0,1.5,1.2,2.7,2.7,2.7l45.8-0.1c0-0.5,0-19.3,0-19.3c0-1.5-1.2-2.7-2.7-2.7H88
		c-1.5,0-2.7,1.2-2.7,2.7V101.2z"/>
	<path class="st14" d="M87,99.6c0,1.5,1.2,2.7,2.7,2.7l45.8-0.1c0-0.5,0-19.3,0-19.3c0-1.5-1.2-2.7-2.7-2.7H89.7
		c-1.5,0-2.7,1.2-2.7,2.7V99.6z"/>
	<g>
		<g>
			<g>
				<path class="st11" d="M98.1,84.3h-6.9l0,0c-0.3,0-0.5,0.2-0.5,0.5s0.2,0.5,0.5,0.5l0,0h6.9l0,0c0.3,0,0.5-0.2,0.5-0.5
					S98.4,84.3,98.1,84.3L98.1,84.3z"/>
			</g>
			<g>
				<path class="st11" d="M116.3,84.3h-14.4l0,0c-0.3,0-0.5,0.2-0.5,0.5s0.2,0.5,0.5,0.5l0,0h14.4l0,0c0.3,0,0.5-0.2,0.5-0.5
					S116.5,84.3,116.3,84.3L116.3,84.3z"/>
			</g>
			<g>
				<path class="st11" d="M131.4,84.3H120l0,0c-0.3,0-0.5,0.2-0.5,0.5s0.2,0.5,0.5,0.5l0,0h11.4l0,0c0.3,0,0.5-0.2,0.5-0.5
					S131.7,84.3,131.4,84.3L131.4,84.3z"/>
			</g>
			<g>
				<path class="st11" d="M103,88.6H91.4l0,0c-0.3,0-0.5,0.2-0.5,0.5s0.2,0.5,0.5,0.5l0,0H103l0,0c0.3,0,0.5-0.2,0.5-0.5
					C103.5,88.8,103.3,88.6,103,88.6L103,88.6z"/>
			</g>
			<g>
				<path class="st11" d="M123.1,88.6h-16.3l0,0c-0.3,0-0.5,0.2-0.5,0.5s0.2,0.5,0.5,0.5l0,0h16.3l0,0c0.3,0,0.5-0.2,0.5-0.5
					C123.6,88.8,123.4,88.6,123.1,88.6L123.1,88.6z"/>
			</g>
			<g>
				<path class="st11" d="M131.5,88.6h-4.9l0,0c-0.3,0-0.5,0.2-0.5,0.5s0.2,0.5,0.5,0.5l0,0h4.9l0,0c0.3,0,0.5-0.2,0.5-0.5
					C132,88.8,131.7,88.6,131.5,88.6L131.5,88.6z"/>
			</g>
		</g>
		<g>
			<g>
				<path class="st11" d="M98.1,93.1h-6.9l0,0c-0.3,0-0.5,0.2-0.5,0.5s0.2,0.5,0.5,0.5l0,0h6.9l0,0c0.3,0,0.5-0.2,0.5-0.5
					S98.4,93.1,98.1,93.1L98.1,93.1z"/>
			</g>
			<g>
				<path class="st11" d="M116.3,93.1h-14.4l0,0c-0.3,0-0.5,0.2-0.5,0.5s0.2,0.5,0.5,0.5l0,0h14.4l0,0c0.3,0,0.5-0.2,0.5-0.5
					S116.5,93.1,116.3,93.1L116.3,93.1z"/>
			</g>
			<g>
				<path class="st11" d="M131.4,93.1H120l0,0c-0.3,0-0.5,0.2-0.5,0.5s0.2,0.5,0.5,0.5l0,0h11.4l0,0c0.3,0,0.5-0.2,0.5-0.5
					S131.7,93.1,131.4,93.1L131.4,93.1z"/>
			</g>
			<g>
				<path class="st11" d="M103,97.4H91.4l0,0c-0.3,0-0.5,0.2-0.5,0.5s0.2,0.5,0.5,0.5l0,0H103l0,0c0.3,0,0.5-0.2,0.5-0.5
					S103.3,97.4,103,97.4L103,97.4z"/>
			</g>
			<g>
				<path class="st11" d="M123.1,97.4h-16.3l0,0c-0.3,0-0.5,0.2-0.5,0.5s0.2,0.5,0.5,0.5l0,0h16.3l0,0c0.3,0,0.5-0.2,0.5-0.5
					S123.4,97.4,123.1,97.4L123.1,97.4z"/>
			</g>
			<g>
				<path class="st11" d="M131.5,97.4h-4.9l0,0c-0.3,0-0.5,0.2-0.5,0.5s0.2,0.5,0.5,0.5l0,0h4.9l0,0c0.3,0,0.5-0.2,0.5-0.5
					S131.7,97.4,131.5,97.4L131.5,97.4z"/>
			</g>
		</g>
	</g>
	<g>
		<g>
			<g>
				<path class="st14" d="M137.8,97.4c0,2.7,2.2,4.9,4.9,4.9s4.9-2.2,4.9-4.9s-2.2-4.9-4.9-4.9S137.8,94.7,137.8,97.4z"/>
			</g>
		</g>
		<g>
			<path class="st11" d="M141.4,95.8c0,0.8,0.6,1.4,1.4,1.4c0.8,0,1.4-0.6,1.4-1.4s-0.6-1.4-1.4-1.4S141.4,95,141.4,95.8z"/>
			<path class="st11" d="M140.1,99.5c0.4-1.1,1.4-1.9,2.7-1.9l0,0l0,0l0,0l0,0c1.2,0,2.3,0.8,2.7,1.9c0,0.1,0,0.3-0.3,0.3h-4.8
				C140.1,99.8,140,99.6,140.1,99.5z"/>
		</g>
	</g>
	<path class="st14" d="M66.3,112.4c1.6-1,2.8,0.6,2.9,0.8c0.1-0.2,1.3-1.8,2.9-0.8c1.5,0.9,2.2,4.3-2.9,7l0,0l0,0
		C64,116.7,64.8,113.3,66.3,112.4z"/>
	<g>
		<g>
			<path class="st14" d="M136,48.3c0.3-0.1,0.4-0.1,0.8-0.1l0,0l0,0l0,0l0,0c0.4,0,0.5,0,0.8,0.1c0.2,0.1,0.4,0.1,0.6,0.2v-0.1v-1
				c0-0.8-0.6-1.4-1.4-1.4c-0.8,0-1.4,0.6-1.4,1.4v1v0.1C135.7,48.5,135.8,48.4,136,48.3z"/>
			<path class="st14" d="M136.9,60.5C136.9,60.5,136.8,60.5,136.9,60.5h-2.3v0.2c0,1.2,1,2.1,2.3,2.1s2.3-1,2.3-2.1v-0.2H136.9z"/>
			<path class="st15" d="M142.6,59.4c-0.4-0.5-1.3-1.5-1.3-1.5s0-3.9,0-5c0-1.9-0.9-3.8-3.7-4.5c-0.3-0.1-0.4-0.1-0.8-0.1l0,0l0,0
				l0,0l0,0c-0.4,0-0.5,0-0.8,0.1c-2.8,0.7-3.7,2.6-3.7,4.5c0,1.1,0,5,0,5s-0.8,1.1-1.3,1.5c-0.4,0.5-0.4,1.1,0.4,1.1h5.4
				c0,0,0,0,0.1,0h5.4C143,60.5,143.1,59.9,142.6,59.4z"/>
			
				<linearGradient id="SVGID_5_" gradientUnits="userSpaceOnUse" x1="139.675" y1="148.343" x2="139.675" y2="139.843" gradientTransform="matrix(1 0 0 -1 0 197.9055)">
				<stop  offset="0" style="stop-color:#FFBD49"/>
				<stop  offset="1" style="stop-color:#FDAF32"/>
			</linearGradient>
			<path class="st16" d="M141.4,57.9c0,0,0-3.9,0-5c0-1.7-0.7-3.4-2.7-4.2c0.4,0.4,1.9,1.9,1.9,3.6V56c0,0.8-0.6,2.1-2.9,2.1
				c-0.2,0-0.2,0.2,0,0.2h4.1C141.5,58.1,141.4,57.9,141.4,57.9z"/>
		</g>
		
			<linearGradient id="SVGID_6_" gradientUnits="userSpaceOnUse" x1="138.2061" y1="134.4757" x2="136.3008" y2="131.3317" gradientTransform="matrix(1 0 0 -1 0 197.9055)">
			<stop  offset="0" style="stop-color:#FFBD49"/>
			<stop  offset="1" style="stop-color:#FDAF32"/>
		</linearGradient>
		<path class="st17" d="M137.3,66.9c0,0.3-0.2,0.5-0.5,0.5l0,0c-0.3,0-0.5-0.2-0.5-0.5v-2.3c0-0.3,0.2-0.5,0.5-0.5l0,0
			c0.3,0,0.5,0.2,0.5,0.5V66.9z"/>
		<g>
			
				<linearGradient id="SVGID_7_" gradientUnits="userSpaceOnUse" x1="151.6983" y1="115.2482" x2="149.7929" y2="112.1039" gradientTransform="matrix(0.7071 -0.7071 -0.7071 -0.7071 114.04 250.9147)">
				<stop  offset="0" style="stop-color:#FFBD49"/>
				<stop  offset="1" style="stop-color:#FDAF32"/>
			</linearGradient>
			<path class="st18" d="M141.6,65.2c0.2,0.2,0.2,0.5,0,0.7l0,0c-0.2,0.2-0.5,0.2-0.7,0l-1.6-1.6c-0.2-0.2-0.2-0.5,0-0.7l0,0
				c0.2-0.2,0.5-0.2,0.7,0L141.6,65.2z"/>
			
				<linearGradient id="SVGID_8_" gradientUnits="userSpaceOnUse" x1="120.6272" y1="146.3325" x2="118.7219" y2="143.1885" gradientTransform="matrix(-0.7071 -0.7071 0.7071 -0.7071 115.7122 250.9147)">
				<stop  offset="0" style="stop-color:#FFBD49"/>
				<stop  offset="1" style="stop-color:#FDAF32"/>
			</linearGradient>
			<path class="st19" d="M132.1,65.2c-0.2,0.2-0.2,0.5,0,0.7l0,0c0.2,0.2,0.5,0.2,0.7,0l1.6-1.6c0.2-0.2,0.2-0.5,0-0.7l0,0
				c-0.2-0.2-0.5-0.2-0.7,0L132.1,65.2z"/>
		</g>
	</g>
</g>
</svg>
