<?xml version="1.0" encoding="utf-8"?>
<!-- Generator: Adobe Illustrator 24.0.1, SVG Export Plug-In . SVG Version: 6.00 Build 0)  -->
<svg version="1.1" xmlns="http://www.w3.org/2000/svg" xmlns:xlink="http://www.w3.org/1999/xlink" x="0px" y="0px"
	 viewBox="0 0 500 500" enable-background="new 0 0 500 500" xml:space="preserve">
<g id="BACKGROUND" display="none">
	<rect display="inline" fill="#F7F7FB" width="500" height="500"/>
</g>
<g id="OBJECTS">
	<g display="none">
		<g display="inline">
			<path fill="#5BB59B" d="M347.7,355.8c-0.4,3.8,1.5,8.4-1.4,10.8c-1.7,1.5-4.4,1.3-6.1,2.8c-2.9,2.5-1,7.2,1.4,10.2
				c2.4,3,5.4,6.6,3.9,10.1c-0.8,1.8-2.5,2.9-3.6,4.5c-2.5,3.5-1.3,8.6,1.3,12c6.7,8.8,20.7,9.4,30.1,3.5c3.4-2.1,6.5-5.1,7.6-9
				c1.1-3.9-0.3-8.6-3.9-10.4c-1.5-0.7-3.3-1.1-4-2.6c-1.2-2.5,2.1-4.6,4.2-6.4c3.9-3.5,3.6-10.6-0.6-13.8c-1.8-1.3-4.2-2.2-5-4.2
				c-0.6-1.5-0.2-3.1-0.2-4.7C371.6,346.7,349,343.5,347.7,355.8z"/>
			<g>
				<rect x="358.9" y="363.3" fill="#0553DD" width="0.6" height="49.3"/>
			</g>
			<g>
				<polygon fill="#0553DD" points="359.2,382.8 348.8,374 349.2,373.5 359.3,382 371.8,373.1 372.2,373.6 				"/>
			</g>
			<g>
				<polygon fill="#0553DD" points="359.2,403.7 348.8,394.9 349.2,394.5 359.3,402.9 371.8,394 372.2,394.5 				"/>
			</g>
		</g>
	</g>
	<g display="none">
		<g display="inline">
			<path fill="#63A590" d="M101,243.2c-0.7,6.8,2.7,15.1-2.5,19.6c-3.1,2.7-8,2.3-11.1,5c-5.3,4.5-1.8,13.1,2.6,18.4
				c4.4,5.3,9.7,12,7,18.3c-1.4,3.2-4.5,5.3-6.5,8.1c-4.5,6.4-2.3,15.5,2.4,21.7c12.1,16,37.4,16.9,54.4,6.3
				c6.2-3.9,11.8-9.3,13.8-16.3c2-7-0.5-15.6-7-18.8c-2.6-1.3-6-2-7.3-4.6c-2.1-4.5,3.9-8.3,7.6-11.6c7.1-6.4,6.5-19.2-1.1-24.9
				c-3.2-2.4-7.6-3.9-9.1-7.6c-1.1-2.6-0.3-5.6-0.3-8.5C144.2,226.7,103.3,220.9,101,243.2z"/>
			<g>
				<rect x="121.3" y="256.7" fill="#0553DD" width="1.1" height="143.5"/>
			</g>
			<g>
				<polygon fill="#0553DD" points="121.9,291.9 103,276 103.7,275.1 121.9,290.4 144.6,274.4 145.2,275.3 				"/>
			</g>
			<g>
				<polygon fill="#0553DD" points="121.9,329.7 103,313.8 103.7,313 121.9,328.3 144.6,312.2 145.2,313.1 				"/>
			</g>
		</g>
	</g>
	<g>
		<g enable-background="new    ">
			<g>
				<defs>
					<path id="SVGID_1_" d="M151.6,152.3l-9.1,0.3c-0.3-12.7,8.5-23.2,19.7-23.4l9.1-0.3C160.1,129.1,151.3,139.6,151.6,152.3z"/>
				</defs>
				<use xlink:href="#SVGID_1_"  overflow="visible" fill="#24143A"/>
				<clipPath id="SVGID_2_">
					<use xlink:href="#SVGID_1_"  overflow="visible"/>
				</clipPath>
				<g clip-path="url(#SVGID_2_)" enable-background="new    ">
					<path fill="#24143A" d="M151.6,152.3l-9.1,0.3c-0.1-4.1,0.8-8,2.3-11.4l9.1-0.3C152.3,144.3,151.5,148.2,151.6,152.3"/>
					<path fill="#24143A" d="M153.9,140.9l-9.1,0.3c1.3-2.7,3-5.1,5.1-7l9.1-0.3C156.9,135.8,155.2,138.2,153.9,140.9"/>
					<path fill="#24143A" d="M159.1,133.9l-9.1,0.3c3.3-3.1,7.6-4.9,12.2-5l9.1-0.3C166.6,129,162.4,130.9,159.1,133.9"/>
				</g>
			</g>
			<g>
				<polygon fill="#24143A" points="157.6,396.1 148.5,396.4 142.5,152.6 151.6,152.3 				"/>
			</g>
			<g>
				<defs>
					<path id="SVGID_3_" d="M178.4,418.6l-9.1,0.3c-11.2,0.3-20.5-9.8-20.8-22.5l9.1-0.3C157.9,408.8,167.2,418.9,178.4,418.6z"/>
				</defs>
				<use xlink:href="#SVGID_3_"  overflow="visible" fill="#321B4D"/>
				<clipPath id="SVGID_4_">
					<use xlink:href="#SVGID_3_"  overflow="visible"/>
				</clipPath>
				<g clip-path="url(#SVGID_4_)">
					<path fill="#321B4D" d="M178.4,418.6l-9.1,0.3c-11.2,0.3-20.5-9.8-20.8-22.5l9.1-0.3C157.9,408.8,167.2,418.9,178.4,418.6"/>
				</g>
			</g>
			<g>
				<polygon fill="#EAE8ED" points="259.9,175 260.1,182.9 221.2,183.8 221,175.9 				"/>
			</g>
			<g>
				<path fill="#DA627D" d="M208.1,172.9c3.8-0.1,6.9,3.3,7,7.6l0.8,32.8c0.1,4.3-2.9,7.8-6.7,7.9l-34.2,0.8c-3.8,0.1-6.9-3.3-7-7.6
					l-0.8-32.8c-0.1-4.3,2.9-7.8,6.7-7.9L208.1,172.9z"/>
			</g>
			<g>
				<path fill="#FFFFFF" d="M268.2,160.4l5.4,218.7l-108.4,2.4l-5.4-218.7L268.2,160.4z M266.7,358.2l-2.1-86.4l-95,2.1l2.1,86.4
					L266.7,358.2 M167.3,181.6l0.8,32.8c0.1,4.3,3.3,7.7,7,7.6l34.2-0.8c3.8-0.1,6.8-3.6,6.7-7.9l-0.8-32.8c-0.1-4.3-3.3-7.7-7-7.6
					l-34.2,0.8C170.2,173.8,167.2,177.4,167.3,181.6 M265.6,260l-0.2-7.9l-96.3,2.2l0.2,7.9L265.6,260 M265.2,245.5l-0.2-7.9
					l-96.3,2.2l0.2,7.9L265.2,245.5 M221.4,190.3l0.2,7.9l38.9-0.9l-0.2-7.9L221.4,190.3 M221,175.9l0.2,7.9l38.9-0.9l-0.2-7.9
					L221,175.9"/>
			</g>
			<g>
				<polygon fill="#EAE8ED" points="260.3,189.5 260.5,197.3 221.6,198.2 221.4,190.3 				"/>
			</g>
			<g>
				<path fill="#24143A" d="M218.7,135.8c1,0,1.8,0.9,1.9,2c0,1.1-0.8,2.1-1.8,2.1c-1,0-1.8-0.9-1.9-2
					C216.9,136.8,217.7,135.8,218.7,135.8z"/>
			</g>
			<g>
				<path fill="#24143A" d="M228.7,145.5c0.6,0,1.1,0.6,1.2,1.3c0,0.7-0.5,1.3-1.1,1.3l-19.4,0.4c-0.6,0-1.1-0.6-1.2-1.3
					c0-0.7,0.5-1.3,1.1-1.3L228.7,145.5z"/>
			</g>
			<g>
				<path fill="#24143A" d="M220.8,386.8c5-0.1,9.2,4.4,9.3,10.1c0.1,5.7-3.8,10.4-8.8,10.5c-5,0.1-9.2-4.4-9.3-10.1
					C211.8,391.6,215.8,386.9,220.8,386.8z"/>
			</g>
			<g>
				
					<ellipse transform="matrix(0.9995 -3.258807e-02 3.258807e-02 0.9995 -4.6962 6.5764)" fill="#24143A" cx="199.4" cy="147.4" rx="2.1" ry="2.4"/>
			</g>
			<g>
				<polygon fill="#EAE8ED" points="264.6,271.7 266.7,358.2 171.7,360.3 169.5,273.9 				"/>
			</g>
			<g>
				<path fill="#321B4D" d="M254.9,127c11.2-0.3,20.5,9.8,20.8,22.5l6,243.8c0.3,12.7-8.5,23.2-19.7,23.4l-83.6,1.9
					c-11.2,0.3-20.5-9.8-20.8-22.5l-6-243.8c-0.3-12.7,8.5-23.2,19.7-23.4L254.9,127z M274.3,379.8l-5.4-220.3L159.1,162l5.4,220.3
					L274.3,379.8 M221.3,408.1c5.4-0.1,9.6-5.2,9.5-11.2c-0.2-6.1-4.6-10.9-10-10.8c-5.4,0.1-9.6,5.2-9.5,11.2
					C211.4,403.4,215.9,408.2,221.3,408.1 M209.2,145.9c-0.6,0-1.1,0.6-1.1,1.3c0,0.7,0.5,1.3,1.2,1.3l19.4-0.4
					c0.6,0,1.1-0.6,1.1-1.3c0-0.7-0.5-1.3-1.2-1.3L209.2,145.9 M199.3,145c-1.2,0-2.1,1.1-2.1,2.4c0,1.3,1,2.4,2.2,2.3
					c1.2,0,2.1-1.1,2.1-2.4C201.5,146,200.5,144.9,199.3,145 M218.7,135.8c-1,0-1.8,1-1.8,2.1c0,1.1,0.9,2,1.9,2c1,0,1.8-1,1.8-2.1
					C220.6,136.7,219.7,135.8,218.7,135.8"/>
			</g>
			<g>
				<polygon fill="#EAE8ED" points="265,237.7 265.2,245.5 168.9,247.7 168.7,239.8 				"/>
			</g>
			<g>
				<polygon fill="#EAE8ED" points="265.4,252.1 265.6,260 169.3,262.1 169.1,254.2 				"/>
			</g>
		</g>
	</g>
	<ellipse fill="#E0E4ED" cx="316" cy="429.1" rx="72.8" ry="11.2"/>
	<g>
		<path fill="#E26356" d="M344.6,294.7l-3.9-29.2c0,0-25.3-4.3-33.5-14.4c-7.6-9.5-12.1-17.6-12.1-17.6l-12.6,9.7
			c0,0,13.6,34,39.8,46.6"/>
		<path fill="#B24D67" d="M288.2,205L288.2,205l-6.8-0.7c-0.2,0-0.4,0-0.6,0c0,0,0,0-0.1,0c-0.3,0-0.6,0-0.9,0.1l-26.6,5.6
			c-0.1,0-0.2,0-0.3,0.1c-0.1,0-0.1,0-0.2,0.1c-0.2,0.1-0.3,0.1-0.5,0.2c-0.1,0-0.2,0.1-0.3,0.1c-0.2,0.1-0.3,0.2-0.5,0.3
			c-0.1,0-0.1,0.1-0.2,0.1c0,0,0,0-0.1,0c-0.3,0.2-0.5,0.3-0.7,0.5c0,0-0.1,0.1-0.1,0.1c-0.2,0.2-0.4,0.4-0.6,0.6
			c-0.1,0.1-0.1,0.2-0.2,0.2c-0.2,0.2-0.3,0.4-0.4,0.5c-0.1,0.1-0.1,0.2-0.2,0.3c-0.2,0.2-0.3,0.5-0.5,0.7c0,0-0.1,0.1-0.1,0.1
			c0,0,0,0,0,0c-0.2,0.3-0.3,0.6-0.5,0.9c0,0.1-0.1,0.2-0.1,0.3c-0.1,0.2-0.2,0.5-0.3,0.7c0,0,0,0.1-0.1,0.1c0,0,0,0.1,0,0.1
			c-0.2,0.5-0.3,0.9-0.4,1.4c0,0,0,0,0,0.1c0,0,0,0.1,0,0.1c-0.1,0.4-0.1,0.8-0.2,1.2c0,0.1,0,0.1,0,0.2c0,0,0,0.1,0,0.1
			c0,0.5-0.1,0.9-0.1,1.4c0,0,0,0.1,0,0.1c0,0.2,0,0.4,0,0.6l2.2,36.7c0,0.4,0.1,0.7,0.1,1.1c0,0,0,0.1,0,0.1c0,0.1,0,0.2,0.1,0.3
			c0,0.1,0,0.2,0.1,0.3c0,0.2,0.1,0.3,0.1,0.5c0,0.1,0,0.2,0.1,0.3c0,0.2,0.1,0.3,0.1,0.5c0,0.1,0.1,0.2,0.1,0.3
			c0.1,0.2,0.1,0.3,0.2,0.5c0,0.1,0,0.1,0.1,0.2c0.1,0.2,0.2,0.4,0.3,0.6c0,0,0.1,0.1,0.1,0.1c0.1,0.2,0.2,0.3,0.3,0.5
			c0,0.1,0.1,0.1,0.1,0.2c0.1,0.1,0.2,0.2,0.2,0.4c0.1,0.1,0.1,0.1,0.2,0.2c0.1,0.1,0.2,0.2,0.2,0.3c0.1,0.1,0.1,0.1,0.2,0.2
			c0.1,0.1,0.2,0.2,0.3,0.3c0.1,0.1,0.1,0.1,0.2,0.2c0.1,0.1,0.2,0.2,0.3,0.2c0.1,0.1,0.1,0.1,0.2,0.2c0.1,0.1,0.2,0.1,0.3,0.2
			c0.1,0,0.1,0.1,0.2,0.1c0.1,0.1,0.2,0.1,0.3,0.2c0.1,0,0.1,0.1,0.2,0.1c0.1,0,0.2,0.1,0.3,0.1c0.1,0,0.1,0.1,0.2,0.1
			c0.1,0,0.2,0.1,0.4,0.1c0.1,0,0.1,0,0.2,0.1c0.2,0,0.4,0.1,0.6,0.1c0,0,0,0,0,0l6.8,0.7c-0.2,0-0.4-0.1-0.6-0.1
			c-0.1,0-0.1,0-0.2,0c-0.1,0-0.3-0.1-0.4-0.1c-0.1,0-0.1-0.1-0.2-0.1c-0.1,0-0.2-0.1-0.3-0.1c-0.1,0-0.1-0.1-0.2-0.1
			c-0.1-0.1-0.2-0.1-0.3-0.2c-0.1,0-0.1-0.1-0.2-0.1c-0.1-0.1-0.2-0.1-0.3-0.2c-0.1-0.1-0.1-0.1-0.2-0.2c-0.1-0.1-0.2-0.2-0.3-0.2
			c-0.1-0.1-0.1-0.1-0.2-0.2c-0.1-0.1-0.2-0.2-0.3-0.3c-0.1-0.1-0.1-0.1-0.2-0.2c-0.1-0.1-0.2-0.2-0.2-0.3c-0.1-0.1-0.1-0.1-0.2-0.2
			c-0.1-0.1-0.2-0.2-0.2-0.4c0-0.1-0.1-0.1-0.1-0.2c-0.1-0.2-0.2-0.3-0.3-0.5c0,0-0.1-0.1-0.1-0.1c-0.1-0.2-0.2-0.4-0.3-0.6
			c0-0.1,0-0.1-0.1-0.2c-0.1-0.2-0.1-0.3-0.2-0.5c0-0.1-0.1-0.2-0.1-0.3c0-0.2-0.1-0.3-0.1-0.5c0-0.1-0.1-0.2-0.1-0.3
			c0-0.1-0.1-0.3-0.1-0.5c0-0.1,0-0.2-0.1-0.3c0-0.1,0-0.3-0.1-0.4c-0.1-0.3-0.1-0.7-0.1-1.1l-2.2-36.7c0-0.3,0-0.5,0-0.8
			c0-0.5,0-0.9,0.1-1.4c0-0.1,0-0.2,0-0.3c0-0.4,0.1-0.8,0.2-1.2c0-0.1,0-0.1,0-0.2c0.1-0.5,0.3-1,0.4-1.4c0-0.1,0.1-0.2,0.1-0.3
			c0.1-0.2,0.2-0.5,0.3-0.7c0-0.1,0.1-0.2,0.1-0.3c0.1-0.3,0.3-0.6,0.5-0.9c0-0.1,0.1-0.1,0.1-0.2c0.1-0.2,0.3-0.5,0.5-0.7
			c0.1-0.1,0.1-0.2,0.2-0.3c0.1-0.2,0.3-0.4,0.4-0.5c0.1-0.1,0.1-0.2,0.2-0.2c0.2-0.2,0.4-0.4,0.6-0.6c0,0,0.1-0.1,0.1-0.1
			c0.2-0.2,0.5-0.4,0.7-0.5c0.1-0.1,0.2-0.1,0.3-0.1c0.2-0.1,0.3-0.2,0.5-0.3c0.1,0,0.2-0.1,0.3-0.1c0.2-0.1,0.3-0.1,0.5-0.2
			c0.2,0,0.3-0.1,0.5-0.1l26.6-5.6c0.3-0.1,0.6-0.1,0.9-0.1C287.7,204.9,287.9,204.9,288.2,205L288.2,205z"/>
		<g>
			<path fill="#DA627D" d="M286.6,205c3.9-0.8,7.4,2.9,7.7,8.4l2.2,36.7c0.3,5.4-2.6,10.5-6.5,11.4l-26.6,5.6
				c-3.9,0.8-7.4-2.9-7.7-8.4l-2.2-36.7c-0.3-5.4,2.6-10.5,6.5-11.4L286.6,205z"/>
		</g>
		<path fill="#F9CCDA" d="M336.8,415.6c-0.1,2.1-0.3,4.3-1.6,5.8c-1.5,1.9-4.2,2.4-6.6,2.7c-3.5,0.5-7,1-10.5,1.5
			c-0.2,0.5,0.4,1,0.9,1.1c2.6,0.9,5.4,0.5,8.1,0.2c3.1-0.3,6.3-0.5,9.5-0.5c1.4,0,3.1-0.1,3.8-1.4c0.5-0.9,0.3-2,0.2-3.1
			c-0.4-3.2,0.5-6.4,0.1-9.6c-0.1-0.4-0.2-0.8-0.5-0.9c-0.2-0.1-0.4,0-0.6,0C337,412.1,337,413.2,336.8,415.6z"/>
		<path fill="#24143A" d="M337.8,423.8c-2.6,1.6-5.3,2-8.3,1.6c-0.2,0-1.2-0.2-1.4-0.3c-0.1-0.6,0-1.2-0.5-1.1
			c-2.2,0.1-4.4,0.3-6.6,0.5c-0.7,0.1-3.3,0.2-3.6,0.7c-0.2,0.5-0.1,1.1,0.3,1.5c0.3,0.4,0.9,0.7,1.4,0.8c2.5,0.9,5.2,0.8,7.9,0.7
			c3.3-0.2,6.5-0.3,9.8-0.5c1.1-0.1,2.3-0.1,3.2-0.7c1.4-0.9,1.9-2.7,1.9-4.3C341.9,419.9,338.7,423.2,337.8,423.8z"/>
		<path fill="#F9CCDA" d="M285.7,421.1c-0.4,2-0.9,4.2-2.4,5.6c-1.8,1.7-4.4,1.8-6.9,1.8c-3.5,0-7.1,0.1-10.6,0.1
			c-0.2,0.5,0.3,1,0.8,1.2c2.4,1.2,5.3,1.2,8,1.3c3.2,0.1,6.3,0.3,9.5,0.7c1.4,0.2,3.1,0.3,3.9-0.8c0.6-0.8,0.6-2,0.6-3
			c0-3.2,1.4-6.3,1.3-9.5c0-0.4-0.1-0.8-0.4-1c-0.2-0.1-0.4-0.1-0.6-0.1C286.3,417.6,286.1,418.7,285.7,421.1z"/>
		<path fill="#24143A" d="M343.9,317.1c0,0-2.4,24.3-3.3,37.6c-0.9,13.3,7.8,41.7,7.5,49.4c-0.3,7.7-2.1,12.1-2.1,12.1l-18.6-0.2
			l-6.3-96.8L343.9,317.1z"/>
		<path fill="none" stroke="#0553DD" stroke-miterlimit="10" d="M325.7,237.6c-1.1,2.7-2.5,4.7-3.1,4.4c-0.6-0.3-0.3-2.6,0.8-5.4
			c1.1-2.7,2.5-4.7,3.1-4.4C327.2,232.5,326.8,234.9,325.7,237.6z"/>
		
			<ellipse transform="matrix(0.4548 -0.8906 0.8906 0.4548 -36.3407 432.3273)" fill="#F9CCDA" cx="335" cy="245.8" rx="14.8" ry="14.8"/>
		<polygon fill="#F9CCDA" points="331,253 327.7,269.4 336.8,272.7 340.4,252.4 		"/>
		<path fill="#321B4D" d="M344.7,313.6c0,0-27.4,1.8-36.1,5.1c-4.5,13.7-23.9,92.7-25.8,100.9c2.9,0.6,15.6,2.5,15.6,2.5
			s8.1-8.4,16-34.7c8.4-27.8,27.1-58.5,28.5-60.8C345,323.2,344.7,313.6,344.7,313.6z"/>
		<path fill="#F9CCDA" d="M256.8,250.8c-0.2-0.6-0.4-1.2-0.9-1.6c-0.6-0.5-1.5-0.4-2.3-0.1c-0.7,0.3-1.4,0.8-2.2,1
			c-1.4,0.4-3-0.1-4.1,0.7c-0.7,0.5-1,1.4-0.8,2.2c0.1,0.4,0.3,0.8,0.5,1.2c0.6,1.3,0.5,3,1.4,4.1c0.7,0.9,1.7,1.3,2.8,1.8
			c2.5,1,5,2,7.5,3c0.2,0.1,0.3,0.1,0.5,0.1c0.1-0.1,0.2-0.2,0.3-0.3c1-2.6,0.6-3.9-0.7-6C257.7,255,257.4,252.9,256.8,250.8z"/>
		<path fill="#321B4D" d="M285.5,429.4c-2.8,1.2-5.5,1.3-8.4,0.5c-0.2,0-1.2-0.4-1.3-0.4c0-0.6,0.1-1.1-0.4-1.2
			c-2.2-0.2-4.4-0.3-6.6-0.3c-0.7,0-3.3-0.3-3.6,0.2c-0.3,0.4-0.2,1.1,0.1,1.5c0.3,0.5,0.8,0.8,1.2,1c2.3,1.3,5.1,1.5,7.7,1.7
			c3.3,0.3,6.5,0.6,9.8,0.8c1.1,0.1,2.3,0.2,3.3-0.3c1.5-0.7,2.2-2.4,2.4-4C290.1,426,286.6,428.9,285.5,429.4z"/>
		<path fill="#F9CCDA" d="M255.1,244.1c-0.2-0.5-0.4-1-0.9-1.1c-0.6-0.2-1.2,0.2-1.4,0.8c-0.2,0.6-0.2,1.2-0.1,1.8
			c0.2,1.7,0.3,3.3,0.5,5c0.1,0.9,0.3,2.1,1.2,2.4c0.6,0.3,1.5,0,1.9-0.5c0.9-1.1,0.3-2.3,0.1-3.5
			C256.1,247.3,255.8,245.7,255.1,244.1z"/>
		<path fill="#F6A091" d="M341.4,271.8c-0.5-3.5-3.6-6.1-7.2-6c-7.6,0.2-19.2,1.1-21.1,2.1c-2.4,1.3-18.4,6.2-23.3,6.2
			c-4.9,0-25.3-18.4-25.3-18.4l-10,10.7c0,0,18.2,22.8,25,25.5c6.8,2.6,28.2,2.5,28.2,2.5l1,24.6c0,0,31.8,6.4,34.8,1.1
			c3-5.3,1.1-25.3,1.1-25.3L341.4,271.8z"/>
		<linearGradient id="SVGID_5_" gradientUnits="userSpaceOnUse" x1="315.6373" y1="309.0179" x2="313.3181" y2="292.5514">
			<stop  offset="0" style="stop-color:#D37897;stop-opacity:0"/>
			<stop  offset="0.9368" style="stop-color:#E26356;stop-opacity:0.7"/>
		</linearGradient>
		<polygon fill="url(#SVGID_5_)" points="307.7,294.3 321.1,292.1 308.5,314.5 		"/>
		<path fill="none" stroke="#0553DD" stroke-miterlimit="10" d="M321.7,240.1c-1.1,2.7-2.5,4.7-3.1,4.4c-0.6-0.3-0.3-2.6,0.8-5.4
			c1.1-2.7,2.5-4.7,3.1-4.4C323.1,235,322.8,237.4,321.7,240.1z"/>
		<path fill="none" stroke="#0553DD" stroke-width="0.75" stroke-miterlimit="10" d="M319.3,239.4c0.6,0.2,16.1,5.9,16.1,5.9"/>
	</g>
	
		<text transform="matrix(1 0 0 1 131.4421 83.0011)" display="none" fill="#0553DD" font-family="'Metropolis-SemiBold'" font-size="19px">APP DEVELOPMENT CONCEPT</text>
	<path fill="#321B4D" d="M333.1,240.8c0.6,1.8-0.6,4.1,0.8,5.4c0.8,0.7,1.9,0.7,2.9,0.9c1.8,0.5,3.3,2.1,3.5,4
		c0.2,1.9-0.8,3.8-2.5,4.7c-0.5,0.3-1.1,0.4-1.5,0.8c-0.8,0.8-0.7,2-0.3,3c0.4,1,1,1.9,1.2,3c0.4,1.9-0.7,3.8-1.4,5.6
		c-2.2,5.8-0.7,12.5,1.7,18.2c1.8,4.4,4.2,8.7,7.7,11.8c3.6,3.1,8.5,5,13.1,3.9c4.6-1.1,8.5-5.5,8.1-10.2c-0.2-1.8-0.9-3.4-1.5-5
		c-1.8-4.7-3.2-10-1.2-14.6c1-2.5,3-4.6,3.4-7.3c0.6-3.4-1.6-6.8-4.3-8.9c-2.7-2.1-6-3.4-9.1-5.1c-3-1.7-6-4.1-7-7.4
		c-0.7-2.4-0.4-4.9-1.3-7.3c-1.2-3.1-4.4-5.2-7.7-5.6c-2.7-0.4-9.4,0.2-10.7,3.2C325.8,237.5,332.2,237.9,333.1,240.8z"/>
	<path fill="#321B4D" d="M358.7,256.6c1.6-2.5,1.8-6.3-0.5-8.3c-1-0.8-2.3-1.2-3.1-2.1c-1.4-1.4-1.3-3.7-1.6-5.6
		c-0.6-3.7-2.8-7.1-5.9-9.1c-3.1-2-7.1-2.7-10.8-1.7c-0.9,0.2-1.8,0.6-2.3,1.3c-0.8,1.2-0.3,2.8,0.6,3.9c0.9,1.1,2.2,1.8,3.3,2.7
		c2.8,2.5,3.8,6.4,5.2,9.9c1.7,4.3,4.2,8.3,7.3,11.7C355.1,264,356,260.8,358.7,256.6z"/>
	<path fill="#321B4D" d="M370.8,274.9c1.1,2.5,1.3,5.4,0.7,8c-0.5,2.4-1.6,4.7-3.2,6.6c-0.7,0.9-1.6,1.7-2.6,2.1
		c-1.2,0.5-2.5,0.5-3.8,0.4c-4.4-0.4-9.1-1.9-11.2-5.7c-2.4-4.4-1.2-16.5,4.6-18C360.4,266.9,368.6,270.2,370.8,274.9z"/>
	<path fill="#AFC6F5" d="M395.7,181.7c-1.8-5.1-6.7-8.8-12.5-8.8c-2.6,0-5.1,0.8-7.1,2.1c-2.6-7-9.4-12-17.3-12
		c-7.3,0-13.6,4.2-16.6,10.4c-1.1-0.3-2.3-0.5-3.5-0.5c-5.8,0-10.7,3.7-12.5,8.8H395.7z"/>
	<path fill="#AFC6F5" d="M132.7,196.7c-1.8-5.1-6.7-8.8-12.5-8.8c-2.6,0-5.1,0.8-7.1,2.1c-2.6-7-9.4-12-17.3-12
		c-7.3,0-13.6,4.2-16.6,10.4c-1.1-0.3-2.3-0.5-3.5-0.5c-5.8,0-10.7,3.7-12.5,8.8H132.7z"/>
	<g>
		<g>
			<path fill="#36AF46" d="M119.5,346c-0.5,4.9,1.9,11-1.8,14.2c-2.2,1.9-5.8,1.7-8,3.6c-3.8,3.2-1.3,9.5,1.9,13.3
				c3.2,3.9,7,8.7,5.1,13.3c-1,2.3-3.3,3.8-4.7,5.9c-3.2,4.6-1.7,11.2,1.7,15.7c8.7,11.6,27.1,12.3,39.4,4.6
				c4.5-2.8,8.5-6.7,10-11.8c1.5-5.1-0.4-11.3-5.1-13.6c-1.9-0.9-4.4-1.4-5.3-3.3c-1.5-3.3,2.8-6,5.5-8.4c5.1-4.6,4.7-13.9-0.8-18
				c-2.3-1.7-5.5-2.8-6.6-5.5c-0.8-1.9-0.2-4.1-0.2-6.1C150.7,334.1,121.1,329.9,119.5,346z"/>
			<g>
				<rect x="134.2" y="355.8" fill="#22822B" width="0.8" height="64.5"/>
			</g>
			<g>
				<polygon fill="#22822B" points="134.6,381.3 120.9,369.8 121.4,369.2 134.6,380.2 151,368.6 151.5,369.3 				"/>
			</g>
			<g>
				<polygon fill="#22822B" points="134.6,408.7 120.9,397.2 121.4,396.6 134.6,407.6 151,396 151.5,396.7 				"/>
			</g>
		</g>
	</g>
</g>
<g id="DESIGNED_BY_FREEPIK" display="none">
	<g display="inline">
		<g>
			<path fill="#0553DD" d="M180.3,471.5v-0.2c-0.2,0.2-0.4,0.5-0.6,0.6c-0.2,0.2-0.4,0.3-0.7,0.4c-0.2,0.1-0.5,0.1-0.8,0.1
				c-0.4,0-0.7-0.1-1.1-0.2c-0.3-0.2-0.6-0.4-0.9-0.7c-0.2-0.3-0.4-0.7-0.5-1.1c-0.1-0.4-0.2-0.9-0.2-1.3c0-1,0.2-1.8,0.7-2.4
				c0.5-0.6,1.1-0.8,2-0.8c0.5,0,0.9,0.1,1.2,0.2c0.3,0.2,0.6,0.4,0.9,0.7v-2.4c0-0.3,0.1-0.6,0.2-0.8c0.1-0.2,0.3-0.3,0.6-0.3
				c0.2,0,0.4,0.1,0.6,0.2c0.1,0.2,0.2,0.4,0.2,0.7v7.1c0,0.3-0.1,0.5-0.2,0.7c-0.1,0.2-0.3,0.2-0.6,0.2c-0.2,0-0.4-0.1-0.5-0.2
				C180.4,472.1,180.3,471.8,180.3,471.5z M177.1,469.2c0,0.4,0.1,0.8,0.2,1.1c0.1,0.3,0.3,0.5,0.6,0.7c0.2,0.2,0.5,0.2,0.8,0.2
				c0.3,0,0.5-0.1,0.8-0.2c0.2-0.1,0.4-0.4,0.6-0.7c0.1-0.3,0.2-0.7,0.2-1.1c0-0.4-0.1-0.8-0.2-1.1c-0.1-0.3-0.3-0.5-0.6-0.7
				c-0.2-0.2-0.5-0.2-0.8-0.2c-0.3,0-0.6,0.1-0.8,0.3c-0.2,0.2-0.4,0.4-0.5,0.7C177.2,468.4,177.1,468.8,177.1,469.2z"/>
			<path fill="#0553DD" d="M187.5,469.6h-3.2c0,0.4,0.1,0.7,0.2,1c0.1,0.3,0.3,0.5,0.6,0.6c0.2,0.1,0.5,0.2,0.8,0.2
				c0.2,0,0.4,0,0.5-0.1c0.2,0,0.3-0.1,0.5-0.2c0.2-0.1,0.3-0.2,0.4-0.3c0.1-0.1,0.3-0.3,0.5-0.5c0.1-0.1,0.2-0.1,0.4-0.1
				c0.2,0,0.3,0,0.4,0.1c0.1,0.1,0.2,0.2,0.2,0.4c0,0.1-0.1,0.3-0.2,0.5c-0.1,0.2-0.3,0.4-0.5,0.6c-0.2,0.2-0.5,0.3-0.9,0.4
				c-0.3,0.1-0.8,0.2-1.2,0.2c-1,0-1.8-0.3-2.4-0.9c-0.6-0.6-0.9-1.4-0.9-2.4c0-0.5,0.1-0.9,0.2-1.3c0.1-0.4,0.4-0.8,0.6-1.1
				c0.3-0.3,0.6-0.5,1-0.7c0.4-0.2,0.8-0.2,1.3-0.2c0.6,0,1.2,0.1,1.6,0.4c0.5,0.3,0.8,0.6,1,1c0.2,0.4,0.3,0.9,0.3,1.3
				c0,0.4-0.1,0.7-0.3,0.8C188.2,469.5,187.9,469.6,187.5,469.6z M184.3,468.7h2.9c0-0.6-0.2-1-0.4-1.2c-0.3-0.3-0.6-0.4-1-0.4
				c-0.4,0-0.7,0.1-1,0.4C184.5,467.7,184.3,468.1,184.3,468.7z"/>
			<path fill="#0553DD" d="M194.8,470.4c0,0.4-0.1,0.8-0.3,1.1c-0.2,0.3-0.5,0.6-1,0.7c-0.4,0.2-0.9,0.2-1.6,0.2
				c-0.6,0-1.1-0.1-1.5-0.3c-0.4-0.2-0.7-0.4-0.9-0.7c-0.2-0.3-0.3-0.5-0.3-0.8c0-0.2,0.1-0.3,0.2-0.5c0.1-0.1,0.3-0.2,0.5-0.2
				c0.2,0,0.3,0,0.4,0.1c0.1,0.1,0.2,0.2,0.3,0.3c0.2,0.3,0.4,0.5,0.6,0.6c0.2,0.1,0.5,0.2,0.9,0.2c0.3,0,0.6-0.1,0.8-0.2
				c0.2-0.1,0.3-0.3,0.3-0.5c0-0.3-0.1-0.5-0.3-0.6c-0.2-0.1-0.6-0.3-1.1-0.4c-0.6-0.1-1-0.3-1.4-0.4c-0.4-0.2-0.6-0.4-0.8-0.6
				c-0.2-0.2-0.3-0.6-0.3-0.9c0-0.3,0.1-0.6,0.3-0.9c0.2-0.3,0.5-0.5,0.9-0.7c0.4-0.2,0.8-0.3,1.4-0.3c0.4,0,0.8,0,1.1,0.1
				c0.3,0.1,0.6,0.2,0.8,0.4c0.2,0.1,0.4,0.3,0.5,0.5c0.1,0.2,0.2,0.4,0.2,0.5c0,0.2-0.1,0.3-0.2,0.5c-0.1,0.1-0.3,0.2-0.5,0.2
				c-0.2,0-0.3,0-0.4-0.1c-0.1-0.1-0.3-0.2-0.4-0.4c-0.1-0.2-0.3-0.3-0.4-0.4c-0.2-0.1-0.4-0.1-0.7-0.1c-0.3,0-0.5,0.1-0.7,0.2
				c-0.2,0.1-0.3,0.3-0.3,0.5c0,0.2,0.1,0.3,0.2,0.4c0.1,0.1,0.3,0.2,0.6,0.3c0.2,0.1,0.6,0.2,1,0.3c0.5,0.1,0.9,0.3,1.2,0.4
				c0.3,0.2,0.6,0.4,0.7,0.6C194.8,469.8,194.8,470.1,194.8,470.4z"/>
			<path fill="#0553DD" d="M196.5,465.1c-0.2,0-0.4-0.1-0.6-0.2c-0.2-0.1-0.2-0.3-0.2-0.6c0-0.2,0.1-0.4,0.2-0.6
				c0.2-0.1,0.4-0.2,0.6-0.2c0.2,0,0.4,0.1,0.6,0.2c0.2,0.1,0.2,0.3,0.2,0.6c0,0.2-0.1,0.4-0.2,0.6
				C196.9,465.1,196.7,465.1,196.5,465.1z M197.3,466.8v4.7c0,0.3-0.1,0.6-0.2,0.7c-0.2,0.2-0.4,0.2-0.6,0.2c-0.2,0-0.4-0.1-0.6-0.3
				c-0.1-0.2-0.2-0.4-0.2-0.7v-4.6c0-0.3,0.1-0.6,0.2-0.7c0.1-0.2,0.3-0.2,0.6-0.2c0.2,0,0.4,0.1,0.6,0.2
				C197.2,466.3,197.3,466.5,197.3,466.8z"/>
			<path fill="#0553DD" d="M204.4,467.1v4.7c0,0.5-0.1,1-0.2,1.4c-0.1,0.4-0.3,0.7-0.6,1c-0.3,0.3-0.6,0.4-1,0.6
				c-0.4,0.1-0.9,0.2-1.5,0.2c-0.6,0-1.1-0.1-1.5-0.2c-0.4-0.2-0.8-0.4-1-0.6c-0.2-0.2-0.4-0.5-0.4-0.8c0-0.2,0.1-0.4,0.2-0.5
				c0.1-0.1,0.3-0.2,0.5-0.2c0.2,0,0.4,0.1,0.6,0.3c0.1,0.1,0.2,0.2,0.3,0.3c0.1,0.1,0.2,0.2,0.3,0.3c0.1,0.1,0.2,0.1,0.4,0.2
				c0.2,0,0.3,0.1,0.5,0.1c0.4,0,0.7-0.1,1-0.2c0.2-0.1,0.4-0.3,0.5-0.5c0.1-0.2,0.1-0.4,0.2-0.7c0-0.2,0-0.6,0-1.2
				c-0.2,0.3-0.5,0.6-0.9,0.8c-0.3,0.2-0.7,0.3-1.2,0.3c-0.5,0-1-0.1-1.4-0.4c-0.4-0.3-0.7-0.7-0.9-1.2c-0.2-0.5-0.3-1.1-0.3-1.7
				c0-0.5,0.1-0.9,0.2-1.3c0.1-0.4,0.3-0.7,0.6-1c0.2-0.3,0.5-0.5,0.8-0.6c0.3-0.1,0.7-0.2,1.1-0.2c0.5,0,0.9,0.1,1.2,0.3
				c0.3,0.2,0.6,0.5,0.9,0.8v-0.2c0-0.3,0.1-0.5,0.2-0.7c0.1-0.2,0.3-0.2,0.5-0.2c0.3,0,0.5,0.1,0.6,0.3
				C204.3,466.4,204.4,466.7,204.4,467.1z M199.7,469.1c0,0.7,0.1,1.2,0.4,1.5c0.3,0.3,0.7,0.5,1.1,0.5c0.3,0,0.5-0.1,0.8-0.2
				c0.2-0.1,0.4-0.4,0.6-0.7c0.1-0.3,0.2-0.6,0.2-1.1c0-0.7-0.1-1.2-0.4-1.5c-0.3-0.4-0.7-0.6-1.1-0.6c-0.5,0-0.8,0.2-1.1,0.5
				C199.8,468,199.7,468.5,199.7,469.1z"/>
			<path fill="#0553DD" d="M207,466.8v0.2c0.3-0.4,0.6-0.7,0.9-0.8c0.3-0.2,0.7-0.3,1.2-0.3c0.4,0,0.8,0.1,1.1,0.3
				c0.3,0.2,0.6,0.4,0.8,0.8c0.1,0.2,0.2,0.4,0.2,0.6c0,0.2,0,0.5,0,0.9v3c0,0.3-0.1,0.6-0.2,0.7c-0.1,0.2-0.3,0.2-0.6,0.2
				c-0.2,0-0.4-0.1-0.6-0.3c-0.2-0.2-0.2-0.4-0.2-0.7v-2.7c0-0.5-0.1-0.9-0.2-1.2c-0.1-0.3-0.4-0.4-0.9-0.4c-0.3,0-0.6,0.1-0.8,0.3
				c-0.2,0.2-0.4,0.4-0.5,0.7c-0.1,0.2-0.1,0.7-0.1,1.4v2c0,0.3-0.1,0.6-0.2,0.7c-0.2,0.2-0.3,0.2-0.6,0.2c-0.2,0-0.4-0.1-0.6-0.3
				c-0.2-0.2-0.2-0.4-0.2-0.7v-4.7c0-0.3,0.1-0.5,0.2-0.7c0.1-0.2,0.3-0.2,0.6-0.2c0.1,0,0.3,0,0.4,0.1c0.1,0.1,0.2,0.2,0.3,0.3
				C206.9,466.4,207,466.6,207,466.8z"/>
			<path fill="#0553DD" d="M216.8,469.6h-3.2c0,0.4,0.1,0.7,0.2,1c0.1,0.3,0.3,0.5,0.6,0.6c0.2,0.1,0.5,0.2,0.8,0.2
				c0.2,0,0.4,0,0.5-0.1c0.2,0,0.3-0.1,0.5-0.2c0.1-0.1,0.3-0.2,0.4-0.3c0.1-0.1,0.3-0.3,0.5-0.5c0.1-0.1,0.2-0.1,0.4-0.1
				c0.2,0,0.3,0,0.4,0.1c0.1,0.1,0.2,0.2,0.2,0.4c0,0.1-0.1,0.3-0.2,0.5c-0.1,0.2-0.3,0.4-0.5,0.6c-0.2,0.2-0.5,0.3-0.9,0.4
				c-0.4,0.1-0.8,0.2-1.2,0.2c-1,0-1.9-0.3-2.4-0.9c-0.6-0.6-0.9-1.4-0.9-2.4c0-0.5,0.1-0.9,0.2-1.3c0.1-0.4,0.4-0.8,0.6-1.1
				c0.3-0.3,0.6-0.5,1-0.7c0.4-0.2,0.8-0.2,1.3-0.2c0.6,0,1.2,0.1,1.6,0.4c0.5,0.3,0.8,0.6,1,1c0.2,0.4,0.3,0.9,0.3,1.3
				c0,0.4-0.1,0.7-0.4,0.8C217.6,469.5,217.3,469.6,216.8,469.6z M213.7,468.7h2.9c0-0.6-0.2-1-0.4-1.2c-0.3-0.3-0.6-0.4-1-0.4
				c-0.4,0-0.7,0.1-1,0.4C213.9,467.7,213.7,468.1,213.7,468.7z"/>
			<path fill="#0553DD" d="M223.4,471.5v-0.2c-0.2,0.2-0.4,0.5-0.6,0.6c-0.2,0.2-0.4,0.3-0.7,0.4c-0.2,0.1-0.5,0.1-0.8,0.1
				c-0.4,0-0.7-0.1-1.1-0.2c-0.3-0.2-0.6-0.4-0.9-0.7c-0.2-0.3-0.4-0.7-0.5-1.1c-0.1-0.4-0.2-0.9-0.2-1.3c0-1,0.2-1.8,0.7-2.4
				c0.5-0.6,1.1-0.8,2-0.8c0.5,0,0.9,0.1,1.2,0.2c0.3,0.2,0.6,0.4,0.9,0.7v-2.4c0-0.3,0.1-0.6,0.2-0.8c0.1-0.2,0.3-0.3,0.6-0.3
				c0.2,0,0.4,0.1,0.6,0.2c0.1,0.2,0.2,0.4,0.2,0.7v7.1c0,0.3-0.1,0.5-0.2,0.7c-0.1,0.2-0.3,0.2-0.6,0.2c-0.2,0-0.4-0.1-0.5-0.2
				C223.5,472.1,223.4,471.8,223.4,471.5z M220.2,469.2c0,0.4,0.1,0.8,0.2,1.1c0.1,0.3,0.3,0.5,0.6,0.7c0.2,0.2,0.5,0.2,0.8,0.2
				c0.3,0,0.5-0.1,0.8-0.2c0.2-0.1,0.4-0.4,0.6-0.7c0.1-0.3,0.2-0.7,0.2-1.1c0-0.4-0.1-0.8-0.2-1.1c-0.1-0.3-0.3-0.5-0.6-0.7
				c-0.2-0.2-0.5-0.2-0.8-0.2c-0.3,0-0.6,0.1-0.8,0.3c-0.2,0.2-0.4,0.4-0.5,0.7C220.3,468.4,220.2,468.8,220.2,469.2z"/>
			<path fill="#0553DD" d="M230.1,464.4v2.5c0.3-0.3,0.6-0.6,0.9-0.7c0.3-0.2,0.7-0.3,1.2-0.3c0.5,0,1,0.1,1.4,0.4
				c0.4,0.3,0.7,0.6,0.9,1.1c0.2,0.5,0.3,1.1,0.3,1.7c0,0.5-0.1,0.9-0.2,1.4c-0.1,0.4-0.3,0.8-0.5,1.1c-0.2,0.3-0.5,0.5-0.9,0.7
				c-0.3,0.2-0.7,0.2-1.1,0.2c-0.2,0-0.5,0-0.7-0.1c-0.2-0.1-0.4-0.1-0.6-0.2c-0.2-0.1-0.3-0.2-0.4-0.3c-0.1-0.1-0.3-0.3-0.4-0.5
				v0.2c0,0.3-0.1,0.5-0.2,0.7c-0.1,0.2-0.3,0.2-0.6,0.2c-0.2,0-0.4-0.1-0.5-0.2c-0.1-0.2-0.2-0.4-0.2-0.7v-7.1
				c0-0.3,0.1-0.6,0.2-0.7c0.1-0.2,0.3-0.3,0.6-0.3c0.2,0,0.4,0.1,0.6,0.2C230,463.9,230.1,464.1,230.1,464.4z M230.1,469.2
				c0,0.6,0.1,1.1,0.4,1.5c0.3,0.3,0.7,0.5,1.2,0.5c0.4,0,0.8-0.2,1.1-0.5c0.3-0.4,0.4-0.9,0.4-1.5c0-0.4-0.1-0.8-0.2-1.1
				c-0.1-0.3-0.3-0.5-0.5-0.7c-0.2-0.2-0.5-0.3-0.8-0.3c-0.3,0-0.6,0.1-0.8,0.3c-0.2,0.2-0.4,0.4-0.6,0.7
				C230.2,468.4,230.1,468.8,230.1,469.2z"/>
			<path fill="#0553DD" d="M237,472.7l0.1-0.4l-2-5c-0.1-0.3-0.2-0.5-0.2-0.6c0-0.1,0-0.3,0.1-0.4c0.1-0.1,0.2-0.2,0.3-0.3
				c0.1-0.1,0.3-0.1,0.4-0.1c0.2,0,0.4,0.1,0.5,0.2c0.1,0.1,0.2,0.4,0.3,0.6l1.4,4l1.3-3.7c0.1-0.3,0.2-0.5,0.3-0.7
				c0.1-0.2,0.2-0.3,0.3-0.3c0.1-0.1,0.2-0.1,0.4-0.1c0.1,0,0.2,0,0.4,0.1c0.1,0.1,0.2,0.2,0.3,0.3c0.1,0.1,0.1,0.2,0.1,0.3
				c0,0.1,0,0.2-0.1,0.3c0,0.1-0.1,0.3-0.1,0.4l-2.1,5.5c-0.2,0.5-0.4,0.9-0.5,1.1c-0.2,0.3-0.4,0.5-0.7,0.6
				c-0.3,0.1-0.7,0.2-1.2,0.2c-0.5,0-0.8-0.1-1.1-0.2c-0.2-0.1-0.4-0.3-0.4-0.6c0-0.2,0.1-0.3,0.2-0.4c0.1-0.1,0.3-0.2,0.5-0.2
				c0.1,0,0.2,0,0.3,0c0.1,0,0.2,0,0.3,0c0.2,0,0.3,0,0.4-0.1c0.1-0.1,0.2-0.2,0.3-0.3C236.8,473.1,236.9,472.9,237,472.7z"/>
		</g>
		<g>
			<path fill="#0553DD" d="M260.4,466h0.4v-0.5c0-0.5,0.1-0.9,0.2-1.2c0.1-0.3,0.3-0.5,0.7-0.7c0.3-0.1,0.7-0.2,1.3-0.2
				c0.9,0,1.4,0.2,1.4,0.7c0,0.1,0,0.3-0.2,0.4c-0.1,0.1-0.2,0.2-0.3,0.2c-0.1,0-0.2,0-0.3,0c-0.1,0-0.3,0-0.4,0
				c-0.3,0-0.5,0.1-0.6,0.3c-0.1,0.2-0.1,0.4-0.1,0.7v0.4h0.4c0.6,0,0.9,0.2,0.9,0.6c0,0.3-0.1,0.4-0.2,0.5
				c-0.2,0.1-0.4,0.1-0.7,0.1h-0.4v4.3c0,0.3-0.1,0.6-0.2,0.7c-0.2,0.2-0.3,0.3-0.6,0.3c-0.2,0-0.4-0.1-0.6-0.3
				c-0.2-0.2-0.2-0.4-0.2-0.7v-4.3h-0.4c-0.2,0-0.4-0.1-0.6-0.2c-0.1-0.1-0.2-0.2-0.2-0.4C259.6,466.2,259.9,466,260.4,466"/>
			<path fill="#0553DD" d="M265.7,470.1v1.4c0,0.3-0.1,0.6-0.2,0.7c-0.2,0.2-0.3,0.2-0.6,0.2c-0.2,0-0.4-0.1-0.6-0.3
				c-0.1-0.2-0.2-0.4-0.2-0.7V467c0-0.7,0.3-1.1,0.8-1.1c0.3,0,0.5,0.1,0.6,0.3c0.1,0.2,0.2,0.4,0.2,0.8c0.2-0.3,0.4-0.6,0.6-0.8
				c0.2-0.2,0.5-0.3,0.8-0.3c0.3,0,0.7,0.1,1,0.3c0.3,0.2,0.5,0.4,0.5,0.7c0,0.2-0.1,0.4-0.2,0.5c-0.1,0.1-0.3,0.2-0.4,0.2
				c-0.1,0-0.2,0-0.4-0.1c-0.2-0.1-0.4-0.1-0.6-0.1c-0.2,0-0.4,0.1-0.6,0.2c-0.2,0.1-0.3,0.3-0.4,0.6c-0.1,0.2-0.1,0.5-0.2,0.9
				C265.8,469.2,265.7,469.6,265.7,470.1"/>
			<path fill="#0553DD" d="M273.2,469.6H270c0,0.4,0.1,0.7,0.2,1c0.1,0.3,0.3,0.5,0.6,0.6c0.2,0.1,0.5,0.2,0.8,0.2
				c0.2,0,0.4,0,0.5-0.1c0.2,0,0.3-0.1,0.5-0.2c0.2-0.1,0.3-0.2,0.4-0.3c0.1-0.1,0.3-0.3,0.5-0.4c0.1-0.1,0.2-0.1,0.4-0.1
				c0.2,0,0.3,0,0.4,0.1c0.1,0.1,0.2,0.2,0.2,0.4c0,0.1-0.1,0.3-0.2,0.5c-0.1,0.2-0.3,0.4-0.5,0.6c-0.2,0.2-0.5,0.3-0.9,0.4
				c-0.3,0.1-0.8,0.2-1.2,0.2c-1,0-1.9-0.3-2.4-0.9c-0.6-0.6-0.9-1.4-0.9-2.4c0-0.5,0.1-0.9,0.2-1.3c0.1-0.4,0.3-0.8,0.6-1.1
				c0.3-0.3,0.6-0.5,1-0.7c0.4-0.2,0.8-0.2,1.3-0.2c0.6,0,1.2,0.1,1.6,0.4c0.5,0.3,0.8,0.6,1,1c0.2,0.4,0.3,0.9,0.3,1.3
				c0,0.4-0.1,0.7-0.4,0.8C273.9,469.5,273.6,469.6,273.2,469.6 M270,468.7h2.9c0-0.6-0.2-1-0.4-1.2c-0.3-0.3-0.6-0.4-1-0.4
				c-0.4,0-0.7,0.1-1,0.4C270.2,467.7,270.1,468.1,270,468.7"/>
			<path fill="#0553DD" d="M279.9,469.6h-3.2c0,0.4,0.1,0.7,0.2,1c0.1,0.3,0.3,0.5,0.6,0.6c0.2,0.1,0.5,0.2,0.8,0.2
				c0.2,0,0.4,0,0.5-0.1c0.2,0,0.3-0.1,0.5-0.2c0.2-0.1,0.3-0.2,0.4-0.3c0.1-0.1,0.3-0.3,0.5-0.4c0.1-0.1,0.2-0.1,0.4-0.1
				c0.2,0,0.3,0,0.4,0.1c0.1,0.1,0.2,0.2,0.2,0.4c0,0.1-0.1,0.3-0.2,0.5c-0.1,0.2-0.3,0.4-0.5,0.6c-0.2,0.2-0.5,0.3-0.9,0.4
				c-0.3,0.1-0.8,0.2-1.2,0.2c-1,0-1.8-0.3-2.4-0.9c-0.6-0.6-0.9-1.4-0.9-2.4c0-0.5,0.1-0.9,0.2-1.3c0.1-0.4,0.3-0.8,0.6-1.1
				c0.3-0.3,0.6-0.5,1-0.7c0.4-0.2,0.8-0.2,1.3-0.2c0.6,0,1.2,0.1,1.6,0.4c0.4,0.3,0.8,0.6,1,1c0.2,0.4,0.3,0.9,0.3,1.3
				c0,0.4-0.1,0.7-0.4,0.8C280.7,469.5,280.4,469.6,279.9,469.6 M276.8,468.7h2.9c0-0.6-0.2-1-0.4-1.2c-0.3-0.3-0.6-0.4-1-0.4
				c-0.4,0-0.7,0.1-1,0.4C277,467.7,276.8,468.1,276.8,468.7"/>
			<path fill="#0553DD" d="M283.5,466.8v0.2c0.3-0.4,0.6-0.7,1-0.8c0.3-0.2,0.7-0.3,1.1-0.3c0.5,0,1,0.1,1.4,0.4
				c0.4,0.3,0.7,0.6,1,1.1c0.2,0.5,0.4,1.1,0.4,1.8c0,0.5-0.1,1-0.2,1.4c-0.1,0.4-0.3,0.8-0.6,1c-0.2,0.3-0.5,0.5-0.9,0.7
				c-0.3,0.2-0.7,0.2-1.1,0.2c-0.5,0-0.9-0.1-1.2-0.3c-0.3-0.2-0.6-0.5-0.9-0.8v2.4c0,0.7-0.3,1.1-0.8,1.1c-0.3,0-0.5-0.1-0.6-0.3
				c-0.1-0.2-0.1-0.5-0.1-0.8v-7c0-0.3,0.1-0.5,0.2-0.7c0.1-0.1,0.3-0.2,0.6-0.2c0.2,0,0.4,0.1,0.6,0.2
				C283.4,466.3,283.5,466.5,283.5,466.8 M286.7,469.1c0-0.4-0.1-0.8-0.2-1.1c-0.1-0.3-0.3-0.5-0.5-0.7c-0.2-0.2-0.5-0.2-0.8-0.2
				c-0.4,0-0.8,0.2-1.1,0.5c-0.3,0.4-0.5,0.9-0.5,1.6c0,0.6,0.2,1.1,0.5,1.5c0.3,0.4,0.7,0.5,1.1,0.5c0.3,0,0.5-0.1,0.7-0.2
				c0.2-0.2,0.4-0.4,0.6-0.7C286.6,470,286.7,469.6,286.7,469.1"/>
			<path fill="#0553DD" d="M289.9,465.1c-0.2,0-0.4-0.1-0.6-0.2c-0.2-0.1-0.2-0.3-0.2-0.6c0-0.2,0.1-0.4,0.2-0.6
				c0.2-0.1,0.4-0.2,0.6-0.2c0.2,0,0.4,0.1,0.6,0.2c0.2,0.1,0.2,0.3,0.2,0.6c0,0.2-0.1,0.4-0.2,0.6
				C290.3,465.1,290.1,465.1,289.9,465.1 M290.7,466.8v4.7c0,0.3-0.1,0.6-0.2,0.7c-0.2,0.2-0.4,0.3-0.6,0.3c-0.2,0-0.4-0.1-0.6-0.3
				c-0.1-0.2-0.2-0.4-0.2-0.7v-4.6c0-0.3,0.1-0.6,0.2-0.7c0.2-0.2,0.3-0.2,0.6-0.2c0.2,0,0.4,0.1,0.6,0.2
				C290.6,466.3,290.7,466.5,290.7,466.8"/>
			<path fill="#0553DD" d="M296,471.7l-1.4-2.4l-0.9,0.8v1.3c0,0.3-0.1,0.6-0.2,0.7c-0.2,0.2-0.4,0.3-0.6,0.3
				c-0.2,0-0.4-0.1-0.6-0.3c-0.1-0.2-0.2-0.4-0.2-0.7v-6.9c0-0.4,0.1-0.6,0.2-0.8c0.1-0.2,0.3-0.3,0.6-0.3c0.2,0,0.4,0.1,0.6,0.3
				c0.1,0.2,0.2,0.4,0.2,0.8v3.9l1.8-1.9c0.2-0.2,0.4-0.4,0.5-0.5c0.1-0.1,0.3-0.1,0.4-0.1c0.2,0,0.4,0.1,0.5,0.2
				c0.1,0.1,0.2,0.3,0.2,0.5c0,0.2-0.2,0.6-0.7,1l-0.9,0.8l1.7,2.6c0.1,0.2,0.2,0.3,0.3,0.4c0.1,0.1,0.1,0.2,0.1,0.3
				c0,0.3-0.1,0.5-0.2,0.6c-0.1,0.1-0.3,0.2-0.6,0.2c-0.2,0-0.4-0.1-0.5-0.2C296.3,472.2,296.1,472,296,471.7"/>
			<path fill="#0553DD" d="M299.5,472.5c-0.2,0-0.5-0.1-0.6-0.2c-0.2-0.2-0.3-0.4-0.3-0.7c0-0.2,0.1-0.4,0.3-0.6
				c0.2-0.2,0.4-0.3,0.6-0.3c0.2,0,0.5,0.1,0.6,0.3c0.2,0.2,0.3,0.4,0.3,0.6c0,0.3-0.1,0.5-0.3,0.7
				C299.9,472.4,299.7,472.5,299.5,472.5"/>
			<path fill="#0553DD" d="M307.5,470.5c0,0.2-0.1,0.4-0.2,0.6c-0.1,0.2-0.3,0.4-0.6,0.7c-0.2,0.2-0.6,0.4-0.9,0.5
				c-0.4,0.1-0.8,0.2-1.3,0.2c-1,0-1.8-0.3-2.3-0.9c-0.6-0.6-0.8-1.4-0.8-2.3c0-0.7,0.1-1.3,0.4-1.8c0.3-0.5,0.6-0.9,1.1-1.2
				c0.5-0.3,1.1-0.4,1.7-0.4c0.4,0,0.8,0.1,1.2,0.2c0.4,0.1,0.6,0.3,0.9,0.5c0.2,0.2,0.4,0.4,0.6,0.6c0.1,0.2,0.2,0.4,0.2,0.6
				c0,0.2-0.1,0.4-0.2,0.5c-0.1,0.1-0.3,0.2-0.5,0.2c-0.1,0-0.2,0-0.3-0.1c-0.1-0.1-0.2-0.2-0.3-0.3c-0.2-0.3-0.4-0.5-0.6-0.7
				c-0.2-0.2-0.5-0.2-0.8-0.2c-0.5,0-0.9,0.2-1.2,0.6c-0.3,0.4-0.4,0.9-0.4,1.5c0,0.3,0,0.6,0.1,0.8c0.1,0.3,0.2,0.5,0.3,0.7
				c0.1,0.2,0.3,0.3,0.5,0.4c0.2,0.1,0.4,0.1,0.7,0.1c0.3,0,0.6-0.1,0.8-0.2c0.2-0.2,0.4-0.4,0.6-0.7c0.1-0.2,0.2-0.3,0.3-0.4
				c0.1-0.1,0.3-0.2,0.4-0.2c0.2,0,0.4,0.1,0.5,0.2C307.5,470.1,307.5,470.3,307.5,470.5"/>
			<path fill="#0553DD" d="M314.5,469.2c0,0.5-0.1,0.9-0.2,1.3c-0.2,0.4-0.4,0.8-0.7,1c-0.3,0.3-0.6,0.5-1,0.7
				c-0.4,0.2-0.8,0.2-1.3,0.2c-0.5,0-0.9-0.1-1.3-0.2c-0.4-0.2-0.7-0.4-1-0.7c-0.3-0.3-0.5-0.6-0.7-1c-0.1-0.4-0.2-0.8-0.2-1.3
				c0-0.5,0.1-0.9,0.2-1.3c0.2-0.4,0.4-0.8,0.6-1c0.3-0.3,0.6-0.5,1-0.7c0.4-0.2,0.8-0.2,1.3-0.2c0.5,0,0.9,0.1,1.3,0.2
				c0.4,0.2,0.7,0.4,1,0.7c0.3,0.3,0.5,0.6,0.6,1C314.5,468.2,314.5,468.7,314.5,469.2 M312.9,469.2c0-0.7-0.1-1.2-0.4-1.5
				c-0.3-0.4-0.7-0.6-1.2-0.6c-0.3,0-0.6,0.1-0.8,0.2c-0.2,0.2-0.4,0.4-0.6,0.7c-0.1,0.3-0.2,0.7-0.2,1.1c0,0.4,0.1,0.8,0.2,1.1
				c0.1,0.3,0.3,0.6,0.6,0.7c0.2,0.2,0.5,0.3,0.8,0.3c0.5,0,0.9-0.2,1.2-0.6C312.8,470.3,312.9,469.8,312.9,469.2"/>
			<path fill="#0553DD" d="M320.7,469.3v2.2c0,0.3-0.1,0.6-0.2,0.8c-0.2,0.2-0.4,0.3-0.6,0.3c-0.2,0-0.4-0.1-0.6-0.3
				c-0.2-0.2-0.2-0.4-0.2-0.8v-2.6c0-0.4,0-0.7,0-1c0-0.2-0.1-0.4-0.2-0.6c-0.1-0.1-0.3-0.2-0.6-0.2c-0.5,0-0.9,0.2-1,0.6
				c-0.2,0.4-0.3,0.9-0.3,1.6v2.2c0,0.3-0.1,0.6-0.2,0.8c-0.2,0.2-0.4,0.3-0.6,0.3c-0.2,0-0.4-0.1-0.6-0.3c-0.2-0.2-0.2-0.4-0.2-0.8
				v-4.6c0-0.3,0.1-0.5,0.2-0.7c0.1-0.2,0.3-0.2,0.6-0.2c0.2,0,0.4,0.1,0.6,0.2c0.1,0.1,0.2,0.4,0.2,0.6v0.2
				c0.3-0.3,0.6-0.6,0.9-0.7c0.3-0.2,0.7-0.2,1.1-0.2c0.4,0,0.8,0.1,1,0.2c0.3,0.2,0.5,0.4,0.7,0.7c0.3-0.3,0.6-0.6,0.9-0.7
				c0.3-0.2,0.7-0.2,1-0.2c0.4,0,0.8,0.1,1.1,0.3c0.3,0.2,0.6,0.4,0.7,0.7c0.1,0.3,0.2,0.8,0.2,1.4v3.2c0,0.3-0.1,0.6-0.2,0.8
				c-0.2,0.2-0.4,0.3-0.6,0.3c-0.2,0-0.4-0.1-0.6-0.3c-0.2-0.2-0.2-0.4-0.2-0.8v-2.7c0-0.3,0-0.6,0-0.8c0-0.2-0.1-0.4-0.2-0.5
				c-0.1-0.1-0.3-0.2-0.6-0.2c-0.2,0-0.4,0.1-0.6,0.2c-0.2,0.1-0.3,0.3-0.5,0.5C320.8,468.1,320.7,468.6,320.7,469.3"/>
		</g>
		<g>
			<path fill="#0553DD" d="M245.3,468.8C245.3,468.8,245.3,468.8,245.3,468.8C245.3,468.8,245.3,468.8,245.3,468.8z"/>
			<path fill="#0553DD" d="M245.4,469.3C245.4,469.3,245.4,469.3,245.4,469.3c0-0.1-0.1-0.3-0.1-0.4
				C245.3,469,245.3,469.2,245.4,469.3z"/>
			<path fill="#0553DD" d="M245.9,470.8C245.9,470.8,245.9,470.8,245.9,470.8C245.9,470.8,245.9,470.8,245.9,470.8z"/>
			<path fill="#0553DD" d="M245.8,470.7C245.8,470.7,245.8,470.7,245.8,470.7C245.8,470.7,245.8,470.7,245.8,470.7z"/>
			<path fill="#0553DD" d="M245.5,469.9c0.1,0.3,0.2,0.5,0.3,0.7C245.7,470.4,245.6,470.1,245.5,469.9
				C245.5,469.9,245.5,469.9,245.5,469.9z"/>
			<path fill="#0553DD" d="M251.5,462.6c0.3,0,0.5,0,0.8,0.1l0.1-0.5c0,0-0.7-0.2-1.7-0.1l-0.1-0.3c0.3-0.1,0.5-0.3,0.5-0.6
				c0-0.4-0.3-0.7-0.7-0.7c-0.4,0-0.7,0.3-0.7,0.7c0,0.3,0.2,0.6,0.5,0.6l0.1,0.3c-1,0.1-1.8,0.5-1.8,0.5l0.1,0.4
				c0.6-0.2,1.2-0.3,1.6-0.4C250.9,462.6,251.3,462.6,251.5,462.6z"/>
			<path fill="#0553DD" d="M245.9,465L245.9,465C245.9,465,245.9,464.9,245.9,465l-0.1-0.2l-0.3-0.2c0,0-0.5,0.5-0.9,1.3
				c0,0,0-0.1-0.1-0.1c-0.1-0.1-0.3-0.2-0.5-0.2c0,0,0,0,0,0c-0.1,0-0.2,0-0.3-0.1c0.1-0.1,0.1-0.2,0.1-0.3c0-0.2-0.2-0.4-0.4-0.4
				c-0.2,0-0.4,0.2-0.4,0.4c0,0.2,0.2,0.4,0.4,0.4c0,0,0.1,0,0.1,0c0.1,0.1,0.3,0.2,0.5,0.2c0.1,0,0.2,0,0.3,0.1
				c0.1,0.1,0.1,0.2,0.1,0.3c0,0,0,0,0,0c-0.3,0.7-0.2,1.7-0.2,1.7l0.7,0c0-0.3,0.1-0.9,0.2-1.4C245.4,465.6,245.9,465,245.9,465z"
				/>
			<path fill="#0553DD" d="M257.3,463.1c-0.2,0-0.4,0.2-0.4,0.4c0,0,0,0.1,0,0.1c-0.1,0.1-0.2,0.3-0.2,0.5c0,0.1,0,0.2-0.1,0.3
				c-0.1,0-0.1,0.1-0.2,0.1c-0.5-0.7-1.1-1.1-1.1-1.1l-0.5,0.5c0.4,0.3,0.7,0.7,1.1,1.2c0.2,0.4,0.5,0.8,0.7,1.3l0.6-0.3
				c0,0-0.3-0.7-0.7-1.4c0.1,0,0.1-0.1,0.2-0.1c0.1-0.1,0.2-0.3,0.2-0.5c0-0.1,0-0.2,0.1-0.3c0.1,0.1,0.2,0.1,0.3,0.1
				c0.2,0,0.4-0.2,0.4-0.4C257.7,463.3,257.5,463.1,257.3,463.1z"/>
			<path fill="#0553DD" d="M255.6,468.9c-0.9,0.4-2.3,1-4.2,1.3c-0.7,0.1-1.5,0.1-2.1,0.1c-0.9,0-1.6-0.1-2.2-0.1
				c-0.7-0.1-1.2-0.2-1.5-0.3c0.1,0.2,0.2,0.5,0.3,0.7c0,0,0,0,0,0c0,0,0,0.1,0,0.1c0,0,0,0.1,0,0.1c0,0,0,0,0,0
				c0.2,0.4,0.4,0.7,0.7,1c0.9,1,1.8,1.1,1.8,1.1l0,0l0,0c0,0,0.8,0.3,2.1,0.3c1.2,0,2.4-0.2,3.5-0.7c0.8-0.4,1.6-1.1,2-1.7
				c0.3-0.5,0.5-0.9,0.7-1.4c0.1-0.3,0.1-0.7,0.1-1.1C256.6,468.4,256.2,468.6,255.6,468.9z"/>
			<path fill="#0553DD" d="M246.2,465.2c0,0-0.4,0.6-0.7,1.4c-0.2,0.6-0.2,1.5-0.2,1.5v0c0,0.2,0,0.4,0,0.6c0,0,0,0,0,0
				c0,0,0,0.1,0,0.1c0,0.1,0,0.3,0.1,0.4c0.4,0.1,3,0.7,6,0.3c1.8-0.3,3.2-0.8,4.1-1.2c0.7-0.3,1.2-0.6,1.3-0.8
				c-0.2-0.6-0.7-1.7-1.1-2.3c-1.3-1.8-2.6-2.3-3.3-2.4c-0.3,0-0.5-0.1-0.8-0.1c-0.3,0-0.6,0-1.1,0.1c-0.5,0-1,0.2-1.6,0.4
				c-0.8,0.3-1.6,0.7-2.2,1.3l0,0C246.6,464.8,246.4,464.9,246.2,465.2z M253.8,464.8c0.6,0,1.1,0.5,1.1,1.1s-0.5,1.1-1.1,1.1
				c-0.6,0-1.1-0.5-1.1-1.1S253.2,464.8,253.8,464.8z M248.7,464.7c1,0,1.8,0.8,1.8,1.8c0,1-0.8,1.8-1.8,1.8c-1,0-1.8-0.8-1.8-1.8
				C246.9,465.5,247.7,464.7,248.7,464.7z"/>
		</g>
	</g>
</g>
</svg>
