<?xml version="1.0" encoding="utf-8"?>
<!-- Generator: Adobe Illustrator 24.0.1, SVG Export Plug-In . SVG Version: 6.00 Build 0)  -->
<svg version="1.1" id="Warstwa_1" xmlns="http://www.w3.org/2000/svg" xmlns:xlink="http://www.w3.org/1999/xlink" x="0px" y="0px"
	 viewBox="0 0 310.6 358.1" enable-background="new 0 0 310.6 358.1" xml:space="preserve">
<g id="BACKGROUND" display="none">
	<rect x="-97.9" y="-99.6" display="inline" fill="#F7F7FB" width="500" height="500"/>
</g>
<g id="OBJECTS">
	<g display="none">
		<g display="inline">
			<path fill="#5BB59B" d="M249.8,256.2c-0.4,3.8,1.5,8.4-1.4,10.8c-1.7,1.5-4.4,1.3-6.1,2.8c-2.9,2.5-1,7.2,1.4,10.2
				s5.4,6.6,3.9,10.1c-0.8,1.8-2.5,2.9-3.6,4.5c-2.5,3.5-1.3,8.6,1.3,12c6.7,8.8,20.7,9.4,30.1,3.5c3.4-2.1,6.5-5.1,7.6-9
				s-0.3-8.6-3.9-10.4c-1.5-0.7-3.3-1.1-4-2.6c-1.2-2.5,2.1-4.6,4.2-6.4c3.9-3.5,3.6-10.6-0.6-13.8c-1.8-1.3-4.2-2.2-5-4.2
				c-0.6-1.5-0.2-3.1-0.2-4.7C273.6,247.1,251.1,243.9,249.8,256.2z"/>
			<g>
				<rect x="260.9" y="263.7" fill="#0553DD" width="0.6" height="49.3"/>
			</g>
			<g>
				<polygon fill="#0553DD" points="261.3,283.2 250.8,274.4 251.3,273.9 261.3,282.4 273.8,273.5 274.3,274 				"/>
			</g>
			<g>
				<polygon fill="#0553DD" points="261.3,304.1 250.8,295.3 251.3,294.9 261.3,303.3 273.8,294.4 274.3,294.9 				"/>
			</g>
		</g>
	</g>
	<g display="none">
		<g display="inline">
			<path fill="#63A590" d="M3,143.6c-0.7,6.8,2.7,15.1-2.5,19.6c-3.1,2.7-8,2.3-11.1,5c-5.3,4.5-1.8,13.1,2.6,18.4s9.7,12,7,18.3
				c-1.4,3.2-4.5,5.3-6.5,8.1c-4.5,6.4-2.3,15.5,2.4,21.7c12.1,16,37.4,16.9,54.4,6.3c6.2-3.9,11.8-9.3,13.8-16.3
				c2-7-0.5-15.6-7-18.8c-2.6-1.3-6-2-7.3-4.6c-2.1-4.5,3.9-8.3,7.6-11.6c7.1-6.4,6.5-19.2-1.1-24.9c-3.2-2.4-7.6-3.9-9.1-7.6
				c-1.1-2.6-0.3-5.6-0.3-8.5C46.2,127.1,5.4,121.3,3,143.6z"/>
			<g>
				<rect x="23.4" y="157.1" fill="#0553DD" width="1.1" height="143.5"/>
			</g>
			<g>
				<polygon fill="#0553DD" points="24,192.3 5,176.4 5.7,175.5 24,190.8 46.7,174.8 47.2,175.7 				"/>
			</g>
			<g>
				<polygon fill="#0553DD" points="24,230.1 5,214.2 5.7,213.4 24,228.7 46.7,212.6 47.2,213.5 				"/>
			</g>
		</g>
	</g>
	<g>
		<g enable-background="new    ">
			<g>
				<g>
					<path id="SVGID_1_" fill="#24143A" d="M53.7,52.7L44.5,53C44.2,40.3,53,29.8,64.3,29.6l9.1-0.3C62.2,29.5,53.4,40,53.7,52.7z"
						/>
				</g>
				<g>
					<defs>
						<path id="SVGID_2_" d="M53.7,52.7L44.5,53C44.2,40.3,53,29.8,64.3,29.6l9.1-0.3C62.2,29.5,53.4,40,53.7,52.7z"/>
					</defs>
					<clipPath id="SVGID_4_">
						<use xlink:href="#SVGID_2_"  overflow="visible"/>
					</clipPath>
					<g clip-path="url(#SVGID_4_)" enable-background="new    ">
						<path fill="#24143A" d="M53.7,52.7L44.5,53c-0.1-4.1,0.8-8,2.3-11.4l9.1-0.3C54.4,44.7,53.5,48.6,53.7,52.7"/>
						<path fill="#24143A" d="M55.9,41.3l-9.1,0.3c1.3-2.7,3-5.1,5.1-7l9.1-0.3C58.9,36.2,57.2,38.6,55.9,41.3"/>
						<path fill="#24143A" d="M61.2,34.3L52,34.6c3.3-3.1,7.6-4.9,12.2-5l9.1-0.3C68.7,29.4,64.4,31.3,61.2,34.3"/>
					</g>
				</g>
			</g>
			<g>
				<polygon fill="#24143A" points="59.7,296.5 50.5,296.8 44.5,53 53.7,52.7 				"/>
			</g>
			<g>
				<g>
					<path id="SVGID_3_" fill="#321B4D" d="M80.4,319l-9.1,0.3c-11.2,0.3-20.5-9.8-20.8-22.5l9.1-0.3
						C59.9,309.2,69.3,319.3,80.4,319z"/>
				</g>
				<g>
					<defs>
						<path id="SVGID_5_" d="M80.4,319l-9.1,0.3c-11.2,0.3-20.5-9.8-20.8-22.5l9.1-0.3C59.9,309.2,69.3,319.3,80.4,319z"/>
					</defs>
					<clipPath id="SVGID_6_">
						<use xlink:href="#SVGID_5_"  overflow="visible"/>
					</clipPath>
					<g clip-path="url(#SVGID_6_)">
						<path fill="#321B4D" d="M80.4,319l-9.1,0.3c-11.2,0.3-20.5-9.8-20.8-22.5l9.1-0.3C59.9,309.2,69.3,319.3,80.4,319"/>
					</g>
				</g>
			</g>
			<g>
				<polygon fill="#EAE8ED" points="161.9,75.4 162.2,83.3 123.3,84.2 123.1,76.3 				"/>
			</g>
			<g>
				<path fill="#DA627D" d="M110.2,73.3c3.8-0.1,6.9,3.3,7,7.6l0.8,32.8c0.1,4.3-2.9,7.8-6.7,7.9l-34.2,0.8c-3.8,0.1-6.9-3.3-7-7.6
					L69.3,82c-0.1-4.3,2.9-7.8,6.7-7.9L110.2,73.3z"/>
			</g>
			<g>
				<path fill="#FFFFFF" d="M170.3,60.8l5.4,218.7l-108.4,2.4L61.9,63.2L170.3,60.8z M168.8,258.6l-2.1-86.4l-95,2.1l2.1,86.4
					L168.8,258.6 M69.4,82l0.8,32.8c0.1,4.3,3.3,7.7,7,7.6l34.2-0.8c3.8-0.1,6.8-3.6,6.7-7.9l-0.8-32.8c-0.1-4.3-3.3-7.7-7-7.6
					l-34.2,0.8C72.3,74.2,69.3,77.8,69.4,82 M167.7,160.4l-0.2-7.9l-96.3,2.2l0.2,7.9L167.7,160.4 M167.3,145.9l-0.2-7.9l-96.3,2.2
					l0.2,7.9L167.3,145.9 M123.4,90.7l0.2,7.9l38.9-0.9l-0.2-7.9L123.4,90.7 M123.1,76.3l0.2,7.9l38.9-0.9l-0.2-7.9L123.1,76.3"/>
			</g>
			<g>
				<polygon fill="#EAE8ED" points="162.3,89.9 162.6,97.7 123.7,98.6 123.4,90.7 				"/>
			</g>
			<g>
				<path fill="#24143A" d="M120.8,36.2c1,0,1.8,0.9,1.9,2c0,1.1-0.8,2.1-1.8,2.1s-1.8-0.9-1.9-2C118.9,37.2,119.8,36.2,120.8,36.2z
					"/>
			</g>
			<g>
				<path fill="#24143A" d="M130.8,45.9c0.6,0,1.1,0.6,1.2,1.3c0,0.7-0.5,1.3-1.1,1.3l-19.4,0.4c-0.6,0-1.1-0.6-1.2-1.3
					c0-0.7,0.5-1.3,1.1-1.3L130.8,45.9z"/>
			</g>
			<g>
				<path fill="#24143A" d="M122.9,287.2c5-0.1,9.2,4.4,9.3,10.1s-3.8,10.4-8.8,10.5s-9.2-4.4-9.3-10.1
					C113.9,292,117.9,287.3,122.9,287.2z"/>
			</g>
			<g>
				
					<ellipse transform="matrix(0.9995 -3.258706e-02 3.258706e-02 0.9995 -1.5044 3.3316)" fill="#24143A" cx="101.5" cy="47.8" rx="2.1" ry="2.4"/>
			</g>
			<g>
				<polygon fill="#EAE8ED" points="166.7,172.1 168.8,258.6 73.8,260.7 71.6,174.3 				"/>
			</g>
			<g>
				<path fill="#321B4D" d="M156.9,27.4c11.2-0.3,20.5,9.8,20.8,22.5l6,243.8c0.3,12.7-8.5,23.2-19.7,23.4L80.4,319
					c-11.2,0.3-20.5-9.8-20.8-22.5l-6-243.8C53.3,40,62.1,29.5,73.3,29.3L156.9,27.4z M176.3,280.2l-5.4-220.3L61.2,62.4l5.4,220.3
					L176.3,280.2 M123.4,308.5c5.4-0.1,9.6-5.2,9.5-11.2c-0.2-6.1-4.6-10.9-10-10.8s-9.6,5.2-9.5,11.2
					C113.4,303.8,117.9,308.6,123.4,308.5 M111.3,46.3c-0.6,0-1.1,0.6-1.1,1.3s0.5,1.3,1.2,1.3l19.4-0.4c0.6,0,1.1-0.6,1.1-1.3
					s-0.5-1.3-1.2-1.3L111.3,46.3 M101.4,45.4c-1.2,0-2.1,1.1-2.1,2.4c0,1.3,1,2.4,2.2,2.3c1.2,0,2.1-1.1,2.1-2.4
					C103.6,46.4,102.6,45.3,101.4,45.4 M120.8,36.2c-1,0-1.8,1-1.8,2.1s0.9,2,1.9,2s1.8-1,1.8-2.1C122.7,37.1,121.8,36.2,120.8,36.2
					"/>
			</g>
			<g>
				<polygon fill="#EAE8ED" points="167.1,138.1 167.3,145.9 70.9,148.1 70.8,140.2 				"/>
			</g>
			<g>
				<polygon fill="#EAE8ED" points="167.4,152.5 167.7,160.4 71.4,162.5 71.2,154.6 				"/>
			</g>
		</g>
	</g>
	<ellipse fill="#E0E4ED" cx="218" cy="329.5" rx="72.8" ry="11.2"/>
	<g>
		<path fill="#E26356" d="M246.7,195.1l-3.9-29.2c0,0-25.3-4.3-33.5-14.4c-7.6-9.5-12.1-17.6-12.1-17.6l-12.6,9.7
			c0,0,13.6,34,39.8,46.6"/>
		<path fill="#B24D67" d="M190.3,105.4L190.3,105.4l-6.8-0.7c-0.2,0-0.4,0-0.6,0c0,0,0,0-0.1,0c-0.3,0-0.6,0-0.9,0.1l-26.6,5.6
			c-0.1,0-0.2,0-0.3,0.1c-0.1,0-0.1,0-0.2,0.1c-0.2,0.1-0.3,0.1-0.5,0.2c-0.1,0-0.2,0.1-0.3,0.1c-0.2,0.1-0.3,0.2-0.5,0.3
			c-0.1,0-0.1,0.1-0.2,0.1c0,0,0,0-0.1,0c-0.3,0.2-0.5,0.3-0.7,0.5l-0.1,0.1c-0.2,0.2-0.4,0.4-0.6,0.6c-0.1,0.1-0.1,0.2-0.2,0.2
			c-0.2,0.2-0.3,0.4-0.4,0.5c-0.1,0.1-0.1,0.2-0.2,0.3c-0.2,0.2-0.3,0.5-0.5,0.7l-0.1,0.1l0,0c-0.2,0.3-0.3,0.6-0.5,0.9
			c0,0.1-0.1,0.2-0.1,0.3c-0.1,0.2-0.2,0.5-0.3,0.7c0,0,0,0.1-0.1,0.1v0.1c-0.2,0.5-0.3,0.9-0.4,1.4c0,0,0,0,0,0.1v0.1
			c-0.1,0.4-0.1,0.8-0.2,1.2c0,0.1,0,0.1,0,0.2v0.1c0,0.5-0.1,0.9-0.1,1.4v0.1c0,0.2,0,0.4,0,0.6l2.2,36.7c0,0.4,0.1,0.7,0.1,1.1
			v0.1c0,0.1,0,0.2,0.1,0.3c0,0.1,0,0.2,0.1,0.3c0,0.2,0.1,0.3,0.1,0.5c0,0.1,0,0.2,0.1,0.3c0,0.2,0.1,0.3,0.1,0.5
			c0,0.1,0.1,0.2,0.1,0.3c0.1,0.2,0.1,0.3,0.2,0.5c0,0.1,0,0.1,0.1,0.2c0.1,0.2,0.2,0.4,0.3,0.6l0.1,0.1c0.1,0.2,0.2,0.3,0.3,0.5
			c0,0.1,0.1,0.1,0.1,0.2c0.1,0.1,0.2,0.2,0.2,0.4c0.1,0.1,0.1,0.1,0.2,0.2c0.1,0.1,0.2,0.2,0.2,0.3c0.1,0.1,0.1,0.1,0.2,0.2
			c0.1,0.1,0.2,0.2,0.3,0.3c0.1,0.1,0.1,0.1,0.2,0.2c0.1,0.1,0.2,0.2,0.3,0.2c0.1,0.1,0.1,0.1,0.2,0.2c0.1,0.1,0.2,0.1,0.3,0.2
			c0.1,0,0.1,0.1,0.2,0.1c0.1,0.1,0.2,0.1,0.3,0.2c0.1,0,0.1,0.1,0.2,0.1c0.1,0,0.2,0.1,0.3,0.1s0.1,0.1,0.2,0.1
			c0.1,0,0.2,0.1,0.4,0.1c0.1,0,0.1,0,0.2,0.1c0.2,0,0.4,0.1,0.6,0.1l0,0l6.8,0.7c-0.2,0-0.4-0.1-0.6-0.1c-0.1,0-0.1,0-0.2,0
			s-0.3-0.1-0.4-0.1s-0.1-0.1-0.2-0.1s-0.2-0.1-0.3-0.1c-0.1,0-0.1-0.1-0.2-0.1c-0.1-0.1-0.2-0.1-0.3-0.2c-0.1,0-0.1-0.1-0.2-0.1
			c-0.1-0.1-0.2-0.1-0.3-0.2c-0.1-0.1-0.1-0.1-0.2-0.2s-0.2-0.2-0.3-0.2c-0.1-0.1-0.1-0.1-0.2-0.2s-0.2-0.2-0.3-0.3
			c-0.1-0.1-0.1-0.1-0.2-0.2s-0.2-0.2-0.2-0.3c-0.1-0.1-0.1-0.1-0.2-0.2s-0.2-0.2-0.2-0.4c0-0.1-0.1-0.1-0.1-0.2
			c-0.1-0.2-0.2-0.3-0.3-0.5l-0.1-0.1c-0.1-0.2-0.2-0.4-0.3-0.6c0-0.1,0-0.1-0.1-0.2c-0.1-0.2-0.1-0.3-0.2-0.5
			c0-0.1-0.1-0.2-0.1-0.3c0-0.2-0.1-0.3-0.1-0.5c0-0.1-0.1-0.2-0.1-0.3c0-0.1-0.1-0.3-0.1-0.5c0-0.1,0-0.2-0.1-0.3
			c0-0.1,0-0.3-0.1-0.4c-0.1-0.3-0.1-0.7-0.1-1.1l-2.2-36.7c0-0.3,0-0.5,0-0.8c0-0.5,0-0.9,0.1-1.4c0-0.1,0-0.2,0-0.3
			c0-0.4,0.1-0.8,0.2-1.2c0-0.1,0-0.1,0-0.2c0.1-0.5,0.3-1,0.4-1.4c0-0.1,0.1-0.2,0.1-0.3c0.1-0.2,0.2-0.5,0.3-0.7
			c0-0.1,0.1-0.2,0.1-0.3c0.1-0.3,0.3-0.6,0.5-0.9c0-0.1,0.1-0.1,0.1-0.2c0.1-0.2,0.3-0.5,0.5-0.7c0.1-0.1,0.1-0.2,0.2-0.3
			c0.1-0.2,0.3-0.4,0.4-0.5s0.1-0.2,0.2-0.2c0.2-0.2,0.4-0.4,0.6-0.6l0.1-0.1c0.2-0.2,0.5-0.4,0.7-0.5c0.1-0.1,0.2-0.1,0.3-0.1
			c0.2-0.1,0.3-0.2,0.5-0.3c0.1,0,0.2-0.1,0.3-0.1c0.2-0.1,0.3-0.1,0.5-0.2c0.2,0,0.3-0.1,0.5-0.1l26.6-5.6c0.3-0.1,0.6-0.1,0.9-0.1
			C189.8,105.3,189.9,105.3,190.3,105.4L190.3,105.4z"/>
		<g>
			<path fill="#DA627D" d="M188.7,105.4c3.9-0.8,7.4,2.9,7.7,8.4l2.2,36.7c0.3,5.4-2.6,10.5-6.5,11.4l-26.6,5.6
				c-3.9,0.8-7.4-2.9-7.7-8.4l-2.2-36.7c-0.3-5.4,2.6-10.5,6.5-11.4L188.7,105.4z"/>
		</g>
		<path fill="#F9CCDA" d="M238.8,316c-0.1,2.1-0.3,4.3-1.6,5.8c-1.5,1.9-4.2,2.4-6.6,2.7c-3.5,0.5-7,1-10.5,1.5
			c-0.2,0.5,0.4,1,0.9,1.1c2.6,0.9,5.4,0.5,8.1,0.2c3.1-0.3,6.3-0.5,9.5-0.5c1.4,0,3.1-0.1,3.8-1.4c0.5-0.9,0.3-2,0.2-3.1
			c-0.4-3.2,0.5-6.4,0.1-9.6c-0.1-0.4-0.2-0.8-0.5-0.9c-0.2-0.1-0.4,0-0.6,0C239.1,312.5,239.1,313.6,238.8,316z"/>
		<path fill="#24143A" d="M239.8,324.2c-2.6,1.6-5.3,2-8.3,1.6c-0.2,0-1.2-0.2-1.4-0.3c-0.1-0.6,0-1.2-0.5-1.1
			c-2.2,0.1-4.4,0.3-6.6,0.5c-0.7,0.1-3.3,0.2-3.6,0.7c-0.2,0.5-0.1,1.1,0.3,1.5c0.3,0.4,0.9,0.7,1.4,0.8c2.5,0.9,5.2,0.8,7.9,0.7
			c3.3-0.2,6.5-0.3,9.8-0.5c1.1-0.1,2.3-0.1,3.2-0.7c1.4-0.9,1.9-2.7,1.9-4.3C243.9,320.3,240.8,323.6,239.8,324.2z"/>
		<path fill="#F9CCDA" d="M187.8,321.5c-0.4,2-0.9,4.2-2.4,5.6c-1.8,1.7-4.4,1.8-6.9,1.8c-3.5,0-7.1,0.1-10.6,0.1
			c-0.2,0.5,0.3,1,0.8,1.2c2.4,1.2,5.3,1.2,8,1.3c3.2,0.1,6.3,0.3,9.5,0.7c1.4,0.2,3.1,0.3,3.9-0.8c0.6-0.8,0.6-2,0.6-3
			c0-3.2,1.4-6.3,1.3-9.5c0-0.4-0.1-0.8-0.4-1c-0.2-0.1-0.4-0.1-0.6-0.1C188.3,318,188.2,319.1,187.8,321.5z"/>
		<path fill="#24143A" d="M245.9,217.5c0,0-2.4,24.3-3.3,37.6c-0.9,13.3,7.8,41.7,7.5,49.4c-0.3,7.7-2.1,12.1-2.1,12.1l-18.6-0.2
			l-6.3-96.8L245.9,217.5z"/>
		<path fill="none" stroke="#0553DD" stroke-miterlimit="10" d="M227.8,138c-1.1,2.7-2.5,4.7-3.1,4.4s-0.3-2.6,0.8-5.4
			c1.1-2.7,2.5-4.7,3.1-4.4C229.3,132.9,228.8,135.3,227.8,138z"/>
		
			<ellipse transform="matrix(0.4548 -0.8906 0.8906 0.4548 -0.9874 290.7484)" fill="#F9CCDA" cx="237" cy="146.2" rx="14.8" ry="14.8"/>
		<polygon fill="#F9CCDA" points="233.1,153.4 229.8,169.8 238.8,173.1 242.4,152.8 		"/>
		<path fill="#321B4D" d="M246.8,214c0,0-27.4,1.8-36.1,5.1c-4.5,13.7-23.9,92.7-25.8,100.9c2.9,0.6,15.6,2.5,15.6,2.5
			s8.1-8.4,16-34.7c8.4-27.8,27.1-58.5,28.5-60.8C247.1,223.6,246.8,214,246.8,214z"/>
		<path fill="#F9CCDA" d="M158.8,151.2c-0.2-0.6-0.4-1.2-0.9-1.6c-0.6-0.5-1.5-0.4-2.3-0.1c-0.7,0.3-1.4,0.8-2.2,1
			c-1.4,0.4-3-0.1-4.1,0.7c-0.7,0.5-1,1.4-0.8,2.2c0.1,0.4,0.3,0.8,0.5,1.2c0.6,1.3,0.5,3,1.4,4.1c0.7,0.9,1.7,1.3,2.8,1.8
			c2.5,1,5,2,7.5,3c0.2,0.1,0.3,0.1,0.5,0.1c0.1-0.1,0.2-0.2,0.3-0.3c1-2.6,0.6-3.9-0.7-6C159.8,155.4,159.4,153.3,158.8,151.2z"/>
		<path fill="#321B4D" d="M187.6,329.8c-2.8,1.2-5.5,1.3-8.4,0.5c-0.2,0-1.2-0.4-1.3-0.4c0-0.6,0.1-1.1-0.4-1.2
			c-2.2-0.2-4.4-0.3-6.6-0.3c-0.7,0-3.3-0.3-3.6,0.2c-0.3,0.4-0.2,1.1,0.1,1.5c0.3,0.5,0.8,0.8,1.2,1c2.3,1.3,5.1,1.5,7.7,1.7
			c3.3,0.3,6.5,0.6,9.8,0.8c1.1,0.1,2.3,0.2,3.3-0.3c1.5-0.7,2.2-2.4,2.4-4C192.2,326.4,188.7,329.3,187.6,329.8z"/>
		<path fill="#F9CCDA" d="M157.2,144.5c-0.2-0.5-0.4-1-0.9-1.1c-0.6-0.2-1.2,0.2-1.4,0.8s-0.2,1.2-0.1,1.8c0.2,1.7,0.3,3.3,0.5,5
			c0.1,0.9,0.3,2.1,1.2,2.4c0.6,0.3,1.5,0,1.9-0.5c0.9-1.1,0.3-2.3,0.1-3.5C158.2,147.7,157.9,146.1,157.2,144.5z"/>
		<path fill="#F6A091" d="M243.4,172.2c-0.5-3.5-3.6-6.1-7.2-6c-7.6,0.2-19.2,1.1-21.1,2.1c-2.4,1.3-18.4,6.2-23.3,6.2
			s-25.3-18.4-25.3-18.4l-10,10.7c0,0,18.2,22.8,25,25.5c6.8,2.6,28.2,2.5,28.2,2.5l1,24.6c0,0,31.8,6.4,34.8,1.1s1.1-25.3,1.1-25.3
			L243.4,172.2z"/>
		
			<linearGradient id="SVGID_7_" gradientUnits="userSpaceOnUse" x1="217.6559" y1="89.2977" x2="215.3368" y2="105.7642" gradientTransform="matrix(1 0 0 -1 0 298.7345)">
			<stop  offset="0" style="stop-color:#D37897;stop-opacity:0"/>
			<stop  offset="0.9368" style="stop-color:#E26356;stop-opacity:0.7"/>
		</linearGradient>
		<polygon fill="url(#SVGID_7_)" points="209.8,194.7 223.2,192.5 210.6,214.9 		"/>
		<path fill="none" stroke="#0553DD" stroke-miterlimit="10" d="M223.8,140.5c-1.1,2.7-2.5,4.7-3.1,4.4s-0.3-2.6,0.8-5.4
			c1.1-2.7,2.5-4.7,3.1-4.4C225.2,135.4,224.8,137.8,223.8,140.5z"/>
		<path fill="none" stroke="#0553DD" stroke-width="0.75" stroke-miterlimit="10" d="M221.3,139.8c0.6,0.2,16.1,5.9,16.1,5.9"/>
	</g>
	
		<text transform="matrix(1 0 0 1 33.4921 -16.5844)" display="none" fill="#0553DD" enable-background="new    " font-family="'ArialMT'" font-size="19px">APP DEVELOPMENT CONCEPT</text>
	<path fill="#321B4D" d="M235.2,141.2c0.6,1.8-0.6,4.1,0.8,5.4c0.8,0.7,1.9,0.7,2.9,0.9c1.8,0.5,3.3,2.1,3.5,4s-0.8,3.8-2.5,4.7
		c-0.5,0.3-1.1,0.4-1.5,0.8c-0.8,0.8-0.7,2-0.3,3c0.4,1,1,1.9,1.2,3c0.4,1.9-0.7,3.8-1.4,5.6c-2.2,5.8-0.7,12.5,1.7,18.2
		c1.8,4.4,4.2,8.7,7.7,11.8c3.6,3.1,8.5,5,13.1,3.9c4.6-1.1,8.5-5.5,8.1-10.2c-0.2-1.8-0.9-3.4-1.5-5c-1.8-4.7-3.2-10-1.2-14.6
		c1-2.5,3-4.6,3.4-7.3c0.6-3.4-1.6-6.8-4.3-8.9c-2.7-2.1-6-3.4-9.1-5.1c-3-1.7-6-4.1-7-7.4c-0.7-2.4-0.4-4.9-1.3-7.3
		c-1.2-3.1-4.4-5.2-7.7-5.6c-2.7-0.4-9.4,0.2-10.7,3.2C227.8,137.9,234.3,138.3,235.2,141.2z"/>
	<path fill="#321B4D" d="M260.8,157c1.6-2.5,1.8-6.3-0.5-8.3c-1-0.8-2.3-1.2-3.1-2.1c-1.4-1.4-1.3-3.7-1.6-5.6
		c-0.6-3.7-2.8-7.1-5.9-9.1s-7.1-2.7-10.8-1.7c-0.9,0.2-1.8,0.6-2.3,1.3c-0.8,1.2-0.3,2.8,0.6,3.9c0.9,1.1,2.2,1.8,3.3,2.7
		c2.8,2.5,3.8,6.4,5.2,9.9c1.7,4.3,4.2,8.3,7.3,11.7C257.1,164.4,258,161.2,260.8,157z"/>
	<path fill="#321B4D" d="M272.8,175.3c1.1,2.5,1.3,5.4,0.7,8c-0.5,2.4-1.6,4.7-3.2,6.6c-0.7,0.9-1.6,1.7-2.6,2.1
		c-1.2,0.5-2.5,0.5-3.8,0.4c-4.4-0.4-9.1-1.9-11.2-5.7c-2.4-4.4-1.2-16.5,4.6-18C262.4,167.3,270.6,170.6,272.8,175.3z"/>
	<path fill="#AFC6F5" d="M297.8,82.1c-1.8-5.1-6.7-8.8-12.5-8.8c-2.6,0-5.1,0.8-7.1,2.1c-2.6-7-9.4-12-17.3-12
		c-7.3,0-13.6,4.2-16.6,10.4c-1.1-0.3-2.3-0.5-3.5-0.5c-5.8,0-10.7,3.7-12.5,8.8H297.8z"/>
	<path display="none" fill="#AFC6F5" d="M34.7,97.1c-1.8-5.1-6.7-8.8-12.5-8.8c-2.6,0-5.1,0.8-7.1,2.1c-2.6-7-9.4-12-17.3-12
		c-7.3,0-13.6,4.2-16.6,10.4c-1.1-0.3-2.3-0.5-3.5-0.5c-5.8,0-10.7,3.7-12.5,8.8H34.7z"/>
	<g>
		<g>
			<path fill="#36AF46" d="M21.5,246.4c-0.5,4.9,1.9,11-1.8,14.2c-2.2,1.9-5.8,1.7-8,3.6c-3.8,3.2-1.3,9.5,1.9,13.3
				c3.2,3.9,7,8.7,5.1,13.3c-1,2.3-3.3,3.8-4.7,5.9c-3.2,4.6-1.7,11.2,1.7,15.7c8.7,11.6,27.1,12.3,39.4,4.6
				c4.5-2.8,8.5-6.7,10-11.8c1.5-5.1-0.4-11.3-5.1-13.6c-1.9-0.9-4.4-1.4-5.3-3.3c-1.5-3.3,2.8-6,5.5-8.4c5.1-4.6,4.7-13.9-0.8-18
				c-2.3-1.7-5.5-2.8-6.6-5.5c-0.8-1.9-0.2-4.1-0.2-6.1C52.7,234.5,23.1,230.3,21.5,246.4z"/>
			<g>
				<rect x="36.2" y="256.2" fill="#22822B" width="0.8" height="64.5"/>
			</g>
			<g>
				<polygon fill="#22822B" points="36.7,281.7 23,270.2 23.5,269.6 36.7,280.6 53,269 53.5,269.7 				"/>
			</g>
			<g>
				<polygon fill="#22822B" points="36.7,309.1 23,297.6 23.5,297 36.7,308 53,296.4 53.5,297.1 				"/>
			</g>
		</g>
	</g>
</g>
<g id="DESIGNED_BY_FREEPIK" display="none">
	<g display="inline">
		<g>
			<path fill="#0553DD" d="M82.4,371.9v-0.2c-0.2,0.2-0.4,0.5-0.6,0.6c-0.2,0.2-0.4,0.3-0.7,0.4c-0.2,0.1-0.5,0.1-0.8,0.1
				c-0.4,0-0.7-0.1-1.1-0.2c-0.3-0.2-0.6-0.4-0.9-0.7c-0.2-0.3-0.4-0.7-0.5-1.1s-0.2-0.9-0.2-1.3c0-1,0.2-1.8,0.7-2.4s1.1-0.8,2-0.8
				c0.5,0,0.9,0.1,1.2,0.2c0.3,0.2,0.6,0.4,0.9,0.7v-2.4c0-0.3,0.1-0.6,0.2-0.8c0.1-0.2,0.3-0.3,0.6-0.3c0.2,0,0.4,0.1,0.6,0.2
				c0.1,0.2,0.2,0.4,0.2,0.7v7.1c0,0.3-0.1,0.5-0.2,0.7c-0.1,0.2-0.3,0.2-0.6,0.2c-0.2,0-0.4-0.1-0.5-0.2
				C82.4,372.5,82.4,372.2,82.4,371.9z M79.2,369.6c0,0.4,0.1,0.8,0.2,1.1c0.1,0.3,0.3,0.5,0.6,0.7c0.2,0.2,0.5,0.2,0.8,0.2
				s0.5-0.1,0.8-0.2c0.2-0.1,0.4-0.4,0.6-0.7c0.1-0.3,0.2-0.7,0.2-1.1s-0.1-0.8-0.2-1.1c-0.1-0.3-0.3-0.5-0.6-0.7
				c-0.2-0.2-0.5-0.2-0.8-0.2s-0.6,0.1-0.8,0.3c-0.2,0.2-0.4,0.4-0.5,0.7C79.3,368.8,79.2,369.2,79.2,369.6z"/>
			<path fill="#0553DD" d="M89.6,370h-3.2c0,0.4,0.1,0.7,0.2,1c0.1,0.3,0.3,0.5,0.6,0.6c0.2,0.1,0.5,0.2,0.8,0.2
				c0.2,0,0.4,0,0.5-0.1c0.2,0,0.3-0.1,0.5-0.2s0.3-0.2,0.4-0.3c0.1-0.1,0.3-0.3,0.5-0.5c0.1-0.1,0.2-0.1,0.4-0.1s0.3,0,0.4,0.1
				c0.1,0.1,0.2,0.2,0.2,0.4c0,0.1-0.1,0.3-0.2,0.5c-0.1,0.2-0.3,0.4-0.5,0.6s-0.5,0.3-0.9,0.4c-0.3,0.1-0.8,0.2-1.2,0.2
				c-1,0-1.8-0.3-2.4-0.9c-0.6-0.6-0.9-1.4-0.9-2.4c0-0.5,0.1-0.9,0.2-1.3c0.1-0.4,0.4-0.8,0.6-1.1c0.3-0.3,0.6-0.5,1-0.7
				s0.8-0.2,1.3-0.2c0.6,0,1.2,0.1,1.6,0.4c0.5,0.3,0.8,0.6,1,1s0.3,0.9,0.3,1.3s-0.1,0.7-0.3,0.8C90.3,369.9,89.9,370,89.6,370z
				 M86.4,369.1h2.9c0-0.6-0.2-1-0.4-1.2c-0.3-0.3-0.6-0.4-1-0.4s-0.7,0.1-1,0.4C86.6,368.1,86.4,368.5,86.4,369.1z"/>
			<path fill="#0553DD" d="M96.9,370.8c0,0.4-0.1,0.8-0.3,1.1c-0.2,0.3-0.5,0.6-1,0.7c-0.4,0.2-0.9,0.2-1.6,0.2
				c-0.6,0-1.1-0.1-1.5-0.3c-0.4-0.2-0.7-0.4-0.9-0.7c-0.2-0.3-0.3-0.5-0.3-0.8c0-0.2,0.1-0.3,0.2-0.5c0.1-0.1,0.3-0.2,0.5-0.2
				s0.3,0,0.4,0.1c0.1,0.1,0.2,0.2,0.3,0.3c0.2,0.3,0.4,0.5,0.6,0.6c0.2,0.1,0.5,0.2,0.9,0.2c0.3,0,0.6-0.1,0.8-0.2s0.3-0.3,0.3-0.5
				c0-0.3-0.1-0.5-0.3-0.6s-0.6-0.3-1.1-0.4c-0.6-0.1-1-0.3-1.4-0.4c-0.4-0.2-0.6-0.4-0.8-0.6s-0.3-0.6-0.3-0.9s0.1-0.6,0.3-0.9
				s0.5-0.5,0.9-0.7s0.8-0.3,1.4-0.3c0.4,0,0.8,0,1.1,0.1s0.6,0.2,0.8,0.4c0.2,0.1,0.4,0.3,0.5,0.5s0.2,0.4,0.2,0.5
				c0,0.2-0.1,0.3-0.2,0.5c-0.1,0.1-0.3,0.2-0.5,0.2s-0.3,0-0.4-0.1c-0.1-0.1-0.3-0.2-0.4-0.4c-0.1-0.2-0.3-0.3-0.4-0.4
				c-0.2-0.1-0.4-0.1-0.7-0.1s-0.5,0.1-0.7,0.2s-0.3,0.3-0.3,0.5s0.1,0.3,0.2,0.4c0.1,0.1,0.3,0.2,0.6,0.3c0.2,0.1,0.6,0.2,1,0.3
				c0.5,0.1,0.9,0.3,1.2,0.4c0.3,0.2,0.6,0.4,0.7,0.6C96.9,370.2,96.9,370.5,96.9,370.8z"/>
			<path fill="#0553DD" d="M98.6,365.5c-0.2,0-0.4-0.1-0.6-0.2c-0.2-0.1-0.2-0.3-0.2-0.6c0-0.2,0.1-0.4,0.2-0.6
				c0.2-0.1,0.4-0.2,0.6-0.2c0.2,0,0.4,0.1,0.6,0.2c0.2,0.1,0.2,0.3,0.2,0.6c0,0.2-0.1,0.4-0.2,0.6
				C98.9,365.5,98.8,365.5,98.6,365.5z M99.4,367.2v4.7c0,0.3-0.1,0.6-0.2,0.7c-0.2,0.2-0.4,0.2-0.6,0.2c-0.2,0-0.4-0.1-0.6-0.3
				c-0.1-0.2-0.2-0.4-0.2-0.7v-4.6c0-0.3,0.1-0.6,0.2-0.7c0.1-0.2,0.3-0.2,0.6-0.2c0.2,0,0.4,0.1,0.6,0.2
				C99.3,366.7,99.4,366.9,99.4,367.2z"/>
			<path fill="#0553DD" d="M106.4,367.5v4.7c0,0.5-0.1,1-0.2,1.4c-0.1,0.4-0.3,0.7-0.6,1s-0.6,0.4-1,0.6c-0.4,0.1-0.9,0.2-1.5,0.2
				s-1.1-0.1-1.5-0.2c-0.4-0.2-0.8-0.4-1-0.6s-0.4-0.5-0.4-0.8c0-0.2,0.1-0.4,0.2-0.5c0.1-0.1,0.3-0.2,0.5-0.2s0.4,0.1,0.6,0.3
				c0.1,0.1,0.2,0.2,0.3,0.3c0.1,0.1,0.2,0.2,0.3,0.3c0.1,0.1,0.2,0.1,0.4,0.2c0.2,0,0.3,0.1,0.5,0.1c0.4,0,0.7-0.1,1-0.2
				c0.2-0.1,0.4-0.3,0.5-0.5s0.1-0.4,0.2-0.7c0-0.2,0-0.6,0-1.2c-0.2,0.3-0.5,0.6-0.9,0.8c-0.3,0.2-0.7,0.3-1.2,0.3s-1-0.1-1.4-0.4
				s-0.7-0.7-0.9-1.2s-0.3-1.1-0.3-1.7c0-0.5,0.1-0.9,0.2-1.3c0.1-0.4,0.3-0.7,0.6-1c0.2-0.3,0.5-0.5,0.8-0.6s0.7-0.2,1.1-0.2
				c0.5,0,0.9,0.1,1.2,0.3c0.3,0.2,0.6,0.5,0.9,0.8v-0.2c0-0.3,0.1-0.5,0.2-0.7c0.1-0.2,0.3-0.2,0.5-0.2c0.3,0,0.5,0.1,0.6,0.3
				C106.4,366.8,106.4,367.1,106.4,367.5z M101.8,369.5c0,0.7,0.1,1.2,0.4,1.5c0.3,0.3,0.7,0.5,1.1,0.5c0.3,0,0.5-0.1,0.8-0.2
				c0.2-0.1,0.4-0.4,0.6-0.7c0.1-0.3,0.2-0.6,0.2-1.1c0-0.7-0.1-1.2-0.4-1.5c-0.3-0.4-0.7-0.6-1.1-0.6c-0.5,0-0.8,0.2-1.1,0.5
				C101.9,368.4,101.8,368.9,101.8,369.5z"/>
			<path fill="#0553DD" d="M109.1,367.2v0.2c0.3-0.4,0.6-0.7,0.9-0.8c0.3-0.2,0.7-0.3,1.2-0.3c0.4,0,0.8,0.1,1.1,0.3
				c0.3,0.2,0.6,0.4,0.8,0.8c0.1,0.2,0.2,0.4,0.2,0.6s0,0.5,0,0.9v3c0,0.3-0.1,0.6-0.2,0.7c-0.1,0.2-0.3,0.2-0.6,0.2
				c-0.2,0-0.4-0.1-0.6-0.3c-0.2-0.2-0.2-0.4-0.2-0.7v-2.7c0-0.5-0.1-0.9-0.2-1.2c-0.1-0.3-0.4-0.4-0.9-0.4c-0.3,0-0.6,0.1-0.8,0.3
				c-0.2,0.2-0.4,0.4-0.5,0.7c-0.1,0.2-0.1,0.7-0.1,1.4v2c0,0.3-0.1,0.6-0.2,0.7c-0.2,0.2-0.3,0.2-0.6,0.2c-0.2,0-0.4-0.1-0.6-0.3
				c-0.2-0.2-0.2-0.4-0.2-0.7v-4.7c0-0.3,0.1-0.5,0.2-0.7c0.1-0.2,0.3-0.2,0.6-0.2c0.1,0,0.3,0,0.4,0.1c0.1,0.1,0.2,0.2,0.3,0.3
				C108.9,366.8,109.1,367,109.1,367.2z"/>
			<path fill="#0553DD" d="M118.9,370h-3.2c0,0.4,0.1,0.7,0.2,1c0.1,0.3,0.3,0.5,0.6,0.6c0.2,0.1,0.5,0.2,0.8,0.2
				c0.2,0,0.4,0,0.5-0.1c0.2,0,0.3-0.1,0.5-0.2c0.1-0.1,0.3-0.2,0.4-0.3c0.1-0.1,0.3-0.3,0.5-0.5c0.1-0.1,0.2-0.1,0.4-0.1
				s0.3,0,0.4,0.1c0.1,0.1,0.2,0.2,0.2,0.4c0,0.1-0.1,0.3-0.2,0.5c-0.1,0.2-0.3,0.4-0.5,0.6s-0.5,0.3-0.9,0.4s-0.8,0.2-1.2,0.2
				c-1,0-1.9-0.3-2.4-0.9c-0.6-0.6-0.9-1.4-0.9-2.4c0-0.5,0.1-0.9,0.2-1.3c0.1-0.4,0.4-0.8,0.6-1.1c0.3-0.3,0.6-0.5,1-0.7
				s0.8-0.2,1.3-0.2c0.6,0,1.2,0.1,1.6,0.4c0.5,0.3,0.8,0.6,1,1s0.3,0.9,0.3,1.3s-0.1,0.7-0.4,0.8C119.7,369.9,119.4,370,118.9,370z
				 M115.8,369.1h2.9c0-0.6-0.2-1-0.4-1.2c-0.3-0.3-0.6-0.4-1-0.4s-0.7,0.1-1,0.4C115.9,368.1,115.8,368.5,115.8,369.1z"/>
			<path fill="#0553DD" d="M125.4,371.9v-0.2c-0.2,0.2-0.4,0.5-0.6,0.6c-0.2,0.2-0.4,0.3-0.7,0.4c-0.2,0.1-0.5,0.1-0.8,0.1
				c-0.4,0-0.7-0.1-1.1-0.2c-0.3-0.2-0.6-0.4-0.9-0.7c-0.2-0.3-0.4-0.7-0.5-1.1s-0.2-0.9-0.2-1.3c0-1,0.2-1.8,0.7-2.4s1.1-0.8,2-0.8
				c0.5,0,0.9,0.1,1.2,0.2c0.3,0.2,0.6,0.4,0.9,0.7v-2.4c0-0.3,0.1-0.6,0.2-0.8c0.1-0.2,0.3-0.3,0.6-0.3c0.2,0,0.4,0.1,0.6,0.2
				c0.1,0.2,0.2,0.4,0.2,0.7v7.1c0,0.3-0.1,0.5-0.2,0.7c-0.1,0.2-0.3,0.2-0.6,0.2c-0.2,0-0.4-0.1-0.5-0.2
				C125.6,372.5,125.4,372.2,125.4,371.9z M122.3,369.6c0,0.4,0.1,0.8,0.2,1.1c0.1,0.3,0.3,0.5,0.6,0.7c0.2,0.2,0.5,0.2,0.8,0.2
				s0.5-0.1,0.8-0.2c0.2-0.1,0.4-0.4,0.6-0.7c0.1-0.3,0.2-0.7,0.2-1.1s-0.1-0.8-0.2-1.1c-0.1-0.3-0.3-0.5-0.6-0.7
				c-0.2-0.2-0.5-0.2-0.8-0.2s-0.6,0.1-0.8,0.3c-0.2,0.2-0.4,0.4-0.5,0.7C122.4,368.8,122.3,369.2,122.3,369.6z"/>
			<path fill="#0553DD" d="M132.2,364.8v2.5c0.3-0.3,0.6-0.6,0.9-0.7c0.3-0.2,0.7-0.3,1.2-0.3s1,0.1,1.4,0.4s0.7,0.6,0.9,1.1
				s0.3,1.1,0.3,1.7c0,0.5-0.1,0.9-0.2,1.4c-0.1,0.4-0.3,0.8-0.5,1.1c-0.2,0.3-0.5,0.5-0.9,0.7c-0.3,0.2-0.7,0.2-1.1,0.2
				c-0.2,0-0.5,0-0.7-0.1s-0.4-0.1-0.6-0.2c-0.2-0.1-0.3-0.2-0.4-0.3c-0.1-0.1-0.3-0.3-0.4-0.5v0.2c0,0.3-0.1,0.5-0.2,0.7
				c-0.1,0.2-0.3,0.2-0.6,0.2c-0.2,0-0.4-0.1-0.5-0.2c-0.1-0.2-0.2-0.4-0.2-0.7v-7.1c0-0.3,0.1-0.6,0.2-0.7c0.1-0.2,0.3-0.3,0.6-0.3
				c0.2,0,0.4,0.1,0.6,0.2C132.1,364.3,132.2,364.5,132.2,364.8z M132.2,369.6c0,0.6,0.1,1.1,0.4,1.5c0.3,0.3,0.7,0.5,1.2,0.5
				c0.4,0,0.8-0.2,1.1-0.5c0.3-0.4,0.4-0.9,0.4-1.5c0-0.4-0.1-0.8-0.2-1.1c-0.1-0.3-0.3-0.5-0.5-0.7s-0.5-0.3-0.8-0.3
				s-0.6,0.1-0.8,0.3c-0.2,0.2-0.4,0.4-0.6,0.7C132.3,368.8,132.2,369.2,132.2,369.6z"/>
			<path fill="#0553DD" d="M139.1,373.1l0.1-0.4l-2-5c-0.1-0.3-0.2-0.5-0.2-0.6s0-0.3,0.1-0.4s0.2-0.2,0.3-0.3
				c0.1-0.1,0.3-0.1,0.4-0.1c0.2,0,0.4,0.1,0.5,0.2s0.2,0.4,0.3,0.6l1.4,4l1.3-3.7c0.1-0.3,0.2-0.5,0.3-0.7s0.2-0.3,0.3-0.3
				c0.1-0.1,0.2-0.1,0.4-0.1c0.1,0,0.2,0,0.4,0.1c0.1,0.1,0.2,0.2,0.3,0.3c0.1,0.1,0.1,0.2,0.1,0.3c0,0.1,0,0.2-0.1,0.3
				c0,0.1-0.1,0.3-0.1,0.4l-2.1,5.5c-0.2,0.5-0.4,0.9-0.5,1.1c-0.2,0.3-0.4,0.5-0.7,0.6s-0.7,0.2-1.2,0.2s-0.8-0.1-1.1-0.2
				c-0.2-0.1-0.4-0.3-0.4-0.6c0-0.2,0.1-0.3,0.2-0.4c0.1-0.1,0.3-0.2,0.5-0.2c0.1,0,0.2,0,0.3,0s0.2,0,0.3,0c0.2,0,0.3,0,0.4-0.1
				c0.1-0.1,0.2-0.2,0.3-0.3C138.9,373.5,138.9,373.3,139.1,373.1z"/>
		</g>
		<g>
			<path fill="#0553DD" d="M162.4,366.4h0.4v-0.5c0-0.5,0.1-0.9,0.2-1.2c0.1-0.3,0.3-0.5,0.7-0.7c0.3-0.1,0.7-0.2,1.3-0.2
				c0.9,0,1.4,0.2,1.4,0.7c0,0.1,0,0.3-0.2,0.4c-0.1,0.1-0.2,0.2-0.3,0.2c-0.1,0-0.2,0-0.3,0c-0.1,0-0.3,0-0.4,0
				c-0.3,0-0.5,0.1-0.6,0.3c-0.1,0.2-0.1,0.4-0.1,0.7v0.4h0.4c0.6,0,0.9,0.2,0.9,0.6c0,0.3-0.1,0.4-0.2,0.5
				c-0.2,0.1-0.4,0.1-0.7,0.1h-0.4v4.3c0,0.3-0.1,0.6-0.2,0.7c-0.2,0.2-0.3,0.3-0.6,0.3c-0.2,0-0.4-0.1-0.6-0.3
				c-0.2-0.2-0.2-0.4-0.2-0.7v-4.3h-0.4c-0.2,0-0.4-0.1-0.6-0.2c-0.1-0.1-0.2-0.2-0.2-0.4C161.7,366.6,161.9,366.4,162.4,366.4"/>
			<path fill="#0553DD" d="M167.8,370.5v1.4c0,0.3-0.1,0.6-0.2,0.7c-0.2,0.2-0.3,0.2-0.6,0.2c-0.2,0-0.4-0.1-0.6-0.3
				c-0.1-0.2-0.2-0.4-0.2-0.7v-4.4c0-0.7,0.3-1.1,0.8-1.1c0.3,0,0.5,0.1,0.6,0.3c0.1,0.2,0.2,0.4,0.2,0.8c0.2-0.3,0.4-0.6,0.6-0.8
				c0.2-0.2,0.5-0.3,0.8-0.3s0.7,0.1,1,0.3c0.3,0.2,0.5,0.4,0.5,0.7c0,0.2-0.1,0.4-0.2,0.5s-0.3,0.2-0.4,0.2s-0.2,0-0.4-0.1
				c-0.2-0.1-0.4-0.1-0.6-0.1s-0.4,0.1-0.6,0.2s-0.3,0.3-0.4,0.6c-0.1,0.2-0.1,0.5-0.2,0.9C167.8,369.6,167.8,370,167.8,370.5"/>
			<path fill="#0553DD" d="M175.3,370h-3.2c0,0.4,0.1,0.7,0.2,1s0.3,0.5,0.6,0.6c0.2,0.1,0.5,0.2,0.8,0.2c0.2,0,0.4,0,0.5-0.1
				c0.2,0,0.3-0.1,0.5-0.2s0.3-0.2,0.4-0.3c0.1-0.1,0.3-0.3,0.5-0.4c0.1-0.1,0.2-0.1,0.4-0.1c0.2,0,0.3,0,0.4,0.1s0.2,0.2,0.2,0.4
				c0,0.1-0.1,0.3-0.2,0.5s-0.3,0.4-0.5,0.6s-0.5,0.3-0.9,0.4c-0.3,0.1-0.8,0.2-1.2,0.2c-1,0-1.9-0.3-2.4-0.9
				c-0.6-0.6-0.9-1.4-0.9-2.4c0-0.5,0.1-0.9,0.2-1.3s0.3-0.8,0.6-1.1c0.3-0.3,0.6-0.5,1-0.7s0.8-0.2,1.3-0.2c0.6,0,1.2,0.1,1.6,0.4
				c0.5,0.3,0.8,0.6,1,1s0.3,0.9,0.3,1.3s-0.1,0.7-0.4,0.8C175.9,369.9,175.7,370,175.3,370 M172.1,369.1h2.9c0-0.6-0.2-1-0.4-1.2
				c-0.3-0.3-0.6-0.4-1-0.4s-0.7,0.1-1,0.4C172.3,368.1,172.2,368.5,172.1,369.1"/>
			<path fill="#0553DD" d="M181.9,370h-3.2c0,0.4,0.1,0.7,0.2,1s0.3,0.5,0.6,0.6c0.2,0.1,0.5,0.2,0.8,0.2c0.2,0,0.4,0,0.5-0.1
				c0.2,0,0.3-0.1,0.5-0.2s0.3-0.2,0.4-0.3c0.1-0.1,0.3-0.3,0.5-0.4c0.1-0.1,0.2-0.1,0.4-0.1c0.2,0,0.3,0,0.4,0.1s0.2,0.2,0.2,0.4
				c0,0.1-0.1,0.3-0.2,0.5s-0.3,0.4-0.5,0.6s-0.5,0.3-0.9,0.4c-0.3,0.1-0.8,0.2-1.2,0.2c-1,0-1.8-0.3-2.4-0.9s-0.9-1.4-0.9-2.4
				c0-0.5,0.1-0.9,0.2-1.3s0.3-0.8,0.6-1.1c0.3-0.3,0.6-0.5,1-0.7s0.8-0.2,1.3-0.2c0.6,0,1.2,0.1,1.6,0.4s0.8,0.6,1,1
				s0.3,0.9,0.3,1.3s-0.1,0.7-0.4,0.8C182.8,369.9,182.4,370,181.9,370 M178.8,369.1h2.9c0-0.6-0.2-1-0.4-1.2
				c-0.3-0.3-0.6-0.4-1-0.4s-0.7,0.1-1,0.4C179.1,368.1,178.8,368.5,178.8,369.1"/>
			<path fill="#0553DD" d="M185.6,367.2v0.2c0.3-0.4,0.6-0.7,1-0.8c0.3-0.2,0.7-0.3,1.1-0.3c0.5,0,1,0.1,1.4,0.4s0.7,0.6,1,1.1
				c0.2,0.5,0.4,1.1,0.4,1.8c0,0.5-0.1,1-0.2,1.4s-0.3,0.8-0.6,1c-0.2,0.3-0.5,0.5-0.9,0.7c-0.3,0.2-0.7,0.2-1.1,0.2
				c-0.5,0-0.9-0.1-1.2-0.3c-0.3-0.2-0.6-0.5-0.9-0.8v2.4c0,0.7-0.3,1.1-0.8,1.1c-0.3,0-0.5-0.1-0.6-0.3c-0.1-0.2-0.1-0.5-0.1-0.8
				v-7c0-0.3,0.1-0.5,0.2-0.7c0.1-0.1,0.3-0.2,0.6-0.2c0.2,0,0.4,0.1,0.6,0.2C185.4,366.7,185.6,366.9,185.6,367.2 M188.8,369.5
				c0-0.4-0.1-0.8-0.2-1.1c-0.1-0.3-0.3-0.5-0.5-0.7s-0.5-0.2-0.8-0.2c-0.4,0-0.8,0.2-1.1,0.5c-0.3,0.4-0.5,0.9-0.5,1.6
				c0,0.6,0.2,1.1,0.5,1.5s0.7,0.5,1.1,0.5c0.3,0,0.5-0.1,0.7-0.2c0.2-0.2,0.4-0.4,0.6-0.7C188.7,370.4,188.8,370,188.8,369.5"/>
			<path fill="#0553DD" d="M191.9,365.5c-0.2,0-0.4-0.1-0.6-0.2s-0.2-0.3-0.2-0.6c0-0.2,0.1-0.4,0.2-0.6c0.2-0.1,0.4-0.2,0.6-0.2
				s0.4,0.1,0.6,0.2s0.2,0.3,0.2,0.6c0,0.2-0.1,0.4-0.2,0.6C192.3,365.5,192.2,365.5,191.9,365.5 M192.8,367.2v4.7
				c0,0.3-0.1,0.6-0.2,0.7c-0.2,0.2-0.4,0.3-0.6,0.3s-0.4-0.1-0.6-0.3c-0.1-0.2-0.2-0.4-0.2-0.7v-4.6c0-0.3,0.1-0.6,0.2-0.7
				c0.2-0.2,0.3-0.2,0.6-0.2c0.2,0,0.4,0.1,0.6,0.2C192.7,366.7,192.8,366.9,192.8,367.2"/>
			<path fill="#0553DD" d="M198.1,372.1l-1.4-2.4l-0.9,0.8v1.3c0,0.3-0.1,0.6-0.2,0.7c-0.2,0.2-0.4,0.3-0.6,0.3s-0.4-0.1-0.6-0.3
				c-0.1-0.2-0.2-0.4-0.2-0.7v-6.9c0-0.4,0.1-0.6,0.2-0.8c0.1-0.2,0.3-0.3,0.6-0.3c0.2,0,0.4,0.1,0.6,0.3c0.1,0.2,0.2,0.4,0.2,0.8
				v3.9l1.8-1.9c0.2-0.2,0.4-0.4,0.5-0.5s0.3-0.1,0.4-0.1c0.2,0,0.4,0.1,0.5,0.2s0.2,0.3,0.2,0.5s-0.2,0.6-0.7,1l-0.9,0.8l1.7,2.6
				c0.1,0.2,0.2,0.3,0.3,0.4c0.1,0.1,0.1,0.2,0.1,0.3c0,0.3-0.1,0.5-0.2,0.6s-0.3,0.2-0.6,0.2c-0.2,0-0.4-0.1-0.5-0.2
				C198.3,372.6,198.2,372.4,198.1,372.1"/>
			<path fill="#0553DD" d="M201.6,372.9c-0.2,0-0.5-0.1-0.6-0.2c-0.2-0.2-0.3-0.4-0.3-0.7c0-0.2,0.1-0.4,0.3-0.6
				c0.2-0.2,0.4-0.3,0.6-0.3s0.5,0.1,0.6,0.3c0.2,0.2,0.3,0.4,0.3,0.6c0,0.3-0.1,0.5-0.3,0.7C201.9,372.8,201.8,372.9,201.6,372.9"
				/>
			<path fill="#0553DD" d="M209.6,370.9c0,0.2-0.1,0.4-0.2,0.6s-0.3,0.4-0.6,0.7c-0.2,0.2-0.6,0.4-0.9,0.5c-0.4,0.1-0.8,0.2-1.3,0.2
				c-1,0-1.8-0.3-2.3-0.9c-0.6-0.6-0.8-1.4-0.8-2.3c0-0.7,0.1-1.3,0.4-1.8s0.6-0.9,1.1-1.2c0.5-0.3,1.1-0.4,1.7-0.4
				c0.4,0,0.8,0.1,1.2,0.2c0.4,0.1,0.6,0.3,0.9,0.5c0.2,0.2,0.4,0.4,0.6,0.6c0.1,0.2,0.2,0.4,0.2,0.6s-0.1,0.4-0.2,0.5
				s-0.3,0.2-0.5,0.2c-0.1,0-0.2,0-0.3-0.1c-0.1-0.1-0.2-0.2-0.3-0.3c-0.2-0.3-0.4-0.5-0.6-0.7s-0.5-0.2-0.8-0.2
				c-0.5,0-0.9,0.2-1.2,0.6c-0.3,0.4-0.4,0.9-0.4,1.5c0,0.3,0,0.6,0.1,0.8c0.1,0.3,0.2,0.5,0.3,0.7c0.1,0.2,0.3,0.3,0.5,0.4
				s0.4,0.1,0.7,0.1c0.3,0,0.6-0.1,0.8-0.2c0.2-0.2,0.4-0.4,0.6-0.7c0.1-0.2,0.2-0.3,0.3-0.4c0.1-0.1,0.3-0.2,0.4-0.2
				c0.2,0,0.4,0.1,0.5,0.2C209.6,370.5,209.6,370.7,209.6,370.9"/>
			<path fill="#0553DD" d="M216.6,369.6c0,0.5-0.1,0.9-0.2,1.3c-0.2,0.4-0.4,0.8-0.7,1c-0.3,0.3-0.6,0.5-1,0.7s-0.8,0.2-1.3,0.2
				s-0.9-0.1-1.3-0.2c-0.4-0.2-0.7-0.4-1-0.7c-0.3-0.3-0.5-0.6-0.7-1c-0.1-0.4-0.2-0.8-0.2-1.3s0.1-0.9,0.2-1.3
				c0.2-0.4,0.4-0.8,0.6-1c0.3-0.3,0.6-0.5,1-0.7s0.8-0.2,1.3-0.2s0.9,0.1,1.3,0.2c0.4,0.2,0.7,0.4,1,0.7c0.3,0.3,0.5,0.6,0.6,1
				C216.6,368.6,216.6,369.1,216.6,369.6 M214.9,369.6c0-0.7-0.1-1.2-0.4-1.5c-0.3-0.4-0.7-0.6-1.2-0.6c-0.3,0-0.6,0.1-0.8,0.2
				c-0.2,0.2-0.4,0.4-0.6,0.7c-0.1,0.3-0.2,0.7-0.2,1.1s0.1,0.8,0.2,1.1c0.1,0.3,0.3,0.6,0.6,0.7c0.2,0.2,0.5,0.3,0.8,0.3
				c0.5,0,0.9-0.2,1.2-0.6C214.8,370.7,214.9,370.2,214.9,369.6"/>
			<path fill="#0553DD" d="M222.8,369.7v2.2c0,0.3-0.1,0.6-0.2,0.8c-0.2,0.2-0.4,0.3-0.6,0.3s-0.4-0.1-0.6-0.3
				c-0.2-0.2-0.2-0.4-0.2-0.8v-2.6c0-0.4,0-0.7,0-1c0-0.2-0.1-0.4-0.2-0.6c-0.1-0.1-0.3-0.2-0.6-0.2c-0.5,0-0.9,0.2-1,0.6
				c-0.2,0.4-0.3,0.9-0.3,1.6v2.2c0,0.3-0.1,0.6-0.2,0.8c-0.2,0.2-0.4,0.3-0.6,0.3s-0.4-0.1-0.6-0.3c-0.2-0.2-0.2-0.4-0.2-0.8v-4.6
				c0-0.3,0.1-0.5,0.2-0.7s0.3-0.2,0.6-0.2c0.2,0,0.4,0.1,0.6,0.2c0.1,0.1,0.2,0.4,0.2,0.6v0.2c0.3-0.3,0.6-0.6,0.9-0.7
				c0.3-0.2,0.7-0.2,1.1-0.2s0.8,0.1,1,0.2c0.3,0.2,0.5,0.4,0.7,0.7c0.3-0.3,0.6-0.6,0.9-0.7c0.3-0.2,0.7-0.2,1-0.2
				c0.4,0,0.8,0.1,1.1,0.3c0.3,0.2,0.6,0.4,0.7,0.7c0.1,0.3,0.2,0.8,0.2,1.4v3.2c0,0.3-0.1,0.6-0.2,0.8c-0.2,0.2-0.4,0.3-0.6,0.3
				s-0.4-0.1-0.6-0.3c-0.2-0.2-0.2-0.4-0.2-0.8v-2.7c0-0.3,0-0.6,0-0.8c0-0.2-0.1-0.4-0.2-0.5s-0.3-0.2-0.6-0.2
				c-0.2,0-0.4,0.1-0.6,0.2s-0.3,0.3-0.5,0.5C222.8,368.5,222.8,369,222.8,369.7"/>
		</g>
		<g>
			<path fill="#0553DD" d="M147.4,369.2L147.4,369.2L147.4,369.2z"/>
			<path fill="#0553DD" d="M147.4,369.7L147.4,369.7c0-0.1-0.1-0.3-0.1-0.4C147.4,369.4,147.4,369.6,147.4,369.7z"/>
			<path fill="#0553DD" d="M147.9,371.2L147.9,371.2L147.9,371.2z"/>
			<path fill="#0553DD" d="M147.9,371.1L147.9,371.1L147.9,371.1z"/>
			<path fill="#0553DD" d="M147.6,370.3c0.1,0.3,0.2,0.5,0.3,0.7C147.8,370.8,147.7,370.5,147.6,370.3L147.6,370.3z"/>
			<path fill="#0553DD" d="M153.6,363c0.3,0,0.5,0,0.8,0.1l0.1-0.5c0,0-0.7-0.2-1.7-0.1l-0.1-0.3c0.3-0.1,0.5-0.3,0.5-0.6
				c0-0.4-0.3-0.7-0.7-0.7s-0.7,0.3-0.7,0.7c0,0.3,0.2,0.6,0.5,0.6l0.1,0.3c-1,0.1-1.8,0.5-1.8,0.5l0.1,0.4c0.6-0.2,1.2-0.3,1.6-0.4
				C152.9,363,153.4,363,153.6,363z"/>
			<path fill="#0553DD" d="M147.9,365.4L147.9,365.4C147.9,365.4,147.9,365.3,147.9,365.4l-0.1-0.2l-0.3-0.2c0,0-0.5,0.5-0.9,1.3
				c0,0,0-0.1-0.1-0.1c-0.1-0.1-0.3-0.2-0.5-0.2l0,0c-0.1,0-0.2,0-0.3-0.1c0.1-0.1,0.1-0.2,0.1-0.3c0-0.2-0.2-0.4-0.4-0.4
				s-0.4,0.2-0.4,0.4c0,0.2,0.2,0.4,0.4,0.4h0.1c0.1,0.1,0.3,0.2,0.5,0.2c0.1,0,0.2,0,0.3,0.1s0.1,0.2,0.1,0.3l0,0
				c-0.3,0.7-0.2,1.7-0.2,1.7h0.7c0-0.3,0.1-0.9,0.2-1.4C147.4,366,147.9,365.4,147.9,365.4z"/>
			<path fill="#0553DD" d="M159.3,363.5c-0.2,0-0.4,0.2-0.4,0.4v0.1c-0.1,0.1-0.2,0.3-0.2,0.5c0,0.1,0,0.2-0.1,0.3
				c-0.1,0-0.1,0.1-0.2,0.1c-0.5-0.7-1.1-1.1-1.1-1.1l-0.5,0.5c0.4,0.3,0.7,0.7,1.1,1.2c0.2,0.4,0.5,0.8,0.7,1.3l0.6-0.3
				c0,0-0.3-0.7-0.7-1.4c0.1,0,0.1-0.1,0.2-0.1c0.1-0.1,0.2-0.3,0.2-0.5c0-0.1,0-0.2,0.1-0.3c0.1,0.1,0.2,0.1,0.3,0.1
				c0.2,0,0.4-0.2,0.4-0.4C159.8,363.7,159.6,363.5,159.3,363.5z"/>
			<path fill="#0553DD" d="M157.7,369.3c-0.9,0.4-2.3,1-4.2,1.3c-0.7,0.1-1.5,0.1-2.1,0.1c-0.9,0-1.6-0.1-2.2-0.1
				c-0.7-0.1-1.2-0.2-1.5-0.3c0.1,0.2,0.2,0.5,0.3,0.7l0,0v0.1v0.1l0,0c0.2,0.4,0.4,0.7,0.7,1c0.9,1,1.8,1.1,1.8,1.1l0,0l0,0
				c0,0,0.8,0.3,2.1,0.3c1.2,0,2.4-0.2,3.5-0.7c0.8-0.4,1.6-1.1,2-1.7c0.3-0.5,0.5-0.9,0.7-1.4c0.1-0.3,0.1-0.7,0.1-1.1
				C158.7,368.8,158.3,369,157.7,369.3z"/>
			<path fill="#0553DD" d="M148.3,365.6c0,0-0.4,0.6-0.7,1.4c-0.2,0.6-0.2,1.5-0.2,1.5l0,0c0,0.2,0,0.4,0,0.6l0,0v0.1
				c0,0.1,0,0.3,0.1,0.4c0.4,0.1,3,0.7,6,0.3c1.8-0.3,3.2-0.8,4.1-1.2c0.7-0.3,1.2-0.6,1.3-0.8c-0.2-0.6-0.7-1.7-1.1-2.3
				c-1.3-1.8-2.6-2.3-3.3-2.4c-0.3,0-0.5-0.1-0.8-0.1s-0.6,0-1.1,0.1c-0.5,0-1,0.2-1.6,0.4c-0.8,0.3-1.6,0.7-2.2,1.3l0,0
				C148.7,365.2,148.4,365.3,148.3,365.6z M155.9,365.2c0.6,0,1.1,0.5,1.1,1.1s-0.5,1.1-1.1,1.1s-1.1-0.5-1.1-1.1
				S155.3,365.2,155.9,365.2z M150.8,365.1c1,0,1.8,0.8,1.8,1.8s-0.8,1.8-1.8,1.8s-1.8-0.8-1.8-1.8S149.8,365.1,150.8,365.1z"/>
		</g>
	</g>
</g>
</svg>
