<?xml version="1.0" encoding="utf-8"?>
<!-- Generator: Adobe Illustrator 24.0.1, SVG Export Plug-In . SVG Version: 6.00 Build 0)  -->
<svg version="1.1" id="Tryb_izolacji" xmlns="http://www.w3.org/2000/svg" xmlns:xlink="http://www.w3.org/1999/xlink" x="0px"
	 y="0px" viewBox="0 0 1203.84 1215.27" style="enable-background:new 0 0 1203.84 1215.27;" xml:space="preserve">
<style type="text/css">
	.st0{display:none;}
	.st1{display:inline;}
	.st2{display:none;fill:#F6871C;}
	.st3{fill:#402960;}
	.st4{display:inline;fill:#F2F2F2;}
	.st5{fill:#EFEFEF;}
	.st6{fill:#A5A5A5;}
	.st7{opacity:0.3;fill:#FFFFFF;}
	.st8{fill:#CCCCCC;}
	.st9{fill:#34495E;}
	.st10{fill:#E2E2E2;}
	.st11{fill:#321B4D;}
	.st12{fill:#362154;}
	.st13{fill:#3E1E6B;}
	.st14{fill:#AEC647;}
	.st15{fill:#F3AE1B;}
	.st16{fill:#DF3F11;}
	.st17{fill:#BCDEDE;}
	.st18{fill:#E2E1E0;}
	.st19{fill:#FF614F;}
	.st20{fill:#84E570;}
	.st21{fill:#7D57FF;}
	.st22{fill-rule:evenodd;clip-rule:evenodd;fill:#0B2E44;}
	.st23{opacity:0.8;fill-rule:evenodd;clip-rule:evenodd;fill:#FFFFFF;}
	.st24{opacity:0.1;fill-rule:evenodd;clip-rule:evenodd;}
	.st25{fill:#ECF0F1;}
	.st26{fill:#C84119;}
	.st27{fill:#6BB5CE;}
	.st28{opacity:0.1;}
	.st29{fill:#EDEDED;}
	.st30{display:none;fill:#1C0F2C;}
	.st31{fill:#F99B4E;}
	.st32{fill:#223666;}
	.st33{fill:#F95A78;}
	.st34{fill:#F9F94B;}
	.st35{fill:#F49625;}
</style>
<g id="Responsive_Web" class="st0">
	<g id="Background_7_" class="st1">
		<rect id="Background_1_7_" x="-175.08" y="-167.58" class="st2" width="1600" height="1600"/>
		
			<ellipse id="Background_2_7_" transform="matrix(0.7071 -0.7071 0.7071 0.7071 -264.1533 627.1165)" class="st3" cx="624.92" cy="632.42" rx="532" ry="532"/>
	</g>
	<g id="Responsive_Web_2_">
		<path class="st4" d="M340.84,1307.74c0.82,1.03,1.86,2.37,3.11,4.04c1.25,1.66,2.55,3.5,3.88,5.53c1.33,2.03,2.65,4.13,3.95,6.33
			c1.31,2.2,2.42,4.33,3.34,6.37h-8.14c-1.03-1.95-2.14-3.92-3.34-5.91c-1.2-2-2.42-3.91-3.65-5.72c-1.23-1.82-2.45-3.52-3.65-5.1
			c-1.2-1.59-2.29-2.97-3.26-4.15c-0.67,0.05-1.34,0.08-2.03,0.08c-0.69,0-1.4,0-2.11,0h-6.68v20.81h-7.45v-52.46
			c2.1-0.51,4.44-0.86,7.03-1.04c2.58-0.18,4.95-0.27,7.1-0.27c7.47,0,13.17,1.41,17.09,4.22c3.92,2.82,5.88,7.02,5.88,12.6
			c0,3.54-0.93,6.56-2.8,9.06C347.22,1304.65,344.47,1306.52,340.84,1307.74z M329.55,1282.78c-3.18,0-5.61,0.08-7.3,0.23v20.05h5.3
			c2.56,0,4.86-0.13,6.91-0.38c2.05-0.26,3.78-0.74,5.18-1.46c1.41-0.72,2.5-1.73,3.27-3.03c0.77-1.31,1.15-3.03,1.15-5.19
			c0-2-0.39-3.66-1.15-4.99c-0.77-1.33-1.81-2.38-3.11-3.15c-1.31-0.77-2.84-1.31-4.61-1.62
			C333.43,1282.94,331.55,1282.78,329.55,1282.78z"/>
		<path class="st4" d="M363.11,1330.02v-53.22h32.49v6.37h-25.04v15.82h22.27v6.22h-22.27v18.43h26.96v6.37H363.11z"/>
		<path class="st4" d="M419.33,1324.72c7.78,0,11.67-2.66,11.67-7.99c0-1.63-0.34-3.03-1.04-4.18c-0.69-1.16-1.63-2.16-2.8-3
			c-1.18-0.84-2.52-1.57-4.03-2.19c-1.51-0.61-3.11-1.23-4.8-1.84c-1.94-0.66-3.79-1.42-5.53-2.27c-1.74-0.85-3.25-1.84-4.53-2.99
			c-1.28-1.15-2.29-2.52-3.03-4.11c-0.74-1.59-1.11-3.51-1.11-5.76c0-4.66,1.59-8.3,4.76-10.91c3.17-2.61,7.55-3.92,13.13-3.92
			c3.23,0,6.16,0.35,8.8,1.04c2.63,0.69,4.57,1.45,5.79,2.27l-2.38,6.07c-1.07-0.66-2.68-1.32-4.8-1.96
			c-2.13-0.64-4.6-0.96-7.41-0.96c-1.43,0-2.76,0.16-3.99,0.46c-1.23,0.31-2.3,0.77-3.22,1.39c-0.92,0.61-1.65,1.39-2.19,2.34
			c-0.54,0.95-0.81,2.06-0.81,3.34c0,1.44,0.28,2.64,0.85,3.61c0.56,0.97,1.35,1.83,2.38,2.57c1.03,0.74,2.21,1.42,3.57,2.04
			c1.36,0.61,2.85,1.22,4.49,1.84c2.3,0.92,4.42,1.84,6.34,2.76c1.92,0.92,3.58,2.03,4.99,3.31c1.41,1.28,2.5,2.8,3.27,4.57
			c0.77,1.76,1.15,3.9,1.15,6.41c0,4.65-1.7,8.24-5.11,10.75c-3.41,2.51-8.21,3.76-14.4,3.76c-2.1,0-4.03-0.14-5.8-0.42
			c-1.77-0.28-3.34-0.61-4.72-1c-1.38-0.38-2.57-0.79-3.57-1.23c-1-0.44-1.78-0.81-2.34-1.11l2.23-6.15
			c1.18,0.67,2.97,1.41,5.37,2.23C412.9,1324.31,415.85,1324.72,419.33,1324.72z"/>
		<path class="st4" d="M461.95,1276.26c7.48,0,13.22,1.42,17.24,4.26c4.02,2.84,6.03,7.08,6.03,12.71c0,3.07-0.55,5.7-1.65,7.87
			c-1.1,2.17-2.69,3.95-4.76,5.3c-2.07,1.35-4.6,2.34-7.56,2.96c-2.97,0.61-6.32,0.92-10.06,0.92h-5.91v19.73h-7.45v-52.46
			c2.1-0.51,4.44-0.86,7.03-1.04C457.43,1276.35,459.8,1276.26,461.95,1276.26z M462.57,1282.78c-3.17,0-5.61,0.08-7.29,0.23v20.89
			h5.61c2.56,0,4.86-0.16,6.91-0.5c2.05-0.33,3.78-0.9,5.19-1.69c1.41-0.79,2.5-1.88,3.27-3.26c0.77-1.38,1.15-3.15,1.15-5.3
			c0-2.05-0.4-3.74-1.19-5.07c-0.79-1.33-1.87-2.39-3.23-3.18c-1.36-0.8-2.93-1.35-4.72-1.65
			C466.46,1282.94,464.57,1282.78,462.57,1282.78z"/>
		<path class="st4" d="M492.36,1303.37c0-4.56,0.68-8.57,2.04-12.06c1.35-3.48,3.2-6.39,5.53-8.72c2.33-2.33,5.04-4.08,8.14-5.26
			c3.1-1.18,6.39-1.77,9.87-1.77c3.43,0,6.67,0.59,9.72,1.77c3.05,1.18,5.72,2.93,8.02,5.26c2.3,2.33,4.13,5.23,5.49,8.72
			c1.36,3.48,2.04,7.5,2.04,12.06c0,4.56-0.68,8.57-2.04,12.06c-1.36,3.48-3.19,6.39-5.49,8.72c-2.3,2.33-4.98,4.08-8.02,5.26
			c-3.05,1.18-6.28,1.76-9.72,1.76c-3.48,0-6.77-0.59-9.87-1.76c-3.1-1.18-5.81-2.93-8.14-5.26c-2.33-2.33-4.17-5.23-5.53-8.72
			C493.04,1311.94,492.36,1307.93,492.36,1303.37z M500.2,1303.37c0,3.22,0.41,6.16,1.23,8.8c0.82,2.64,1.98,4.88,3.49,6.72
			c1.51,1.84,3.36,3.26,5.53,4.26c2.17,1,4.62,1.5,7.33,1.5c2.71,0,5.15-0.5,7.3-1.5c2.15-1,3.98-2.42,5.49-4.26
			c1.51-1.84,2.67-4.08,3.49-6.72c0.82-2.64,1.23-5.57,1.23-8.8c0-3.23-0.41-6.16-1.23-8.8c-0.82-2.64-1.99-4.88-3.49-6.72
			c-1.51-1.84-3.34-3.26-5.49-4.26c-2.15-1-4.58-1.5-7.3-1.5c-2.71,0-5.16,0.5-7.33,1.5c-2.17,1-4.02,2.42-5.53,4.26
			c-1.51,1.84-2.68,4.08-3.49,6.72C500.61,1297.21,500.2,1300.14,500.2,1303.37z"/>
		<path class="st4" d="M590.75,1330.02c-1.13-1.89-2.42-4.02-3.88-6.37c-1.46-2.36-3.03-4.8-4.72-7.33
			c-1.69-2.54-3.44-5.11-5.26-7.72c-1.82-2.61-3.62-5.13-5.41-7.57c-1.79-2.43-3.54-4.72-5.22-6.88c-1.69-2.15-3.25-4.04-4.69-5.68
			v41.55h-7.29v-53.22h5.91c2.41,2.56,4.98,5.55,7.72,8.95c2.74,3.41,5.45,6.91,8.14,10.52c2.69,3.61,5.22,7.15,7.6,10.63
			c2.38,3.49,4.39,6.58,6.03,9.3v-39.4h7.3v53.22H590.75z"/>
		<path class="st4" d="M622.54,1324.72c7.78,0,11.67-2.66,11.67-7.99c0-1.63-0.35-3.03-1.04-4.18c-0.69-1.16-1.62-2.16-2.8-3
			c-1.18-0.84-2.52-1.57-4.03-2.19c-1.51-0.61-3.11-1.23-4.8-1.84c-1.95-0.66-3.79-1.42-5.53-2.27c-1.74-0.85-3.25-1.84-4.53-2.99
			c-1.28-1.15-2.29-2.52-3.03-4.11c-0.75-1.59-1.11-3.51-1.11-5.76c0-4.66,1.59-8.3,4.76-10.91c3.18-2.61,7.55-3.92,13.13-3.92
			c3.23,0,6.16,0.35,8.79,1.04c2.64,0.69,4.57,1.45,5.8,2.27l-2.38,6.07c-1.07-0.66-2.68-1.32-4.8-1.96
			c-2.13-0.64-4.59-0.96-7.41-0.96c-1.44,0-2.76,0.16-3.99,0.46c-1.23,0.31-2.3,0.77-3.23,1.39c-0.92,0.61-1.65,1.39-2.19,2.34
			c-0.54,0.95-0.8,2.06-0.8,3.34c0,1.44,0.28,2.64,0.84,3.61c0.56,0.97,1.36,1.83,2.38,2.57c1.02,0.74,2.21,1.42,3.57,2.04
			c1.36,0.61,2.85,1.22,4.49,1.84c2.3,0.92,4.42,1.84,6.33,2.76c1.92,0.92,3.58,2.03,4.99,3.31c1.41,1.28,2.5,2.8,3.27,4.57
			c0.77,1.76,1.15,3.9,1.15,6.41c0,4.65-1.7,8.24-5.11,10.75c-3.41,2.51-8.21,3.76-14.4,3.76c-2.1,0-4.03-0.14-5.8-0.42
			c-1.77-0.28-3.34-0.61-4.72-1c-1.38-0.38-2.58-0.79-3.57-1.23c-1-0.44-1.78-0.81-2.34-1.11l2.23-6.15
			c1.18,0.67,2.97,1.41,5.38,2.23C616.11,1324.31,619.06,1324.72,622.54,1324.72z"/>
		<path class="st4" d="M651.03,1276.79h7.45v53.22h-7.45V1276.79z"/>
		<path class="st4" d="M714.7,1276.79c-1.94,5.63-3.8,10.85-5.57,15.63c-1.77,4.79-3.49,9.33-5.19,13.63
			c-1.69,4.3-3.37,8.41-5.03,12.32c-1.66,3.92-3.37,7.79-5.11,11.63h-6.99c-1.74-3.84-3.44-7.71-5.11-11.63
			c-1.66-3.92-3.35-8.03-5.07-12.32c-1.72-4.3-3.47-8.85-5.26-13.63c-1.79-4.79-3.64-10-5.53-15.63h8.22
			c2.76,8.09,5.48,15.87,8.14,23.35c2.66,7.48,5.4,14.49,8.22,21.05c2.82-6.5,5.55-13.51,8.22-21.01c2.66-7.5,5.35-15.29,8.07-23.38
			H714.7z"/>
		<path class="st4" d="M722.07,1330.02v-53.22h32.49v6.37h-25.04v15.82h22.27v6.22h-22.27v18.43h26.96v6.37H722.07z"/>
		<path class="st4" d="M812.77,1293.92c-2.15,6.86-4.33,13.21-6.53,19.04c-2.2,5.84-4.41,11.52-6.6,17.05h-7.45
			c-2.71-7.83-5.11-16.1-7.18-24.8c-2.07-8.71-4.01-18.18-5.8-28.42h7.84c0.72,4,1.46,7.99,2.22,11.98c0.77,4,1.56,7.88,2.38,11.64
			c0.82,3.76,1.64,7.36,2.46,10.79c0.82,3.43,1.66,6.61,2.54,9.52c2.05-5.38,4.22-11.28,6.53-17.7c2.3-6.43,4.45-13.07,6.45-19.93
			h6.45c2,6.86,4.17,13.5,6.53,19.93c2.36,6.43,4.55,12.32,6.6,17.7c0.82-2.86,1.64-6.02,2.46-9.45c0.82-3.43,1.62-7.02,2.42-10.79
			c0.79-3.76,1.58-7.65,2.34-11.67c0.77-4.02,1.51-8.02,2.23-12.02h7.6c-1.85,10.24-3.8,19.71-5.88,28.42
			c-2.07,8.7-4.44,16.97-7.1,24.8h-7.45c-2.26-5.53-4.46-11.21-6.6-17.05C817.07,1307.13,814.92,1300.78,812.77,1293.92z"/>
		<path class="st4" d="M855.01,1330.02v-53.22h32.49v6.37h-25.04v15.82h22.27v6.22h-22.27v18.43h26.96v6.37H855.01z"/>
		<path class="st4" d="M913.23,1330.48c-1.08,0-2.24-0.03-3.5-0.08c-1.26-0.05-2.51-0.13-3.76-0.23c-1.25-0.1-2.5-0.23-3.72-0.38
			c-1.23-0.16-2.36-0.36-3.38-0.61v-51.62c1.02-0.25,2.15-0.46,3.38-0.61c1.23-0.16,2.47-0.28,3.72-0.38
			c1.25-0.1,2.5-0.18,3.72-0.23c1.23-0.04,2.38-0.07,3.46-0.07c3.07,0,5.95,0.23,8.64,0.69c2.69,0.45,5.02,1.24,6.99,2.34
			c1.97,1.1,3.52,2.54,4.65,4.34c1.13,1.8,1.69,4,1.69,6.61c0,2.92-0.69,5.31-2.08,7.18c-1.38,1.87-3.23,3.26-5.53,4.19
			c3.12,0.92,5.61,2.38,7.45,4.38c1.84,2,2.77,4.81,2.77,8.45c0,5.32-1.96,9.33-5.88,12.02
			C927.93,1329.14,921.72,1330.48,913.23,1330.48z M906.23,1299.22h7.84c1.84,0,3.58-0.13,5.22-0.38c1.64-0.26,3.06-0.72,4.26-1.38
			c1.2-0.66,2.15-1.54,2.84-2.62c0.69-1.07,1.04-2.43,1.04-4.07c0-1.54-0.36-2.83-1.07-3.88c-0.72-1.05-1.71-1.89-2.96-2.53
			c-1.25-0.64-2.72-1.11-4.41-1.42c-1.69-0.31-3.48-0.46-5.37-0.46c-1.9,0-3.38,0.03-4.46,0.08c-1.07,0.05-2.05,0.13-2.92,0.23
			V1299.22z M906.23,1305.21v18.74c0.56,0.05,1.23,0.1,2,0.16c0.66,0.05,1.45,0.09,2.34,0.11c0.89,0.03,1.93,0.04,3.11,0.04
			c2.2,0,4.29-0.14,6.26-0.42c1.97-0.29,3.7-0.78,5.18-1.5c1.48-0.72,2.68-1.72,3.57-3c0.89-1.28,1.34-2.9,1.34-4.84
			c0-1.74-0.33-3.21-1-4.41c-0.67-1.2-1.63-2.16-2.88-2.88c-1.26-0.72-2.75-1.23-4.49-1.54c-1.74-0.31-3.69-0.46-5.84-0.46H906.23z"
			/>
	</g>
	<g id="Responsive_Web_1_" class="st1">
		<g id="Line_7_">
			<g>
				<g>
					<path class="st5" d="M587.21,352.65l5.11-10.17c0,0-7.41-3.74-14.97-7.22c-3.78-1.74-7.59-3.42-10.49-4.64
						c-1.46-0.61-2.67-1.11-3.53-1.46c-0.89-0.35-1.4-0.55-1.4-0.55l-4.08,10.63c0,0,1.83,0.75,4.57,1.87
						c2.78,1.17,6.48,2.81,10.16,4.5C579.96,348.98,587.21,352.65,587.21,352.65z"/>
					<path class="st5" d="M629.37,376.38l6.03-9.66c0,0-7.02-4.42-14.21-8.57c-7.17-4.19-14.47-8.15-14.47-8.15L601.3,360
						c0,0,7.15,3.88,14.16,7.98C622.49,372.05,629.37,376.38,629.37,376.38z"/>
					<path class="st5" d="M669.11,403.92l6.94-9.02c0,0-1.65-1.26-4.13-3.14c-2.48-1.89-5.86-4.31-9.21-6.76
						c-6.76-4.83-13.67-9.45-13.67-9.45l-6.32,9.46c0,0,6.75,4.52,13.36,9.24c3.27,2.4,6.57,4.77,8.99,6.61
						C667.49,402.69,669.11,403.92,669.11,403.92z"/>
					<path class="st5" d="M705.71,435.37l7.9-8.19c0,0-1.51-1.44-3.76-3.61c-2.27-2.13-5.37-4.92-8.44-7.73
						c-3.14-2.72-6.26-5.48-8.65-7.49c-2.4-1.99-4-3.32-4-3.32l-7.25,8.78c0,0,1.56,1.3,3.9,3.24c2.33,1.95,5.36,4.64,8.42,7.29
						c2.98,2.74,5.97,5.48,8.21,7.53C704.25,433.98,705.71,435.37,705.71,435.37z"/>
					<path class="st5" d="M738.12,470.95l8.92-7.06c0,0-1.25-1.68-3.27-4.06c-2.02-2.39-4.6-5.68-7.41-8.77
						c-2.75-3.13-5.51-6.26-7.68-8.52c-2.14-2.29-3.56-3.81-3.56-3.81l-8.23,7.86c0,0,1.38,1.48,3.45,3.7
						c2.11,2.18,4.77,5.22,7.44,8.25c2.72,2.99,5.21,6.17,7.17,8.48C736.91,469.33,738.12,470.95,738.12,470.95z"/>
					<path class="st5" d="M764.9,510.74l9.93-5.57c0,0-4.06-7.32-8.58-14.37c-2.21-3.55-4.63-6.97-6.36-9.58
						c-0.86-1.32-1.63-2.36-2.17-3.11c-0.54-0.74-0.84-1.16-0.84-1.16l-9.26,6.62c0,0,0.3,0.41,0.81,1.12c0.52,0.72,1.27,1.73,2.1,3
						c1.66,2.53,4,5.81,6.12,9.23C761,503.7,764.9,510.74,764.9,510.74z"/>
					<path class="st5" d="M784.48,554.34l10.77-3.67c0,0-0.72-1.97-1.79-4.93c-0.54-1.48-1.17-3.2-1.84-5.05
						c-0.68-1.84-1.54-3.76-2.32-5.7c-0.81-1.94-1.61-3.87-2.36-5.69c-0.83-1.78-1.6-3.44-2.26-4.87c-1.33-2.85-2.21-4.75-2.21-4.75
						l-10.23,4.98c0,0,0.85,1.82,2.12,4.55c0.63,1.37,1.37,2.96,2.17,4.67c0.72,1.74,1.49,3.59,2.26,5.45
						c0.76,1.86,1.58,3.7,2.23,5.45c0.64,1.77,1.24,3.42,1.76,4.84C783.79,552.45,784.48,554.34,784.48,554.34z"/>
				</g>
				<g>
					<path class="st5" d="M795.4,600.81l11.28-1.52c0,0-0.04-0.52-0.18-1.43c-0.15-0.91-0.36-2.2-0.61-3.76
						c-0.56-3.1-1.04-7.28-2.02-11.37c-0.92-4.09-1.64-8.24-2.53-11.26c-0.8-3.05-1.33-5.08-1.33-5.08l-10.98,2.97
						c0,0,0.51,1.95,1.28,4.85c0.85,2.89,1.53,6.85,2.42,10.77c0.93,3.91,1.38,7.9,1.92,10.86c0.24,1.48,0.45,2.72,0.59,3.58
						C795.36,600.31,795.4,600.81,795.4,600.81z"/>
					<path class="st5" d="M797.19,648.55l11.36,0.63c0,0,0.07-2.1,0.19-5.24c0.1-3.14,0.33-7.33,0.19-11.53
						c-0.1-4.19-0.02-8.38-0.3-11.53c-0.2-3.14-0.33-5.23-0.33-5.23l-11.35,0.79c0,0,0.13,2,0.32,5.01c0.28,3,0.19,7.02,0.29,11.04
						c0.14,4.01-0.08,8.03-0.18,11.04C797.26,646.53,797.19,648.55,797.19,648.55z"/>
					<path class="st5" d="M790.4,695.96l11.1,2.51c0,0,0.47-2.04,1.17-5.09c0.65-3.07,1.34-7.19,2.1-11.31
						c0.84-4.1,1.27-8.27,1.71-11.37c0.41-3.11,0.69-5.19,0.69-5.19l-11.31-1.28c0,0-0.27,1.99-0.66,4.99
						c-0.43,2.99-0.84,6.99-1.64,10.94c-0.74,3.96-1.41,7.94-2.02,10.9C790.85,693.99,790.4,695.96,790.4,695.96z"/>
					<path class="st5" d="M776.46,741.98l10.65,4.02c0,0,0.73-1.95,1.83-4.87c1.16-2.9,2.44-6.88,3.72-10.84
						c1.26-3.98,2.68-7.9,3.44-10.94c0.84-3.02,1.4-5.03,1.4-5.03l-10.97-3.04c0,0-0.54,1.94-1.35,4.86
						c-0.73,2.94-2.12,6.75-3.33,10.59c-1.25,3.85-2.48,7.7-3.61,10.51C777.17,740.09,776.46,741.98,776.46,741.98z"/>
					<path class="st5" d="M756.81,786.05l10.13,5.19c0,0,0.95-1.84,2.38-4.61c1.46-2.75,3.13-6.57,4.94-10.31
						c1.74-3.78,3.61-7.49,4.76-10.4c1.21-2.87,2.02-4.79,2.02-4.79l-10.48-4.43c0,0-0.79,1.87-1.97,4.66
						c-1.12,2.83-2.94,6.46-4.64,10.14c-1.75,3.65-3.37,7.38-4.81,10.06C757.74,784.26,756.81,786.05,756.81,786.05z"/>
					<path class="st5" d="M732.8,828.08l9.62,6.09c0,0,4.33-7.08,8.65-14.15c2.19-3.52,4.12-7.2,5.69-9.89
						c1.53-2.71,2.55-4.52,2.55-4.52l-9.96-5.51c0,0-1,1.77-2.49,4.43c-1.53,2.63-3.42,6.23-5.57,9.69
						C737.04,821.14,732.8,828.08,732.8,828.08z"/>
					<path class="st5" d="M705.29,868.01l9.14,6.77c0,0,1.24-1.65,3.11-4.13c1.84-2.5,4.19-5.91,6.58-9.28
						c2.39-3.39,4.77-6.77,6.56-9.31c1.71-2.6,2.85-4.33,2.85-4.33l-9.46-6.33c0,0-1.12,1.7-2.8,4.25c-1.76,2.49-4.1,5.83-6.45,9.15
						c-2.36,3.32-4.67,6.67-6.48,9.13C706.51,866.37,705.29,868.01,705.29,868.01z"/>
				</g>
			</g>
			<g>
				<g>
					<path class="st5" d="M800.7,374.05l3.22-14.49c0,0-10.88-2.3-21.86-4.22c-5.49-0.96-11-1.83-15.17-2.43
						c-2.09-0.28-3.84-0.52-5.06-0.68c-1.27-0.16-2-0.25-2-0.25l-1.73,14.73c0,0,2.63,0.34,6.56,0.87c4,0.57,9.36,1.43,14.7,2.36
						C790.06,371.79,800.7,374.05,800.7,374.05z"/>
					<path class="st5" d="M863.38,390.2l4.58-14.13c0,0-10.6-3.29-21.33-6.18c-10.71-2.94-21.51-5.55-21.51-5.55l-3.68,14.38
						c0,0,10.57,2.55,21.05,5.43C853.01,386.98,863.39,390.19,863.38,390.2z"/>
					<path class="st5" d="M924.2,411.94l5.97-13.63c0,0-2.57-1.05-6.42-2.62c-3.85-1.57-9.04-3.52-14.22-5.53
						c-10.4-3.87-20.9-7.44-20.9-7.44l-5.02,13.98c0,0,10.28,3.5,20.44,7.28c5.05,1.96,10.13,3.86,13.89,5.4
						C921.7,410.92,924.2,411.94,924.2,411.94z"/>
					<path class="st5" d="M982.27,439.65l7.5-12.9c0,0-2.43-1.33-6.08-3.32c-3.67-1.95-8.62-4.45-13.54-6.99
						c-4.99-2.4-9.96-4.87-13.73-6.61c-3.79-1.73-6.31-2.88-6.31-2.88l-6.46,13.42c0,0,2.46,1.13,6.15,2.81
						c3.68,1.71,8.51,4.11,13.38,6.45c4.79,2.48,9.59,4.95,13.18,6.8C979.9,438.36,982.27,439.65,982.27,439.65z"/>
					<path class="st5" d="M1036.27,473.9l9.2-11.82c0,0-2.19-1.69-5.61-4.05c-3.43-2.35-7.88-5.65-12.56-8.63
						c-4.63-3.05-9.25-6.1-12.82-8.23c-3.54-2.18-5.9-3.64-5.9-3.64l-8.04,12.6c0,0,2.29,1.41,5.72,3.52
						c3.46,2.07,7.95,5.03,12.42,7.98c4.53,2.88,8.83,6.08,12.16,8.35C1034.16,472.26,1036.27,473.9,1036.27,473.9z"/>
					<path class="st5" d="M1084.39,515.32l11.01-10.25c0,0-7.73-7.91-15.96-15.31c-4.06-3.76-8.35-7.27-11.46-10
						c-1.56-1.38-2.91-2.45-3.86-3.21c-0.94-0.76-1.48-1.19-1.48-1.19l-9.79,11.36c0,0,0.52,0.42,1.43,1.15
						c0.92,0.73,2.23,1.76,3.73,3.09c3,2.64,7.14,6.02,11.04,9.63C1076.96,507.72,1084.39,515.32,1084.39,515.32z"/>
					<path class="st5" d="M1124.45,563.88l12.75-8.14c0,0-1.59-2.25-3.98-5.63c-1.2-1.69-2.59-3.65-4.09-5.77
						c-1.51-2.1-3.26-4.23-4.94-6.43c-1.69-2.18-3.39-4.36-4.98-6.4c-1.67-1.97-3.23-3.82-4.57-5.4c-2.68-3.15-4.47-5.26-4.47-5.26
						l-11.6,9.62c0,0,1.71,2.02,4.28,5.05c1.28,1.52,2.78,3.29,4.38,5.18c1.52,1.96,3.14,4.04,4.77,6.13
						c1.6,2.1,3.28,4.15,4.73,6.15c1.43,2.02,2.76,3.91,3.9,5.52C1122.93,561.73,1124.45,563.88,1124.45,563.88z"/>
				</g>
				<g>
					<path class="st5" d="M1154.23,618.89l14.13-5.59c0,0-0.23-0.64-0.72-1.74c-0.5-1.09-1.2-2.66-2.06-4.53
						c-1.77-3.72-3.81-8.83-6.44-13.67c-2.57-4.86-4.9-9.85-7.06-13.37c-2.06-3.57-3.44-5.96-3.44-5.96l-13.26,7.34
						c0,0,1.31,2.27,3.29,5.69c2.08,3.37,4.29,8.14,6.75,12.78c2.52,4.62,4.45,9.5,6.15,13.05c0.81,1.8,1.49,3.29,1.97,4.34
						C1154.01,618.27,1154.23,618.89,1154.23,618.89z"/>
					<path class="st5" d="M1172.59,678.47l14.96-2.92c0,0-0.61-2.66-1.52-6.66c-0.92-4-2.04-9.35-3.63-14.59
						c-1.54-5.25-2.84-10.57-4.26-14.43c-1.32-3.89-2.19-6.49-2.19-6.49l-14.46,4.7c0,0,0.84,2.49,2.1,6.21
						c1.37,3.69,2.6,8.79,4.08,13.81c1.53,5.01,2.59,10.16,3.48,13.98C1172.01,675.92,1172.59,678.47,1172.59,678.47z"/>
					<path class="st5" d="M1179.71,740.46l15.25-0.46c0,0-0.08-2.72-0.19-6.8c-0.2-4.08-0.69-9.5-1.08-14.93
						c-0.29-5.44-1.14-10.84-1.6-14.9c-0.51-4.06-0.85-6.76-0.85-6.76l-15.11,2.07c0,0,0.33,2.6,0.81,6.5
						c0.45,3.91,1.27,9.09,1.55,14.34c0.37,5.23,0.85,10.46,1.04,14.39C1179.64,737.84,1179.71,740.46,1179.71,740.46z"/>
					<path class="st5" d="M1177.09,803.02l15.17,1.59c0,0,0.29-2.7,0.73-6.75c0.53-4.04,0.86-9.45,1.19-14.87
						c0.3-5.43,0.82-10.83,0.79-14.91c0.08-4.08,0.13-6.8,0.13-6.8l-15.25-0.25c0,0-0.05,2.62-0.12,6.56
						c0.03,3.95-0.48,9.2-0.77,14.45c-0.32,5.25-0.63,10.51-1.15,14.43C1177.37,800.4,1177.09,803.02,1177.09,803.02z"/>
					<path class="st5" d="M1166.4,864.98l14.89,3.23c0,0,0.62-2.64,1.55-6.59c0.98-3.95,1.86-9.3,2.94-14.61
						c0.99-5.33,2.16-10.63,2.68-14.66c0.61-4.02,1.02-6.71,1.02-6.71l-15.09-2.17c0,0-0.4,2.61-0.99,6.52
						c-0.5,3.93-1.65,9.1-2.61,14.29c-1.05,5.18-1.9,10.4-2.86,14.25C1167.01,862.4,1166.4,864.98,1166.4,864.98z"/>
					<path class="st5" d="M1149.37,925.78l14.52,4.53c0,0,3.24-10.33,6.47-20.66c1.65-5.16,2.93-10.42,4.05-14.32
						c1.08-3.92,1.79-6.52,1.79-6.52l-14.78-3.7c0,0-0.7,2.55-1.75,6.39c-1.1,3.82-2.34,8.97-3.97,14.02
						C1152.54,915.66,1149.37,925.78,1149.37,925.78z"/>
					<path class="st5" d="M1127.08,985.09l14.14,5.55c0,0,1.06-2.49,2.64-6.23c1.55-3.75,3.45-8.82,5.43-13.85
						c1.96-5.05,3.91-10.1,5.37-13.87c1.34-3.84,2.24-6.39,2.24-6.39l-14.4-4.89c0,0-0.88,2.51-2.2,6.27
						c-1.44,3.72-3.37,8.69-5.29,13.65c-1.94,4.95-3.81,9.93-5.33,13.63C1128.12,982.63,1127.08,985.09,1127.08,985.09z"/>
				</g>
			</g>
			<g>
				<g>
					<path class="st5" d="M254.99,884.44l-10.87,3.33c0,0,1.99,6.5,4.13,12.96c1.07,3.23,2.18,6.45,3.04,8.87
						c0.89,2.44,1.49,4.08,1.49,4.08l10.62-4.06c0,0-0.56-1.53-1.39-3.83c-0.83-2.34-1.91-5.48-2.96-8.65
						C256.93,890.83,254.99,884.44,254.99,884.44z"/>
					<path class="st5" d="M244.39,846.08l-11.04,2.73c0,0,0.41,1.65,1.02,4.12c0.64,2.46,1.5,5.75,2.35,9.03
						c1.75,6.56,3.62,13.08,3.62,13.08l10.93-3.13c0,0-1.84-6.43-3.56-12.88c-0.84-3.24-1.68-6.47-2.31-8.89
						C244.79,847.7,244.39,846.08,244.39,846.08z"/>
					<path class="st5" d="M235.81,807.19l-11.17,2.17c0,0,0.33,1.67,0.81,4.16c0.52,2.49,1.2,5.81,1.89,9.13
						c0.68,3.33,1.45,6.63,1.99,9.11c0.56,2.48,0.93,4.13,0.93,4.13l11.08-2.54c0,0-0.37-1.63-0.92-4.08
						c-0.53-2.45-1.3-5.7-1.96-8.98c-0.68-3.27-1.35-6.55-1.86-9C236.12,808.83,235.81,807.19,235.81,807.19z"/>
					<path class="st5" d="M229.21,767.92l-11.26,1.58c0,0,1,6.71,2.02,13.42c0.55,3.35,1.1,6.7,1.51,9.21
						c0.44,2.51,0.74,4.17,0.74,4.17l11.19-1.98c0,0-0.29-1.64-0.73-4.12c-0.4-2.47-0.95-5.77-1.49-9.06
						C230.2,774.53,229.21,767.92,229.21,767.92z"/>
					<path class="st5" d="M224.81,728.37l-11.33,0.94c0,0,0.14,1.69,0.35,4.23c0.25,2.53,0.57,5.91,0.9,9.29
						c0.31,3.38,0.75,6.75,1.02,9.28c0.29,2.53,0.48,4.22,0.48,4.22l11.29-1.37c0,0-0.19-1.66-0.47-4.15
						c-0.27-2.49-0.71-5.8-1.01-9.13c-0.32-3.33-0.64-6.65-0.89-9.14C224.95,730.04,224.81,728.37,224.81,728.37z"/>
					<path class="st5" d="M222.75,688.66l-11.37,0.23c0,0,0.03,1.7,0.08,4.25c0.09,2.55,0.22,5.94,0.35,9.34
						c0.1,3.4,0.31,6.79,0.46,9.34c0.15,2.54,0.25,4.23,0.25,4.23l11.35-0.71c0,0-0.1-1.67-0.24-4.17c-0.14-2.5-0.36-5.83-0.46-9.17
						c-0.13-3.33-0.25-6.67-0.34-9.17C222.77,690.32,222.75,688.66,222.75,688.66z"/>
					<path class="st5" d="M223.28,648.96l-11.36-0.56c0,0-0.12,1.7-0.21,4.25c-0.08,2.55-0.18,5.94-0.28,9.34
						c-0.14,3.4-0.13,6.8-0.15,9.35c-0.02,2.55-0.03,4.25-0.03,4.25l11.37,0.02c0,0,0.01-1.67,0.03-4.17
						c0.02-2.5,0.01-5.84,0.15-9.17c0.1-3.33,0.2-6.67,0.28-9.17C223.16,650.62,223.28,648.96,223.28,648.96z"/>
				</g>
				<g>
					<path class="st5" d="M226.71,609.43l-11.28-1.44c0,0-0.25,1.69-0.51,4.23c-0.28,2.54-0.65,5.92-1.02,9.3
						c-0.39,3.39-0.59,6.78-0.82,9.33c-0.21,2.54-0.35,4.24-0.35,4.24l11.34,0.83c0,0,0.14-1.66,0.34-4.15
						c0.23-2.49,0.41-5.81,0.8-9.12c0.37-3.31,0.73-6.62,1-9.1C226.47,611.08,226.71,609.43,226.71,609.43z"/>
					<path class="st5" d="M233.39,570.39l-11.11-2.42c0,0-1.35,6.69-2.71,13.37c-1.14,6.72-2.29,13.44-2.29,13.44l11.24,1.75
						c0,0,1.12-6.56,2.23-13.11C232.07,576.91,233.39,570.39,233.39,570.39z"/>
					<path class="st5" d="M243.69,532.22l-10.82-3.5c0,0-0.51,1.63-1.28,4.08c-0.75,2.45-1.86,5.69-2.71,9
						c-0.91,3.29-1.81,6.58-2.49,9.05c-0.34,1.23-0.62,2.27-0.79,2.99c-0.17,0.73-0.27,1.15-0.27,1.15l11.03,2.76
						c0,0,0.1-0.4,0.27-1.11c0.15-0.71,0.43-1.71,0.76-2.91c0.66-2.4,1.54-5.61,2.42-8.8c0.83-3.22,1.9-6.36,2.63-8.74
						C243.19,533.81,243.69,532.22,243.69,532.22z"/>
					<path class="st5" d="M257.84,495.37l-10.38-4.65c0,0-0.7,1.56-1.75,3.9c-1.11,2.32-2.3,5.52-3.6,8.68
						c-1.25,3.18-2.6,6.32-3.45,8.74c-0.86,2.41-1.44,4.02-1.44,4.02l10.69,3.87c0,0,0.56-1.56,1.39-3.9
						c0.82-2.35,2.13-5.39,3.35-8.48c1.26-3.07,2.41-6.18,3.49-8.42C257.16,496.88,257.84,495.37,257.84,495.37z"/>
					<path class="st5" d="M275.98,460.37l-9.76-5.83c0,0-0.22,0.36-0.62,1c-0.41,0.63-0.93,1.57-1.55,2.69
						c-1.25,2.24-2.92,5.23-4.6,8.22c-1.73,2.96-3.21,6.05-4.37,8.33c-1.15,2.29-1.92,3.82-1.92,3.82l10.19,5.04
						c0,0,0.75-1.48,1.86-3.7c1.12-2.21,2.56-5.2,4.23-8.06c1.61-2.89,3.23-5.78,4.44-7.94c0.61-1.09,1.1-1.99,1.5-2.6
						C275.77,460.73,275.98,460.37,275.98,460.37z"/>
					<path class="st5" d="M298.22,427.86l-8.98-6.98c0,0-1.04,1.37-2.58,3.41c-1.52,2.07-3.68,4.73-5.62,7.56
						c-3.88,5.64-7.75,11.29-7.75,11.29l9.53,6.22c0,0,3.74-5.46,7.48-10.91c1.87-2.73,3.95-5.3,5.43-7.3
						C297.22,429.18,298.22,427.86,298.22,427.86z"/>
					<path class="st5" d="M324.27,398.33l-8.06-8.03c0,0-1.22,1.2-3.05,3c-1.78,1.86-4.08,4.39-6.4,6.91
						c-1.16,1.26-2.32,2.52-3.41,3.7c-0.54,0.59-1.07,1.16-1.57,1.7c-0.47,0.57-0.92,1.1-1.33,1.6c-1.65,1.97-2.75,3.28-2.75,3.28
						l8.69,7.34c0,0,1.06-1.27,2.65-3.18c0.4-0.47,0.83-0.99,1.28-1.54c0.48-0.52,0.99-1.07,1.52-1.64
						c1.05-1.14,2.17-2.36,3.29-3.57c2.25-2.43,4.46-4.88,6.18-6.67C323.08,399.49,324.27,398.33,324.27,398.33z"/>
				</g>
				<g>
					<path class="st5" d="M353.7,372.11l-7.05-8.92c0,0-1.33,1.07-3.33,2.69c-1.97,1.63-4.7,3.71-7.27,5.96
						c-5.11,4.56-10.22,9.11-10.22,9.11l7.73,8.33c0,0,4.94-4.4,9.88-8.81c2.48-2.19,5.13-4.19,7.04-5.78
						C352.42,373.16,353.7,372.11,353.7,372.11z"/>
					<path class="st5" d="M385.93,349.33l-6.03-9.64c0,0-5.71,3.76-11.42,7.52c-1.42,0.95-2.87,1.86-4.17,2.79
						c-1.3,0.94-2.51,1.82-3.54,2.58c-2.07,1.52-3.45,2.52-3.45,2.52l6.72,9.18c0,0,1.34-0.98,3.35-2.45c1-0.73,2.17-1.58,3.43-2.5
						c1.26-0.91,2.67-1.78,4.05-2.7C380.39,352.98,385.93,349.33,385.93,349.33z"/>
					<path class="st5" d="M420.48,330.13l-5.05-10.19c0,0-0.38,0.18-1.06,0.5c-0.67,0.32-1.64,0.76-2.76,1.38
						c-2.26,1.2-5.27,2.81-8.28,4.41c-3,1.63-6.04,3.18-8.27,4.45c-2.2,1.31-3.67,2.18-3.67,2.18l5.7,9.84c0,0,1.43-0.85,3.57-2.12
						c2.15-1.25,5.12-2.75,8.04-4.33c2.93-1.56,5.86-3.12,8.06-4.29c1.09-0.61,2.03-1.04,2.69-1.35
						C420.11,330.31,420.48,330.13,420.48,330.13z"/>
					<path class="st5" d="M456.73,314.18l-4.13-10.6c0,0-0.4,0.15-1.09,0.41c-0.7,0.27-1.71,0.61-2.88,1.11
						c-2.35,1-5.49,2.32-8.63,3.65c-3.14,1.33-6.28,2.66-8.63,3.65c-1.18,0.48-2.13,0.99-2.81,1.29c-0.67,0.33-1.06,0.51-1.06,0.51
						l4.74,10.34c0,0,0.38-0.18,1.03-0.5c0.66-0.3,1.58-0.79,2.73-1.26c2.29-0.97,5.36-2.27,8.42-3.56
						c3.06-1.29,6.13-2.59,8.42-3.56c1.14-0.5,2.14-0.82,2.82-1.09C456.34,314.32,456.73,314.18,456.73,314.18z"/>
					<path class="st5" d="M494.22,301.2l-3.31-10.88c0,0-0.41,0.12-1.12,0.33c-0.71,0.23-1.72,0.56-2.93,0.96
						c-2.43,0.79-5.66,1.86-8.9,2.92c-3.23,1.05-6.46,2.12-8.89,2.91c-2.4,0.9-3.99,1.49-3.99,1.49l3.85,10.7
						c0,0,1.56-0.59,3.9-1.46c2.37-0.77,5.54-1.82,8.7-2.85c3.17-1.04,6.33-2.08,8.71-2.86c1.19-0.38,2.18-0.71,2.87-0.94
						C493.82,301.31,494.22,301.2,494.22,301.2z"/>
					<path class="st5" d="M532.62,291.01l-2.56-11.08c0,0-6.6,1.61-13.21,3.22c-1.65,0.4-3.3,0.81-4.85,1.19
						c-1.54,0.4-2.97,0.83-4.19,1.17c-2.46,0.7-4.09,1.17-4.09,1.17l3.05,10.95c0,0,1.6-0.46,4.01-1.14c1.2-0.33,2.6-0.76,4.11-1.15
						c1.52-0.37,3.14-0.76,4.76-1.16C526.14,292.59,532.62,291.01,532.62,291.01z"/>
					<path class="st5" d="M571.63,283.25l-1.91-11.21c0,0-1.67,0.29-4.18,0.71c-2.51,0.46-5.87,0.94-9.19,1.62
						c-6.65,1.37-13.3,2.73-13.3,2.73l2.34,11.13c0,0,6.54-1.35,13.08-2.69c3.27-0.67,6.58-1.15,9.05-1.59
						C569.98,283.53,571.63,283.25,571.63,283.25z"/>
				</g>
			</g>
		</g>
		<g id="Blooming_2_">
			<path class="st6" d="M830.03,1167.39c-31.19-27.55-17.01-91.84-17.01-91.84h-46.49h-46.49c0,0,14.18,64.28-17.02,91.84
				c-31.2,27.55-67.64,27.55-67.64,27.55v15.49h131.15h131.15v-15.49C897.67,1194.94,861.23,1194.94,830.03,1167.39z"/>
			<rect x="635.38" y="1194.94" class="st7" width="262.29" height="15.49"/>
			<path class="st8" d="M1113.2,1034.22c0,22.83-18.51,41.33-41.33,41.33h-610.7c-22.82,0-41.33-18.5-41.33-41.33V696.74
				c0-22.82,18.5-41.32,41.33-41.32h610.7c22.82,0,41.33,18.5,41.33,41.32V1034.22z"/>
			<path class="st9" d="M419.85,696.74v337.49c0,8.02,2.32,15.48,6.27,21.82h680.8c3.95-6.33,6.27-13.79,6.27-21.82V696.74
				c0-10.7-4.1-20.41-10.77-27.75h-671.8C423.95,676.33,419.85,686.04,419.85,696.74z"/>
			<rect x="449.7" y="682.97" class="st10" width="633.66" height="358.72"/>
			<g>
				<rect x="488.05" y="763.6" class="st11" width="99.46" height="92.01"/>
				<rect x="727.36" y="763.6" class="st12" width="99.46" height="92.01"/>
				<rect x="939.83" y="763.6" class="st13" width="99.46" height="92.01"/>
				<g>
					<rect x="488.05" y="874.91" class="st14" width="159.46" height="6.71"/>
					<rect x="488.05" y="895.02" class="st15" width="159.46" height="6.71"/>
					<rect x="488.05" y="913.65" class="st16" width="159.46" height="6.7"/>
					<rect x="645.02" y="956.11" class="st15" width="130.91" height="6.7"/>
					<rect x="508.03" y="956.11" class="st14" width="120.82" height="6.7"/>
					<rect x="508.03" y="974.74" class="st15" width="120.82" height="6.71"/>
					<rect x="645.02" y="974.74" class="st14" width="61.48" height="6.71"/>
					<rect x="508.03" y="1010.78" class="st14" width="120.82" height="6.7"/>
					<rect x="645.02" y="1010.78" class="st15" width="61.48" height="6.7"/>
					<rect x="777.3" y="992.62" class="st15" width="43.95" height="6.71"/>
					<rect x="508.03" y="934.5" class="st17" width="261" height="6.71"/>
					<rect x="508.03" y="992.62" class="st17" width="261" height="6.71"/>
					<rect x="777.3" y="1032.1" class="st14" width="43.95" height="6.71"/>
					<rect x="508.03" y="1032.1" class="st14" width="261" height="6.71"/>
					<rect x="952.83" y="958.43" class="st15" width="105.85" height="6.71"/>
					<rect x="842.07" y="958.43" class="st14" width="97.69" height="6.71"/>
					<rect x="842.07" y="977.05" class="st15" width="97.69" height="6.71"/>
					<rect x="952.83" y="977.05" class="st14" width="49.7" height="6.71"/>
					<rect x="842.07" y="1013.1" class="st14" width="97.69" height="6.71"/>
					<rect x="952.83" y="1013.1" class="st15" width="49.7" height="6.71"/>
					<rect x="842.07" y="936.83" class="st17" width="211.03" height="6.71"/>
					<rect x="842.07" y="994.93" class="st17" width="211.03" height="6.71"/>
					<rect x="842.07" y="1034.42" class="st14" width="211.03" height="6.71"/>
				</g>
				<rect x="449.81" y="682.72" class="st9" width="633.94" height="62.79"/>
				<path class="st18" d="M777.09,709.55c0,7.73-6.21,13.99-13.87,13.99H490.11c-7.66,0-13.87-6.26-13.87-13.99l0,0
					c0-7.73,6.21-13.99,13.87-13.99h273.11C770.88,695.56,777.09,701.83,777.09,709.55L777.09,709.55z"/>
				<path class="st19" d="M998.52,704.59c0,4.99-4.01,9.04-8.96,9.04c-4.95,0-8.96-4.05-8.96-9.04c0-4.98,4.01-9.03,8.96-9.03
					C994.51,695.56,998.52,699.61,998.52,704.59z"/>
				<path class="st20" d="M1028.13,704.59c0,4.99-4.01,9.04-8.96,9.04c-4.95,0-8.96-4.05-8.96-9.04c0-4.98,4.01-9.03,8.96-9.03
					C1024.12,695.56,1028.13,699.61,1028.13,704.59z"/>
				<path class="st21" d="M1058.99,704.59c0,4.99-4.01,9.04-8.96,9.04c-4.95,0-8.96-4.05-8.96-9.04c0-4.98,4.01-9.03,8.96-9.03
					C1054.98,695.56,1058.99,699.61,1058.99,704.59z"/>
			</g>
		</g>
		<g id="Phone_5_">
			<path class="st22" d="M1163.44,1185.72c0,6.16-5,11.17-11.17,11.17H985.18c-6.17,0-11.17-5.01-11.17-11.17V878.48
				c0-6.17,5-11.17,11.17-11.17h167.08c6.17,0,11.17,5,11.17,11.17V1185.72z"/>
			<rect x="991.48" y="906.41" class="st23" width="154.48" height="225.31"/>
			<g>
				<rect x="1000.82" y="941.51" class="st11" width="24.24" height="40.42"/>
				<rect x="1059.15" y="941.51" class="st12" width="24.24" height="40.42"/>
				<rect x="1110.94" y="941.51" class="st13" width="24.25" height="40.42"/>
				<g>
					<rect x="1000.82" y="990.41" class="st14" width="38.87" height="2.94"/>
					<rect x="1000.82" y="999.24" class="st15" width="38.87" height="2.94"/>
					<rect x="1000.82" y="1007.43" class="st16" width="38.87" height="2.94"/>
					<rect x="1039.09" y="1026.08" class="st15" width="31.91" height="2.94"/>
					<rect x="1005.69" y="1026.08" class="st14" width="29.45" height="2.94"/>
					<rect x="1005.69" y="1034.26" class="st15" width="29.45" height="2.94"/>
					<rect x="1039.09" y="1034.26" class="st14" width="14.98" height="2.94"/>
					<rect x="1005.69" y="1050.09" class="st14" width="29.45" height="2.94"/>
					<rect x="1039.09" y="1050.09" class="st15" width="14.98" height="2.94"/>
					<rect x="1071.33" y="1042.11" class="st15" width="10.71" height="2.94"/>
					<rect x="1005.69" y="1016.59" class="st17" width="63.62" height="2.94"/>
					<rect x="1005.69" y="1042.11" class="st17" width="63.62" height="2.94"/>
					<rect x="1071.33" y="1059.45" class="st14" width="10.71" height="2.94"/>
					<rect x="1005.69" y="1059.45" class="st14" width="63.62" height="2.94"/>
					<rect x="1114.11" y="1027.09" class="st15" width="25.8" height="2.94"/>
					<rect x="1087.11" y="1027.09" class="st14" width="23.81" height="2.94"/>
					<rect x="1087.11" y="1035.28" class="st15" width="23.81" height="2.94"/>
					<rect x="1114.11" y="1035.28" class="st14" width="12.12" height="2.94"/>
					<rect x="1087.11" y="1051.1" class="st14" width="23.81" height="2.94"/>
					<rect x="1114.11" y="1051.1" class="st15" width="12.12" height="2.94"/>
					<rect x="1087.11" y="1017.6" class="st17" width="51.44" height="2.95"/>
					<rect x="1087.11" y="1043.13" class="st17" width="51.44" height="2.94"/>
					<rect x="1087.11" y="1060.47" class="st14" width="51.44" height="2.95"/>
				</g>
				<rect x="991.51" y="905.99" class="st9" width="154.51" height="27.58"/>
				<path class="st18" d="M1071.28,917.78c0,3.4-1.51,6.15-3.38,6.15h-66.57c-1.87,0-3.38-2.75-3.38-6.15l0,0
					c0-3.39,1.51-6.15,3.38-6.15h66.57C1069.76,911.63,1071.28,914.39,1071.28,917.78L1071.28,917.78z"/>
				<path class="st19" d="M1125.25,915.6c0,2.19-0.98,3.96-2.18,3.96c-1.21,0-2.18-1.78-2.18-3.96c0-2.19,0.98-3.97,2.18-3.97
					C1124.27,911.63,1125.25,913.41,1125.25,915.6z"/>
				<path class="st20" d="M1132.46,915.6c0,2.19-0.97,3.96-2.18,3.96c-1.21,0-2.18-1.78-2.18-3.96c0-2.19,0.98-3.97,2.18-3.97
					C1131.49,911.63,1132.46,913.41,1132.46,915.6z"/>
				<path class="st21" d="M1139.98,915.6c0,2.19-0.98,3.96-2.18,3.96c-1.21,0-2.18-1.78-2.18-3.96c0-2.19,0.97-3.97,2.18-3.97
					C1139.01,911.63,1139.98,913.41,1139.98,915.6z"/>
			</g>
			<polygon class="st24" points="1145.96,906.41 1143.1,906.41 991.48,1122.63 991.48,1131.72 1145.96,1131.72 			"/>
		</g>
		<g id="Web_4_">
			<path class="st25" d="M803.96,441.42c0,9.82-5.46,17.77-12.19,17.77H498.28c-6.73,0-12.19-7.96-12.19-17.77V125.97
				c0-9.81,5.46-17.77,12.19-17.77h293.49c6.73,0,12.19,7.96,12.19,17.77V441.42z"/>
			<path class="st9" d="M791.77,52.87H498.28c-6.73,0-12.19,7.2-12.19,16.09v62.34h317.87V68.96
				C803.96,60.07,798.5,52.87,791.77,52.87z"/>
			<path class="st19" d="M753.52,65.62c0,3.67-2.73,6.64-6.09,6.64c-3.37,0-6.09-2.98-6.09-6.64s2.73-6.65,6.09-6.65
				C750.79,58.97,753.52,61.95,753.52,65.62z"/>
			<path class="st20" d="M773.66,65.62c0,3.67-2.73,6.64-6.09,6.64c-3.37,0-6.09-2.98-6.09-6.64s2.73-6.65,6.09-6.65
				C770.94,58.97,773.66,61.95,773.66,65.62z"/>
			<path class="st21" d="M794.65,65.62c0,3.67-2.73,6.64-6.09,6.64c-3.37,0-6.09-2.98-6.09-6.64s2.73-6.65,6.09-6.65
				C791.92,58.97,794.65,61.95,794.65,65.62z"/>
			<path class="st18" d="M706.59,73.82c0,5.68-4.23,10.29-9.44,10.29H511.39c-5.21,0-9.44-4.61-9.44-10.29l0,0
				c0-5.68,4.23-10.29,9.44-10.29h185.76C702.36,63.53,706.59,68.14,706.59,73.82L706.59,73.82z"/>
			<rect x="510.36" y="158.47" class="st11" width="67.65" height="67.65"/>
			<rect x="611.2" y="158.47" class="st12" width="67.65" height="67.65"/>
			<rect x="707.51" y="158.47" class="st13" width="67.65" height="67.65"/>
			<g>
				<rect x="514.39" y="250" class="st14" width="77.21" height="3.84"/>
				<rect x="514.39" y="261.52" class="st15" width="77.21" height="3.84"/>
				<rect x="514.39" y="272.19" class="st16" width="77.21" height="3.84"/>
				<rect x="514.39" y="371.29" class="st14" width="77.21" height="3.84"/>
				<rect x="514.39" y="358.64" class="st14" width="77.21" height="3.84"/>
				<rect x="514.39" y="384.37" class="st14" width="77.21" height="3.84"/>
				<rect x="606.53" y="296.5" class="st15" width="77.21" height="3.84"/>
				<rect x="525.05" y="296.5" class="st14" width="77.21" height="3.84"/>
				<rect x="525.05" y="307.17" class="st15" width="77.21" height="3.84"/>
				<rect x="606.53" y="307.17" class="st14" width="36.26" height="3.84"/>
				<rect x="525.05" y="327.8" class="st14" width="77.21" height="3.84"/>
				<rect x="606.53" y="327.8" class="st15" width="36.26" height="3.84"/>
				<rect x="698.67" y="317.41" class="st15" width="36.26" height="3.84"/>
				<rect x="525.05" y="284.13" class="st17" width="166.79" height="3.84"/>
				<rect x="525.05" y="317.41" class="st17" width="166.79" height="3.84"/>
				<rect x="698.67" y="340.01" class="st14" width="36.26" height="3.84"/>
				<rect x="525.05" y="340.01" class="st14" width="166.79" height="3.84"/>
				<rect x="688.01" y="395.04" class="st26" width="36.26" height="3.84"/>
				<rect x="514.39" y="395.04" class="st27" width="166.79" height="3.84"/>
			</g>
			<path class="st28" d="M800.08,46.84H653.33v406.33h146.75c6.73,0,12.19-7.96,12.19-17.77V125.26v-5.32V62.93
				C812.27,54.04,806.81,46.84,800.08,46.84z"/>
		</g>
		<g id="Tablet_2_">
			<g id="Acces_1_">
				<g id="Tablet_3_">
					<path class="st9" d="M544.05,1117.54c0,37.64-4.96,35.49-42.59,35.49H62.8c-37.63,0-41.17-3.53-41.17-41.16V818
						c0-37.64,7.79-39.75,45.43-39.75l421.63-0.43c37.63,0,54.99-7.49,54.99,30.15L544.05,1117.54z"/>
					<rect x="54.03" y="813.15" class="st29" width="457.62" height="303.97"/>
				</g>
			</g>
			<rect x="81.63" y="876.27" class="st11" width="71.8" height="71.8"/>
			<rect x="254.39" y="876.27" class="st12" width="71.8" height="71.8"/>
			<rect x="407.76" y="876.27" class="st13" width="71.8" height="71.8"/>
			<g>
				<rect x="81.63" y="963.13" class="st14" width="115.11" height="5.23"/>
				<rect x="81.63" y="978.82" class="st15" width="115.11" height="5.23"/>
				<rect x="81.63" y="993.36" class="st16" width="115.11" height="5.23"/>
				<rect x="194.95" y="1026.49" class="st15" width="94.5" height="5.23"/>
				<rect x="96.06" y="1026.49" class="st14" width="87.22" height="5.23"/>
				<rect x="96.06" y="1041.02" class="st15" width="87.22" height="5.23"/>
				<rect x="194.95" y="1041.02" class="st14" width="44.38" height="5.23"/>
				<rect x="96.06" y="1069.14" class="st14" width="87.22" height="5.23"/>
				<rect x="194.95" y="1069.14" class="st15" width="44.38" height="5.23"/>
				<rect x="290.43" y="1054.97" class="st15" width="31.73" height="5.23"/>
				<rect x="96.06" y="1009.63" class="st17" width="188.41" height="5.23"/>
				<rect x="96.06" y="1054.97" class="st17" width="188.41" height="5.23"/>
				<rect x="290.43" y="1085.78" class="st14" width="31.73" height="5.23"/>
				<rect x="96.06" y="1085.78" class="st14" width="188.41" height="5.23"/>
				<rect x="417.15" y="1028.3" class="st15" width="76.41" height="5.23"/>
				<rect x="337.19" y="1028.3" class="st14" width="70.52" height="5.23"/>
				<rect x="337.19" y="1042.84" class="st15" width="70.52" height="5.23"/>
				<rect x="417.15" y="1042.84" class="st14" width="35.88" height="5.23"/>
				<rect x="337.19" y="1070.95" class="st14" width="70.52" height="5.23"/>
				<rect x="417.15" y="1070.95" class="st15" width="35.88" height="5.23"/>
				<rect x="337.19" y="1011.44" class="st17" width="152.33" height="5.23"/>
				<rect x="337.19" y="1056.78" class="st17" width="152.33" height="5.23"/>
				<rect x="337.19" y="1087.6" class="st14" width="152.33" height="5.23"/>
			</g>
			<rect x="54.03" y="813.15" class="st9" width="457.62" height="49"/>
			<path class="st18" d="M290.29,834.1c0,6.03-4.48,10.92-10.01,10.92H83.12c-5.53,0-10.02-4.89-10.02-10.92l0,0
				c0-6.03,4.49-10.92,10.02-10.92h197.15C285.81,823.17,290.29,828.07,290.29,834.1L290.29,834.1z"/>
			<path class="st19" d="M450.13,830.23c0,3.9-2.89,7.06-6.46,7.06c-3.57,0-6.47-3.16-6.47-7.06c0-3.89,2.9-7.05,6.47-7.05
				C447.23,823.17,450.13,826.34,450.13,830.23z"/>
			<path class="st20" d="M471.51,830.23c0,3.9-2.9,7.06-6.47,7.06c-3.57,0-6.47-3.16-6.47-7.06c0-3.89,2.9-7.05,6.47-7.05
				C468.61,823.17,471.51,826.34,471.51,830.23z"/>
			<path class="st21" d="M493.78,830.23c0,3.9-2.89,7.06-6.47,7.06c-3.57,0-6.47-3.16-6.47-7.06c0-3.89,2.9-7.05,6.47-7.05
				C490.89,823.17,493.78,826.34,493.78,830.23z"/>
		</g>
	</g>
</g>
<g id="Responsive_Web_3_">
	<g id="Background_1_">
		<rect id="Background_1_1_" x="-177.92" y="-198.94" class="st30" width="1600" height="1600"/>
		
			<ellipse id="Background_2_1_" transform="matrix(0.7071 -0.7071 0.7071 0.7071 -242.8103 615.9232)" class="st31" cx="622.08" cy="601.06" rx="532" ry="532"/>
	</g>
	<g id="Responsive_Web_5_" class="st0">
		<path class="st4" d="M338,1276.38c0.82,1.03,1.86,2.37,3.11,4.04c1.25,1.66,2.55,3.5,3.88,5.53c1.33,2.03,2.65,4.13,3.95,6.33
			c1.31,2.2,2.42,4.33,3.34,6.37h-8.14c-1.03-1.95-2.14-3.92-3.34-5.91c-1.2-2-2.42-3.91-3.65-5.72c-1.23-1.82-2.45-3.52-3.65-5.1
			c-1.2-1.59-2.29-2.97-3.26-4.15c-0.67,0.05-1.34,0.08-2.03,0.08c-0.69,0-1.4,0-2.11,0h-6.68v20.81h-7.45v-52.46
			c2.1-0.51,4.44-0.86,7.03-1.04c2.58-0.18,4.95-0.27,7.1-0.27c7.47,0,13.17,1.41,17.09,4.22c3.92,2.82,5.88,7.02,5.88,12.6
			c0,3.54-0.93,6.56-2.8,9.06C344.38,1273.29,341.63,1275.16,338,1276.38z M326.71,1251.42c-3.18,0-5.61,0.08-7.3,0.23v20.05h5.3
			c2.56,0,4.86-0.13,6.91-0.38c2.05-0.26,3.78-0.74,5.18-1.46c1.41-0.72,2.5-1.73,3.27-3.03c0.77-1.31,1.15-3.03,1.15-5.19
			c0-2-0.39-3.66-1.15-4.99c-0.77-1.33-1.81-2.38-3.11-3.15c-1.31-0.77-2.84-1.31-4.61-1.62
			C330.59,1251.58,328.71,1251.42,326.71,1251.42z"/>
		<path class="st4" d="M360.27,1298.66v-53.22h32.49v6.37h-25.04v15.82h22.27v6.22h-22.27v18.43h26.96v6.37H360.27z"/>
		<path class="st4" d="M416.49,1293.36c7.78,0,11.67-2.66,11.67-7.99c0-1.63-0.34-3.03-1.04-4.18c-0.69-1.16-1.63-2.16-2.8-3
			c-1.18-0.84-2.52-1.57-4.03-2.19c-1.51-0.61-3.11-1.23-4.8-1.84c-1.94-0.66-3.79-1.42-5.53-2.27c-1.74-0.85-3.25-1.84-4.53-3
			s-2.29-2.52-3.03-4.11c-0.74-1.59-1.11-3.51-1.11-5.76c0-4.66,1.59-8.3,4.76-10.91c3.17-2.61,7.55-3.92,13.13-3.92
			c3.23,0,6.16,0.35,8.8,1.04c2.63,0.69,4.57,1.45,5.79,2.27l-2.38,6.07c-1.07-0.66-2.68-1.32-4.8-1.96
			c-2.13-0.64-4.6-0.96-7.41-0.96c-1.43,0-2.76,0.16-3.99,0.46c-1.23,0.31-2.3,0.77-3.22,1.39c-0.92,0.61-1.65,1.39-2.19,2.34
			c-0.54,0.95-0.81,2.06-0.81,3.34c0,1.44,0.28,2.64,0.85,3.61c0.56,0.97,1.35,1.83,2.38,2.57c1.03,0.74,2.21,1.42,3.57,2.04
			c1.36,0.61,2.85,1.22,4.49,1.84c2.3,0.92,4.42,1.84,6.34,2.76c1.92,0.92,3.58,2.03,4.99,3.31c1.41,1.28,2.5,2.8,3.27,4.57
			c0.77,1.76,1.15,3.9,1.15,6.41c0,4.65-1.7,8.24-5.11,10.75c-3.41,2.51-8.21,3.76-14.4,3.76c-2.1,0-4.03-0.14-5.8-0.42
			c-1.77-0.28-3.34-0.61-4.72-1c-1.38-0.38-2.57-0.79-3.57-1.23c-1-0.44-1.78-0.81-2.34-1.11l2.23-6.15
			c1.18,0.67,2.97,1.41,5.37,2.23C410.06,1292.95,413.01,1293.36,416.49,1293.36z"/>
		<path class="st4" d="M459.11,1244.9c7.48,0,13.22,1.42,17.24,4.26c4.02,2.84,6.03,7.08,6.03,12.71c0,3.07-0.55,5.7-1.65,7.87
			c-1.1,2.17-2.69,3.95-4.76,5.3c-2.07,1.35-4.6,2.34-7.56,2.96c-2.97,0.61-6.32,0.92-10.06,0.92h-5.91v19.73h-7.45v-52.46
			c2.1-0.51,4.44-0.86,7.03-1.04C454.59,1244.99,456.96,1244.9,459.11,1244.9z M459.73,1251.42c-3.17,0-5.61,0.08-7.29,0.23v20.89
			h5.61c2.56,0,4.86-0.16,6.91-0.5c2.05-0.33,3.78-0.9,5.19-1.69c1.41-0.79,2.5-1.88,3.27-3.26c0.77-1.38,1.15-3.15,1.15-5.3
			c0-2.05-0.4-3.74-1.19-5.07c-0.79-1.33-1.87-2.39-3.23-3.18c-1.36-0.8-2.93-1.35-4.72-1.65
			C463.62,1251.58,461.73,1251.42,459.73,1251.42z"/>
		<path class="st4" d="M489.52,1272.01c0-4.56,0.68-8.57,2.04-12.06c1.35-3.48,3.2-6.39,5.53-8.72c2.33-2.33,5.04-4.08,8.14-5.26
			c3.1-1.18,6.39-1.77,9.87-1.77c3.43,0,6.67,0.59,9.72,1.77c3.05,1.18,5.72,2.93,8.02,5.26c2.3,2.33,4.13,5.23,5.49,8.72
			c1.36,3.48,2.04,7.5,2.04,12.06c0,4.56-0.68,8.57-2.04,12.06c-1.36,3.48-3.19,6.39-5.49,8.72c-2.3,2.33-4.98,4.08-8.02,5.26
			c-3.05,1.18-6.28,1.76-9.72,1.76c-3.48,0-6.77-0.59-9.87-1.76c-3.1-1.18-5.81-2.93-8.14-5.26c-2.33-2.33-4.17-5.23-5.53-8.72
			C490.2,1280.58,489.52,1276.57,489.52,1272.01z M497.36,1272.01c0,3.22,0.41,6.16,1.23,8.8c0.82,2.64,1.98,4.88,3.49,6.72
			c1.51,1.84,3.36,3.26,5.53,4.26c2.17,1,4.62,1.5,7.33,1.5c2.71,0,5.15-0.5,7.3-1.5c2.15-1,3.98-2.42,5.49-4.26
			c1.51-1.84,2.67-4.08,3.49-6.72c0.82-2.64,1.23-5.57,1.23-8.8c0-3.23-0.41-6.16-1.23-8.8c-0.82-2.64-1.99-4.88-3.49-6.72
			c-1.51-1.84-3.34-3.26-5.49-4.26c-2.15-1-4.58-1.5-7.3-1.5c-2.71,0-5.16,0.5-7.33,1.5c-2.17,1-4.02,2.42-5.53,4.26
			c-1.51,1.84-2.68,4.08-3.49,6.72C497.77,1265.85,497.36,1268.78,497.36,1272.01z"/>
		<path class="st4" d="M587.91,1298.66c-1.13-1.89-2.42-4.02-3.88-6.37c-1.46-2.36-3.03-4.8-4.72-7.33
			c-1.69-2.54-3.44-5.11-5.26-7.72c-1.82-2.61-3.62-5.13-5.41-7.57c-1.79-2.43-3.54-4.72-5.22-6.88c-1.69-2.15-3.25-4.04-4.69-5.68
			v41.55h-7.29v-53.22h5.91c2.41,2.56,4.98,5.55,7.72,8.95c2.74,3.41,5.45,6.91,8.14,10.52c2.69,3.61,5.22,7.15,7.6,10.63
			c2.38,3.49,4.39,6.58,6.03,9.3v-39.4h7.3v53.22H587.91z"/>
		<path class="st4" d="M619.7,1293.36c7.78,0,11.67-2.66,11.67-7.99c0-1.63-0.35-3.03-1.04-4.18c-0.69-1.16-1.62-2.16-2.8-3
			c-1.18-0.84-2.52-1.57-4.03-2.19c-1.51-0.61-3.11-1.23-4.8-1.84c-1.95-0.66-3.79-1.42-5.53-2.27c-1.74-0.85-3.25-1.84-4.53-3
			c-1.28-1.15-2.29-2.52-3.03-4.11c-0.75-1.59-1.11-3.51-1.11-5.76c0-4.66,1.59-8.3,4.76-10.91c3.18-2.61,7.55-3.92,13.13-3.92
			c3.23,0,6.16,0.35,8.79,1.04c2.64,0.69,4.57,1.45,5.8,2.27l-2.38,6.07c-1.07-0.66-2.68-1.32-4.8-1.96
			c-2.13-0.64-4.59-0.96-7.41-0.96c-1.44,0-2.76,0.16-3.99,0.46c-1.23,0.31-2.3,0.77-3.23,1.39c-0.92,0.61-1.65,1.39-2.19,2.34
			c-0.54,0.95-0.8,2.06-0.8,3.34c0,1.44,0.28,2.64,0.84,3.61c0.56,0.97,1.36,1.83,2.38,2.57c1.02,0.74,2.21,1.42,3.57,2.04
			c1.36,0.61,2.85,1.22,4.49,1.84c2.3,0.92,4.42,1.84,6.33,2.76c1.92,0.92,3.58,2.03,4.99,3.31c1.41,1.28,2.5,2.8,3.27,4.57
			c0.77,1.76,1.15,3.9,1.15,6.41c0,4.65-1.7,8.24-5.11,10.75c-3.41,2.51-8.21,3.76-14.4,3.76c-2.1,0-4.03-0.14-5.8-0.42
			c-1.77-0.28-3.34-0.61-4.72-1c-1.38-0.38-2.58-0.79-3.57-1.23c-1-0.44-1.78-0.81-2.34-1.11l2.23-6.15
			c1.18,0.67,2.97,1.41,5.38,2.23C613.27,1292.95,616.22,1293.36,619.7,1293.36z"/>
		<path class="st4" d="M648.19,1245.43h7.45v53.22h-7.45V1245.43z"/>
		<path class="st4" d="M711.86,1245.43c-1.94,5.63-3.8,10.85-5.57,15.63c-1.77,4.79-3.49,9.33-5.19,13.63
			c-1.69,4.3-3.37,8.41-5.03,12.32c-1.66,3.92-3.37,7.79-5.11,11.63h-6.99c-1.74-3.84-3.44-7.71-5.11-11.63
			c-1.66-3.92-3.35-8.03-5.07-12.32c-1.72-4.3-3.47-8.85-5.26-13.63c-1.79-4.79-3.64-10-5.53-15.63h8.22
			c2.76,8.09,5.48,15.87,8.14,23.35c2.66,7.48,5.4,14.49,8.22,21.05c2.82-6.5,5.55-13.51,8.22-21.01c2.66-7.5,5.35-15.29,8.07-23.38
			H711.86z"/>
		<path class="st4" d="M719.23,1298.66v-53.22h32.49v6.37h-25.04v15.82h22.27v6.22h-22.27v18.43h26.96v6.37H719.23z"/>
		<path class="st4" d="M809.93,1262.56c-2.15,6.86-4.33,13.21-6.53,19.04c-2.2,5.84-4.41,11.52-6.61,17.05h-7.45
			c-2.71-7.83-5.11-16.1-7.18-24.8c-2.07-8.71-4.01-18.18-5.8-28.42h7.84c0.72,4,1.46,7.99,2.22,11.98c0.77,4,1.56,7.88,2.38,11.64
			c0.82,3.76,1.64,7.36,2.46,10.79c0.82,3.43,1.66,6.61,2.54,9.52c2.05-5.38,4.22-11.28,6.53-17.7c2.3-6.43,4.45-13.07,6.45-19.93
			h6.45c2,6.86,4.17,13.5,6.53,19.93c2.36,6.43,4.55,12.32,6.61,17.7c0.82-2.86,1.64-6.02,2.46-9.45c0.82-3.43,1.62-7.02,2.42-10.79
			c0.79-3.76,1.58-7.65,2.34-11.67c0.77-4.02,1.51-8.02,2.23-12.02h7.6c-1.85,10.24-3.8,19.71-5.88,28.42
			c-2.07,8.7-4.44,16.97-7.1,24.8h-7.45c-2.26-5.53-4.46-11.21-6.61-17.05C814.23,1275.77,812.08,1269.42,809.93,1262.56z"/>
		<path class="st4" d="M852.17,1298.66v-53.22h32.49v6.37h-25.04v15.82h22.27v6.22h-22.27v18.43h26.96v6.37H852.17z"/>
		<path class="st4" d="M910.39,1299.12c-1.08,0-2.24-0.03-3.5-0.08c-1.26-0.05-2.51-0.13-3.76-0.23c-1.25-0.1-2.5-0.23-3.72-0.38
			c-1.23-0.16-2.36-0.36-3.38-0.61v-51.62c1.02-0.25,2.15-0.46,3.38-0.61c1.23-0.16,2.47-0.28,3.72-0.38
			c1.25-0.1,2.5-0.18,3.72-0.23c1.23-0.04,2.38-0.07,3.46-0.07c3.07,0,5.95,0.23,8.64,0.69c2.69,0.45,5.02,1.24,6.99,2.34
			c1.97,1.1,3.52,2.54,4.65,4.34c1.13,1.8,1.69,4,1.69,6.61c0,2.92-0.69,5.31-2.08,7.18c-1.38,1.87-3.23,3.26-5.53,4.19
			c3.12,0.92,5.61,2.38,7.45,4.38c1.84,2,2.77,4.81,2.77,8.45c0,5.32-1.96,9.33-5.88,12.02
			C925.09,1297.78,918.88,1299.12,910.39,1299.12z M903.39,1267.86h7.84c1.84,0,3.58-0.13,5.22-0.38c1.64-0.26,3.06-0.72,4.26-1.38
			c1.2-0.66,2.15-1.54,2.84-2.62c0.69-1.07,1.04-2.43,1.04-4.07c0-1.54-0.36-2.83-1.07-3.88c-0.72-1.05-1.71-1.89-2.96-2.53
			c-1.25-0.64-2.72-1.11-4.41-1.42c-1.69-0.31-3.48-0.46-5.37-0.46c-1.9,0-3.38,0.03-4.46,0.08c-1.07,0.05-2.05,0.13-2.92,0.23
			V1267.86z M903.39,1273.85v18.74c0.56,0.05,1.23,0.1,2,0.16c0.66,0.05,1.45,0.09,2.34,0.11c0.89,0.03,1.93,0.04,3.11,0.04
			c2.2,0,4.29-0.14,6.26-0.42c1.97-0.29,3.7-0.78,5.18-1.5c1.48-0.72,2.68-1.72,3.57-3c0.89-1.28,1.34-2.9,1.34-4.84
			c0-1.74-0.33-3.21-1-4.41c-0.67-1.2-1.63-2.16-2.88-2.88c-1.26-0.72-2.75-1.23-4.49-1.54c-1.74-0.31-3.69-0.46-5.84-0.46H903.39z"
			/>
	</g>
	<g id="Responsive_Web_4_">
		<g id="Line_1_">
			<g>
				<g>
					<path class="st5" d="M584.37,321.29l5.11-10.17c0,0-7.41-3.74-14.97-7.22c-3.78-1.74-7.59-3.42-10.49-4.64
						c-1.46-0.61-2.67-1.11-3.53-1.46c-0.89-0.35-1.4-0.55-1.4-0.55l-4.08,10.63c0,0,1.83,0.75,4.57,1.87
						c2.78,1.17,6.48,2.81,10.16,4.5C577.12,317.62,584.37,321.29,584.37,321.29z"/>
					<path class="st5" d="M626.53,345.02l6.03-9.66c0,0-7.02-4.42-14.21-8.57c-7.17-4.19-14.47-8.15-14.47-8.15l-5.43,10.01
						c0,0,7.15,3.88,14.16,7.98C619.65,340.69,626.53,345.02,626.53,345.02z"/>
					<path class="st5" d="M666.27,372.56l6.94-9.02c0,0-1.65-1.26-4.13-3.14c-2.48-1.89-5.86-4.31-9.21-6.76
						c-6.76-4.83-13.67-9.45-13.67-9.45l-6.32,9.46c0,0,6.75,4.52,13.36,9.24c3.27,2.4,6.57,4.77,8.99,6.61
						C664.65,371.33,666.27,372.56,666.27,372.56z"/>
					<path class="st5" d="M702.87,404.01l7.9-8.19c0,0-1.51-1.44-3.76-3.61c-2.27-2.13-5.37-4.92-8.44-7.73
						c-3.14-2.72-6.26-5.48-8.65-7.49c-2.4-1.99-4-3.32-4-3.32l-7.25,8.78c0,0,1.56,1.3,3.9,3.24c2.33,1.95,5.36,4.64,8.42,7.29
						c2.98,2.74,5.97,5.48,8.21,7.53C701.41,402.62,702.87,404.01,702.87,404.01z"/>
					<path class="st5" d="M735.28,439.59l8.92-7.06c0,0-1.25-1.68-3.27-4.06c-2.02-2.39-4.6-5.68-7.41-8.77
						c-2.75-3.13-5.51-6.26-7.68-8.52c-2.14-2.29-3.56-3.81-3.56-3.81l-8.23,7.86c0,0,1.38,1.48,3.45,3.7
						c2.11,2.18,4.77,5.22,7.44,8.25c2.72,2.99,5.21,6.17,7.17,8.48C734.07,437.97,735.28,439.59,735.28,439.59z"/>
					<path class="st5" d="M762.06,479.38l9.93-5.57c0,0-4.06-7.32-8.58-14.37c-2.21-3.55-4.63-6.97-6.36-9.58
						c-0.86-1.32-1.63-2.36-2.17-3.11c-0.54-0.74-0.84-1.16-0.84-1.16l-9.26,6.62c0,0,0.3,0.41,0.81,1.12c0.52,0.72,1.27,1.73,2.1,3
						c1.66,2.53,4,5.81,6.12,9.23C758.16,472.34,762.06,479.38,762.06,479.38z"/>
					<path class="st5" d="M781.64,522.98l10.77-3.67c0,0-0.72-1.97-1.79-4.93c-0.54-1.48-1.17-3.2-1.84-5.05
						c-0.68-1.84-1.54-3.76-2.32-5.7c-0.81-1.94-1.61-3.87-2.36-5.69c-0.83-1.78-1.6-3.44-2.26-4.87c-1.33-2.85-2.21-4.75-2.21-4.75
						l-10.23,4.98c0,0,0.85,1.82,2.12,4.55c0.63,1.37,1.37,2.96,2.17,4.67c0.72,1.74,1.49,3.59,2.26,5.45
						c0.76,1.86,1.58,3.7,2.23,5.45c0.64,1.77,1.24,3.42,1.76,4.84C780.95,521.09,781.64,522.98,781.64,522.98z"/>
				</g>
				<g>
					<path class="st5" d="M792.56,569.45l11.28-1.52c0,0-0.04-0.52-0.18-1.43c-0.15-0.91-0.36-2.2-0.61-3.76
						c-0.56-3.1-1.04-7.28-2.02-11.37c-0.92-4.09-1.64-8.24-2.53-11.26c-0.8-3.05-1.33-5.08-1.33-5.08l-10.98,2.97
						c0,0,0.51,1.95,1.28,4.85c0.85,2.89,1.53,6.85,2.42,10.77c0.93,3.91,1.38,7.9,1.92,10.86c0.24,1.48,0.45,2.72,0.59,3.58
						C792.52,568.95,792.56,569.45,792.56,569.45z"/>
					<path class="st5" d="M794.35,617.19l11.36,0.63c0,0,0.07-2.1,0.19-5.24c0.1-3.14,0.33-7.33,0.19-11.53
						c-0.1-4.19-0.02-8.38-0.3-11.53c-0.2-3.14-0.33-5.23-0.33-5.23l-11.35,0.79c0,0,0.13,2,0.32,5.01c0.28,3,0.19,7.02,0.29,11.04
						c0.14,4.01-0.08,8.03-0.18,11.04C794.42,615.17,794.35,617.19,794.35,617.19z"/>
					<path class="st5" d="M787.56,664.6l11.1,2.51c0,0,0.47-2.04,1.17-5.09c0.65-3.07,1.34-7.19,2.1-11.31
						c0.84-4.1,1.27-8.27,1.71-11.37c0.41-3.11,0.69-5.19,0.69-5.19l-11.31-1.28c0,0-0.27,1.99-0.66,4.99
						c-0.43,2.99-0.84,6.99-1.64,10.94c-0.74,3.96-1.41,7.94-2.02,10.9C788.01,662.63,787.56,664.6,787.56,664.6z"/>
					<path class="st5" d="M773.62,710.62l10.65,4.02c0,0,0.73-1.95,1.83-4.87c1.16-2.9,2.44-6.88,3.72-10.84
						c1.26-3.98,2.68-7.9,3.44-10.94c0.84-3.02,1.4-5.03,1.4-5.03l-10.97-3.04c0,0-0.54,1.94-1.35,4.86
						c-0.73,2.94-2.12,6.75-3.33,10.59c-1.25,3.85-2.48,7.7-3.61,10.51C774.33,708.73,773.62,710.62,773.62,710.62z"/>
					<path class="st5" d="M753.97,754.69l10.13,5.19c0,0,0.95-1.84,2.38-4.61c1.46-2.75,3.13-6.57,4.94-10.31
						c1.74-3.78,3.61-7.49,4.76-10.4c1.21-2.87,2.02-4.79,2.02-4.79l-10.48-4.43c0,0-0.79,1.87-1.97,4.66
						c-1.12,2.83-2.94,6.46-4.64,10.14c-1.75,3.65-3.37,7.38-4.81,10.06C754.9,752.9,753.97,754.69,753.97,754.69z"/>
					<path class="st5" d="M729.96,796.72l9.62,6.09c0,0,4.33-7.08,8.65-14.15c2.19-3.52,4.12-7.2,5.69-9.89
						c1.53-2.71,2.55-4.52,2.55-4.52l-9.96-5.51c0,0-1,1.77-2.49,4.43c-1.53,2.63-3.42,6.23-5.57,9.69
						C734.2,789.78,729.96,796.72,729.96,796.72z"/>
					<path class="st5" d="M702.45,836.65l9.14,6.77c0,0,1.24-1.65,3.11-4.13c1.84-2.5,4.19-5.91,6.58-9.28
						c2.39-3.39,4.77-6.77,6.56-9.31c1.71-2.6,2.85-4.33,2.85-4.33l-9.46-6.33c0,0-1.12,1.7-2.8,4.25c-1.76,2.49-4.1,5.83-6.45,9.15
						c-2.36,3.32-4.67,6.67-6.48,9.13C703.67,835.01,702.45,836.65,702.45,836.65z"/>
				</g>
			</g>
			<g>
				<g>
					<path class="st5" d="M797.86,342.69l3.22-14.49c0,0-10.88-2.3-21.86-4.22c-5.49-0.96-11-1.83-15.17-2.43
						c-2.09-0.28-3.84-0.52-5.06-0.68c-1.27-0.16-2-0.25-2-0.25l-1.73,14.73c0,0,2.63,0.34,6.56,0.87c4,0.57,9.36,1.43,14.7,2.36
						C787.22,340.43,797.86,342.69,797.86,342.69z"/>
					<path class="st5" d="M860.54,358.84l4.58-14.13c0,0-10.6-3.29-21.33-6.18c-10.71-2.94-21.51-5.55-21.51-5.55l-3.68,14.38
						c0,0,10.57,2.55,21.05,5.43C850.17,355.62,860.55,358.83,860.54,358.84z"/>
					<path class="st5" d="M921.36,380.58l5.97-13.63c0,0-2.57-1.05-6.42-2.62c-3.85-1.57-9.04-3.52-14.22-5.53
						c-10.4-3.87-20.9-7.44-20.9-7.44l-5.02,13.98c0,0,10.28,3.5,20.44,7.28c5.05,1.96,10.13,3.86,13.89,5.4
						C918.86,379.56,921.36,380.58,921.36,380.58z"/>
					<path class="st5" d="M979.43,408.29l7.5-12.9c0,0-2.43-1.33-6.08-3.32c-3.67-1.95-8.62-4.45-13.54-6.99
						c-4.99-2.4-9.96-4.87-13.73-6.61c-3.79-1.73-6.31-2.88-6.31-2.88L940.81,389c0,0,2.46,1.13,6.15,2.81
						c3.68,1.71,8.51,4.11,13.38,6.45c4.79,2.48,9.59,4.95,13.18,6.8C977.06,407,979.43,408.29,979.43,408.29z"/>
					<path class="st5" d="M1033.43,442.54l9.2-11.82c0,0-2.19-1.69-5.61-4.05c-3.43-2.35-7.88-5.65-12.56-8.63
						c-4.63-3.05-9.25-6.1-12.82-8.23c-3.54-2.18-5.9-3.64-5.9-3.64l-8.04,12.6c0,0,2.29,1.41,5.72,3.52
						c3.46,2.07,7.95,5.03,12.42,7.98c4.53,2.88,8.83,6.08,12.16,8.35C1031.32,440.9,1033.43,442.54,1033.43,442.54z"/>
					<path class="st5" d="M1081.55,483.96l11.01-10.25c0,0-7.73-7.91-15.96-15.31c-4.06-3.76-8.35-7.27-11.46-10
						c-1.56-1.38-2.91-2.45-3.86-3.21c-0.94-0.76-1.48-1.19-1.48-1.19l-9.79,11.36c0,0,0.52,0.42,1.43,1.15
						c0.92,0.73,2.23,1.76,3.73,3.09c3,2.64,7.14,6.02,11.04,9.63C1074.12,476.36,1081.55,483.96,1081.55,483.96z"/>
					<path class="st5" d="M1121.61,532.52l12.75-8.14c0,0-1.59-2.25-3.98-5.63c-1.2-1.69-2.59-3.65-4.09-5.77
						c-1.51-2.1-3.26-4.23-4.94-6.43c-1.69-2.18-3.39-4.36-4.98-6.4c-1.67-1.97-3.23-3.82-4.57-5.4c-2.68-3.15-4.47-5.26-4.47-5.26
						l-11.6,9.62c0,0,1.71,2.02,4.28,5.05c1.28,1.52,2.78,3.29,4.38,5.18c1.52,1.96,3.14,4.04,4.77,6.13
						c1.6,2.1,3.28,4.15,4.73,6.15c1.43,2.02,2.76,3.91,3.9,5.52C1120.09,530.37,1121.61,532.52,1121.61,532.52z"/>
				</g>
				<g>
					<path class="st5" d="M1151.39,587.53l14.13-5.59c0,0-0.23-0.64-0.72-1.74c-0.5-1.09-1.2-2.66-2.06-4.53
						c-1.77-3.72-3.81-8.83-6.44-13.67c-2.57-4.86-4.9-9.85-7.06-13.37c-2.06-3.57-3.44-5.96-3.44-5.96l-13.26,7.34
						c0,0,1.31,2.27,3.29,5.69c2.08,3.37,4.29,8.14,6.75,12.78c2.52,4.62,4.45,9.5,6.15,13.05c0.81,1.8,1.49,3.29,1.97,4.34
						C1151.17,586.91,1151.39,587.53,1151.39,587.53z"/>
					<path class="st5" d="M1169.75,647.11l14.96-2.92c0,0-0.61-2.66-1.52-6.66c-0.92-4-2.04-9.35-3.63-14.59
						c-1.54-5.25-2.84-10.57-4.26-14.43c-1.32-3.89-2.19-6.49-2.19-6.49l-14.46,4.7c0,0,0.84,2.49,2.1,6.21
						c1.37,3.69,2.6,8.79,4.08,13.81c1.53,5.01,2.59,10.16,3.48,13.98C1169.17,644.56,1169.75,647.11,1169.75,647.11z"/>
					<path class="st5" d="M1176.87,709.1l15.25-0.46c0,0-0.08-2.72-0.19-6.8c-0.2-4.08-0.69-9.5-1.08-14.93
						c-0.29-5.44-1.14-10.84-1.6-14.9c-0.51-4.06-0.85-6.76-0.85-6.76l-15.11,2.07c0,0,0.33,2.6,0.81,6.5
						c0.45,3.91,1.27,9.09,1.55,14.34c0.37,5.23,0.85,10.46,1.04,14.39C1176.8,706.48,1176.87,709.1,1176.87,709.1z"/>
					<path class="st5" d="M1174.25,771.66l15.17,1.59c0,0,0.29-2.7,0.73-6.75c0.53-4.04,0.86-9.45,1.19-14.87
						c0.3-5.43,0.82-10.83,0.79-14.91c0.08-4.08,0.13-6.8,0.13-6.8l-15.25-0.25c0,0-0.05,2.62-0.12,6.56
						c0.03,3.95-0.48,9.2-0.77,14.45c-0.32,5.25-0.63,10.51-1.15,14.43C1174.53,769.04,1174.25,771.66,1174.25,771.66z"/>
					<path class="st5" d="M1163.56,833.62l14.89,3.23c0,0,0.62-2.64,1.55-6.59c0.98-3.95,1.86-9.3,2.94-14.61
						c0.99-5.33,2.16-10.63,2.68-14.66c0.61-4.02,1.02-6.71,1.02-6.71l-15.09-2.17c0,0-0.4,2.61-0.99,6.52
						c-0.5,3.93-1.65,9.1-2.61,14.29c-1.05,5.18-1.9,10.4-2.86,14.25C1164.17,831.04,1163.56,833.62,1163.56,833.62z"/>
					<path class="st5" d="M1146.53,894.42l14.52,4.53c0,0,3.24-10.33,6.47-20.66c1.65-5.16,2.93-10.42,4.05-14.32
						c1.08-3.92,1.79-6.52,1.79-6.52l-14.78-3.7c0,0-0.7,2.55-1.76,6.39c-1.1,3.82-2.34,8.97-3.97,14.02
						C1149.7,884.3,1146.53,894.42,1146.53,894.42z"/>
					<path class="st5" d="M1124.24,953.73l14.14,5.55c0,0,1.06-2.49,2.64-6.23c1.55-3.75,3.45-8.82,5.43-13.85
						c1.96-5.05,3.91-10.1,5.37-13.87c1.34-3.84,2.24-6.39,2.24-6.39l-14.4-4.89c0,0-0.88,2.51-2.2,6.27
						c-1.44,3.72-3.37,8.69-5.29,13.65c-1.94,4.95-3.81,9.93-5.33,13.63C1125.28,951.27,1124.24,953.73,1124.24,953.73z"/>
				</g>
			</g>
			<g>
				<g>
					<path class="st5" d="M252.15,853.08l-10.87,3.33c0,0,1.99,6.5,4.13,12.96c1.07,3.23,2.18,6.45,3.04,8.87
						c0.89,2.44,1.49,4.08,1.49,4.08l10.62-4.06c0,0-0.56-1.53-1.39-3.83c-0.83-2.34-1.91-5.48-2.96-8.65
						C254.09,859.47,252.15,853.08,252.15,853.08z"/>
					<path class="st5" d="M241.55,814.72l-11.04,2.73c0,0,0.41,1.65,1.02,4.12c0.64,2.46,1.5,5.75,2.35,9.03
						c1.75,6.56,3.62,13.08,3.62,13.08l10.93-3.13c0,0-1.84-6.43-3.56-12.88c-0.84-3.24-1.68-6.47-2.31-8.89
						C241.95,816.34,241.55,814.72,241.55,814.72z"/>
					<path class="st5" d="M232.97,775.83L221.8,778c0,0,0.33,1.67,0.81,4.16c0.52,2.49,1.2,5.81,1.89,9.13
						c0.68,3.33,1.45,6.63,1.99,9.11c0.56,2.48,0.93,4.13,0.93,4.13L238.5,802c0,0-0.37-1.63-0.92-4.08
						c-0.53-2.45-1.3-5.7-1.96-8.98c-0.68-3.27-1.35-6.55-1.86-9C233.28,777.47,232.97,775.83,232.97,775.83z"/>
					<path class="st5" d="M226.37,736.56l-11.26,1.58c0,0,1,6.71,2.02,13.42c0.55,3.35,1.1,6.7,1.51,9.21
						c0.44,2.51,0.74,4.17,0.74,4.17l11.19-1.98c0,0-0.29-1.64-0.73-4.12c-0.4-2.47-0.95-5.77-1.49-9.06
						C227.36,743.17,226.37,736.56,226.37,736.56z"/>
					<path class="st5" d="M221.97,697.01l-11.33,0.94c0,0,0.14,1.69,0.35,4.23c0.25,2.53,0.57,5.91,0.9,9.29
						c0.31,3.38,0.75,6.75,1.02,9.28c0.29,2.53,0.48,4.22,0.48,4.22l11.29-1.37c0,0-0.19-1.66-0.47-4.15
						c-0.27-2.49-0.71-5.8-1.01-9.13c-0.32-3.33-0.64-6.65-0.89-9.14C222.11,698.68,221.97,697.01,221.97,697.01z"/>
					<path class="st5" d="M219.91,657.3l-11.37,0.23c0,0,0.03,1.7,0.08,4.25c0.09,2.55,0.22,5.94,0.35,9.34
						c0.1,3.4,0.31,6.79,0.46,9.34c0.15,2.54,0.25,4.23,0.25,4.23l11.35-0.71c0,0-0.1-1.67-0.24-4.17c-0.14-2.5-0.36-5.83-0.46-9.17
						c-0.13-3.33-0.25-6.67-0.34-9.17C219.93,658.96,219.91,657.3,219.91,657.3z"/>
					<path class="st5" d="M220.44,617.6l-11.36-0.56c0,0-0.12,1.7-0.21,4.25c-0.08,2.55-0.18,5.94-0.28,9.34
						c-0.14,3.4-0.13,6.8-0.15,9.35c-0.02,2.55-0.03,4.25-0.03,4.25l11.37,0.02c0,0,0.01-1.67,0.03-4.17
						c0.02-2.5,0.01-5.84,0.15-9.17c0.1-3.33,0.2-6.67,0.28-9.17C220.32,619.26,220.44,617.6,220.44,617.6z"/>
				</g>
				<g>
					<path class="st5" d="M223.87,578.07l-11.28-1.44c0,0-0.25,1.69-0.51,4.23c-0.28,2.54-0.65,5.92-1.02,9.3
						c-0.39,3.39-0.59,6.78-0.82,9.33c-0.21,2.54-0.35,4.24-0.35,4.24l11.34,0.83c0,0,0.14-1.66,0.34-4.15
						c0.23-2.49,0.41-5.81,0.8-9.12c0.37-3.31,0.73-6.62,1-9.1C223.63,579.72,223.87,578.07,223.87,578.07z"/>
					<path class="st5" d="M230.55,539.03l-11.11-2.42c0,0-1.35,6.69-2.71,13.37c-1.14,6.72-2.29,13.44-2.29,13.44l11.24,1.75
						c0,0,1.12-6.56,2.23-13.11C229.23,545.55,230.55,539.03,230.55,539.03z"/>
					<path class="st5" d="M240.85,500.86l-10.82-3.5c0,0-0.51,1.63-1.28,4.08c-0.75,2.45-1.86,5.69-2.71,9
						c-0.91,3.29-1.81,6.58-2.49,9.05c-0.34,1.23-0.62,2.27-0.79,2.99c-0.17,0.73-0.27,1.15-0.27,1.15l11.03,2.76
						c0,0,0.1-0.4,0.27-1.11c0.15-0.71,0.43-1.71,0.76-2.91c0.66-2.4,1.54-5.61,2.42-8.8c0.83-3.22,1.9-6.36,2.63-8.74
						C240.35,502.45,240.85,500.86,240.85,500.86z"/>
					<path class="st5" d="M255,464.01l-10.38-4.65c0,0-0.7,1.56-1.75,3.9c-1.11,2.32-2.3,5.52-3.6,8.68
						c-1.25,3.18-2.6,6.32-3.45,8.74c-0.86,2.41-1.44,4.02-1.44,4.02l10.69,3.87c0,0,0.56-1.56,1.39-3.9
						c0.82-2.35,2.13-5.39,3.35-8.48c1.26-3.07,2.41-6.18,3.49-8.42C254.32,465.52,255,464.01,255,464.01z"/>
					<path class="st5" d="M273.14,429.01l-9.76-5.83c0,0-0.22,0.36-0.62,1c-0.41,0.63-0.93,1.57-1.55,2.69
						c-1.25,2.24-2.92,5.23-4.6,8.22c-1.73,2.96-3.21,6.05-4.37,8.33c-1.15,2.29-1.92,3.82-1.92,3.82l10.19,5.04
						c0,0,0.75-1.48,1.86-3.7c1.12-2.21,2.56-5.2,4.23-8.06c1.61-2.89,3.23-5.78,4.44-7.94c0.61-1.09,1.1-1.99,1.5-2.6
						C272.93,429.37,273.14,429.01,273.14,429.01z"/>
					<path class="st5" d="M295.38,396.5l-8.98-6.98c0,0-1.04,1.37-2.58,3.41c-1.52,2.07-3.68,4.73-5.62,7.56
						c-3.88,5.64-7.75,11.29-7.75,11.29l9.53,6.22c0,0,3.74-5.46,7.48-10.91c1.87-2.73,3.95-5.3,5.43-7.3
						C294.38,397.82,295.38,396.5,295.38,396.5z"/>
					<path class="st5" d="M321.43,366.97l-8.06-8.03c0,0-1.22,1.2-3.05,3c-1.78,1.86-4.08,4.39-6.4,6.91
						c-1.16,1.26-2.32,2.52-3.41,3.7c-0.54,0.59-1.07,1.16-1.57,1.7c-0.47,0.57-0.92,1.1-1.33,1.6c-1.65,1.97-2.75,3.28-2.75,3.28
						l8.69,7.34c0,0,1.06-1.27,2.65-3.18c0.4-0.47,0.83-0.99,1.28-1.54c0.48-0.52,0.99-1.07,1.52-1.64
						c1.05-1.14,2.17-2.36,3.29-3.57c2.25-2.43,4.46-4.88,6.18-6.67C320.24,368.13,321.43,366.97,321.43,366.97z"/>
				</g>
				<g>
					<path class="st5" d="M350.86,340.75l-7.05-8.92c0,0-1.33,1.07-3.33,2.69c-1.97,1.63-4.7,3.71-7.27,5.96
						c-5.11,4.56-10.22,9.11-10.22,9.11l7.73,8.33c0,0,4.94-4.4,9.88-8.81c2.48-2.19,5.13-4.19,7.04-5.78
						C349.58,341.8,350.86,340.75,350.86,340.75z"/>
					<path class="st5" d="M383.09,317.97l-6.03-9.64c0,0-5.71,3.76-11.42,7.52c-1.42,0.95-2.87,1.86-4.17,2.79
						c-1.3,0.94-2.51,1.82-3.54,2.58c-2.07,1.52-3.45,2.52-3.45,2.52l6.72,9.18c0,0,1.34-0.98,3.35-2.45c1-0.73,2.17-1.58,3.43-2.5
						c1.26-0.91,2.67-1.78,4.05-2.7C377.55,321.62,383.09,317.97,383.09,317.97z"/>
					<path class="st5" d="M417.64,298.77l-5.05-10.19c0,0-0.38,0.18-1.06,0.5c-0.67,0.32-1.64,0.76-2.76,1.38
						c-2.26,1.2-5.27,2.81-8.28,4.41c-3,1.63-6.04,3.18-8.27,4.45c-2.2,1.31-3.67,2.18-3.67,2.18l5.7,9.84c0,0,1.43-0.85,3.57-2.12
						c2.15-1.25,5.12-2.75,8.04-4.33c2.93-1.56,5.86-3.12,8.06-4.29c1.09-0.61,2.03-1.04,2.69-1.35
						C417.27,298.95,417.64,298.77,417.64,298.77z"/>
					<path class="st5" d="M453.89,282.82l-4.13-10.6c0,0-0.4,0.15-1.09,0.41c-0.7,0.27-1.71,0.61-2.88,1.11
						c-2.35,1-5.49,2.32-8.63,3.65c-3.14,1.33-6.28,2.66-8.63,3.65c-1.18,0.48-2.13,0.99-2.81,1.29c-0.67,0.33-1.06,0.51-1.06,0.51
						l4.74,10.34c0,0,0.38-0.18,1.03-0.5c0.66-0.3,1.58-0.79,2.73-1.26c2.29-0.97,5.36-2.27,8.42-3.56
						c3.06-1.29,6.13-2.59,8.42-3.56c1.14-0.5,2.14-0.82,2.82-1.09C453.5,282.96,453.89,282.82,453.89,282.82z"/>
					<path class="st5" d="M491.38,269.84l-3.31-10.88c0,0-0.41,0.12-1.12,0.33c-0.71,0.23-1.72,0.56-2.93,0.96
						c-2.43,0.79-5.66,1.86-8.9,2.92c-3.23,1.05-6.46,2.12-8.89,2.91c-2.4,0.9-3.99,1.49-3.99,1.49l3.85,10.7
						c0,0,1.56-0.59,3.9-1.46c2.37-0.77,5.54-1.82,8.7-2.85c3.17-1.04,6.33-2.08,8.71-2.86c1.19-0.38,2.18-0.71,2.87-0.94
						C490.98,269.95,491.38,269.84,491.38,269.84z"/>
					<path class="st5" d="M529.78,259.65l-2.56-11.08c0,0-6.6,1.61-13.21,3.22c-1.65,0.4-3.3,0.81-4.85,1.19
						c-1.54,0.4-2.97,0.83-4.19,1.17c-2.46,0.7-4.09,1.17-4.09,1.17l3.05,10.95c0,0,1.6-0.46,4.01-1.14c1.2-0.33,2.6-0.76,4.11-1.15
						c1.52-0.37,3.14-0.76,4.76-1.16C523.3,261.23,529.78,259.65,529.78,259.65z"/>
					<path class="st5" d="M568.79,251.89l-1.91-11.21c0,0-1.67,0.29-4.18,0.71c-2.51,0.46-5.87,0.94-9.19,1.62
						c-6.65,1.37-13.3,2.73-13.3,2.73l2.34,11.13c0,0,6.54-1.35,13.08-2.69c3.27-0.67,6.58-1.15,9.05-1.59
						C567.14,252.17,568.79,251.89,568.79,251.89z"/>
				</g>
			</g>
		</g>
		<g id="Blooming_1_">
			<path class="st6" d="M827.19,1136.03c-31.19-27.55-17.01-91.84-17.01-91.84h-46.49H717.2c0,0,14.18,64.28-17.02,91.84
				c-31.2,27.55-67.64,27.55-67.64,27.55v15.49h131.15h131.15v-15.49C894.83,1163.58,858.39,1163.58,827.19,1136.03z"/>
			<rect x="632.54" y="1163.58" class="st7" width="262.29" height="15.49"/>
			<path class="st8" d="M1110.36,1002.86c0,22.83-18.51,41.33-41.33,41.33h-610.7c-22.82,0-41.33-18.5-41.33-41.33V665.38
				c0-22.82,18.5-41.32,41.33-41.32h610.7c22.82,0,41.33,18.5,41.33,41.32V1002.86z"/>
			<path class="st32" d="M417.01,665.38v337.49c0,8.02,2.32,15.48,6.27,21.82h680.8c3.95-6.33,6.27-13.79,6.27-21.82V665.38
				c0-10.7-4.1-20.41-10.77-27.75h-671.8C421.11,644.97,417.01,654.68,417.01,665.38z"/>
			<rect x="446.86" y="651.61" class="st10" width="633.66" height="358.72"/>
			<g>
				<rect x="485.2" y="732.24" class="st33" width="99.46" height="92.01"/>
				<rect x="724.52" y="732.24" class="st34" width="99.46" height="92.01"/>
				<rect x="936.99" y="732.24" class="st35" width="99.46" height="92.01"/>
				<g>
					<rect x="485.2" y="843.55" class="st14" width="159.46" height="6.71"/>
					<rect x="485.2" y="863.66" class="st15" width="159.46" height="6.71"/>
					<rect x="485.2" y="882.29" class="st16" width="159.46" height="6.7"/>
					<rect x="642.18" y="924.75" class="st15" width="130.91" height="6.7"/>
					<rect x="505.19" y="924.75" class="st14" width="120.82" height="6.7"/>
					<rect x="505.19" y="943.38" class="st15" width="120.82" height="6.71"/>
					<rect x="642.18" y="943.38" class="st14" width="61.48" height="6.71"/>
					<rect x="505.19" y="979.42" class="st14" width="120.82" height="6.7"/>
					<rect x="642.18" y="979.42" class="st15" width="61.48" height="6.7"/>
					<rect x="774.46" y="961.26" class="st15" width="43.95" height="6.71"/>
					<rect x="505.19" y="903.14" class="st17" width="261" height="6.71"/>
					<rect x="505.19" y="961.26" class="st17" width="261" height="6.71"/>
					<rect x="774.46" y="1000.74" class="st14" width="43.95" height="6.71"/>
					<rect x="505.19" y="1000.74" class="st14" width="261" height="6.71"/>
					<rect x="949.99" y="927.07" class="st15" width="105.85" height="6.71"/>
					<rect x="839.23" y="927.07" class="st14" width="97.69" height="6.71"/>
					<rect x="839.23" y="945.69" class="st15" width="97.69" height="6.71"/>
					<rect x="949.99" y="945.69" class="st14" width="49.7" height="6.71"/>
					<rect x="839.23" y="981.74" class="st14" width="97.69" height="6.71"/>
					<rect x="949.99" y="981.74" class="st15" width="49.7" height="6.71"/>
					<rect x="839.23" y="905.47" class="st17" width="211.03" height="6.71"/>
					<rect x="839.23" y="963.57" class="st17" width="211.03" height="6.71"/>
					<rect x="839.23" y="1003.06" class="st14" width="211.03" height="6.71"/>
				</g>
				<rect x="446.97" y="651.36" class="st9" width="633.94" height="62.79"/>
				<path class="st18" d="M774.25,678.19c0,7.73-6.21,13.99-13.87,13.99H487.27c-7.66,0-13.87-6.26-13.87-13.99l0,0
					c0-7.73,6.21-13.99,13.87-13.99h273.11C768.04,664.2,774.25,670.47,774.25,678.19L774.25,678.19z"/>
				<path class="st19" d="M995.68,673.23c0,4.99-4.01,9.04-8.96,9.04c-4.95,0-8.96-4.05-8.96-9.04c0-4.98,4.01-9.03,8.96-9.03
					C991.67,664.2,995.68,668.25,995.68,673.23z"/>
				<path class="st20" d="M1025.29,673.23c0,4.99-4.01,9.04-8.96,9.04c-4.95,0-8.96-4.05-8.96-9.04c0-4.98,4.01-9.03,8.96-9.03
					C1021.28,664.2,1025.29,668.25,1025.29,673.23z"/>
				<path class="st21" d="M1056.15,673.23c0,4.99-4.01,9.04-8.96,9.04c-4.95,0-8.96-4.05-8.96-9.04c0-4.98,4.01-9.03,8.96-9.03
					C1052.14,664.2,1056.15,668.25,1056.15,673.23z"/>
			</g>
		</g>
		<g id="Phone_1_">
			<path class="st22" d="M1160.6,1154.36c0,6.16-5,11.17-11.17,11.17H982.34c-6.17,0-11.17-5.01-11.17-11.17V847.12
				c0-6.17,5-11.17,11.17-11.17h167.08c6.17,0,11.17,5,11.17,11.17V1154.36z"/>
			<rect x="988.64" y="875.05" class="st23" width="154.48" height="225.31"/>
			<g>
				<rect x="997.98" y="910.15" class="st33" width="24.24" height="40.42"/>
				<rect x="1056.31" y="910.15" class="st34" width="24.24" height="40.42"/>
				<rect x="1108.1" y="910.15" class="st35" width="24.25" height="40.42"/>
				<g>
					<rect x="997.98" y="959.05" class="st14" width="38.87" height="2.94"/>
					<rect x="997.98" y="967.88" class="st15" width="38.87" height="2.94"/>
					<rect x="997.98" y="976.07" class="st16" width="38.87" height="2.94"/>
					<rect x="1036.25" y="994.72" class="st15" width="31.91" height="2.94"/>
					<rect x="1002.85" y="994.72" class="st14" width="29.45" height="2.94"/>
					<rect x="1002.85" y="1002.9" class="st15" width="29.45" height="2.94"/>
					<rect x="1036.25" y="1002.9" class="st14" width="14.98" height="2.94"/>
					<rect x="1002.85" y="1018.73" class="st14" width="29.45" height="2.94"/>
					<rect x="1036.25" y="1018.73" class="st15" width="14.98" height="2.94"/>
					<rect x="1068.49" y="1010.75" class="st15" width="10.71" height="2.94"/>
					<rect x="1002.85" y="985.23" class="st17" width="63.62" height="2.94"/>
					<rect x="1002.85" y="1010.75" class="st17" width="63.62" height="2.94"/>
					<rect x="1068.49" y="1028.09" class="st14" width="10.71" height="2.94"/>
					<rect x="1002.85" y="1028.09" class="st14" width="63.62" height="2.94"/>
					<rect x="1111.27" y="995.73" class="st15" width="25.8" height="2.94"/>
					<rect x="1084.27" y="995.73" class="st14" width="23.81" height="2.94"/>
					<rect x="1084.27" y="1003.92" class="st15" width="23.81" height="2.94"/>
					<rect x="1111.27" y="1003.92" class="st14" width="12.12" height="2.94"/>
					<rect x="1084.27" y="1019.74" class="st14" width="23.81" height="2.94"/>
					<rect x="1111.27" y="1019.74" class="st15" width="12.12" height="2.94"/>
					<rect x="1084.27" y="986.24" class="st17" width="51.44" height="2.95"/>
					<rect x="1084.27" y="1011.77" class="st17" width="51.44" height="2.94"/>
					<rect x="1084.27" y="1029.11" class="st14" width="51.44" height="2.95"/>
				</g>
				<rect x="988.67" y="874.63" class="st9" width="154.51" height="27.58"/>
				<path class="st18" d="M1068.44,886.42c0,3.4-1.51,6.15-3.38,6.15h-66.57c-1.87,0-3.38-2.75-3.38-6.15l0,0
					c0-3.39,1.51-6.15,3.38-6.15h66.57C1066.92,880.27,1068.44,883.03,1068.44,886.42L1068.44,886.42z"/>
				<path class="st19" d="M1122.41,884.24c0,2.19-0.98,3.96-2.18,3.96c-1.21,0-2.18-1.78-2.18-3.96c0-2.19,0.98-3.97,2.18-3.97
					C1121.43,880.27,1122.41,882.05,1122.41,884.24z"/>
				<path class="st20" d="M1129.62,884.24c0,2.19-0.97,3.96-2.18,3.96c-1.21,0-2.18-1.78-2.18-3.96c0-2.19,0.98-3.97,2.18-3.97
					C1128.65,880.27,1129.62,882.05,1129.62,884.24z"/>
				<path class="st21" d="M1137.14,884.24c0,2.19-0.98,3.96-2.18,3.96c-1.21,0-2.18-1.78-2.18-3.96c0-2.19,0.97-3.97,2.18-3.97
					C1136.17,880.27,1137.14,882.05,1137.14,884.24z"/>
			</g>
			<polygon class="st24" points="1143.12,875.05 1140.26,875.05 988.64,1091.27 988.64,1100.36 1143.12,1100.36 			"/>
		</g>
		<g id="Web_1_">
			<path class="st25" d="M801.12,410.06c0,9.82-5.46,17.77-12.19,17.77H495.44c-6.73,0-12.19-7.96-12.19-17.77V94.61
				c0-9.81,5.46-17.77,12.19-17.77h293.49c6.73,0,12.19,7.96,12.19,17.77V410.06z"/>
			<path class="st9" d="M788.93,21.51H495.44c-6.73,0-12.19,7.2-12.19,16.09v62.34h317.87V37.6
				C801.12,28.71,795.66,21.51,788.93,21.51z"/>
			<path class="st19" d="M750.68,34.26c0,3.66-2.73,6.64-6.09,6.64c-3.37,0-6.09-2.98-6.09-6.64c0-3.67,2.73-6.65,6.09-6.65
				C747.95,27.61,750.68,30.59,750.68,34.26z"/>
			<path class="st20" d="M770.82,34.26c0,3.66-2.73,6.64-6.09,6.64c-3.37,0-6.09-2.98-6.09-6.64c0-3.67,2.73-6.65,6.09-6.65
				C768.1,27.61,770.82,30.59,770.82,34.26z"/>
			<path class="st21" d="M791.81,34.26c0,3.66-2.73,6.64-6.09,6.64c-3.37,0-6.09-2.98-6.09-6.64c0-3.67,2.73-6.65,6.09-6.65
				C789.08,27.61,791.81,30.59,791.81,34.26z"/>
			<path class="st18" d="M703.75,42.46c0,5.68-4.23,10.29-9.44,10.29H508.55c-5.21,0-9.44-4.61-9.44-10.29l0,0
				c0-5.68,4.23-10.29,9.44-10.29h185.76C699.52,32.17,703.75,36.78,703.75,42.46L703.75,42.46z"/>
			<rect x="507.52" y="127.11" class="st33" width="67.65" height="67.65"/>
			<rect x="608.36" y="127.11" class="st34" width="67.65" height="67.65"/>
			<rect x="704.67" y="127.11" class="st35" width="67.65" height="67.65"/>
			<g>
				<rect x="511.55" y="218.64" class="st14" width="77.21" height="3.84"/>
				<rect x="511.55" y="230.16" class="st15" width="77.21" height="3.84"/>
				<rect x="511.55" y="240.83" class="st16" width="77.21" height="3.84"/>
				<rect x="511.55" y="339.93" class="st14" width="77.21" height="3.84"/>
				<rect x="511.55" y="327.28" class="st14" width="77.21" height="3.84"/>
				<rect x="511.55" y="353.01" class="st14" width="77.21" height="3.84"/>
				<rect x="603.69" y="265.14" class="st15" width="77.21" height="3.84"/>
				<rect x="522.21" y="265.14" class="st14" width="77.21" height="3.84"/>
				<rect x="522.21" y="275.81" class="st15" width="77.21" height="3.84"/>
				<rect x="603.69" y="275.81" class="st14" width="36.26" height="3.84"/>
				<rect x="522.21" y="296.44" class="st14" width="77.21" height="3.84"/>
				<rect x="603.69" y="296.44" class="st15" width="36.26" height="3.84"/>
				<rect x="695.83" y="286.05" class="st15" width="36.26" height="3.84"/>
				<rect x="522.21" y="252.77" class="st17" width="166.79" height="3.84"/>
				<rect x="522.21" y="286.05" class="st17" width="166.79" height="3.84"/>
				<rect x="695.83" y="308.65" class="st14" width="36.26" height="3.84"/>
				<rect x="522.21" y="308.65" class="st14" width="166.79" height="3.84"/>
				<rect x="685.17" y="363.68" class="st26" width="36.26" height="3.84"/>
				<rect x="511.55" y="363.68" class="st27" width="166.79" height="3.84"/>
			</g>
			<path class="st28" d="M788.93,21.51H642.18v406.33h146.75c6.73,0,12.19-7.96,12.19-17.77V99.93v-5.32V37.6
				C801.12,28.71,795.66,21.51,788.93,21.51z"/>
		</g>
		<g id="Tablet_1_">
			<g id="Acces_2_">
				<g id="Tablet_4_">
					<path class="st9" d="M541.21,1086.18c0,37.64-4.96,35.49-42.59,35.49H59.96c-37.63,0-41.17-3.53-41.17-41.17V786.64
						c0-37.64,7.79-39.75,45.43-39.75l421.63-0.43c37.63,0,54.99-7.49,54.99,30.15L541.21,1086.18z"/>
					<rect x="51.19" y="781.79" class="st29" width="457.62" height="303.97"/>
				</g>
			</g>
			<rect x="78.79" y="844.91" class="st33" width="71.8" height="71.8"/>
			<rect x="251.55" y="844.91" class="st34" width="71.8" height="71.8"/>
			<rect x="404.92" y="844.91" class="st35" width="71.8" height="71.8"/>
			<g>
				<rect x="78.79" y="931.77" class="st14" width="115.11" height="5.23"/>
				<rect x="78.79" y="947.46" class="st15" width="115.11" height="5.23"/>
				<rect x="78.79" y="962" class="st16" width="115.11" height="5.23"/>
				<rect x="192.11" y="995.13" class="st15" width="94.5" height="5.23"/>
				<rect x="93.22" y="995.13" class="st14" width="87.22" height="5.23"/>
				<rect x="93.22" y="1009.66" class="st15" width="87.22" height="5.23"/>
				<rect x="192.11" y="1009.66" class="st14" width="44.38" height="5.23"/>
				<rect x="93.22" y="1037.78" class="st14" width="87.22" height="5.23"/>
				<rect x="192.11" y="1037.78" class="st15" width="44.38" height="5.23"/>
				<rect x="287.59" y="1023.61" class="st15" width="31.73" height="5.23"/>
				<rect x="93.22" y="978.27" class="st17" width="188.41" height="5.23"/>
				<rect x="93.22" y="1023.61" class="st17" width="188.41" height="5.23"/>
				<rect x="287.59" y="1054.42" class="st14" width="31.73" height="5.23"/>
				<rect x="93.22" y="1054.42" class="st14" width="188.41" height="5.23"/>
				<rect x="414.31" y="996.94" class="st15" width="76.41" height="5.23"/>
				<rect x="334.35" y="996.94" class="st14" width="70.52" height="5.23"/>
				<rect x="334.35" y="1011.48" class="st15" width="70.52" height="5.23"/>
				<rect x="414.31" y="1011.48" class="st14" width="35.88" height="5.23"/>
				<rect x="334.35" y="1039.59" class="st14" width="70.52" height="5.23"/>
				<rect x="414.31" y="1039.59" class="st15" width="35.88" height="5.23"/>
				<rect x="334.35" y="980.08" class="st17" width="152.33" height="5.23"/>
				<rect x="334.35" y="1025.42" class="st17" width="152.33" height="5.23"/>
				<rect x="334.35" y="1056.24" class="st14" width="152.33" height="5.23"/>
			</g>
			<rect x="51.19" y="781.79" class="st9" width="457.62" height="49"/>
			<path class="st18" d="M287.45,802.74c0,6.03-4.48,10.92-10.01,10.92H80.28c-5.53,0-10.02-4.89-10.02-10.92l0,0
				c0-6.03,4.49-10.92,10.02-10.92h197.15C282.97,791.81,287.45,796.71,287.45,802.74L287.45,802.74z"/>
			<path class="st19" d="M447.29,798.87c0,3.9-2.89,7.06-6.46,7.06c-3.57,0-6.47-3.16-6.47-7.06c0-3.89,2.9-7.05,6.47-7.05
				C444.39,791.81,447.29,794.98,447.29,798.87z"/>
			<path class="st20" d="M468.67,798.87c0,3.9-2.9,7.06-6.47,7.06c-3.57,0-6.47-3.16-6.47-7.06c0-3.89,2.9-7.05,6.47-7.05
				C465.77,791.81,468.67,794.98,468.67,798.87z"/>
			<path class="st21" d="M490.94,798.87c0,3.9-2.89,7.06-6.47,7.06c-3.57,0-6.47-3.16-6.47-7.06c0-3.89,2.9-7.05,6.47-7.05
				C488.05,791.81,490.94,794.98,490.94,798.87z"/>
		</g>
	</g>
</g>
</svg>
