<?xml version="1.0" encoding="utf-8"?>
<!-- Generator: Adobe Illustrator 24.0.1, SVG Export Plug-In . SVG Version: 6.00 Build 0)  -->
<svg version="1.1" xmlns="http://www.w3.org/2000/svg" xmlns:xlink="http://www.w3.org/1999/xlink" x="0px" y="0px"
	 viewBox="0 0 289.4 292.7" enable-background="new 0 0 289.4 292.7" xml:space="preserve">
<g id="Warstwa_3">
</g>
<g id="Слой_1">
	<g>
		<path fill="#321B4D" d="M268.4,154.9c0,68.8-55.7,124.5-124.5,124.5c-68.8,0-124.5-55.7-124.5-124.5C19.5,86.2,75.2,30.4,144,30.4
			C212.7,30.4,268.4,86.2,268.4,154.9z"/>
		<path fill="#333333" d="M187.9,170.2c0,23.6-19.1,42.8-42.8,42.8c-23.6,0-42.8-19.1-42.8-42.8c0-23.6,19.1-42.8,42.8-42.8
			C168.7,127.5,187.9,146.6,187.9,170.2z"/>
		<path fill="#FCC397" d="M216.6,137.1c-2.3-7.1-9-12.2-16.9-12.2l-26.8-3.1c-4.9-2-9.4-6.7-10.3-10.3l-0.3-13.6
			c-3,2.1-25,8.6-35.1-2.3l-0.6,16.2c-1.3,3.4-5.9,7.8-10.8,9.8l-26.6,3.3c-8.8,0-16.1,6.4-17.5,14.8c-0.1,0.3-0.1,0.6-0.1,1
			c0,0.2,0,0.4-0.1,0.6c0,0.1,0,0.2,0,0.4l26,21.4l9.6,31h74.9l10.3-33.4h2.8L216.6,137.1z"/>
		<rect x="120.7" y="129.7" fill="#E5E5E5" width="45.1" height="83.1"/>
		<path fill="#515151" d="M184.5,153.2l-1.9-30.3l-9-1c-1.3-0.5-2.6-1.2-3.8-2l-4.7,6.4l-20.4,80.2l-20.5-80.5l-4.7-6.4
			c-1.2,0.8-2.5,1.5-3.8,2.1l-8.4,1l-1.6,30.3l11.5,2.1l-2.4,11.8l28.2,54.2l32.2-53.9l-2.4-11.8L184.5,153.2z"/>
		<polygon fill="#BB0202" points="136.1,172.7 144.7,206.4 151.9,178.2 147.5,143.8 152.8,136.2 149.7,127.9 139,127.6 136.2,136.7 
			141.1,143.7 		"/>
		<path fill="#333333" d="M191.7,238.4l2.9-70.3l5.1-43.2l-26.8-3.1c-1-0.4-4.7-1-5.7-1.6l-22.3,86.7l-22.7-89.3
			c-1.9,1.6-4.1,3.1-6.4,4l-14.7,1.8l-7.2,43.1c0-0.1,0.1-0.1,0.1-0.2l3.1,73.8l0,0.2l-1.7,29.2c14.9,6.4,31.4,9.9,48.7,9.9
			c17.6,0,34.3-3.7,49.5-10.2L191.7,238.4z"/>
		<polygon fill="#FFFFFF" points="125.8,111.3 144.7,127.5 130.8,141.4 117.3,120.5 		"/>
		<path fill="#FCC397" d="M112.7,263.1C112.7,263.1,112.7,263,112.7,263.1c-3.7-5.6-2.6-4.1-4.5-6.9c-2.3-3.5-7-4.4-10.4-2.1
			c-8.4,5.6-6.9,4.6-7.7,5.1c-1,2.1-1.6,4.6-1.6,7.2c4.2,2.1,8.5,3.9,12.9,5.6C106.1,270.4,110.1,267.2,112.7,263.1z"/>
		<polygon fill="#FFFFFF" points="163.5,111.3 144.7,127.5 158.5,141.4 172.1,120.5 		"/>
		<path fill="#515151" d="M120,247l-4.5,0.1c0.3,1.4,0.5,2.8,0.5,4.3c0.1,4.3-1.2,8.4-3.3,11.8c-2.6,4.1-6.5,7.3-11.2,8.9
			c1.2,0.4,3.7,1.3,6.1,2c7.8-4.6,13-13.1,12.9-22.7C120.4,249.8,120.3,248.4,120,247z"/>
		<path fill="#515151" d="M176.5,262.6c-2.2-3.4-3.5-7.4-3.5-11.7c0-1.5,0.1-2.9,0.4-4.3h-4.5c-0.2,1.4-0.4,2.8-0.4,4.3
			c0,9.7,5.3,18.2,13.3,22.6c2.5-0.8,4.3-1.5,6.1-2.1C183.2,269.9,179.2,266.7,176.5,262.6z"/>
		<path fill="#EA9F6C" d="M143.3,100c0,0-7.1-2.1-16.5-7.1v8.7c2.7,1.7,6.7,4.3,9.5,6.1c1.4,0.9,4,1.1,4,1.1h10.3c0,0,2.7-0.2,4-1.1
			c2.3-1.5,4.8-3.6,7.6-5.4v-9.6C152.1,97.6,143.3,100,143.3,100z"/>
		<path fill="#FCC397" d="M178.5,55.1c-0.9-0.3-1.9-0.2-2.9,0.2c0.4-11,0.3-20.9-1.1-23.1c-7.8-12.2-16.9-17.5-30.3-18c0,0,0,0,0,0
			l0,0c-13.4,0.5-21.6,5.8-29.3,18c-1.4,2.3-1.7,12.6-1.5,24c-1.4-1.1-2.9-1.5-4.3-1c-3,1-4,5.9-2.3,10.8c1.5,4.3,4.5,7.3,7.2,7.4
			c0.3,5.9,0.6,10.9,0.7,14c0.1,2,2.1,4.5,3,5.1c7.6,5.2,12.9,8.9,17.6,11.6c1.3,0.8,3.2,0.9,3.2,0.9h10.9c0,0,2.5-0.3,3.7-1
			c4.8-2.8,10.3-6.7,18.2-12c0.7-0.5,2.2-2.5,2.4-4.3c0.2-3.1,0.7-8.4,1-14.6c2.4-0.7,4.8-3.5,6-7.2C182.5,61,181.5,56.1,178.5,55.1
			z"/>
		<path fill="#663412" d="M151.8,51.3c0.9-0.5,12.2-5,15.6,0.9c2.9,5-2.4,0-6,0c-4.4,0-5.6,0.2-9.1,0.7
			C151.1,53.2,150.6,52,151.8,51.3z"/>
		<path fill="#663412" d="M135.3,51.4c-0.9-0.5-11.9-4.4-15.2,0.9c-3,4.8,2.4,0,5.8,0.1c4.2,0.1,6.8,0.5,8.7,0.7
			C136.1,53.3,136.5,52.1,135.3,51.4z"/>
		<path fill="#FFFFFF" d="M135.8,60.1c-3.7,1.2-5.3,1.4-7.2,1.4c-2.9,0-5.6-1-5.6-2.8c0-1.8,2.6-3.2,5.6-3.2
			C131.6,55.5,135.4,58.7,135.8,60.1z"/>
		<path fill="#7B9368" d="M131.6,58.5c0,1.6-1.3,3-2.8,3c-1.6,0-2.8-1.3-2.8-3c0-1.6,1.3-3,2.8-3C130.3,55.6,131.6,56.9,131.6,58.5z
			"/>
		<path d="M130.6,58.5c0,1-0.8,1.9-1.8,1.9c-1,0-1.8-0.9-1.8-1.9c0-1.1,0.8-1.9,1.8-1.9C129.8,56.6,130.6,57.5,130.6,58.5z"/>
		<path fill="#FFFFFF" d="M131.6,58.6c0,0.4-0.4,0.7-0.9,0.7c-0.5,0-0.9-0.3-0.9-0.7c0-0.4,0.4-0.7,0.9-0.7
			C131.2,57.9,131.6,58.2,131.6,58.6z"/>
		<path fill="#EA9F6C" d="M135.8,60.2c0,0-1-1.7-5.1-2.9c-2.9-0.9-7.3,0.4-7.4,2.5c-1.2-0.9-1.3-2.5,1.9-3.7
			c3.5-1.3,7.7-0.4,10.2,3.3C135.6,59.6,135.8,59.9,135.8,60.2z"/>
		<path fill="#FFFFFF" d="M151.7,60.1c3.7,1.2,5,1.4,7.1,1.3c2.9-0.1,5.6-0.8,5.6-2.7c0-1.8-2.5-3.3-5.5-3.3
			C156,55.5,152.1,58.7,151.7,60.1z"/>
		<path fill="#7B9368" d="M155.9,58.4c0,1.6,1.3,3,2.8,3c1.6,0,2.8-1.3,2.8-3c0-1.6-1.3-3-2.8-3C157.2,55.5,155.9,56.8,155.9,58.4z"
			/>
		<path d="M156.9,58.5c0,1,0.8,1.9,1.8,1.9c1,0,1.8-0.9,1.8-1.9c0-1.1-0.8-1.9-1.8-1.9C157.8,56.6,156.9,57.4,156.9,58.5z"/>
		<path fill="#FFFFFF" d="M159.8,58.3c0,0.4,0.4,0.7,0.9,0.7s0.9-0.3,0.9-0.7c0-0.4-0.4-0.7-0.9-0.7S159.8,57.9,159.8,58.3z"/>
		<path fill="#EA9F6C" d="M151.7,60.2c0,0,1-1.7,5.1-2.9c2.9-0.9,7.3,0.4,7.4,2.5c1.2-0.9,1.1-2.6-2-3.8c-3.5-1.3-7.5-0.3-10.1,3.4
			C151.9,59.6,151.8,59.9,151.7,60.2z"/>
		<path fill="#EA9F6C" d="M145.9,76.4h-4.7c-1.6,0-2.9-1.1-3.4-2.6c-0.2,0.5-0.3,0.9-0.3,1.5c0,2.2,2.7,3,4.8,3h2.5
			c2,0,4.8-0.7,4.8-3c0-0.5-0.1-1-0.3-1.5C148.8,75.3,147.5,76.4,145.9,76.4z"/>
		<path fill="#EA9F6C" d="M107.2,58.7c0-0.4,0.8-2.2,1.7-1.9c1.5,0.5,2.4,3.4,3.1,6.3c0.6,2.9,0.3,5,0,4.3c-0.5-1.1-0.9-4.6-2.7-8
			C108.1,57.2,107.4,61.9,107.2,58.7z"/>
		<path fill="#EA9F6C" d="M180.6,58.7c0-0.4-0.8-2.2-1.7-1.9c-1.5,0.5-2.4,3.4-3.1,6.3c-0.6,2.9-0.3,5,0,4.3c0.5-1.1,0.9-4.6,2.7-8
			C179.6,57.2,180.4,61.9,180.6,58.7z"/>
		<path fill="#663412" d="M168.3,15.8c-5-8.8-33.8-5.1-43-2.5c-9.2,2.5-15.2,7.6-14.8,15.5c0.3,6.8,0.3,22.2,0.3,26.2
			c0.8,0.1,1.6,0.4,2.3,0.9l1.8,8.3l1.9-13c0,0-3.8-25.3,20.9-20.9c-3.5,1.9-9.8,8.5-9.8,8.5s14.5-3.5,20.2-5.7c5.7-2.2,0,4.7,0,4.7
			s11.1-4.1,14.5-5.4c3.5-1.3,7-0.3,7.6,5.7c0.6,6,2.2,28.8,2.2,28.8l4-11.9c0.3-0.1,0.6-0.1,0.9-0.2c0.1-2.4,0.3-5.4,0.5-9.1
			C179.6,9.8,172.1,22.4,168.3,15.8z"/>
		<g>
			<path fill="#EA8C63" d="M135.3,86.6c0.2,1.1,2,3.8,3,3.8h10.4c1,0,2.8-2.7,3-3.8H135.3z"/>
			<path fill="#D87350" d="M148.4,87.1c-2.2-0.3-9.5-0.2-10.6-0.1c-2.9,0.1-4.6-1.5-4.5-1.8c0.2-0.5,0.5-0.4,0.9,0.1
				c0.3,0.4,2.2,0.3,3.1,0.1c4.8-1,3.6,0.1,5.9,0.2c2.2,0,1.4-1.1,5.6-0.1c1.4,0.3,3.3,0.8,4,0.4c0.5-0.2,0.9-0.5,1,0
				C154,86.4,151.9,87.5,148.4,87.1z"/>
		</g>
		
			<rect x="147.2" y="218.9" transform="matrix(0.9981 -6.098101e-02 6.098101e-02 0.9981 -14.752 11.4904)" fill="#6B3A25" width="67.3" height="57"/>
		<path fill="#663623" d="M184.3,226.3l-10.2,0.6c-7.2,0.4-13.4-5-13.8-12.2l-0.1-1.8c-0.4-7.2,5-13.4,12.2-13.8l10.2-0.6
			c7.2-0.4,13.4,5,13.8,12.2l0.1,1.8C196.9,219.6,191.5,225.8,184.3,226.3z M172.7,204c-4.4,0.3-7.8,4.1-7.6,8.5l0.1,1.8
			c0.3,4.4,4.1,7.8,8.5,7.6l10.2-0.6c4.4-0.3,7.8-4.1,7.6-8.5l-0.1-1.8c-0.3-4.4-4.1-7.8-8.5-7.6L172.7,204z"/>
		<path fill="#9B4E34" d="M206.9,252.9l-52,3.2c-5.8,0.4-10.8-4.1-11.2-9.9l-1.4-22.7c-0.4-5.8,4.1-10.8,9.9-11.2l52-3.2
			c5.8-0.4,10.8,4.1,11.2,9.9l1.4,22.7C217.1,247.5,212.7,252.5,206.9,252.9z"/>
		
			<rect x="176" y="248.7" transform="matrix(0.9981 -6.102051e-02 6.102051e-02 0.9981 -15.1356 11.5081)" fill="#828281" width="9.8" height="9.8"/>
		<path fill="#FCC397" d="M184.6,252.7c-1.3,0.8-4.7,1.8-9.8,6.7c-1.5,1.4-7.6,5.2-13.2,5.3c0,0-0.5,3.6,4.1,4.1
			c4.6,0.5,8.8-1.3,8.8-1.3s3.7-2,5.9-0.1c1.6,1.4,1.8,3.5-2.5,8.7l-5.5,0.4c0,0-0.7,2,0.9,3c1.6,1,4,2.5,4,2.5s2.1,2.3,4.6-0.7l0,0
			c-0.3,1,0.6,1.5,1.7,2.1c1.2,0.7,2.8,0.3,3.5-0.9c3.3-5.7,4.5-7.7,1.1-1.8c-0.6,1,0.2,1.4,1.2,2c1,0.6,2.3,0.2,2.8-0.8l1.4-2.4
			c1.4,0.9,2.4,0.6,2.9-0.4l4.1-7.1c0.7-1.2,0.9-7.2,0.4-13c-0.2-2.5-6.9-9.5-11.3-8.3C187.7,251.2,185.8,252,184.6,252.7z"/>
		<polygon fill="#B77641" points="186.6,273.8 181.8,281.3 186.3,273.5 		"/>
		<polygon fill="#B77641" points="192.4,273.8 188,280.9 192,273.6 		"/>
		<polygon fill="#B77641" points="197,274.2 193.6,279.5 196.6,274 		"/>
		<path fill="#B77641" d="M176,276.4c0.6,0.4,1.4,0.3,1.9-0.2L176,276.4L176,276.4z"/>
		<path fill="#333333" d="M204.8,259c9.3-8.5,31.9-41.9,31.4-60.3c-0.4-15.5-13.2-48.9-19.9-62.2c-2.5-6.8-9-11.6-16.7-11.6
			l-5.1,43.2c7.5,12.9,15.4,29.1,15.5,37c0.1,5.7-14,29.4-20.9,42.6C189.2,247.7,200.5,264,204.8,259z"/>
		
			<rect x="193.1" y="245.6" transform="matrix(0.5875 -0.8092 0.8092 0.5875 -125.9088 263.4914)" fill="#FFFFFF" width="4.9" height="19.4"/>
		<path fill="#333333" d="M97,240.3L97,240.3L97,240.3c-7.1-11.9-15.5-31-17.2-35c-3.1-7.6,5.3-25.6,14-38.9l7.2-43.1l-11.9,1.5
			c-12.6,0.2-15.9,9.7-16.3,10.8c-6.6,12.9-19.1,49-19.5,64.7c-0.4,18.4,22.9,52.2,32.2,60.7l15.9-12.2L97,240.3z"/>
		
			<rect x="85.2" y="254.1" transform="matrix(0.8092 -0.5875 0.5875 0.8092 -132.5863 104.6936)" fill="#FFFFFF" width="19.4" height="4.9"/>
	</g>
	<g>
		<g>
			<path fill="#333333" d="M98.9,163.6c2.4-4.8,2.5-10.1,3.6-15.3c1.1-5.8,2.9-11.3,5.9-16.4c3.9-6.6-6.4-12.6-10.3-6
				c-2.9,4.9-5,10.2-6.4,15.8c-1.2,4.9-0.8,11.3-3.1,15.8C85.2,164.4,95.5,170.5,98.9,163.6L98.9,163.6z"/>
		</g>
	</g>
	<g>
		<g>
			<path fill="#333333" d="M193,131c-0.6,11-1.4,21.9-2.6,32.8c-0.8,7.6,11.1,7.6,11.9,0c1.2-10.9,2-21.8,2.6-32.8
				C205.3,123.4,193.4,123.4,193,131L193,131z"/>
		</g>
	</g>
	<g>
		<g>
			<path fill="#333333" d="M78.6,143.5c7.7,0,7.7-11.9,0-11.9C70.9,131.6,70.9,143.5,78.6,143.5L78.6,143.5z"/>
		</g>
	</g>
	<g>
		<g>
			<path fill="#333333" d="M78.2,143.8c7.7,0,7.7-11.9,0-11.9C70.6,131.9,70.6,143.8,78.2,143.8L78.2,143.8z"/>
		</g>
	</g>
	<g>
		<g>
			<path fill="#333333" d="M78.6,143.5c7.7,0,7.7-11.9,0-11.9C70.9,131.6,70.9,143.5,78.6,143.5L78.6,143.5z"/>
		</g>
	</g>
	<g>
		<g>
			<path fill="#333333" d="M78.6,142.8c7.7,0,7.7-11.9,0-11.9C70.9,130.8,70.9,142.8,78.6,142.8L78.6,142.8z"/>
		</g>
	</g>
	<g>
		<g>
			<path fill="#333333" d="M77.7,144.4c7.7,0,7.7-11.9,0-11.9C70,132.5,70,144.4,77.7,144.4L77.7,144.4z"/>
		</g>
	</g>
</g>
<g id="Warstwa_2">
</g>
</svg>
