<?xml version="1.0" encoding="utf-8"?>
<!-- Generator: Adobe Illustrator 24.0.1, SVG Export Plug-In . SVG Version: 6.00 Build 0)  -->
<svg version="1.1" id="OBJECTS" xmlns="http://www.w3.org/2000/svg" xmlns:xlink="http://www.w3.org/1999/xlink" x="0px" y="0px"
	 viewBox="0 0 233 414" enable-background="new 0 0 233 414" xml:space="preserve">
<g>
	<path fill="#402960" d="M161.4,51.4L59.7,42.2c-4.7-0.4-9.2,1.2-12.7,4.4c-3.4,3.2-5.3,7.7-5.2,12.4l5.8,241.7
		c0.2,8.9,7.5,16.1,16.4,16.1h96.1c9.1,0,16.1-7.4,16.1-16.5V67.7C176.2,59.2,169.9,52.1,161.4,51.4z"/>
	<g>
		<path fill="#FFFFFF" d="M144.9,76.5c0,0,9.5-1.4,10.4-10.8c0,0,1.4,10.2,9.9,9.9c-0.5,0.7-9.3,1.1-9.7,9.9
			C155.5,85.5,155.7,75.8,144.9,76.5z"/>
		<path fill="#FFFFFF" d="M158,92.5c0,0,4.6-0.7,5.1-5.3c0,0,0.7,5,4.9,4.9c-0.2,0.3-4.5,0.6-4.7,4.9C163.2,97,163.3,92.2,158,92.5z
			"/>
		<path fill="#FFFFFF" d="M141.1,97.7c0,0,3.6-0.5,3.9-4.1c0,0,0.5,3.8,3.7,3.7c-0.2,0.3-3.5,0.4-3.6,3.7
			C145.1,101.1,145.2,97.5,141.1,97.7z"/>
	</g>
	<g>
		<g>
			<g>
				<g>
					<g>
						<path fill="#22272E" d="M145.2,384.8l-24.7-2.8c1.2-1.9,1.8-5.9,2.1-10.1c0.4-5.8,0.3-11.5,0.3-11.5s16.3-4,16.3,0
							c0,2.7,0.9,7.2,2.1,11.5C143,378.6,145.2,384.8,145.2,384.8z"/>
						<path fill="#22272E" d="M145.7,386.5c0,0.1,0,0.5,0,0.6c-0.1,1.4-0.4,2.7-1,4h-26c-0.6-1.3-1-2.7-1-4c0-0.1,0-0.3,0-0.5
							c0-6.2,6.3-11.2,14-11.2C139.4,375.4,145.7,380.3,145.7,386.5z"/>
					</g>
					<path fill="#617085" d="M122.6,372.5c0.4-6.7,0.3-12,0.3-12s16.3-4,16.3,0c0,2.7,0.9,7.3,2.1,12H122.6z"/>
				</g>
				<path fill="#515D6E" stroke="#515D6E" stroke-miterlimit="10" d="M145.7,386.8c-0.1,1.3-0.4,2.7-1,4h-26c-0.6-1.3-1-2.7-1-4
					H145.7z"/>
			</g>
			<path fill="#515D6E" d="M136.4,377.2c-1.9-2.7-6.5-1.7-8.7,0.1c-0.3,0.3,0,0.7,0.4,0.6c1.3-0.2,2.4-0.9,3.8-1
				c1.5-0.1,2.7,0.8,4.1,1C136.3,377.9,136.6,377.5,136.4,377.2z"/>
			<path fill="#515D6E" d="M135.6,380c-2.1-1.5-6.4-2-8.3,0.2c-0.3,0.3,0,0.8,0.4,0.7c1.3-0.4,2.7-0.5,4-0.5c1.3,0,2.4,0.9,3.7,0.6
				C135.9,380.9,136,380.3,135.6,380z"/>
		</g>
		<g>
			<g>
				<g>
					<path fill="#22272E" d="M103.3,386.2c-0.2,1.5-0.4,2.7-0.7,3.6c0,0-39.4,1.7-42.2,0.5c-0.4-0.2-0.3-0.6,0.2-1.2
						c0.1-0.4,0.3-0.9,0.5-1.5c1.4-3.4,5.2-8.6,15.8-7.9c1.9-0.9,3.4-1.7,4.3-2.2c1.3-0.7,2.3-2.5,3.1-4.8
						c1.6-4.9,1.9-11.8,1.6-13.3l16.7,0.2c0,0,0.6,6.2,0.9,13C103.7,377.5,103.7,382.6,103.3,386.2z"/>
					<path fill="#617085" d="M84.3,373.1c1.6-5.3,1.9-12.1,1.6-13.5l16.7,0.3c0,0,0.6,5.8,0.9,13.2H84.3z"/>
				</g>
				<path fill="#515D6E" stroke="#515D6E" stroke-miterlimit="10" d="M103.3,386.2c-0.2,1.5-0.4,2.7-0.7,3.6c0,0-39.4,1.7-42.2,0.5
					c-0.4-0.2-0.3-0.6,0.2-1.2c0.1-0.4,0.3-0.9,0.5-1.5C68,387.7,92.7,387.7,103.3,386.2z"/>
			</g>
			<path fill="#515D6E" d="M81.1,380.6c-0.6-1.9-3.7-2.6-5.4-1.5c-0.2,0.1-0.2,0.3,0,0.5c0.7,0.4,1.6,0.2,2.4,0.3
				c0.9,0.2,1.2,0.8,1.8,1.3C80.4,381.5,81.3,381.2,81.1,380.6z"/>
			<path fill="#515D6E" d="M86.9,378.2c-0.5-1.3-2.1-2.3-3.5-2.4c-1.1-0.1-3.3,0.3-3,1.6c0,0.1,0.2,0.2,0.3,0.2c0.7,0,1.3-0.4,2-0.4
				c0.8,0,1.6,0.5,2.2,1c0.5,0.5,0.7,1,1.5,1.1C86.8,379.4,87,378.5,86.9,378.2z"/>
		</g>
		<path fill="#EBE6E2" d="M75.7,117c0,0,37.3-7,72.8-0.9c0,0-7.9,67.7-10.7,82.1c0,0-28,7-52.3-0.5C85.5,197.7,75.2,130,75.7,117z"
			/>
		<path fill="#D8826C" d="M122.2,112.7c0,6.2-4.8,11.3-11,11.3l0,0c-6.2,0-11-5.1-11-11.3V98.4c0-6.2,4.8-11.3,11-11.3l0,0
			c6.2,0,11,5.1,11,11.3V112.7z"/>
		<path fill="#F5AE94" d="M72.8,242.7c-2-3.3-1.8-6.9-2.6-10.6c-0.3-1.2-0.8-2.4-1.8-3.4c-0.4-0.4-1.1-0.7-1.3-1.2l3.9-12.2
			c1-4-0.7-7.9-5.3-8.2c-2.5-0.2-4.7,0.6-6.5,2c-0.7,10.5-0.6,18-0.6,18.1c-0.3,1.4-1.2,2.8-1.8,4.1c-1.3,3-2.5,6.1-3.6,9.1
			c-1.2,3.2-3,7.8-0.7,10.9c0.4,0.5,1.6,0.3,1.5-0.4c-0.6-3.6-0.1-6.7,1-10.1c0.2-0.7,0.5-1.3,0.7-2c-1.2,5.2-1.3,10.7,2,14.8
			c0.6,0.8,2.2,0.5,2.1-0.6c0-0.2-0.1-0.4-0.1-0.7c0.5,0.8,1,1.6,1.6,2.4c1,1.2,3.4,0.4,2.9-1.1c-0.6-1.8-1.2-3.6-1.8-5.3
			c0.7,0.8,1.6,4.4,2.6,5c1,0.6,2.1-0.3,2.2-1.2c0.2-2.8-3.1-13.7-0.9-14.2c2.3-0.4-0.7,6.1,4.6,8.6C73.6,247.6,75,246.3,72.8,242.7
			z"/>
		<g>
			<path fill="#FFFFFF" d="M112.9,132.8c0,0.9-0.7,1.6-1.6,1.6c-0.9,0-1.6-0.7-1.6-1.6c0-0.9,0.7-1.6,1.6-1.6
				C112.1,131.2,112.9,131.9,112.9,132.8z"/>
			<path fill="#FFFFFF" d="M112.9,149.5c0,0.9-0.7,1.6-1.6,1.6c-0.9,0-1.6-0.7-1.6-1.6c0-0.9,0.7-1.6,1.6-1.6
				C112.1,147.9,112.9,148.7,112.9,149.5z"/>
			<path fill="#FFFFFF" d="M112.7,183c0,0.9-0.7,1.6-1.6,1.6c-0.9,0-1.6-0.7-1.6-1.6c0-0.9,0.7-1.6,1.6-1.6
				C112,181.4,112.7,182.1,112.7,183z"/>
			<path fill="#FFFFFF" d="M112.9,166.2c0,0.9-0.7,1.6-1.6,1.6c-0.9,0-1.6-0.7-1.6-1.6c0-0.9,0.7-1.6,1.6-1.6
				C112.1,164.6,112.9,165.3,112.9,166.2z"/>
		</g>
		<path fill="#F0A98F" d="M207.2,131.4c-0.2-0.2-0.6-0.2-0.8,0.1c-2.1,3-2.3,8.8-5.7,10.7c0.8-2.8,2.1-4.9,1.7-8
			c-0.3-2.2-1.2-4.2-3.4-4.8c-0.3-0.1-0.7,0.3-0.6,0.6c0.8,3.4,0.9,10.1-2,12.7c-1.2,1.1-0.4-1.8-0.3-2.3c0.3-1,0.5-2,0.6-3.1
			c0.1-1.9-1.1-3.1-2.7-3.8c-0.2-0.1-0.6,0-0.7,0.2c-0.6-0.5-1.6-0.9-2.4-0.9c-3.1-0.3-5.2,2.3-5.8,5c-0.4,2-0.1,4.2,0.1,6.3
			c0.3,3.4-0.6,5.8-2.2,8.7c-0.1,0.2-0.1,0.3,0,0.4c-1.9,4.4,5.8,8.2,8.3,3.7c0.1-0.1,0.1-0.2,0.1-0.3c2.8-1.7,5.1-4,7.2-6.7
			c1.7-2.1,3.5-3.9,5.4-5.9C206.6,141.2,212.5,134.6,207.2,131.4z M193.2,135.4c0,0.4,0,0.9,0,1.3c0.2,1.3-0.1,2.5-0.8,3.6
			c-0.3,0.2-0.5,0.5-0.8,0.7c-1.4,1-2.4,0.5-2.9-1.6c0.3-1.4,0.8-3.4,2.6-3.3c0.7,0,0.9-0.1,1.5-0.5
			C192.9,135.6,193.1,135.5,193.2,135.4z"/>
		<g>
			<g>
				<path fill="#F5AE94" d="M136.9,81.1c0.1,8.9-9.4,16.1-15.7,19.4c-6.3,3.4-11.8,2.3-11.8,2.3c-25-5.7-23.2-17.6-24.6-27.4
					c-0.7-4.8-1.3-13.9,0.8-25.1c0.3-1.5,0.8-2.9,1.4-4.2c3.9-8.1,13-11.2,13-11.2c5.5-1.9,11.7-2.3,17.4-1.3
					c8.2,1.5,14.6,5.7,16.7,14.1c0.7,2.7,1,5.5,1.4,8.2c0.7,5.7,1.1,11.4,1.3,17.2C136.9,75.8,136.9,78.5,136.9,81.1z"/>
			</g>
			<path fill="#DD876C" d="M110.7,56.3c0,0-1.9-1.7-1.8,4.8c0.1,6.5,0.9,13.3,0.9,13.3s-4.5-2.2-2.8,1.3c0.9,1.9,2.8,2.8,4.8,3.2
				c1.7,0.3,2.9-0.3,3.9-1.5c0.5-0.5,3-3.4,2.1-4.2c-0.4-0.4-2.7,0.7-3.3,0.9C114.4,74.1,113.8,54.6,110.7,56.3z"/>
			<path fill="#0D0D0C" d="M118.2,51.7c0,0,11.3-2.3,14.9,6.1c0,0-12.7-3.8-15.1-1.9L118.2,51.7z"/>
			<path fill="#0D0D0C" d="M104.6,52.7c0,0-11.2-3-15.2,5.1c0,0,12.9-3,15.1-1L104.6,52.7z"/>
			<g>
				<path fill="#FFFFFF" d="M92,65.9c0.2,3.3,3.3,5.7,6.9,5.5c3.6-0.2,6.3-3.1,6.1-6.3c-0.2-3.3-3.3-5.7-6.9-5.5
					C94.5,59.8,91.8,62.6,92,65.9z"/>
				<g>
					<path fill="#5C8696" d="M102.9,65c0.2,2.9-1.5,5.3-3.7,5.5c-2.2,0.1-4.2-2.1-4.4-5c-0.2-2.9,1.5-5.3,3.7-5.5
						C100.7,59.9,102.7,62.1,102.9,65z"/>
					<path fill="#0D0D0C" d="M101.7,65c0.1,2-1,3.8-2.6,3.9c-1.6,0.1-3-1.5-3.1-3.5c-0.1-2,1-3.8,2.6-3.9
						C100.2,61.4,101.6,63,101.7,65z"/>
					<path fill="#FFFFFF" d="M101.7,61.5c0,0.6-0.6,1.1-1.4,1.1c-0.8,0.1-1.5-0.4-1.6-0.9c0-0.6,0.6-1.1,1.4-1.1
						C100.9,60.6,101.6,61,101.7,61.5z"/>
				</g>
			</g>
			<g>
				<path fill="#FFFFFF" d="M118.1,65.2c0.2,3.3,3.3,5.8,6.9,5.5c3.6-0.2,6.3-3.1,6.1-6.4c-0.2-3.3-3.3-5.8-6.9-5.5
					C120.6,59,117.9,61.9,118.1,65.2z"/>
				<g>
					<path fill="#5C8696" d="M128,64.3c0.2,2.9-1.5,5.3-3.7,5.5c-2.2,0.2-4.2-2.1-4.4-5c-0.2-2.9,1.5-5.3,3.7-5.5
						C125.9,59.2,127.8,61.4,128,64.3z"/>
					<path fill="#0D0D0C" d="M126.9,64.4c0.1,2-1,3.8-2.6,3.9c-1.6,0.1-3-1.5-3.1-3.5c-0.1-2,1-3.8,2.6-3.9
						C125.3,60.7,126.7,62.3,126.9,64.4z"/>
					<path fill="#FFFFFF" d="M126.8,60.8c0,0.6-0.6,1.1-1.4,1.1c-0.8,0.1-1.5-0.4-1.6-0.9c0-0.6,0.6-1.1,1.4-1.1
						C126.1,59.9,126.8,60.3,126.8,60.8z"/>
				</g>
			</g>
			<g>
				<path fill="#712311" d="M125.7,80.7c0,0-1,3-2.8,6.3c-0.9,1.7-2.1,3.4-3.4,4.9c-3.4,3.7-8.1,5.7-13.8,0.4
					c-1.9-1.8-3.9-4.4-6-7.9c-0.8-1.4-1.6-2.9-2.4-4.6C97.3,79.8,121.8,84,125.7,80.7z"/>
				<path fill="#FFFFFF" d="M125.7,80.7c0,0-1,3-2.8,6.3c-7.6,2.7-17.5-0.4-23.2-2.7c-0.8-1.4-1.6-2.9-2.4-4.6
					C97.3,79.8,121.8,84,125.7,80.7z"/>
				<path fill="#D5503B" d="M119.5,91.9c-3.4,3.7-8.1,5.7-13.8,0.4C108.6,90.8,113.6,88.9,119.5,91.9z"/>
			</g>
			<path fill="#242422" d="M145.1,29.6c-1.5,2.1-3.9,4-6.5,4.6c2.1-2.3,4.2-5.3,3.8-8.5c0-0.1-0.2-0.3-0.3-0.2
				c-0.4,0.2-0.8,0.6-1.1,0.9c-1.9,1.8-5.1,1.7-7.5,0.9c-4.1-1.5-7.5-4.3-11.1-6.5c-4-2.4-8.5-3.8-13.2-3.6
				c-2.5,0.1-5.1,0.6-7.5,1.5c-5.9,2.1-12.8,6.3-14.4,12.8c-0.2,0.9-0.3,1.8-0.3,2.7c0,0.6,0.5,2.3,0.3,2.8
				c-0.1,0.2,0.1,0.5,0.3,0.3c0.1,0,0.2,0,0.2-0.1c0-0.1,0.1-0.2,0.1-0.2c2.8-2.2,7.4,6.5,9.1,7.9c6.4,5.4,15.7,6.1,23.3,4
				c8.6-2.3,18.1-8.3,23-15.5c0.8-1.2,1.6-2.4,2.2-3.7C145.6,29.6,145.3,29.4,145.1,29.6z"/>
			<g>
				<g>
					<path fill="#F0A98F" d="M135.9,62.6c0,0,5.5-12.4,10-2.6c3.6,7.7-2.4,15.3-7.2,14.8C133.8,74.2,135.9,62.6,135.9,62.6z"/>
					<path fill="#D8826C" d="M136.2,64.5c0,0,4-7.9,6.2-5.1c2.1,2.8,2.1,6.8,2.1,6.8S143,62,140,64.7c0,0,3.9,6.5-2.6,5.1
						C137.4,69.9,134.6,68.1,136.2,64.5z"/>
				</g>
			</g>
			<path fill="#242422" d="M93.7,36.5c0,0,0.6,10.1-3.6,15c-4.2,4.9-4.6,14.9-4.6,14.9s-15.4-19.6,2.1-31.1
				C87.6,35.3,91.1,33.9,93.7,36.5z"/>
			<path fill="#242422" d="M127.5,40.4c0,0,7.1,9.5,8.6,23.1c0,0,10-14.9,0.5-27.5C136.6,36,126.1,31.6,127.5,40.4z"/>
			<g>
				<g>
					<path fill="#F0A98F" d="M85.9,64.4c0,0-5.5-12.4-10-2.6c-3.6,7.7,2.4,15.3,7.2,14.8C87.9,76.1,85.9,64.4,85.9,64.4z"/>
					<path fill="#D8826C" d="M85.5,66.4c0,0-4-7.9-6.2-5.1c-2.1,2.8-2.1,6.8-2.1,6.8s1.5-4.1,4.4-1.4c0,0-3.9,6.5,2.6,5.1
						C84.4,71.7,87.2,69.9,85.5,66.4z"/>
				</g>
			</g>
			<g>
				<g>
					<path opacity="0.4" fill="#EAECED" d="M102.5,58.6c-2.3-0.4-4.6-0.4-6.7-0.4c-1.4,2.3-2.6,4.6-3.6,7.1
						c-0.7,1.8-1.4,3.7-1.8,5.6c2.1,1.9,4.9,2.5,7.6,2.6C99,68.4,99.7,62.8,102.5,58.6z"/>
					<path opacity="0.4" fill="#EAECED" d="M131,58c-2.3-0.1-4.6,0-6.7,0.3c-1.1,2.4-2.2,4.9-2.9,7.4c-0.6,1.8-1.1,3.8-1.3,5.8
						c2.3,1.7,5.1,2.1,7.8,1.8C128.5,68.2,128.7,62.5,131,58z"/>
				</g>
				<path fill="#5C311E" d="M136.5,68.3c2.2-6.5,1.6-9.3,1.5-9.6l-0.1-0.5l-0.5-0.2c-0.4-0.2-9.9-3.9-20.1,0.8
					c-1.1,0.5-2.2,1.1-3.1,1.7l0-0.2l-3.8,0.1l-0.1-0.2l-0.5-0.3c-1.1-0.6-2.3-1.1-3.4-1.6c-10.5-4-19.8,0.3-20.2,0.5l-0.5,0.2
					l-0.1,0.5c-0.1,0.3-0.5,3.1,2.1,9.5c1,2.3,2.7,4,5.3,4.9c3.1,1.2,6.3,0.9,6.5,0.9c7.4-0.8,8.7-4.4,9.6-6.8
					c0-0.1,0.1-0.3,0.1-0.4c0.6-1.6,0.9-3.1,1.1-4.2c0.7-0.3,1.8-0.5,3.3,0.1c0.2,1.2,0.6,2.8,1.4,4.6c0.1,0.1,0.1,0.2,0.2,0.4
					c1,2.3,2.6,5.8,10,6.1c0.1,0,3.3,0.1,6.4-1.3C134.1,72.4,135.7,70.6,136.5,68.3z M99.2,72.8c0,0-2.8,0.2-5.5-0.7
					c-2-0.7-3.3-2-4.1-3.7c-1.7-4.2-2-6.7-2-7.7c2.1-0.8,9.7-3.3,17.9-0.2c0.9,0.3,1.7,0.7,2.6,1.2c0,0.9-0.1,2.9-1.1,5.5
					c0,0.1-0.1,0.3-0.1,0.4C106.1,69.6,105.2,72.1,99.2,72.8z M130.7,71.5c-2.6,1.2-5.4,1.1-5.4,1.1c-6.1-0.3-7.1-2.7-8.1-4.8
					c-0.1-0.1-0.1-0.3-0.2-0.4c-1.1-2.5-1.4-4.5-1.4-5.4c0.8-0.5,1.7-0.9,2.5-1.3c8-3.6,15.7-1.6,17.9-0.9c0.1,1,0,3.5-1.5,7.8
					C133.9,69.3,132.6,70.6,130.7,71.5z"/>
			</g>
		</g>
		<g>
			<path fill="#F5F0EB" d="M100,105.8l-8.9,9.3l7.5,19.6l12.6-10.7C111.2,124,101.4,113.7,100,105.8z"/>
			<path fill="#F5F0EB" d="M122.4,105.8l8.9,9.3l-7.5,19.6L111.2,124C111.2,124,121,113.7,122.4,105.8z"/>
		</g>
		<path fill="#EBE6E2" d="M75.7,117c0,0-24.3,22.9-20.1,113.9l15.4-0.5l7.9-77C79,153.3,81.3,128.6,75.7,117z"/>
		<path fill="#EBE6E2" d="M142.4,150.5c0,0,2.8,34.5,18.2,48.1c0,0,26.1-16.8,33.6-41.5l-11.7-7.9l-16.8,17.7c0,0-7.5-42-17.3-50.9
			C148.5,116,141.5,146.3,142.4,150.5z"/>
		<g>
			<path fill="#22272E" d="M142.4,369.1h-21.6l-7.7-131.7c-0.7,0-1.5-0.1-2.2-0.2l-6.2,132.6H83.1c-0.3-51.3,2.7-170.8,2.3-172.2
				l46.2,0.4v0l6.1,0.1c0.4,2,0.8,4.7,1.2,7.6C143.3,244.2,142.6,353.8,142.4,369.1z"/>
			<path fill="#8C4C09" d="M138.9,205.6l-6.5,0.1c-0.1-2.5-0.3-5.1-0.6-7.6l6,0.1C138.2,200.2,138.5,202.7,138.9,205.6z"/>
			<path fill="#8C4C09" d="M126.3,198l-26.7-0.2c0.1,2.8,0.2,5.7,0.2,8.5l26.9-0.5C126.2,203.4,126.3,200.7,126.3,198z"/>
			<path fill="#8C4C09" d="M93.2,197.7l-7.7-0.1v8.9l8.4-0.1C93.2,203.8,93.1,200.7,93.2,197.7z"/>
			<rect x="105.6" y="197.8" fill="#C28C4B" width="13.3" height="8.7"/>
		</g>
	</g>
</g>
</svg>
