<?xml version="1.0" encoding="utf-8"?>
<!-- Generator: Adobe Illustrator 24.0.1, SVG Export Plug-In . SVG Version: 6.00 Build 0)  -->
<svg version="1.1" id="OBJECTS" xmlns="http://www.w3.org/2000/svg" xmlns:xlink="http://www.w3.org/1999/xlink" x="0px" y="0px"
	 viewBox="0 0 233 414" style="enable-background:new 0 0 233 414;" xml:space="preserve">
<style type="text/css">
	.st0{display:none;}
	.st1{display:inline;fill:#402960;}
	.st2{display:inline;}
	.st3{fill:#FFFFFF;}
	.st4{fill:#22272E;}
	.st5{fill:#617085;}
	.st6{fill:#515D6E;stroke:#515D6E;stroke-miterlimit:10;}
	.st7{fill:#515D6E;}
	.st8{fill:#EBE6E2;}
	.st9{fill:#D8826C;}
	.st10{fill:#F5AE94;}
	.st11{fill:#F0A98F;}
	.st12{fill:#DD876C;}
	.st13{fill:#0D0D0C;}
	.st14{fill:#5C8696;}
	.st15{fill:#712311;}
	.st16{fill:#D5503B;}
	.st17{fill:#242422;}
	.st18{opacity:0.4;fill:#EAECED;enable-background:new    ;}
	.st19{fill:#5C311E;}
	.st20{fill:#F5F0EB;}
	.st21{fill:#8C4C09;}
	.st22{fill:#C28C4B;}
	.st23{fill:#402960;}
	.st24{display:inline;fill:#FFFFFF;}
	.st25{display:inline;fill:#EBE6E2;}
	.st26{display:inline;fill:#D8826C;}
	.st27{display:inline;fill:#F5AE94;}
	.st28{display:inline;fill:#F0A98F;}
	.st29{opacity:0.4;fill:#EAECED;}
	.st30{fill:#243143;}
	.st31{fill:#F4BE4F;}
	.st32{fill:#AB967B;}
	.st33{fill:#BCC1C6;}
	.st34{fill:#A9ACB1;}
	.st35{fill:#91A851;}
	.st36{fill:#EDDBC3;}
	.st37{fill:#85462B;}
	.st38{fill:#E5E4CB;}
	.st39{fill:#B8B599;}
	.st40{fill:#F7F5E3;}
	.st41{fill:#6C6959;}
	.st42{fill:#817F6A;}
	.st43{fill:#586280;}
</style>
<g class="st0">
	<path class="st1" d="M161.4,51.4L59.7,42.2c-4.7-0.4-9.2,1.2-12.7,4.4c-3.4,3.2-5.3,7.7-5.2,12.4l5.8,241.7
		c0.2,8.9,7.5,16.1,16.4,16.1h96.1c9.1,0,16.1-7.4,16.1-16.5V67.7C176.2,59.2,169.9,52.1,161.4,51.4z"/>
	<g class="st2">
		<path class="st3" d="M144.9,76.5c0,0,9.5-1.4,10.4-10.8c0,0,1.4,10.2,9.9,9.9c-0.5,0.7-9.3,1.1-9.7,9.9
			C155.5,85.5,155.7,75.8,144.9,76.5z"/>
		<path class="st3" d="M158,92.5c0,0,4.6-0.7,5.1-5.3c0,0,0.7,5,4.9,4.9c-0.2,0.3-4.5,0.6-4.7,4.9C163.2,97,163.3,92.2,158,92.5z"/>
		<path class="st3" d="M141.1,97.7c0,0,3.6-0.5,3.9-4.1c0,0,0.5,3.8,3.7,3.7c-0.2,0.3-3.5,0.4-3.6,3.7
			C145.1,101.1,145.2,97.5,141.1,97.7z"/>
	</g>
	<g class="st2">
		<g>
			<g>
				<g>
					<g>
						<path class="st4" d="M145.2,384.8l-24.7-2.8c1.2-1.9,1.8-5.9,2.1-10.1c0.4-5.8,0.3-11.5,0.3-11.5s16.3-4,16.3,0
							c0,2.7,0.9,7.2,2.1,11.5C143,378.6,145.2,384.8,145.2,384.8z"/>
						<path class="st4" d="M145.7,386.5c0,0.1,0,0.5,0,0.6c-0.1,1.4-0.4,2.7-1,4h-26c-0.6-1.3-1-2.7-1-4c0-0.1,0-0.3,0-0.5
							c0-6.2,6.3-11.2,14-11.2S145.7,380.3,145.7,386.5z"/>
					</g>
					<path class="st5" d="M122.6,372.5c0.4-6.7,0.3-12,0.3-12s16.3-4,16.3,0c0,2.7,0.9,7.3,2.1,12H122.6z"/>
				</g>
				<path class="st6" d="M145.7,386.8c-0.1,1.3-0.4,2.7-1,4h-26c-0.6-1.3-1-2.7-1-4H145.7z"/>
			</g>
			<path class="st7" d="M136.4,377.2c-1.9-2.7-6.5-1.7-8.7,0.1c-0.3,0.3,0,0.7,0.4,0.6c1.3-0.2,2.4-0.9,3.8-1c1.5-0.1,2.7,0.8,4.1,1
				C136.3,377.9,136.6,377.5,136.4,377.2z"/>
			<path class="st7" d="M135.6,380c-2.1-1.5-6.4-2-8.3,0.2c-0.3,0.3,0,0.8,0.4,0.7c1.3-0.4,2.7-0.5,4-0.5s2.4,0.9,3.7,0.6
				C135.9,380.9,136,380.3,135.6,380z"/>
		</g>
		<g>
			<g>
				<g>
					<path class="st4" d="M103.3,386.2c-0.2,1.5-0.4,2.7-0.7,3.6c0,0-39.4,1.7-42.2,0.5c-0.4-0.2-0.3-0.6,0.2-1.2
						c0.1-0.4,0.3-0.9,0.5-1.5c1.4-3.4,5.2-8.6,15.8-7.9c1.9-0.9,3.4-1.7,4.3-2.2c1.3-0.7,2.3-2.5,3.1-4.8
						c1.6-4.9,1.9-11.8,1.6-13.3l16.7,0.2c0,0,0.6,6.2,0.9,13C103.7,377.5,103.7,382.6,103.3,386.2z"/>
					<path class="st5" d="M84.3,373.1c1.6-5.3,1.9-12.1,1.6-13.5l16.7,0.3c0,0,0.6,5.8,0.9,13.2H84.3z"/>
				</g>
				<path class="st6" d="M103.3,386.2c-0.2,1.5-0.4,2.7-0.7,3.6c0,0-39.4,1.7-42.2,0.5c-0.4-0.2-0.3-0.6,0.2-1.2
					c0.1-0.4,0.3-0.9,0.5-1.5C68,387.7,92.7,387.7,103.3,386.2z"/>
			</g>
			<path class="st7" d="M81.1,380.6c-0.6-1.9-3.7-2.6-5.4-1.5c-0.2,0.1-0.2,0.3,0,0.5c0.7,0.4,1.6,0.2,2.4,0.3
				c0.9,0.2,1.2,0.8,1.8,1.3C80.4,381.5,81.3,381.2,81.1,380.6z"/>
			<path class="st7" d="M86.9,378.2c-0.5-1.3-2.1-2.3-3.5-2.4c-1.1-0.1-3.3,0.3-3,1.6c0,0.1,0.2,0.2,0.3,0.2c0.7,0,1.3-0.4,2-0.4
				c0.8,0,1.6,0.5,2.2,1c0.5,0.5,0.7,1,1.5,1.1C86.8,379.4,87,378.5,86.9,378.2z"/>
		</g>
		<path class="st8" d="M75.7,117c0,0,37.3-7,72.8-0.9c0,0-7.9,67.7-10.7,82.1c0,0-28,7-52.3-0.5C85.5,197.7,75.2,130,75.7,117z"/>
		<path class="st9" d="M122.2,112.7c0,6.2-4.8,11.3-11,11.3l0,0c-6.2,0-11-5.1-11-11.3V98.4c0-6.2,4.8-11.3,11-11.3l0,0
			c6.2,0,11,5.1,11,11.3V112.7z"/>
		<path class="st10" d="M72.8,242.7c-2-3.3-1.8-6.9-2.6-10.6c-0.3-1.2-0.8-2.4-1.8-3.4c-0.4-0.4-1.1-0.7-1.3-1.2l3.9-12.2
			c1-4-0.7-7.9-5.3-8.2c-2.5-0.2-4.7,0.6-6.5,2c-0.7,10.5-0.6,18-0.6,18.1c-0.3,1.4-1.2,2.8-1.8,4.1c-1.3,3-2.5,6.1-3.6,9.1
			c-1.2,3.2-3,7.8-0.7,10.9c0.4,0.5,1.6,0.3,1.5-0.4c-0.6-3.6-0.1-6.7,1-10.1c0.2-0.7,0.5-1.3,0.7-2c-1.2,5.2-1.3,10.7,2,14.8
			c0.6,0.8,2.2,0.5,2.1-0.6c0-0.2-0.1-0.4-0.1-0.7c0.5,0.8,1,1.6,1.6,2.4c1,1.2,3.4,0.4,2.9-1.1c-0.6-1.8-1.2-3.6-1.8-5.3
			c0.7,0.8,1.6,4.4,2.6,5c1,0.6,2.1-0.3,2.2-1.2c0.2-2.8-3.1-13.7-0.9-14.2c2.3-0.4-0.7,6.1,4.6,8.6C73.6,247.6,75,246.3,72.8,242.7
			z"/>
		<g>
			<path class="st3" d="M112.9,132.8c0,0.9-0.7,1.6-1.6,1.6s-1.6-0.7-1.6-1.6c0-0.9,0.7-1.6,1.6-1.6
				C112.1,131.2,112.9,131.9,112.9,132.8z"/>
			<path class="st3" d="M112.9,149.5c0,0.9-0.7,1.6-1.6,1.6s-1.6-0.7-1.6-1.6c0-0.9,0.7-1.6,1.6-1.6
				C112.1,147.9,112.9,148.7,112.9,149.5z"/>
			<path class="st3" d="M112.7,183c0,0.9-0.7,1.6-1.6,1.6s-1.6-0.7-1.6-1.6c0-0.9,0.7-1.6,1.6-1.6S112.7,182.1,112.7,183z"/>
			<path class="st3" d="M112.9,166.2c0,0.9-0.7,1.6-1.6,1.6s-1.6-0.7-1.6-1.6c0-0.9,0.7-1.6,1.6-1.6
				C112.1,164.6,112.9,165.3,112.9,166.2z"/>
		</g>
		<path class="st11" d="M207.2,131.4c-0.2-0.2-0.6-0.2-0.8,0.1c-2.1,3-2.3,8.8-5.7,10.7c0.8-2.8,2.1-4.9,1.7-8
			c-0.3-2.2-1.2-4.2-3.4-4.8c-0.3-0.1-0.7,0.3-0.6,0.6c0.8,3.4,0.9,10.1-2,12.7c-1.2,1.1-0.4-1.8-0.3-2.3c0.3-1,0.5-2,0.6-3.1
			c0.1-1.9-1.1-3.1-2.7-3.8c-0.2-0.1-0.6,0-0.7,0.2c-0.6-0.5-1.6-0.9-2.4-0.9c-3.1-0.3-5.2,2.3-5.8,5c-0.4,2-0.1,4.2,0.1,6.3
			c0.3,3.4-0.6,5.8-2.2,8.7c-0.1,0.2-0.1,0.3,0,0.4c-1.9,4.4,5.8,8.2,8.3,3.7c0.1-0.1,0.1-0.2,0.1-0.3c2.8-1.7,5.1-4,7.2-6.7
			c1.7-2.1,3.5-3.9,5.4-5.9C206.6,141.2,212.5,134.6,207.2,131.4z M193.2,135.4c0,0.4,0,0.9,0,1.3c0.2,1.3-0.1,2.5-0.8,3.6
			c-0.3,0.2-0.5,0.5-0.8,0.7c-1.4,1-2.4,0.5-2.9-1.6c0.3-1.4,0.8-3.4,2.6-3.3c0.7,0,0.9-0.1,1.5-0.5
			C192.9,135.6,193.1,135.5,193.2,135.4z"/>
		<g>
			<g>
				<path class="st10" d="M136.9,81.1c0.1,8.9-9.4,16.1-15.7,19.4c-6.3,3.4-11.8,2.3-11.8,2.3c-25-5.7-23.2-17.6-24.6-27.4
					c-0.7-4.8-1.3-13.9,0.8-25.1c0.3-1.5,0.8-2.9,1.4-4.2c3.9-8.1,13-11.2,13-11.2c5.5-1.9,11.7-2.3,17.4-1.3
					c8.2,1.5,14.6,5.7,16.7,14.1c0.7,2.7,1,5.5,1.4,8.2c0.7,5.7,1.1,11.4,1.3,17.2C136.9,75.8,136.9,78.5,136.9,81.1z"/>
			</g>
			<path class="st12" d="M110.7,56.3c0,0-1.9-1.7-1.8,4.8s0.9,13.3,0.9,13.3s-4.5-2.2-2.8,1.3c0.9,1.9,2.8,2.8,4.8,3.2
				c1.7,0.3,2.9-0.3,3.9-1.5c0.5-0.5,3-3.4,2.1-4.2c-0.4-0.4-2.7,0.7-3.3,0.9C114.4,74.1,113.8,54.6,110.7,56.3z"/>
			<path class="st13" d="M118.2,51.7c0,0,11.3-2.3,14.9,6.1c0,0-12.7-3.8-15.1-1.9L118.2,51.7z"/>
			<path class="st13" d="M104.6,52.7c0,0-11.2-3-15.2,5.1c0,0,12.9-3,15.1-1L104.6,52.7z"/>
			<g>
				<path class="st3" d="M92,65.9c0.2,3.3,3.3,5.7,6.9,5.5s6.3-3.1,6.1-6.3c-0.2-3.3-3.3-5.7-6.9-5.5S91.8,62.6,92,65.9z"/>
				<g>
					<path class="st14" d="M102.9,65c0.2,2.9-1.5,5.3-3.7,5.5c-2.2,0.1-4.2-2.1-4.4-5c-0.2-2.9,1.5-5.3,3.7-5.5
						C100.7,59.9,102.7,62.1,102.9,65z"/>
					<path class="st13" d="M101.7,65c0.1,2-1,3.8-2.6,3.9s-3-1.5-3.1-3.5s1-3.8,2.6-3.9C100.2,61.4,101.6,63,101.7,65z"/>
					<path class="st3" d="M101.7,61.5c0,0.6-0.6,1.1-1.4,1.1c-0.8,0.1-1.5-0.4-1.6-0.9c0-0.6,0.6-1.1,1.4-1.1S101.6,61,101.7,61.5z"
						/>
				</g>
			</g>
			<g>
				<path class="st3" d="M118.1,65.2c0.2,3.3,3.3,5.8,6.9,5.5c3.6-0.2,6.3-3.1,6.1-6.4c-0.2-3.3-3.3-5.8-6.9-5.5
					C120.6,59,117.9,61.9,118.1,65.2z"/>
				<g>
					<path class="st14" d="M128,64.3c0.2,2.9-1.5,5.3-3.7,5.5s-4.2-2.1-4.4-5c-0.2-2.9,1.5-5.3,3.7-5.5
						C125.9,59.2,127.8,61.4,128,64.3z"/>
					<path class="st13" d="M126.9,64.4c0.1,2-1,3.8-2.6,3.9s-3-1.5-3.1-3.5s1-3.8,2.6-3.9C125.3,60.7,126.7,62.3,126.9,64.4z"/>
					<path class="st3" d="M126.8,60.8c0,0.6-0.6,1.1-1.4,1.1c-0.8,0.1-1.5-0.4-1.6-0.9c0-0.6,0.6-1.1,1.4-1.1
						C126.1,59.9,126.8,60.3,126.8,60.8z"/>
				</g>
			</g>
			<g>
				<path class="st15" d="M125.7,80.7c0,0-1,3-2.8,6.3c-0.9,1.7-2.1,3.4-3.4,4.9c-3.4,3.7-8.1,5.7-13.8,0.4c-1.9-1.8-3.9-4.4-6-7.9
					c-0.8-1.4-1.6-2.9-2.4-4.6C97.3,79.8,121.8,84,125.7,80.7z"/>
				<path class="st3" d="M125.7,80.7c0,0-1,3-2.8,6.3c-7.6,2.7-17.5-0.4-23.2-2.7c-0.8-1.4-1.6-2.9-2.4-4.6
					C97.3,79.8,121.8,84,125.7,80.7z"/>
				<path class="st16" d="M119.5,91.9c-3.4,3.7-8.1,5.7-13.8,0.4C108.6,90.8,113.6,88.9,119.5,91.9z"/>
			</g>
			<path class="st17" d="M145.1,29.6c-1.5,2.1-3.9,4-6.5,4.6c2.1-2.3,4.2-5.3,3.8-8.5c0-0.1-0.2-0.3-0.3-0.2
				c-0.4,0.2-0.8,0.6-1.1,0.9c-1.9,1.8-5.1,1.7-7.5,0.9c-4.1-1.5-7.5-4.3-11.1-6.5c-4-2.4-8.5-3.8-13.2-3.6
				c-2.5,0.1-5.1,0.6-7.5,1.5c-5.9,2.1-12.8,6.3-14.4,12.8c-0.2,0.9-0.3,1.8-0.3,2.7c0,0.6,0.5,2.3,0.3,2.8
				c-0.1,0.2,0.1,0.5,0.3,0.3c0.1,0,0.2,0,0.2-0.1s0.1-0.2,0.1-0.2c2.8-2.2,7.4,6.5,9.1,7.9c6.4,5.4,15.7,6.1,23.3,4
				c8.6-2.3,18.1-8.3,23-15.5c0.8-1.2,1.6-2.4,2.2-3.7C145.6,29.6,145.3,29.4,145.1,29.6z"/>
			<g>
				<g>
					<path class="st11" d="M135.9,62.6c0,0,5.5-12.4,10-2.6c3.6,7.7-2.4,15.3-7.2,14.8C133.8,74.2,135.9,62.6,135.9,62.6z"/>
					<path class="st9" d="M136.2,64.5c0,0,4-7.9,6.2-5.1c2.1,2.8,2.1,6.8,2.1,6.8S143,62,140,64.7c0,0,3.9,6.5-2.6,5.1
						C137.4,69.9,134.6,68.1,136.2,64.5z"/>
				</g>
			</g>
			<path class="st17" d="M93.7,36.5c0,0,0.6,10.1-3.6,15s-4.6,14.9-4.6,14.9s-15.4-19.6,2.1-31.1C87.6,35.3,91.1,33.9,93.7,36.5z"/>
			<path class="st17" d="M127.5,40.4c0,0,7.1,9.5,8.6,23.1c0,0,10-14.9,0.5-27.5C136.6,36,126.1,31.6,127.5,40.4z"/>
			<g>
				<g>
					<path class="st11" d="M85.9,64.4c0,0-5.5-12.4-10-2.6c-3.6,7.7,2.4,15.3,7.2,14.8C87.9,76.1,85.9,64.4,85.9,64.4z"/>
					<path class="st9" d="M85.5,66.4c0,0-4-7.9-6.2-5.1c-2.1,2.8-2.1,6.8-2.1,6.8s1.5-4.1,4.4-1.4c0,0-3.9,6.5,2.6,5.1
						C84.4,71.7,87.2,69.9,85.5,66.4z"/>
				</g>
			</g>
			<g>
				<g>
					<path class="st18" d="M102.5,58.6c-2.3-0.4-4.6-0.4-6.7-0.4c-1.4,2.3-2.6,4.6-3.6,7.1c-0.7,1.8-1.4,3.7-1.8,5.6
						c2.1,1.9,4.9,2.5,7.6,2.6C99,68.4,99.7,62.8,102.5,58.6z"/>
					<path class="st18" d="M131,58c-2.3-0.1-4.6,0-6.7,0.3c-1.1,2.4-2.2,4.9-2.9,7.4c-0.6,1.8-1.1,3.8-1.3,5.8
						c2.3,1.7,5.1,2.1,7.8,1.8C128.5,68.2,128.7,62.5,131,58z"/>
				</g>
				<path class="st19" d="M136.5,68.3c2.2-6.5,1.6-9.3,1.5-9.6l-0.1-0.5l-0.5-0.2c-0.4-0.2-9.9-3.9-20.1,0.8
					c-1.1,0.5-2.2,1.1-3.1,1.7v-0.2l-3.8,0.1l-0.1-0.2l-0.5-0.3c-1.1-0.6-2.3-1.1-3.4-1.6c-10.5-4-19.8,0.3-20.2,0.5L85.7,59
					l-0.1,0.5c-0.1,0.3-0.5,3.1,2.1,9.5c1,2.3,2.7,4,5.3,4.9c3.1,1.2,6.3,0.9,6.5,0.9c7.4-0.8,8.7-4.4,9.6-6.8
					c0-0.1,0.1-0.3,0.1-0.4c0.6-1.6,0.9-3.1,1.1-4.2c0.7-0.3,1.8-0.5,3.3,0.1c0.2,1.2,0.6,2.8,1.4,4.6c0.1,0.1,0.1,0.2,0.2,0.4
					c1,2.3,2.6,5.8,10,6.1c0.1,0,3.3,0.1,6.4-1.3C134.1,72.4,135.7,70.6,136.5,68.3z M99.2,72.8c0,0-2.8,0.2-5.5-0.7
					c-2-0.7-3.3-2-4.1-3.7c-1.7-4.2-2-6.7-2-7.7c2.1-0.8,9.7-3.3,17.9-0.2c0.9,0.3,1.7,0.7,2.6,1.2c0,0.9-0.1,2.9-1.1,5.5
					c0,0.1-0.1,0.3-0.1,0.4C106.1,69.6,105.2,72.1,99.2,72.8z M130.7,71.5c-2.6,1.2-5.4,1.1-5.4,1.1c-6.1-0.3-7.1-2.7-8.1-4.8
					c-0.1-0.1-0.1-0.3-0.2-0.4c-1.1-2.5-1.4-4.5-1.4-5.4c0.8-0.5,1.7-0.9,2.5-1.3c8-3.6,15.7-1.6,17.9-0.9c0.1,1,0,3.5-1.5,7.8
					C133.9,69.3,132.6,70.6,130.7,71.5z"/>
			</g>
		</g>
		<g>
			<path class="st20" d="M100,105.8l-8.9,9.3l7.5,19.6l12.6-10.7C111.2,124,101.4,113.7,100,105.8z"/>
			<path class="st20" d="M122.4,105.8l8.9,9.3l-7.5,19.6L111.2,124C111.2,124,121,113.7,122.4,105.8z"/>
		</g>
		<path class="st8" d="M75.7,117c0,0-24.3,22.9-20.1,113.9l15.4-0.5l7.9-77C79,153.3,81.3,128.6,75.7,117z"/>
		<path class="st8" d="M142.4,150.5c0,0,2.8,34.5,18.2,48.1c0,0,26.1-16.8,33.6-41.5l-11.7-7.9l-16.8,17.7c0,0-7.5-42-17.3-50.9
			C148.5,116,141.5,146.3,142.4,150.5z"/>
		<g>
			<path class="st4" d="M142.4,369.1h-21.6l-7.7-131.7c-0.7,0-1.5-0.1-2.2-0.2l-6.2,132.6H83.1c-0.3-51.3,2.7-170.8,2.3-172.2
				l46.2,0.4l0,0l6.1,0.1c0.4,2,0.8,4.7,1.2,7.6C143.3,244.2,142.6,353.8,142.4,369.1z"/>
			<path class="st21" d="M138.9,205.6l-6.5,0.1c-0.1-2.5-0.3-5.1-0.6-7.6l6,0.1C138.2,200.2,138.5,202.7,138.9,205.6z"/>
			<path class="st21" d="M126.3,198l-26.7-0.2c0.1,2.8,0.2,5.7,0.2,8.5l26.9-0.5C126.2,203.4,126.3,200.7,126.3,198z"/>
			<path class="st21" d="M93.2,197.7l-7.7-0.1v8.9l8.4-0.1C93.2,203.8,93.1,200.7,93.2,197.7z"/>
			<rect x="105.6" y="197.8" class="st22" width="13.3" height="8.7"/>
		</g>
	</g>
</g>
<g>
	<path class="st23" d="M161.1,52.2L59.3,43c-4.7-0.4-9.2,1.2-12.7,4.4c-3.4,3.2-5.3,7.7-5.2,12.4l5.8,241.7
		c0.2,8.9,7.5,16.1,16.4,16.1h96.1c9.1,0,16.1-7.4,16.1-16.5V68.6C175.9,60.1,169.5,53,161.1,52.2z"/>
	<g class="st0">
		<path class="st24" d="M144.5,77.3c0,0,9.5-1.4,10.4-10.8c0,0,1.4,10.2,9.9,9.9c-0.5,0.7-9.3,1.1-9.7,9.9
			C155.2,86.3,155.4,76.6,144.5,77.3z"/>
		<path class="st24" d="M157.6,93.4c0,0,4.6-0.7,5.1-5.3c0,0,0.7,5,4.9,4.9c-0.2,0.3-4.5,0.6-4.7,4.9
			C162.8,97.8,162.9,93.1,157.6,93.4z"/>
		<path class="st24" d="M140.7,98.6c0,0,3.6-0.5,3.9-4.1c0,0,0.5,3.8,3.7,3.7c-0.2,0.3-3.5,0.4-3.6,3.7
			C144.7,101.9,144.8,98.3,140.7,98.6z"/>
	</g>
	<g class="st0">
		<g class="st2">
			<g>
				<g>
					<g>
						<path class="st4" d="M144.9,385.6l-24.7-2.8c1.2-1.9,1.8-5.9,2.1-10.1c0.4-5.8,0.3-11.5,0.3-11.5s16.3-4,16.3,0
							c0,2.7,0.9,7.2,2.1,11.5C142.6,379.5,144.9,385.6,144.9,385.6z"/>
						<path class="st4" d="M145.3,387.4c0,0.1,0,0.5,0,0.6c-0.1,1.4-0.4,2.7-1,4h-26c-0.6-1.3-1-2.7-1-4c0-0.1,0-0.3,0-0.5
							c0-6.2,6.3-11.2,14-11.2C139.1,376.2,145.3,381.2,145.3,387.4z"/>
					</g>
					<path class="st5" d="M122.2,373.3c0.4-6.7,0.3-12,0.3-12s16.3-4,16.3,0c0,2.7,0.9,7.3,2.1,12H122.2z"/>
				</g>
				<path class="st6" d="M145.3,387.6c-0.1,1.3-0.4,2.7-1,4h-26c-0.6-1.3-1-2.7-1-4H145.3z"/>
			</g>
			<path class="st7" d="M136,378.1c-1.9-2.7-6.5-1.7-8.7,0.1c-0.3,0.3,0,0.7,0.4,0.6c1.3-0.2,2.4-0.9,3.8-1c1.5-0.1,2.7,0.8,4.1,1
				C136,378.8,136.2,378.3,136,378.1z"/>
			<path class="st7" d="M135.2,380.9c-2.1-1.5-6.4-2-8.3,0.2c-0.3,0.3,0,0.8,0.4,0.7c1.3-0.4,2.7-0.5,4-0.5c1.3,0,2.4,0.9,3.7,0.6
				C135.6,381.7,135.6,381.1,135.2,380.9z"/>
		</g>
		<g class="st2">
			<g>
				<g>
					<path class="st4" d="M103,387.1c-0.2,1.5-0.4,2.7-0.7,3.6c0,0-39.4,1.7-42.2,0.5c-0.4-0.2-0.3-0.6,0.2-1.2
						c0.1-0.4,0.3-0.9,0.5-1.5c1.4-3.4,5.2-8.6,15.8-7.9c1.9-0.9,3.4-1.7,4.3-2.2c1.3-0.7,2.3-2.5,3.1-4.8
						c1.6-4.9,1.9-11.8,1.6-13.3l16.7,0.2c0,0,0.6,6.2,0.9,13C103.3,378.3,103.4,383.5,103,387.1z"/>
					<path class="st5" d="M83.9,374c1.6-5.3,1.9-12.1,1.6-13.5l16.7,0.3c0,0,0.6,5.8,0.9,13.2H83.9z"/>
				</g>
				<path class="st6" d="M103,387.1c-0.2,1.5-0.4,2.7-0.7,3.6c0,0-39.4,1.7-42.2,0.5c-0.4-0.2-0.3-0.6,0.2-1.2
					c0.1-0.4,0.3-0.9,0.5-1.5C67.6,388.5,92.4,388.5,103,387.1z"/>
			</g>
			<path class="st7" d="M80.7,381.4c-0.6-1.9-3.7-2.6-5.4-1.5c-0.2,0.1-0.2,0.3,0,0.5c0.7,0.4,1.6,0.2,2.4,0.3
				c0.9,0.2,1.2,0.8,1.8,1.3C80.1,382.4,80.9,382.1,80.7,381.4z"/>
			<path class="st7" d="M86.5,379c-0.5-1.3-2.1-2.3-3.5-2.4c-1.1-0.1-3.3,0.3-3,1.6c0,0.1,0.2,0.2,0.3,0.2c0.7,0,1.3-0.4,2-0.4
				c0.8,0,1.6,0.5,2.2,1c0.5,0.5,0.7,1,1.5,1.1C86.4,380.2,86.6,379.4,86.5,379z"/>
		</g>
		<path class="st25" d="M75.3,117.8c0,0,37.3-7,72.8-0.9c0,0-7.9,67.7-10.7,82.1c0,0-28,7-52.3-0.5
			C85.1,198.5,74.9,130.9,75.3,117.8z"/>
		<path class="st26" d="M121.9,113.5c0,6.2-4.8,11.3-11,11.3l0,0c-6.2,0-11-5.1-11-11.3V99.2c0-6.2,4.8-11.3,11-11.3l0,0
			c6.2,0,11,5.1,11,11.3V113.5z"/>
		<path class="st27" d="M72.5,243.5c-2-3.3-1.8-6.9-2.6-10.6c-0.3-1.2-0.8-2.4-1.8-3.4c-0.4-0.4-1.1-0.7-1.3-1.2l3.9-12.2
			c1-4-0.7-7.9-5.3-8.2c-2.5-0.2-4.7,0.6-6.5,2c-0.7,10.5-0.6,18-0.6,18.1c-0.3,1.4-1.2,2.8-1.8,4.1c-1.3,3-2.5,6.1-3.6,9.1
			c-1.2,3.2-3,7.8-0.7,10.9c0.4,0.5,1.6,0.3,1.5-0.4c-0.6-3.6-0.1-6.7,1-10.1c0.2-0.7,0.5-1.3,0.7-2c-1.2,5.2-1.3,10.7,2,14.8
			c0.6,0.8,2.2,0.5,2.1-0.6c0-0.2-0.1-0.4-0.1-0.7c0.5,0.8,1,1.6,1.6,2.4c1,1.2,3.4,0.4,2.9-1.1c-0.6-1.8-1.2-3.6-1.8-5.3
			c0.7,0.8,1.6,4.4,2.6,5c1,0.6,2.1-0.3,2.2-1.2c0.2-2.8-3.1-13.7-0.9-14.2c2.3-0.4-0.7,6.1,4.6,8.6
			C73.2,248.4,74.7,247.2,72.5,243.5z"/>
		<g class="st2">
			<path class="st3" d="M112.5,133.7c0,0.9-0.7,1.6-1.6,1.6c-0.9,0-1.6-0.7-1.6-1.6c0-0.9,0.7-1.6,1.6-1.6
				C111.8,132.1,112.5,132.8,112.5,133.7z"/>
			<path class="st3" d="M112.5,150.4c0,0.9-0.7,1.6-1.6,1.6c-0.9,0-1.6-0.7-1.6-1.6c0-0.9,0.7-1.6,1.6-1.6
				C111.8,148.8,112.5,149.5,112.5,150.4z"/>
			<path class="st3" d="M112.4,183.9c0,0.9-0.7,1.6-1.6,1.6c-0.9,0-1.6-0.7-1.6-1.6c0-0.9,0.7-1.6,1.6-1.6
				C111.7,182.2,112.4,183,112.4,183.9z"/>
			<path class="st3" d="M112.5,167.1c0,0.9-0.7,1.6-1.6,1.6c-0.9,0-1.6-0.7-1.6-1.6c0-0.9,0.7-1.6,1.6-1.6
				C111.8,165.4,112.5,166.2,112.5,167.1z"/>
		</g>
		<path class="st28" d="M206.8,132.2c-0.2-0.2-0.6-0.2-0.8,0.1c-2.1,3-2.3,8.8-5.7,10.7c0.8-2.8,2.1-4.9,1.7-8
			c-0.3-2.2-1.2-4.2-3.4-4.8c-0.3-0.1-0.7,0.3-0.6,0.6c0.8,3.4,0.9,10.1-2,12.7c-1.2,1.1-0.4-1.8-0.3-2.3c0.3-1,0.5-2,0.6-3.1
			c0.1-1.9-1.1-3.1-2.7-3.8c-0.2-0.1-0.6,0-0.7,0.2c-0.6-0.5-1.6-0.9-2.4-0.9c-3.1-0.3-5.2,2.3-5.8,5c-0.4,2-0.1,4.2,0.1,6.3
			c0.3,3.4-0.6,5.8-2.2,8.7c-0.1,0.2-0.1,0.3,0,0.4c-1.9,4.4,5.8,8.2,8.3,3.7c0.1-0.1,0.1-0.2,0.1-0.3c2.8-1.7,5.1-4,7.2-6.7
			c1.7-2.1,3.5-3.9,5.4-5.9C206.2,142.1,212.1,135.4,206.8,132.2z M192.8,136.3c0,0.4,0,0.9,0,1.3c0.2,1.3-0.1,2.5-0.8,3.6
			c-0.3,0.2-0.5,0.5-0.8,0.7c-1.4,1-2.4,0.5-2.9-1.6c0.3-1.4,0.8-3.4,2.6-3.3c0.7,0,0.9-0.1,1.5-0.5
			C192.6,136.5,192.7,136.4,192.8,136.3z"/>
		<g class="st2">
			<g>
				<path class="st10" d="M136.6,82c0.1,8.9-9.4,16.1-15.7,19.4c-6.3,3.4-11.8,2.3-11.8,2.3c-25-5.7-23.2-17.6-24.6-27.4
					c-0.7-4.8-1.3-13.9,0.8-25.1c0.3-1.5,0.8-2.9,1.4-4.2c3.9-8.1,13-11.2,13-11.2c5.5-1.9,11.7-2.3,17.4-1.3
					c8.2,1.5,14.6,5.7,16.7,14.1c0.7,2.7,1,5.5,1.4,8.2c0.7,5.7,1.1,11.4,1.3,17.2C136.5,76.7,136.6,79.3,136.6,82z"/>
			</g>
			<path class="st12" d="M110.3,57.2c0,0-1.9-1.7-1.8,4.8c0.1,6.5,0.9,13.3,0.9,13.3s-4.5-2.2-2.8,1.3c0.9,1.9,2.8,2.8,4.8,3.2
				c1.7,0.3,2.9-0.3,3.9-1.5c0.5-0.5,3-3.4,2.1-4.2c-0.4-0.4-2.7,0.7-3.3,0.9C114.1,75,113.5,55.5,110.3,57.2z"/>
			<path class="st13" d="M117.8,52.6c0,0,11.3-2.3,14.9,6.1c0,0-12.7-3.8-15.1-1.9L117.8,52.6z"/>
			<path class="st13" d="M104.2,53.5c0,0-11.2-3-15.2,5.1c0,0,12.9-3,15.1-1L104.2,53.5z"/>
			<g>
				<path class="st3" d="M91.7,66.7c0.2,3.3,3.3,5.7,6.9,5.5c3.6-0.2,6.3-3.1,6.1-6.3c-0.2-3.3-3.3-5.7-6.9-5.5
					C94.2,60.7,91.4,63.5,91.7,66.7z"/>
				<g>
					<path class="st14" d="M102.5,65.8c0.2,2.9-1.5,5.3-3.7,5.5c-2.2,0.1-4.2-2.1-4.4-5c-0.2-2.9,1.5-5.3,3.7-5.5
						C100.4,60.7,102.3,62.9,102.5,65.8z"/>
					<path class="st13" d="M101.4,65.9c0.1,2-1,3.8-2.6,3.9c-1.6,0.1-3-1.5-3.1-3.5c-0.1-2,1-3.8,2.6-3.9
						C99.8,62.3,101.2,63.8,101.4,65.9z"/>
					<path class="st3" d="M101.3,62.4c0,0.6-0.6,1.1-1.4,1.1c-0.8,0.1-1.5-0.4-1.6-0.9c0-0.6,0.6-1.1,1.4-1.1
						C100.6,61.4,101.3,61.8,101.3,62.4z"/>
				</g>
			</g>
			<g>
				<path class="st3" d="M117.7,66c0.2,3.3,3.3,5.8,6.9,5.5c3.6-0.2,6.3-3.1,6.1-6.4c-0.2-3.3-3.3-5.8-6.9-5.5
					C120.2,59.9,117.5,62.7,117.7,66z"/>
				<g>
					<path class="st14" d="M127.7,65.1c0.2,2.9-1.5,5.3-3.7,5.5c-2.2,0.2-4.2-2.1-4.4-5c-0.2-2.9,1.5-5.3,3.7-5.5
						C125.5,60,127.5,62.3,127.7,65.1z"/>
					<path class="st13" d="M126.5,65.2c0.1,2-1,3.8-2.6,3.9c-1.6,0.1-3-1.5-3.1-3.5c-0.1-2,1-3.8,2.6-3.9
						C125,61.6,126.4,63.2,126.5,65.2z"/>
					<path class="st3" d="M126.4,61.7c0,0.6-0.6,1.1-1.4,1.1c-0.8,0.1-1.5-0.4-1.6-0.9c0-0.6,0.6-1.1,1.4-1.1
						C125.7,60.7,126.4,61.1,126.4,61.7z"/>
				</g>
			</g>
			<g>
				<path class="st15" d="M125.4,81.5c0,0-1,3-2.8,6.3c-0.9,1.7-2.1,3.4-3.4,4.9c-3.4,3.7-8.1,5.7-13.8,0.4c-1.9-1.8-3.9-4.4-6-7.9
					c-0.8-1.4-1.6-2.9-2.4-4.6C96.9,80.6,121.5,84.9,125.4,81.5z"/>
				<path class="st3" d="M125.4,81.5c0,0-1,3-2.8,6.3c-7.6,2.7-17.5-0.4-23.2-2.7c-0.8-1.4-1.6-2.9-2.4-4.6
					C96.9,80.6,121.5,84.9,125.4,81.5z"/>
				<path class="st16" d="M119.1,92.7c-3.4,3.7-8.1,5.7-13.8,0.4C108.2,91.6,113.2,89.7,119.1,92.7z"/>
			</g>
			<path class="st17" d="M144.8,30.4c-1.5,2.1-3.9,4-6.5,4.6c2.1-2.3,4.2-5.3,3.8-8.5c0-0.1-0.2-0.3-0.3-0.2
				c-0.4,0.2-0.8,0.6-1.1,0.9c-1.9,1.8-5.1,1.7-7.5,0.9c-4.1-1.5-7.5-4.3-11.1-6.5c-4-2.4-8.5-3.8-13.2-3.6
				c-2.5,0.1-5.1,0.6-7.5,1.5c-5.9,2.1-12.8,6.3-14.4,12.8c-0.2,0.9-0.3,1.8-0.3,2.7c0,0.6,0.5,2.3,0.3,2.8
				c-0.1,0.2,0.1,0.5,0.3,0.3c0.1,0,0.2,0,0.2-0.1c0-0.1,0.1-0.2,0.1-0.2c2.8-2.2,7.4,6.5,9.1,7.9c6.4,5.4,15.7,6.1,23.3,4
				c8.6-2.3,18.1-8.3,23-15.5c0.8-1.2,1.6-2.4,2.2-3.7C145.3,30.4,144.9,30.2,144.8,30.4z"/>
			<g>
				<g>
					<path class="st11" d="M135.5,63.4c0,0,5.5-12.4,10-2.6c3.6,7.7-2.4,15.3-7.2,14.8C133.5,75.1,135.5,63.4,135.5,63.4z"/>
					<path class="st9" d="M135.9,65.3c0,0,4-7.9,6.2-5.1c2.1,2.8,2.1,6.8,2.1,6.8s-1.5-4.1-4.4-1.4c0,0,3.9,6.5-2.6,5.1
						C137,70.7,134.2,68.9,135.9,65.3z"/>
				</g>
			</g>
			<path class="st17" d="M93.3,37.3c0,0,0.6,10.1-3.6,15c-4.2,4.9-4.6,14.9-4.6,14.9s-15.4-19.6,2.1-31.1
				C87.3,36.1,90.8,34.7,93.3,37.3z"/>
			<path class="st17" d="M127.2,41.3c0,0,7.1,9.5,8.6,23.1c0,0,10-14.9,0.5-27.5C136.3,36.8,125.8,32.4,127.2,41.3z"/>
			<g>
				<g>
					<path class="st11" d="M85.5,65.3c0,0-5.5-12.4-10-2.6c-3.6,7.7,2.4,15.3,7.2,14.8C87.6,76.9,85.5,65.3,85.5,65.3z"/>
					<path class="st9" d="M85.2,67.2c0,0-4-7.9-6.2-5.1c-2.1,2.8-2.1,6.8-2.1,6.8s1.5-4.1,4.4-1.4c0,0-3.9,6.5,2.6,5.1
						C84,72.6,86.9,70.8,85.2,67.2z"/>
				</g>
			</g>
			<g>
				<g>
					<path class="st29" d="M102.1,59.4c-2.3-0.4-4.6-0.4-6.7-0.4c-1.4,2.3-2.6,4.6-3.6,7.1c-0.7,1.8-1.4,3.7-1.8,5.6
						c2.1,1.9,4.9,2.5,7.6,2.6C98.7,69.3,99.4,63.7,102.1,59.4z"/>
					<path class="st29" d="M130.6,58.9c-2.3-0.1-4.6,0-6.7,0.3c-1.1,2.4-2.2,4.9-2.9,7.4c-0.6,1.8-1.1,3.8-1.3,5.8
						c2.3,1.7,5.1,2.1,7.8,1.8C128.1,69,128.3,63.4,130.6,58.9z"/>
				</g>
				<path class="st19" d="M136.2,69.1c2.2-6.5,1.6-9.3,1.5-9.6l-0.1-0.5l-0.5-0.2c-0.4-0.2-9.9-3.9-20.1,0.8
					c-1.1,0.5-2.2,1.1-3.1,1.7l0-0.2l-3.8,0.1l-0.1-0.2l-0.5-0.3c-1.1-0.6-2.3-1.1-3.4-1.6c-10.5-4-19.8,0.3-20.2,0.5L85.3,60
					l-0.1,0.5c-0.1,0.3-0.5,3.1,2.1,9.5c1,2.3,2.7,4,5.3,4.9c3.1,1.2,6.3,0.9,6.5,0.9c7.4-0.8,8.7-4.4,9.6-6.8
					c0-0.1,0.1-0.3,0.1-0.4c0.6-1.6,0.9-3.1,1.1-4.2c0.7-0.3,1.8-0.5,3.3,0.1c0.2,1.2,0.6,2.8,1.4,4.6c0.1,0.1,0.1,0.2,0.2,0.4
					c1,2.3,2.6,5.8,10,6.1c0.1,0,3.3,0.1,6.4-1.3C133.7,73.2,135.4,71.5,136.2,69.1z M98.8,73.6c0,0-2.8,0.2-5.5-0.7
					c-2-0.7-3.3-2-4.1-3.7c-1.7-4.2-2-6.7-2-7.7c2.1-0.8,9.7-3.3,17.9-0.2c0.9,0.3,1.7,0.7,2.6,1.2c0,0.9-0.1,2.9-1.1,5.5
					c0,0.1-0.1,0.3-0.1,0.4C105.8,70.5,104.9,73,98.8,73.6z M130.3,72.4c-2.6,1.2-5.4,1.1-5.4,1.1c-6.1-0.3-7.1-2.7-8.1-4.8
					c-0.1-0.1-0.1-0.3-0.2-0.4c-1.1-2.5-1.4-4.5-1.4-5.4c0.8-0.5,1.7-0.9,2.5-1.3c8-3.6,15.7-1.6,17.9-0.9c0.1,1,0,3.5-1.5,7.8
					C133.5,70.1,132.2,71.5,130.3,72.4z"/>
			</g>
		</g>
		<g class="st2">
			<path class="st20" d="M99.6,106.6l-8.9,9.3l7.5,19.6l12.6-10.7C110.8,124.8,101,114.5,99.6,106.6z"/>
			<path class="st20" d="M122,106.6l8.9,9.3l-7.5,19.6l-12.6-10.7C110.8,124.8,120.6,114.5,122,106.6z"/>
		</g>
		<path class="st25" d="M75.3,117.8c0,0-24.3,22.9-20.1,113.9l15.4-0.5l7.9-77C78.6,154.2,80.9,129.5,75.3,117.8z"/>
		<path class="st25" d="M142.1,151.4c0,0,2.8,34.5,18.2,48.1c0,0,26.1-16.8,33.6-41.5l-11.7-7.9l-16.8,17.7c0,0-7.5-42-17.3-50.9
			C148.1,116.9,141.1,147.2,142.1,151.4z"/>
		<g class="st2">
			<path class="st4" d="M142.1,370h-21.6l-7.7-131.7c-0.7,0-1.5-0.1-2.2-0.2l-6.2,132.6H82.8c-0.3-51.3,2.7-170.8,2.3-172.2
				l46.2,0.4v0l6.1,0.1c0.4,2,0.8,4.7,1.2,7.6C142.9,245.1,142.2,354.6,142.1,370z"/>
			<path class="st21" d="M138.5,206.5l-6.5,0.1c-0.1-2.5-0.3-5.1-0.6-7.6l6,0.1C137.8,201,138.2,203.5,138.5,206.5z"/>
			<path class="st21" d="M125.9,198.9l-26.7-0.2c0.1,2.8,0.2,5.7,0.2,8.5l26.9-0.5C125.9,204.2,125.9,201.5,125.9,198.9z"/>
			<path class="st21" d="M92.8,198.6l-7.7-0.1v8.9l8.4-0.1C92.8,204.7,92.7,201.5,92.8,198.6z"/>
			<rect x="105.2" y="198.6" class="st22" width="13.3" height="8.7"/>
		</g>
	</g>
</g>
<g class="st0">
	<path class="st25" d="M146.4,121.5c0,0,37.3,54.4,31,69.2c-6.3,14.7-17.7,7.6-17.7,7.6l-22.3-51.8
		C137.4,146.4,141.9,124.7,146.4,121.5z"/>
	<g class="st2">
		<g>
			<path class="st8" d="M146.4,121.5c0,0-37.8-7.1-73.6-0.9c0,0,8,68.4,10.9,83.1c0,0,28.3,7.1,52.9-0.5
				C136.5,203.1,146.9,134.7,146.4,121.5z"/>
			<path class="st9" d="M98.2,117.1c0,6.3,6.9,11.4,13.1,11.4l0,0c6.3,0,13.1-5.1,13.1-11.4v-14.4c0-6.3-6.9-11.4-13.1-11.4l0,0
				c-6.3,0-13.1,5.1-13.1,11.4V117.1z"/>
			<g>
				<path class="st3" d="M108.8,137.5c0,0.9,0.7,1.6,1.6,1.6c0.9,0,1.6-0.7,1.6-1.6s-0.7-1.6-1.6-1.6
					C109.5,135.9,108.8,136.6,108.8,137.5z"/>
				<path class="st3" d="M108.8,154.4c0,0.9,0.7,1.6,1.6,1.6c0.9,0,1.6-0.7,1.6-1.6c0-0.9-0.7-1.6-1.6-1.6
					C109.5,152.8,108.8,153.5,108.8,154.4z"/>
				<path class="st3" d="M108.9,188.3c0,0.9,0.7,1.6,1.6,1.6c0.9,0,1.6-0.7,1.6-1.6c0-0.9-0.7-1.6-1.6-1.6
					C109.7,186.7,108.9,187.4,108.9,188.3z"/>
				<path class="st3" d="M108.8,171.3c0,0.9,0.7,1.6,1.6,1.6c0.9,0,1.6-0.7,1.6-1.6c0-0.9-0.7-1.6-1.6-1.6
					C109.5,169.7,108.8,170.4,108.8,171.3z"/>
			</g>
			<g>
				<path class="st20" d="M121.9,110.1l9,9.4l-7.6,19.8l-12.7-10.9C110.5,128.5,120.5,118.2,121.9,110.1z"/>
				<path class="st20" d="M99.2,110.1l-9,9.4l7.6,19.8l12.7-10.9C110.5,128.5,100.6,118.2,99.2,110.1z"/>
			</g>
		</g>
		<g>
			<g>
				<path class="st10" d="M137.2,85.2c0.1,9-9.5,16.3-15.9,19.7c-6.4,3.4-11.9,2.3-11.9,2.3c-25.3-5.8-23.5-17.8-24.9-27.7
					c-0.7-4.9-1.4-14.1,0.8-25.4c0.3-1.5,0.8-2.9,1.4-4.2c3.9-8.2,13.2-11.3,13.2-11.3c5.5-1.9,11.8-2.4,17.6-1.3
					c8.3,1.5,14.8,5.8,16.9,14.3c0.7,2.7,1,5.5,1.4,8.3c0.7,5.8,1.1,11.6,1.3,17.3C137.1,79.9,137.2,82.6,137.2,85.2z"/>
			</g>
			<path class="st12" d="M110.6,60.1c0,0-1.9-1.7-1.9,4.9c0.1,6.6,0.9,13.5,0.9,13.5s-4.5-2.3-2.8,1.3c0.9,1.9,2.8,2.8,4.8,3.2
				c1.7,0.3,2.9-0.3,4-1.5c0.5-0.5,3-3.5,2.1-4.3c-0.4-0.4-2.7,0.8-3.3,0.9C114.4,78.2,113.8,58.5,110.6,60.1z"/>
			<path class="st13" d="M118.2,55.5c0,0,11.4-2.3,15.1,6.1c0,0-12.8-3.8-15.2-1.9L118.2,55.5z"/>
			<path class="st13" d="M104.4,56.5c0,0-11.3-3-15.4,5.2c0,0,13-3,15.3-1L104.4,56.5z"/>
			<g>
				<path class="st3" d="M129.3,74.4c-1.1,1-2.5,1.6-4.1,1.7c-0.7,0.1-1.4,0-2.1-0.2c-2.7-0.7-4.7-2.9-4.9-5.7
					c-0.2-3.5,2.5-6.6,6.2-6.8c3.6-0.2,6.8,2.4,7,5.9C131.4,71.3,130.6,73.2,129.3,74.4z"/>
				<g>
					<path class="st14" d="M129.8,72.2c-0.1,0.8-0.3,1.6-0.6,2.3c-1.1,1-2.5,1.6-4.1,1.7c-0.7,0.1-1.4,0-2.1-0.2
						c-1-1-1.6-2.7-1.4-4.5c0.2-2.9,2.3-5.1,4.5-5c0.8,0.1,1.5,0.4,2.1,0.9c0.3,0.3,0.6,0.7,0.9,1.1
						C129.7,69.6,129.9,70.9,129.8,72.2z"/>
					<path class="st13" d="M128.7,72.1c-0.2,2.1-1.6,3.7-3.2,3.5c-1.6-0.1-2.8-1.9-2.6-4c0.2-2.1,1.6-3.6,3.2-3.5
						C127.6,68.2,128.8,70,128.7,72.1z"/>
					<path class="st3" d="M129.1,68.5c0,0.6-0.8,1-1.6,0.9c-0.8-0.1-1.5-0.6-1.4-1.1c0-0.6,0.8-1,1.6-0.9
						C128.5,67.5,129.2,68,129.1,68.5z"/>
				</g>
			</g>
			<g>
				<path class="st3" d="M103.2,74.4c-1.1,1-2.5,1.6-4.1,1.7c-0.7,0.1-1.4,0-2.1-0.2c-2.7-0.7-4.7-2.9-4.9-5.7
					c-0.2-3.5,2.5-6.6,6.2-6.8c3.6-0.2,6.8,2.4,7,5.9C105.4,71.3,104.5,73.2,103.2,74.4z"/>
				<g>
					<path class="st14" d="M103.8,72.2c-0.1,0.8-0.3,1.6-0.6,2.3c-1.1,1-2.5,1.6-4.1,1.7c-0.7,0.1-1.4,0-2.1-0.2
						c-1-1-1.6-2.7-1.4-4.5c0.2-2.9,2.3-5.1,4.5-5c0.8,0.1,1.5,0.4,2.1,0.9c0.3,0.3,0.6,0.7,0.9,1.1
						C103.6,69.6,103.9,70.9,103.8,72.2z"/>
					<path class="st13" d="M102.6,72.1c-0.2,2.1-1.6,3.7-3.2,3.5c-1.6-0.1-2.8-1.9-2.6-4c0.2-2.1,1.6-3.6,3.2-3.5
						C101.6,68.2,102.7,70,102.6,72.1z"/>
					<path class="st3" d="M103,68.5c0,0.6-0.8,1-1.6,0.9c-0.8-0.1-1.5-0.6-1.4-1.1c0-0.6,0.8-1,1.6-0.9
						C102.4,67.5,103.1,68,103,68.5z"/>
				</g>
			</g>
			<path class="st17" d="M145.5,34.6c-1.5,2.1-4,4.1-6.6,4.7c2.2-2.3,4.2-5.3,3.9-8.6c0-0.1-0.2-0.3-0.3-0.2
				c-0.4,0.2-0.8,0.6-1.2,0.9c-2,1.8-5.2,1.7-7.5,0.9c-4.1-1.5-7.5-4.4-11.3-6.6c-4.1-2.5-8.6-3.9-13.4-3.7
				c-2.6,0.1-5.1,0.7-7.5,1.5c-5.9,2.2-13,6.4-14.6,13c-0.2,0.9-0.3,1.8-0.3,2.8c0,0.6,0.5,2.3,0.3,2.8c-0.1,0.2,0.1,0.5,0.3,0.3
				c0.1,0,0.2,0,0.2-0.1c0-0.1,0.1-0.2,0.1-0.2c2.8-2.3,7.5,6.6,9.2,8c6.5,5.4,15.9,6.2,23.6,4.1c8.7-2.4,18.3-8.4,23.3-15.6
				c0.8-1.2,1.6-2.4,2.2-3.7C146,34.6,145.6,34.4,145.5,34.6z"/>
			<g>
				<g>
					<path class="st11" d="M136.1,66.5c0,0,5.5-12.5,10.1-2.7c3.6,7.8-2.4,15.5-7.3,15C134,78.3,136.1,66.5,136.1,66.5z"/>
					<path class="st9" d="M136.5,68.4c0,0,4.1-8,6.2-5.1c2.1,2.9,2.1,6.8,2.1,6.8s-1.5-4.2-4.5-1.4c0,0,4,6.5-2.7,5.2
						C137.6,73.8,134.8,72,136.5,68.4z"/>
				</g>
			</g>
			<path class="st17" d="M93.4,40.1c0,0,0.6,10.2-3.6,15.2c-4.2,5-4.6,15.1-4.6,15.1s-15.6-19.9,2.1-31.4
				C87.3,38.9,90.8,37.5,93.4,40.1z"/>
			<path class="st17" d="M127.7,44.1c0,0,7.2,9.6,8.7,23.4c0,0,10.1-15.1,0.5-27.8C136.9,39.6,126.2,35.1,127.7,44.1z"/>
			<g>
				<g>
					<path class="st11" d="M85.5,68.4c0,0-5.5-12.5-10.1-2.7c-3.6,7.8,2.4,15.5,7.3,15C87.6,80.1,85.5,68.4,85.5,68.4z"/>
					<path class="st9" d="M85.2,70.3c0,0-4.1-8-6.2-5.1C76.8,68,76.8,72,76.8,72s1.5-4.2,4.5-1.4c0,0-4,6.5,2.7,5.2
						C84,75.7,86.9,73.9,85.2,70.3z"/>
				</g>
			</g>
			<g>
				<g>
					<path class="st29" d="M101.6,65.1c-2.3-0.4-4.6-0.4-6.8-0.4c-1.4,2.3-2.7,4.7-3.7,7.2c-0.7,1.8-1.4,3.7-1.8,5.7
						c2.1,2,4.9,2.6,7.7,2.6C98.1,75.1,98.8,69.4,101.6,65.1z"/>
					<path class="st29" d="M130.4,64.6c-2.3-0.1-4.6,0-6.8,0.3c-1.2,2.4-2.2,4.9-3,7.5c-0.6,1.8-1.1,3.8-1.3,5.8
						c2.3,1.7,5.2,2.1,7.9,1.8C127.9,74.8,128.1,69.1,130.4,64.6z"/>
				</g>
				<path class="st19" d="M136.1,73.5c2.2-6.6,1.6-9.4,1.5-9.7l-0.1-0.5l-0.5-0.2c-0.4-0.2-10-3.9-20.4,0.8
					c-1.1,0.5-2.2,1.1-3.2,1.8l0-0.2l-3.8,0.1l-0.1-0.2l-0.5-0.3c-1.1-0.6-2.3-1.2-3.5-1.6c-10.6-4-20.1,0.4-20.5,0.5l-0.5,0.2
					l-0.1,0.5c-0.1,0.3-0.5,3.2,2.1,9.6c1,2.3,2.8,4,5.4,5c3.2,1.2,6.4,0.9,6.5,0.9c7.5-0.8,8.8-4.4,9.7-6.8c0-0.1,0.1-0.3,0.1-0.4
					c0.6-1.7,0.9-3.1,1.1-4.3c0.7-0.3,1.8-0.5,3.4,0.1c0.2,1.2,0.6,2.8,1.5,4.7c0.1,0.1,0.1,0.3,0.2,0.4c1,2.3,2.6,5.9,10.1,6.2
					c0.2,0,3.4,0.1,6.5-1.3C133.6,77.6,135.3,75.8,136.1,73.5z M98.3,78c0,0-2.9,0.2-5.5-0.8c-2-0.8-3.4-2-4.1-3.8
					c-1.8-4.3-2-6.8-2-7.8c2.1-0.8,9.8-3.4,18.1-0.2c0.9,0.3,1.8,0.7,2.6,1.2c0,0.9-0.1,2.9-1.1,5.5c0,0.1-0.1,0.3-0.2,0.4
					C105.3,74.9,104.4,77.4,98.3,78z M130.1,76.8c-2.6,1.2-5.4,1.1-5.5,1.1c-6.1-0.3-7.2-2.7-8.2-4.9c-0.1-0.1-0.1-0.3-0.2-0.4
					c-1.1-2.5-1.4-4.5-1.4-5.4c0.8-0.5,1.7-0.9,2.5-1.3c8.1-3.7,15.9-1.6,18.1-0.9c0,1,0,3.5-1.5,7.9
					C133.4,74.5,132.1,75.9,130.1,76.8z"/>
			</g>
			<path class="st16" d="M104.2,87.5c0,0,11.6,16,18.1-1.7C122.3,85.9,117.3,96,104.2,87.5z"/>
		</g>
	</g>
	<g class="st2">
		<g>
			<g>
				<g>
					<g>
						<path class="st4" d="M76.1,392.4l25-2.8c-1.2-1.9-1.8-7.3-2.1-11.6c-0.4-5.9-0.3-13-0.3-13s-16.5-4-16.5,0c0,4-0.9,8.6-2.1,13
							C78.4,384.7,76.1,392.4,76.1,392.4z"/>
						<path class="st4" d="M75.6,394.1c0,0.1,0-0.3,0-0.2c0.1,1.4,0.4,1.3,1,3.3h26.3c0.6-2,1-2,1-3.3c0-0.1,0,0,0-0.1
							c0-6.3-6.3-11.2-14.2-11.2C82,382.7,75.6,387.9,75.6,394.1z"/>
					</g>
					<path class="st5" d="M99,379.1c-0.4-6.1-0.3-14.1-0.3-14.1s-16.5-4-16.5,0c0,4-0.9,8.1-2.1,14.1H99z"/>
				</g>
				<path class="st6" d="M75.6,394.2c0.1,0,0.4,2,1,2h26.3c0.6,0,1-2,1-2H75.6z"/>
			</g>
			<path class="st7" d="M85,384.7c2-2.7,6.6-1.8,8.8,0.1c0.3,0.3,0,0.7-0.4,0.7c-1.4-0.2-2.5-1-3.9-1c-1.5-0.1-2.7,0.8-4.1,1
				C85.1,385.4,84.8,385,85,384.7z"/>
			<path class="st7" d="M85.8,387.5c2.2-1.5,6.5-2,8.4,0.2c0.3,0.3,0,0.8-0.4,0.7c-1.3-0.4-2.8-0.5-4.1-0.5c-1.3,0-2.4,1-3.8,0.6
				C85.5,388.4,85.5,387.8,85.8,387.5z"/>
		</g>
		<g>
			<g>
				<g>
					<path class="st4" d="M118.5,393.8c0.2,1.5,0.4,2.7,0.7,3.6c0,0,39.9,1.7,42.7,0.5c0.4-0.2,0.3-0.6-0.2-1.2
						c-0.1-0.4-0.3-0.9-0.5-1.5c-1.4-3.4-5.3-8.7-16-8c-1.9-1-3.5-1.7-4.4-2.2c-1.4-0.7-2.4-2.6-3.1-4.9c-1.6-5-1.9-12-1.6-13.4
						l-16.9,0.2c0,0-0.6,6.2-0.9,13.2C118.1,384.9,118,390.2,118.5,393.8z"/>
					<path class="st5" d="M137.7,381.1c-1.6-8.1-1.9-12.5-1.6-13.9l-16.9,0.5c0,0-0.6,5.4-0.9,13.4H137.7z"/>
				</g>
				<path class="st6" d="M118.5,393.8c0.2,1.5,0.4,2.7,0.7,3.6c0,0,39.9,1.7,42.7,0.5c0.4-0.2,0.3-0.6-0.2-1.2
					c-0.1-0.4-0.3-0.9-0.5-1.5C154.2,395.3,129.2,395.3,118.5,393.8z"/>
			</g>
			<path class="st7" d="M141,388.1c0.6-1.9,3.7-2.7,5.5-1.5c0.2,0.1,0.2,0.3,0,0.5c-0.7,0.4-1.6,0.2-2.4,0.3
				c-0.9,0.2-1.2,0.9-1.9,1.3C141.6,389.1,140.7,388.8,141,388.1z"/>
			<path class="st7" d="M135.1,385.7c0.5-1.3,2.1-2.3,3.6-2.4c1.1-0.1,3.4,0.3,3.1,1.6c0,0.1-0.2,0.2-0.3,0.2
				c-0.7,0.1-1.3-0.4-2-0.4c-0.8,0-1.6,0.5-2.2,1c-0.5,0.5-0.7,1-1.5,1.1C135.2,386.9,135,386,135.1,385.7z"/>
		</g>
		<g>
			<path class="st4" d="M138.9,378.7H117l-6.3-134.2c-0.7,0.1-1.4,0.2-2.2,0.2l-7.8,133.1H78.9c-0.1-16.8-1-143.6,4.7-172.7
				l52.9-0.5C136,206,139.2,326.3,138.9,378.7z"/>
			<path class="st21" d="M89.3,212.7l-6.1-0.1l0.5-7.6l6.1-0.1C89.5,207.6,89.3,210.1,89.3,212.7z"/>
			<path class="st21" d="M95.2,205l27-0.2c-0.1,2.9-0.2,5.7-0.2,8.6l-27.2-0.5C95.3,210.4,95.3,207.6,95.2,205z"/>
			<path class="st21" d="M128.7,204.7l7.8-0.1v9l-8.5-0.2C128.7,210.8,128.8,207.6,128.7,204.7z"/>
			<rect x="100.2" y="199.5" class="st22" width="16.1" height="12.1"/>
		</g>
	</g>
	<g class="st2">
		<g>
			<g>
				<polygon class="st30" points="103.9,150.3 105.8,149.3 108.4,148 111.9,155 112.6,156.3 129.3,188.9 126.2,190.5 124.9,191.2 
					108.1,158.5 107.5,157.3 				"/>
				<polygon class="st31" points="124.9,191.2 126.2,190.5 129.3,188.9 129.8,192.1 130.3,195.9 127.8,193.7 127.3,193.3 				"/>
				<path class="st30" d="M127.3,193.3c0.1,0,0.1-0.1,0.2-0.1c0.7-0.3,1.5-0.7,2.3-1l0.6,3.7l-2.6-2.2L127.3,193.3z"/>
			</g>
		</g>
		<path class="st20" d="M72.8,120.7c0,0-33.8,39.6-34.3,55.6c-0.4,16,47.1,21,68.2,15.6l-0.8-14.7c0,0-40.8-6.3-40.8-8.4
			c0-2.1,15.1-19.4,14.3-25.7C78.5,136.8,72.8,120.7,72.8,120.7z"/>
		<path class="st11" d="M126.4,181.6c-0.2-0.8-0.6-1.5-1.1-2.1c0-0.1,0-0.1,0-0.2c-0.2-4.7-2.7-9-8-8.4c-2.3,0.3-4.3,2.2-6,3.7
			c-2.8,2.5-5.6,5.1-8.3,7.7c-4.4,1.9-3.1,8.1,2,9.7c3.5,1.1,6.9,0.7,10.3-0.6c4.7-1.8,8.4-5.3,13.7-4.7c0.5,0.1,1.1-0.5,1-1
			C129.7,183.1,128.3,181.8,126.4,181.6z"/>
	</g>
	<g class="st2">
		<g>
			<path class="st32" d="M151.9,142.5c0,0-12.6-4.3-20.6,21l38.7,2.9l3.8-18.1C173.8,148.3,164.1,140,151.9,142.5z"/>
			<g>
				<g>
					<path class="st33" d="M169.6,163.8l-34.7-0.4c0.6-1.4,0.9-1.2,1.5-1.7c2.6-2.1,7-2.9,12.2-3.2c1.8-0.1,3.6-0.1,5.5-0.1
						c1.9,0,3.6,0.1,5.3,0.2c5,0.4,8.7,1.4,9.9,3.5C169.5,162.6,169.9,162.5,169.6,163.8z"/>
					<path class="st33" d="M161,152.4c-1.6,0-2.5-1.2-2.4-2.3l-3.3-0.1c-0.6,1.1-2.3,2.2-3.9,2.1c-0.2,0,0.2-0.1-0.6-0.2l-3.9,11.6
						l10.9,0.1l4-11.5C161.7,152.2,161.2,152.4,161,152.4z M156.1,152.5c1.2,0,2,0.9,1.6,2c-0.4,1.1-1.7,1.9-2.9,1.9
						c-1.2,0-2-0.9-1.6-2C153.6,153.3,154.9,152.4,156.1,152.5z"/>
					<path class="st34" d="M169.6,163.8l-34.7-0.4c0.6-1.4,1-1.4,1.4-1.4l32.9,0.4C169.5,162.5,169.9,162.5,169.6,163.8z"/>
				</g>
				<path class="st35" d="M159,216.6c-0.3,1-1.3,1.8-2.4,1.9l-45.1,2.1c-1,0-1.6-0.8-1.3-1.8l16.9-57.7c0.3-1,1.4-1.9,2.5-1.9
					l47.5,0.8c1.1,0,1.5,0.9,1.2,1.9L159,216.6z"/>
			</g>
			<path class="st36" d="M194.4,159.7l-32,2.1c0,0-2.9-13.8-10.5-19.3c-0.5-0.4-1.1-0.6-1.7-0.7c18.1-1.1,34.7-2.4,37.8-0.4
				C192.7,144.3,194.4,159.7,194.4,159.7z"/>
		</g>
		<path class="st10" d="M172.1,183.9c-0.7-1-1.7-1.8-3.2-2.4c-1.4-0.5-3-0.8-4.2,0.2c-3.1,2.4,1.2,2.8,2.9,3.7
			c-2.5-0.7-8.3-0.2-9.1,2.7c-1,3.4,4,6.3,6.2,7.7c-9.3,0.2-2,7.2,2.6,3C171,195.5,175.1,188.2,172.1,183.9z"/>
	</g>
</g>
<g class="st0">
	<path class="st28" d="M44.7,26.9c-4.1-2.3-6.5-0.4-8.7,2.5c0.3-2.1,0.6-4.3,1-6.4c0.3-1.5,0.8-2.9-0.1-4.3
		c-1.2-1.8-2.9-0.5-4.1,1.1c-0.2-1.4-0.9-2.6-2.5-2.8c-1.4-0.2-2.3,1.3-3,2.8c-0.3-1.8-1-3.7-2.9-3.7c-1.8,0-2.4,1.9-2.8,3.5
		c-2.2-2.1-4.6,0.6-5.4,3.6c-1.7,6.4,1.8,11.5,3.7,17.3c-0.1,0.1-0.2,0.2-0.2,0.3c0.1,1,0.4,1.8,0.9,2.5c0,0.1,0,0.1,0,0.2
		c0,0.2,0.2,0.2,0.3,0.2c1.3,1.4,3.5,1.9,5.4,1.2c1.8-0.7,4.9,6.8,5.1-0.4c2.1-0.8,3.9-4.4,5.4-6.8c2.3-3.6,3.3-7.7,7.8-9.3
		C45.1,28,45.3,27.2,44.7,26.9z"/>
	<g class="st2">
		<g>
			<g>
				<g>
					<path class="st4" d="M146,392.5l-25.1-2.8c1.2-1.9,1.8-6.7,2.1-11c0.4-5.9,0.3-12.4,0.3-12.4s16.6-2,16.6,0c0,2,0.9,8,2.1,12.4
						C143.7,385.5,146,392.5,146,392.5z"/>
					<path class="st4" d="M146.5,394.2c0,0.1,0-0.7,0-0.6c-0.1,1.4-0.4,0.9-1,3h-26.3c-0.6-2-1-1.6-1-3c0-0.1,0,0.2,0,0.1
						c0-6.3,6.4-11.1,14.2-11.1C140.1,382.7,146.5,388,146.5,394.2z"/>
				</g>
				<path class="st5" d="M123,380.5c0.4-8.1,0.3-14.2,0.3-14.2s16.6-2,16.6,0c0,2,0.9,6.1,2.1,14.2H123z"/>
			</g>
			<path class="st6" d="M146.4,391.6c-0.1,0-0.4,2-1,4h-26.3c-0.6-2-1-4-1-4H146.4z"/>
		</g>
		<path class="st7" d="M137,384.8c-2-2.7-6.6-1.8-8.8,0.1c-0.3,0.3,0,0.7,0.4,0.7c1.4-0.2,2.5-1,3.9-1c1.5-0.1,2.7,0.9,4.2,1
			C137,385.5,137.2,385.1,137,384.8z"/>
		<path class="st7" d="M136.2,387.6c-2.2-1.5-6.5-2-8.4,0.2c-0.3,0.3,0,0.8,0.4,0.7c1.3-0.4,2.8-0.5,4.1-0.5c1.3,0,2.4,1,3.8,0.6
			C136.6,388.5,136.6,387.9,136.2,387.6z"/>
	</g>
	<g class="st2">
		<g>
			<g>
				<path class="st4" d="M103.5,394c-0.2,1.5-0.4,2.8-0.7,3.6c0,0-40,1.7-42.8,0.5c-0.5-0.2-0.3-0.6,0.2-1.2c0.1-0.4,0.3-1,0.5-1.5
					c1.4-3.4,5.3-8.7,16-8c1.9-1,3.5-1.8,4.4-2.2c1.4-0.7,2.4-2.6,3.1-4.9c1.6-5,1.9-12,1.6-13.4l17,0.2c0,0,0.6,6.2,0.9,13.2
					C103.9,385.1,103.9,390.3,103.5,394z"/>
				<path class="st5" d="M84.2,380.5c1.6-8.1,1.9-12.1,1.6-13.6l17,0.3c0,0,0.6,5.2,0.9,13.3H84.2z"/>
			</g>
			<path class="st6" d="M103.5,394c-0.2,1.5-0.4,2.8-0.7,3.6c0,0-40,1.7-42.8,0.5c-0.5-0.2-0.3-0.6,0.2-1.2c0.1-0.4,0.3-1,0.5-1.5
				C67.7,395.4,92.8,395.4,103.5,394z"/>
		</g>
		<path class="st7" d="M81,388.2c-0.6-1.9-3.7-2.7-5.5-1.5c-0.2,0.1-0.2,0.3,0,0.5c0.7,0.4,1.6,0.2,2.4,0.3c0.9,0.2,1.2,0.9,1.9,1.3
			C80.3,389.2,81.2,388.9,81,388.2z"/>
		<path class="st7" d="M86.8,385.8c-0.5-1.3-2.1-2.3-3.6-2.4c-1.1-0.1-3.4,0.3-3.1,1.6c0,0.1,0.2,0.2,0.3,0.2c0.7,0,1.3-0.4,2-0.4
			c0.8,0,1.6,0.5,2.2,1c0.5,0.5,0.7,1,1.5,1.1C86.7,387,87,386.1,86.8,385.8z"/>
	</g>
	<path class="st25" d="M75.5,121c0,0,37.8-7.1,73.8-0.9c0,0-8,68.6-10.9,83.3c0,0-28.4,7.1-53-0.5C85.4,202.8,75,134.2,75.5,121z"/>
	<path class="st26" d="M124,116.6c0,6.3-4.9,11.4-11.1,11.4l0,0c-6.3,0-11.1-5.1-11.1-11.4v-14.5c0-6.3,4.9-11.4,11.1-11.4l0,0
		c6.3,0,11.1,5.1,11.1,11.4V116.6z"/>
	<g class="st2">
		<path class="st3" d="M113.2,137.1c0,0.9-0.7,1.6-1.6,1.6c-0.9,0-1.6-0.7-1.6-1.6c0-0.9,0.7-1.6,1.6-1.6
			C112.5,135.4,113.2,136.2,113.2,137.1z"/>
		<path class="st3" d="M113.2,154c0,0.9-0.7,1.6-1.6,1.6c-0.9,0-1.6-0.7-1.6-1.6s0.7-1.6,1.6-1.6C112.5,152.4,113.2,153.1,113.2,154
			z"/>
		<path class="st3" d="M113.1,187.9c0,0.9-0.7,1.6-1.6,1.6c-0.9,0-1.6-0.7-1.6-1.6c0-0.9,0.7-1.6,1.6-1.6
			C112.3,186.3,113.1,187,113.1,187.9z"/>
		<path class="st3" d="M113.2,170.9c0,0.9-0.7,1.6-1.6,1.6c-0.9,0-1.6-0.7-1.6-1.6c0-0.9,0.7-1.6,1.6-1.6
			C112.5,169.3,113.2,170,113.2,170.9z"/>
	</g>
	<g class="st2">
		<path class="st20" d="M100.1,109.6l-9,9.5l7.6,19.9l12.8-10.9C111.4,128.1,101.5,117.7,100.1,109.6z"/>
		<path class="st20" d="M122.8,109.6l9,9.5l-7.6,19.9l-12.8-10.9C111.4,128.1,121.4,117.7,122.8,109.6z"/>
	</g>
	<g class="st2">
		<path class="st4" d="M83,377.4H105l6.3-134.5c0.7,0.1,1.4,0.2,2.2,0.2l7.8,133.4h21.9c0.1-16.8,1-143.9-4.7-173.1l-53-0.5
			C85.9,204.2,82.7,324.8,83,377.4z"/>
		<path class="st21" d="M132.8,211l6.1-0.1l-0.5-7.6l-6.1-0.1C132.5,205.8,132.7,208.4,132.8,211z"/>
		<path class="st21" d="M126.8,203.2l-27-0.2c0.1,2.9,0.2,5.7,0.3,8.6l27.3-0.5C126.7,208.6,126.8,205.8,126.8,203.2z"/>
		<path class="st21" d="M93.2,202.9l-7.8-0.1v9l8.5-0.2C93.2,209,93.1,205.8,93.2,202.9z"/>
		<rect x="103.8" y="200.5" class="st22" width="14.2" height="12.1"/>
	</g>
	<g class="st2">
		<g>
			<path class="st10" d="M137.6,84.6c0.1,9-9.5,16.3-15.9,19.7c-6.4,3.4-11.9,2.3-11.9,2.3c-25.3-5.8-23.5-17.8-25-27.8
				c-0.7-4.9-1.4-14.1,0.8-25.4c0.3-1.5,0.8-2.9,1.4-4.2c3.9-8.2,13.2-11.4,13.2-11.4c5.5-1.9,11.9-2.4,17.6-1.3
				c8.3,1.5,14.8,5.8,16.9,14.3c0.7,2.7,1,5.6,1.4,8.4c0.7,5.8,1.1,11.6,1.3,17.4C137.5,79.3,137.6,82,137.6,84.6z"/>
		</g>
		<path class="st12" d="M111,59.5c0,0-1.9-1.7-1.9,4.9c0.1,6.6,0.9,13.5,0.9,13.5s-4.6-2.3-2.8,1.3c0.9,1.9,2.8,2.8,4.8,3.2
			c1.7,0.3,3-0.3,4-1.5c0.5-0.5,3-3.5,2.1-4.3c-0.4-0.4-2.7,0.8-3.3,0.9C114.8,77.6,114.2,57.8,111,59.5z"/>
		<path class="st13" d="M118.6,54.9c0,0,11.5-2.3,15.1,6.1c0,0-12.8-3.9-15.3-1.9L118.6,54.9z"/>
		<path class="st13" d="M104.8,55.8c0,0-11.3-3-15.4,5.2c0,0,13-3,15.4-1L104.8,55.8z"/>
		<g>
			<path class="st3" d="M92.1,69.2c0.2,3.3,3.4,5.8,7,5.5c3.6-0.2,6.4-3.1,6.2-6.4c-0.2-3.3-3.4-5.8-7-5.5
				C94.6,63.1,91.8,65.9,92.1,69.2z"/>
			<g>
				<path class="st14" d="M103.1,68.3c0.2,2.9-1.5,5.4-3.8,5.6c-2.3,0.2-4.3-2.1-4.5-5c-0.2-2.9,1.5-5.4,3.8-5.6
					C100.9,63.1,102.9,65.4,103.1,68.3z"/>
				<path class="st13" d="M101.9,68.4c0.1,2.1-1.1,3.9-2.7,4c-1.6,0.1-3-1.5-3.2-3.6c-0.1-2.1,1.1-3.8,2.7-4
					C100.3,64.7,101.7,66.3,101.9,68.4z"/>
				<path class="st3" d="M101.8,64.8c0,0.6-0.6,1.1-1.4,1.1c-0.8,0.1-1.5-0.4-1.6-0.9c0-0.6,0.6-1.1,1.4-1.1
					C101.1,63.8,101.8,64.2,101.8,64.8z"/>
			</g>
		</g>
		<g>
			<path class="st3" d="M118.5,68.5c0.2,3.3,3.4,5.8,7,5.6c3.6-0.2,6.4-3.1,6.2-6.5c-0.2-3.3-3.4-5.8-7-5.6
				C121,62.2,118.3,65.1,118.5,68.5z"/>
			<g>
				<path class="st14" d="M128.6,67.6c0.2,2.9-1.5,5.4-3.8,5.6c-2.3,0.2-4.3-2.1-4.5-5c-0.2-2.9,1.5-5.4,3.8-5.6
					C126.4,62.4,128.4,64.7,128.6,67.6z"/>
				<path class="st13" d="M127.4,67.7c0.1,2.1-1.1,3.9-2.7,4c-1.6,0.1-3-1.5-3.2-3.6c-0.1-2.1,1.1-3.8,2.7-4
					C125.8,64,127.2,65.6,127.4,67.7z"/>
				<path class="st3" d="M127.3,64.1c0,0.6-0.6,1.1-1.4,1.1c-0.8,0.1-1.5-0.4-1.6-0.9c0-0.6,0.6-1.1,1.4-1.1
					C126.6,63.1,127.3,63.5,127.3,64.1z"/>
			</g>
		</g>
		<path class="st17" d="M145.9,32.4c-1.5,2.1-4,4.1-6.6,4.7c2.2-2.3,4.2-5.4,3.9-8.6c0-0.1-0.2-0.3-0.3-0.2
			c-0.4,0.2-0.8,0.6-1.2,0.9c-2,1.8-5.2,1.7-7.6,0.9c-4.2-1.5-7.6-4.4-11.3-6.6c-4.1-2.5-8.6-3.9-13.4-3.7c-2.6,0.1-5.1,0.7-7.6,1.5
			c-5.9,2.2-13,6.4-14.6,13c-0.2,0.9-0.3,1.8-0.3,2.8c0,0.6,0.5,2.3,0.3,2.8c-0.1,0.2,0.1,0.5,0.3,0.3c0.1,0,0.2,0,0.2-0.1
			c0-0.1,0.1-0.2,0.1-0.2c2.8-2.3,7.5,6.6,9.2,8c6.5,5.5,15.9,6.2,23.7,4.1c8.7-2.4,18.3-8.4,23.3-15.7c0.8-1.2,1.6-2.4,2.2-3.7
			C146.4,32.4,146,32.2,145.9,32.4z"/>
		<g>
			<g>
				<path class="st11" d="M136.5,65.8c0,0,5.5-12.5,10.1-2.7c3.6,7.9-2.4,15.6-7.3,15C134.4,77.7,136.5,65.8,136.5,65.8z"/>
				<path class="st9" d="M136.9,67.8c0,0,4.1-8,6.2-5.2c2.1,2.9,2.1,6.8,2.1,6.8s-1.5-4.2-4.5-1.4c0,0,4,6.5-2.7,5.2
					C138.1,73.2,135.2,71.4,136.9,67.8z"/>
			</g>
		</g>
		<path class="st17" d="M93.8,39.4c0,0,0.6,10.3-3.6,15.2c-4.3,5-4.7,15.1-4.7,15.1s-15.6-19.9,2.1-31.5
			C87.6,38.2,91.2,36.8,93.8,39.4z"/>
		<path class="st17" d="M128,43.4c0,0,7.2,9.6,8.7,23.4c0,0,10.2-15.1,0.5-27.9C137.3,38.9,126.6,34.4,128,43.4z"/>
		<g>
			<g>
				<path class="st11" d="M85.8,67.7c0,0-5.5-12.5-10.1-2.7c-3.6,7.9,2.4,15.5,7.3,15C87.9,79.5,85.8,67.7,85.8,67.7z"/>
				<path class="st9" d="M85.5,69.7c0,0-4.1-8-6.2-5.1c-2.1,2.9-2.1,6.8-2.1,6.8s1.5-4.2,4.5-1.4c0,0-4,6.6,2.7,5.2
					C84.3,75.1,87.2,73.3,85.5,69.7z"/>
			</g>
		</g>
		<g>
			<g>
				<path class="st29" d="M102.6,61.8c-2.3-0.4-4.6-0.4-6.8-0.4c-1.4,2.3-2.7,4.7-3.7,7.2c-0.7,1.8-1.4,3.7-1.8,5.7
					c2.1,2,4.9,2.6,7.7,2.6C99.2,71.8,99.9,66.1,102.6,61.8z"/>
				<path class="st29" d="M131.5,61.3c-2.3-0.1-4.7,0-6.8,0.3c-1.2,2.4-2.2,4.9-3,7.5c-0.6,1.8-1.1,3.8-1.3,5.8
					c2.3,1.8,5.2,2.1,8,1.8C129,71.5,129.2,65.8,131.5,61.3z"/>
			</g>
			<path class="st19" d="M137.2,71.6c2.3-6.6,1.6-9.4,1.5-9.7l-0.1-0.5l-0.5-0.2c-0.4-0.2-10-3.9-20.4,0.8c-1.1,0.5-2.2,1.1-3.2,1.8
				l0-0.2l-3.8,0.2l-0.1-0.2l-0.5-0.3c-1.1-0.6-2.3-1.2-3.5-1.6c-10.7-4-20.1,0.4-20.5,0.5l-0.5,0.2l-0.1,0.5
				c-0.1,0.3-0.5,3.2,2.1,9.6c1,2.3,2.8,4,5.4,5c3.2,1.2,6.4,0.9,6.5,0.9c7.5-0.8,8.8-4.5,9.7-6.8c0-0.1,0.1-0.3,0.1-0.4
				c0.6-1.7,0.9-3.1,1.1-4.3c0.7-0.3,1.8-0.5,3.4,0.1c0.2,1.2,0.6,2.8,1.5,4.7c0.1,0.1,0.1,0.2,0.2,0.4c1,2.3,2.6,5.9,10.1,6.2
				c0.2,0,3.4,0.1,6.5-1.3C134.7,75.8,136.4,74,137.2,71.6z M99.3,76.2c0,0-2.9,0.3-5.5-0.8c-2-0.8-3.4-2-4.1-3.8
				c-1.8-4.3-2-6.8-2-7.8c2.2-0.8,9.8-3.4,18.2-0.2c0.9,0.3,1.8,0.7,2.6,1.2c0,0.9-0.1,2.9-1.1,5.5c-0.1,0.1-0.1,0.3-0.2,0.4
				C106.4,73,105.4,75.5,99.3,76.2z M131.2,74.9c-2.6,1.2-5.4,1.1-5.5,1.1c-6.1-0.3-7.2-2.7-8.2-4.9c-0.1-0.1-0.1-0.3-0.2-0.4
				c-1.1-2.5-1.4-4.5-1.4-5.5c0.8-0.5,1.7-0.9,2.5-1.3c8.1-3.7,15.9-1.6,18.1-0.9c0.1,1,0,3.5-1.5,7.9
				C134.5,72.7,133.2,74,131.2,74.9z"/>
		</g>
		<path class="st16" d="M100,84.9c0,0,14.1,14.6,23.1-2.3C123.1,82.6,115.2,90.8,100,84.9z"/>
	</g>
	<g class="st2">
		<g>
			<g>
				<rect x="132.1" y="265.2" class="st19" width="72.8" height="44.5"/>
				<g>
					<path class="st19" d="M160,271.3v-14.4c0-0.3,0.3-0.6,0.7-0.6h15.9c0.4,0,0.6,0.2,0.6,0.6v14.4h6.2v-14.4c0-3.7-3-6.7-6.8-6.7
						h-15.9c-3.8,0-6.9,3-6.9,6.7v14.4H160z"/>
				</g>
			</g>
			<rect x="132.1" y="265.2" class="st37" width="72.8" height="16.2"/>
			<rect x="164.4" y="277.3" class="st4" width="10.1" height="10.1"/>
		</g>
		<g>
			<path class="st11" d="M179,250.2c-0.7-7.1-8.1-14-13.7-7.7c-1.7,0.9-2.6,3-3.1,4.8c-1.3,4.7-1.5,10.2-6,13
				c-0.5,0.3-0.2,1,0.3,1.1c3.3,0.8,5.5-0.8,7.2-3.3c0.1,1.6,0.4,3.2,1.7,4.2c1.5,1.2,2.6,0.1,3.3-1.3c1,1.9,3.6,1.5,5-0.7
				c0.6,1.3,1.6,2.2,3.2,1.4C179.9,260.2,179.2,252.9,179,250.2z"/>
			<path class="st8" d="M180.1,245.1c2.9-98.4-30.8-125.1-30.8-125.1c-6.9,7.1-6,39.6-6,39.6c10,13.7,16,66,17.9,85.5H180.1z"/>
		</g>
	</g>
	<path class="st25" d="M75.5,121.1c0,0-28.9-16-33.4-29c-4-11.6-4.9-44.2-5-50.6H16.5c-0.9,9.6-3.9,47.6,5.9,65.2
		c11.2,20.2,55.7,46.1,55.7,46.1S81.4,132.6,75.5,121.1z"/>
</g>
<g>
	<path class="st8" d="M69.9,92.4c0,0-40.7,31.8-38.5,58.5c0,0,3.3,21.2,49.6-3.9c0,0-0.6-23.2-5.1-27.2l-20,15
		c0,0,23.7-24.6,23.8-34L69.9,92.4z"/>
	<g>
		<path class="st10" d="M78,107.3c0,0,6.5-7.2,8.8-11.3c2.4-4.1-0.2-6.1-0.6-9.1l-8.8-9.6l-7.8,5.4c0,1.1,1.9,15.2,3.4,19.3
			C74.7,106.5,73,108.3,78,107.3z"/>
		<g>
			<path class="st38" d="M66.3,60.9L79.8,101c-2.3,0.6-4.1-2.9-4.1-2.9s-9.5-29.8-10.2-33C64.8,62,66.3,60.9,66.3,60.9z"/>
			<g>
				<g>
					<g>
						<g>
							<path class="st39" d="M84.9,68.3c0.1,0.4,0,0.9-0.3,1l0,0c-0.3,0.1-0.6-0.1-0.8-0.5l-1.4-4.4c-0.1-0.4,0-0.9,0.3-1l0,0
								c0.3-0.1,0.6,0.1,0.8,0.5L84.9,68.3z"/>
							<path class="st39" d="M86.1,72.1c0.1,0.3,0,0.6-0.2,0.7l0,0c-0.2,0.1-0.4-0.1-0.5-0.3l-0.7-2.1c-0.1-0.3,0-0.6,0.2-0.7l0,0
								c0.2-0.1,0.4,0.1,0.5,0.3L86.1,72.1z"/>
						</g>
						<g>
							<path class="st39" d="M71.7,78.2c0.1,0.5,0,0.9-0.3,1l0,0c-0.3,0.1-0.7-0.2-0.8-0.6l-1.5-4.7c-0.1-0.4,0-0.9,0.3-1l0,0
								c0.3-0.1,0.7,0.2,0.8,0.6L71.7,78.2z"/>
						</g>
					</g>
					<g>
						<path class="st38" d="M80.9,57.6l10.7,33.8c0.5,1.5,0.2,3.2-0.7,3.7L79.8,101c-0.8,0.4-1.9-0.6-2.4-2.3L66.3,63.2
							c-0.4-1.3-0.1-2.6,0.8-2.9L78.6,56C79.5,55.6,80.5,56.3,80.9,57.6z"/>
						<path class="st40" d="M72.8,58.3l11.3,40.7l-4.3,2.1c-0.8,0.4-1.9-0.6-2.4-2.3L66.3,63.2c-0.4-1.3-0.1-2.6,0.8-2.9L72.8,58.3z
							"/>
					</g>
					<g>
						<path class="st41" d="M75.8,59.3c0,0.1,0,0.3-0.2,0.4l-3.9,1.5c-0.1,0.1-0.3,0-0.3-0.2l0,0c0-0.1,0-0.3,0.2-0.3l3.9-1.5
							C75.6,59.1,75.8,59.2,75.8,59.3L75.8,59.3z"/>
						<path class="st41" d="M77.1,58.9c0,0.1,0,0.2-0.1,0.3l-0.1,0c-0.1,0-0.2,0-0.2-0.1l0,0c0-0.1,0-0.2,0.1-0.3l0.1,0
							C77,58.7,77.1,58.8,77.1,58.9L77.1,58.9z"/>
					</g>
					<g>
						<path class="st39" d="M86.1,93.6c0.2,0.6,0,1.3-0.3,1.5l-2.2,1.1c-0.4,0.2-0.8-0.2-1-0.8c0,0,0,0,0-0.1
							c-0.1-0.3-0.1-0.6,0-0.8c0.1-0.3,0.2-0.5,0.4-0.6l2.2-1.1C85.4,92.7,85.8,93,86.1,93.6C86.1,93.6,86.1,93.6,86.1,93.6z"/>
						<path class="st40" d="M86.1,93.6c0.2,0.6,0,1.3-0.3,1.5l-2.2,1.1c-0.4,0.2-0.8-0.2-1-0.8c0,0,0,0,0-0.1L86.1,93.6
							C86.1,93.6,86.1,93.6,86.1,93.6z"/>
					</g>
				</g>
				<g>
					<path class="st42" d="M77.2,93.3l11.5-5.6l-8.3-26.2L68.7,66L77.2,93.3z"/>
					<polygon class="st43" points="80.6,61.1 89,87.8 77.1,93.7 68.4,65.8 					"/>
				</g>
			</g>
		</g>
		<path class="st10" d="M68.2,64.5c3,4.3,0.2,6.8,0.3,10.9c2-2,4-3.1,6-3c0.2,1.5-0.5,2.9-1.4,4.2c1.8-1,3.5-1.1,3.2,1.6
			c-0.2,1.4-1.3,2.9-2.5,4.3c1-0.8,2-1.8,3.1-2c4.7-0.9,0.1,10.6-5,8.8c1.2,7.6-4.5-1.8-3.2-3.8c-1.1-0.1-2-0.6-2-2.3
			c0-0.4,0.2-0.8,0.5-1.3c-1.2-0.3-1.7-1-1.7-1.7C62.2,75.5,67.1,69.7,68.2,64.5z"/>
	</g>
	<g>
		<g>
			<g>
				<g>
					<path class="st4" d="M145.8,388.8L121,386c1.2-1.9,1.8-7,2.1-11.2c0.4-5.8,0.3-12.6,0.3-12.6s16.4-4,16.4,0s0.9,8.3,2.1,12.6
						C143.6,381.5,145.8,388.8,145.8,388.8z"/>
					<path class="st4" d="M146.3,390.6c0,0.1,0,0,0,0.1c-0.1,1.4-0.4,3.6-1,3.6h-26.1c-0.6,0-1-2.2-1-3.6c0-0.1,0-0.1,0-0.2
						c0-6.2,6.3-11.2,14.1-11.2C140,379.2,146.3,384.3,146.3,390.6z"/>
				</g>
				<path class="st5" d="M123.1,374.2c0.4-6,0.3-12,0.3-12s16.4-4,16.4,0s0.9,8,2.1,12H123.1z"/>
			</g>
			<path class="st6" d="M146.3,391.2c-0.1,0-0.4,2-1,2h-26.1c-0.6,0-1-2-1-2H146.3z"/>
		</g>
		<path class="st7" d="M136.9,381.2c-1.9-2.7-6.6-1.8-8.7,0.1c-0.3,0.3,0,0.7,0.4,0.6c1.4-0.2,2.5-0.9,3.9-1c1.5-0.1,2.7,0.8,4.1,1
			C136.9,381.9,137.1,381.5,136.9,381.2z"/>
		<path class="st7" d="M136.1,384c-2.2-1.5-6.4-2-8.3,0.2c-0.3,0.3,0,0.8,0.4,0.7c1.3-0.4,2.7-0.5,4-0.5c1.3,0,2.4,1,3.7,0.6
			C136.5,384.9,136.5,384.3,136.1,384z"/>
	</g>
	<g>
		<g>
			<g>
				<path class="st4" d="M103.7,390.3c-0.2,1.5-0.4,2.7-0.7,3.6c0,0-39.6,1.7-42.4,0.5c-0.4-0.2-0.3-0.6,0.2-1.2
					c0.1-0.4,0.3-0.9,0.5-1.5c1.4-3.4,5.2-8.6,15.9-8c1.9-1,3.4-1.7,4.3-2.2c1.4-0.7,2.3-2.6,3.1-4.8c1.6-4.9,1.9-11.9,1.6-13.3
					l16.8,0.2c0,0,0.6,6.2,0.9,13.1C104.1,381.5,104.1,386.6,103.7,390.3z"/>
				<path class="st5" d="M84.6,376.2c1.6-6,1.9-11.7,1.6-13.1l16.8,0.1c0,0,0.6,5,0.9,13H84.6z"/>
			</g>
			<path class="st6" d="M103.7,390.3c-0.2,1.5-0.4,2.7-0.7,3.6c0,0-39.6,1.7-42.4,0.5c-0.4-0.2-0.3-0.6,0.2-1.2
				c0.1-0.4,0.3-0.9,0.5-1.5C68.2,391.7,93.1,391.7,103.7,390.3z"/>
		</g>
		<path class="st7" d="M81.4,384.6c-0.6-1.9-3.7-2.7-5.4-1.5c-0.2,0.1-0.2,0.3,0,0.5c0.7,0.4,1.6,0.2,2.4,0.3
			c0.9,0.2,1.2,0.9,1.8,1.3C80.7,385.6,81.6,385.2,81.4,384.6z"/>
		<path class="st7" d="M87.2,382.2c-0.5-1.3-2.1-2.3-3.6-2.4c-1.1-0.1-3.3,0.3-3,1.6c0,0.1,0.2,0.2,0.3,0.2c0.7,0,1.3-0.4,2-0.4
			c0.8,0,1.6,0.5,2.2,1c0.5,0.5,0.7,1,1.5,1.1C87.1,383.4,87.3,382.5,87.2,382.2z"/>
	</g>
	<path class="st8" d="M76,119.8c0,0,37.5-7,73.1-0.9c0,0-8,68-10.8,82.5c0,0-28.1,7-52.5-0.5C85.8,200.8,75.5,132.9,76,119.8z"/>
	<path class="st9" d="M123.8,115.4c0,6.3-4.8,11.3-11,11.3l0,0c-6.2,0-11-5.1-11-11.3v-14.3c0-6.3,4.8-11.3,11-11.3l0,0
		c6.2,0,11,5.1,11,11.3V115.4z"/>
	<g>
		<path class="st3" d="M113.3,135.7c0,0.9-0.7,1.6-1.6,1.6c-0.9,0-1.6-0.7-1.6-1.6c0-0.9,0.7-1.6,1.6-1.6
			C112.6,134.1,113.3,134.8,113.3,135.7z"/>
		<path class="st3" d="M113.3,152.5c0,0.9-0.7,1.6-1.6,1.6c-0.9,0-1.6-0.7-1.6-1.6c0-0.9,0.7-1.6,1.6-1.6
			C112.6,150.9,113.3,151.6,113.3,152.5z"/>
		<path class="st3" d="M113.2,186.1c0,0.9-0.7,1.6-1.6,1.6c-0.9,0-1.6-0.7-1.6-1.6c0-0.9,0.7-1.6,1.6-1.6
			C112.5,184.5,113.2,185.2,113.2,186.1z"/>
		<path class="st3" d="M113.3,169.2c0,0.9-0.7,1.6-1.6,1.6c-0.9,0-1.6-0.7-1.6-1.6c0-0.9,0.7-1.6,1.6-1.6
			C112.6,167.6,113.3,168.3,113.3,169.2z"/>
	</g>
	<g>
		<path class="st20" d="M100.3,108.5l-8.9,9.4l7.5,19.7l12.7-10.8C111.6,126.8,101.8,116.5,100.3,108.5z"/>
		<path class="st20" d="M122.8,108.5l8.9,9.4l-7.5,19.7l-12.7-10.8C111.6,126.8,121.4,116.5,122.8,108.5z"/>
	</g>
	<g>
		<path class="st4" d="M143,372.2h-21.7l-7.8-131.9c-0.7,0-1.5,0.3-2.2,0.2l-6.2,133.7H83.4c-0.3-54.1,2.8-171.8,2.4-173.2l46.5,0.3
			l6,0c0.4,2,0.8,4.2,1.1,7.1C143.9,247.2,143.1,356.2,143,372.2z"/>
		<path class="st21" d="M139.4,208.8l-6.6,0.1c-0.1-2.6-0.3-5.1-0.6-7.7l6,0.1C138.7,203.4,139.1,205.9,139.4,208.8z"/>
		<path class="st21" d="M126.8,201.5l-26.8-0.2c0.1,2.8,0.2,5.7,0.2,8.5l27-0.5C126.7,206.9,126.8,204.2,126.8,201.5z"/>
		<path class="st21" d="M93.5,201.2l-7.7-0.1v8.9l8.5-0.1C93.5,207.3,93.4,204.2,93.5,201.2z"/>
		<rect x="107.8" y="197.9" class="st22" width="12" height="12"/>
	</g>
	<g>
		<path class="st10" d="M137.5,83.8c0.1,8.9-9.5,16.2-15.8,19.5c-6.3,3.4-11.8,2.3-11.8,2.3C84.8,99.9,86.6,87.9,85.2,78
			c-0.7-4.9-1.3-14,0.8-25.2c0.3-1.5,0.8-2.9,1.4-4.2c3.9-8.1,13.1-11.3,13.1-11.3c5.5-1.9,11.8-2.3,17.4-1.3
			c8.2,1.5,14.7,5.8,16.8,14.2c0.7,2.7,1,5.5,1.4,8.3c0.7,5.7,1.1,11.5,1.3,17.2C137.4,78.5,137.5,81.1,137.5,83.8z"/>
	</g>
	<path class="st12" d="M111.1,58.8c0,0-1.9-1.7-1.9,4.8c0.1,6.5,0.9,13.4,0.9,13.4s-4.5-2.2-2.8,1.3c0.9,1.9,2.8,2.8,4.8,3.2
		c1.7,0.3,2.9-0.3,4-1.5c0.5-0.5,3-3.4,2.1-4.2c-0.4-0.4-2.7,0.7-3.3,0.9C114.9,76.7,114.3,57.2,111.1,58.8z"/>
	<path class="st13" d="M118.6,54.2c0,0,11.4-2.3,15,6.1c0,0-12.7-3.8-15.1-1.9L118.6,54.2z"/>
	<path class="st13" d="M105,55.2c0,0-11.2-3-15.3,5.1c0,0,12.9-3,15.2-1L105,55.2z"/>
	<g>
		<path class="st3" d="M92.4,68.5c0.2,3.3,3.3,5.7,6.9,5.5c3.6-0.2,6.4-3.1,6.1-6.4c-0.2-3.3-3.3-5.7-6.9-5.5
			C94.9,62.4,92.2,65.2,92.4,68.5z"/>
		<g>
			<path class="st14" d="M103.3,67.5c0.2,2.9-1.5,5.4-3.7,5.5c-2.3,0.2-4.2-2.1-4.4-5c-0.2-2.9,1.5-5.4,3.7-5.5
				C101.1,62.4,103.1,64.6,103.3,67.5z"/>
			<path class="st13" d="M102.1,67.6c0.1,2.1-1,3.8-2.7,3.9c-1.6,0.1-3-1.5-3.2-3.5c-0.1-2.1,1.1-3.8,2.7-3.9
				C100.6,64,102,65.5,102.1,67.6z"/>
			<path class="st3" d="M102.1,64.1c0,0.6-0.6,1.1-1.4,1.1c-0.8,0.1-1.5-0.4-1.6-0.9c0-0.6,0.6-1.1,1.4-1.1
				C101.3,63.1,102,63.5,102.1,64.1z"/>
		</g>
	</g>
	<g>
		<path class="st3" d="M118.6,67.7c0.2,3.3,3.3,5.8,6.9,5.6c3.6-0.2,6.4-3.1,6.1-6.4c-0.2-3.3-3.3-5.8-6.9-5.6
			C121.1,61.5,118.3,64.4,118.6,67.7z"/>
		<g>
			<path class="st14" d="M128.6,66.8c0.2,2.9-1.5,5.4-3.7,5.5c-2.3,0.1-4.2-2.1-4.4-5c-0.2-2.9,1.5-5.4,3.7-5.5
				C126.4,61.7,128.4,64,128.6,66.8z"/>
			<path class="st13" d="M127.4,66.9c0.1,2.1-1,3.8-2.7,3.9c-1.6,0.1-3-1.5-3.2-3.5c-0.1-2.1,1.1-3.8,2.7-3.9
				C125.8,63.3,127.2,64.9,127.4,66.9z"/>
			<path class="st3" d="M127.3,63.4c0,0.6-0.6,1.1-1.4,1.1c-0.8,0.1-1.5-0.4-1.6-0.9c0-0.6,0.6-1.1,1.4-1.1
				C126.6,62.4,127.3,62.8,127.3,63.4z"/>
		</g>
	</g>
	<path class="st17" d="M145.7,32.3c-1.5,2.1-3.9,4.1-6.5,4.6c2.1-2.3,4.2-5.3,3.8-8.5c0-0.1-0.2-0.3-0.3-0.2
		c-0.4,0.2-0.8,0.6-1.1,0.9c-2,1.8-5.1,1.7-7.5,0.9c-4.1-1.5-7.5-4.3-11.2-6.6c-4-2.4-8.5-3.9-13.3-3.7c-2.6,0.1-5.1,0.7-7.5,1.5
		c-5.9,2.2-12.9,6.3-14.5,12.9c-0.2,0.9-0.3,1.8-0.3,2.8c0,0.6,0.5,2.3,0.3,2.8c-0.1,0.2,0.1,0.5,0.3,0.3c0.1,0,0.2,0,0.2-0.1
		c0-0.1,0.1-0.2,0.1-0.2c2.8-2.2,7.4,6.5,9.1,8c6.5,5.4,15.7,6.2,23.4,4.1c8.6-2.4,18.1-8.3,23.1-15.5c0.8-1.2,1.6-2.4,2.2-3.7
		C146.2,32.3,145.9,32.1,145.7,32.3z"/>
	<g>
		<g>
			<path class="st11" d="M136.5,65.1c0,0,5.5-12.4,10-2.6c3.6,7.8-2.4,15.4-7.3,14.9C134.4,76.8,136.5,65.1,136.5,65.1z"/>
			<path class="st9" d="M136.8,67c0,0,4.1-8,6.2-5.1c2.1,2.9,2.1,6.8,2.1,6.8s-1.5-4.1-4.5-1.4c0,0,4,6.5-2.6,5.1
				C138,72.4,135.1,70.6,136.8,67z"/>
		</g>
	</g>
	<path class="st17" d="M94.1,38.9c0,0,0.6,10.2-3.6,15.1c-4.2,4.9-4.6,15-4.6,15S70.4,49.2,88,37.7C88,37.7,91.5,36.3,94.1,38.9z"/>
	<path class="st17" d="M128,42.9c0,0,7.1,9.5,8.7,23.2c0,0,10.1-15,0.5-27.7C137.2,38.4,126.6,34,128,42.9z"/>
	<g>
		<g>
			<path class="st11" d="M86.2,67c0,0-5.5-12.4-10-2.6c-3.6,7.8,2.4,15.4,7.3,14.9C88.3,78.7,86.2,67,86.2,67z"/>
			<path class="st9" d="M85.8,68.9c0,0-4.1-8-6.2-5.1c-2.1,2.9-2.1,6.8-2.1,6.8s1.5-4.1,4.5-1.4c0,0-3.9,6.5,2.6,5.1
				C84.7,74.3,87.5,72.5,85.8,68.9z"/>
		</g>
	</g>
	<g>
		<g>
			<path class="st29" d="M102.8,61.4c-2.3-0.4-4.6-0.4-6.7-0.4c-1.4,2.3-2.6,4.7-3.7,7.1c-0.7,1.8-1.4,3.7-1.8,5.6
				c2.1,2,4.9,2.5,7.7,2.6C99.4,71.3,100.1,65.7,102.8,61.4z"/>
			<path class="st29" d="M131.5,60.9c-2.3-0.1-4.6,0-6.7,0.3c-1.1,2.4-2.2,4.9-3,7.4c-0.6,1.8-1.1,3.8-1.3,5.8
				c2.3,1.7,5.1,2.1,7.9,1.8C129,71.1,129.2,65.4,131.5,60.9z"/>
		</g>
		<path class="st19" d="M137.1,70.8c2.2-6.6,1.6-9.4,1.5-9.7l-0.1-0.5l-0.5-0.2c-0.4-0.2-9.9-3.9-20.2,0.8c-1.1,0.5-2.2,1.1-3.1,1.8
			l0-0.2l-3.8,0.2l-0.1-0.2l-0.5-0.3c-1.1-0.6-2.3-1.1-3.4-1.6c-10.6-4-19.9,0.4-20.3,0.5L86,61.7l-0.1,0.5
			c-0.1,0.3-0.5,3.1,2.1,9.5c1,2.3,2.8,4,5.3,5c3.1,1.2,6.3,0.9,6.5,0.9c7.5-0.8,8.8-4.4,9.6-6.8c0-0.1,0.1-0.3,0.1-0.4
			c0.6-1.6,0.9-3.1,1.1-4.2c0.7-0.3,1.8-0.5,3.4,0.1c0.2,1.2,0.6,2.8,1.4,4.7c0.1,0.1,0.1,0.2,0.2,0.4c1,2.3,2.6,5.8,10.1,6.2
			c0.1,0,3.4,0.1,6.4-1.3C134.6,75,136.3,73.2,137.1,70.8z M99.6,75.4c0,0-2.8,0.3-5.5-0.7c-2-0.7-3.4-2-4.1-3.7
			c-1.8-4.2-2-6.7-2-7.7c2.1-0.8,9.7-3.3,18-0.2c0.9,0.3,1.7,0.7,2.6,1.2c0,0.9-0.1,2.9-1.1,5.5c-0.1,0.1-0.1,0.3-0.2,0.4
			C106.5,72.2,105.6,74.7,99.6,75.4z M131.2,74.1c-2.6,1.2-5.4,1.1-5.4,1.1c-6.1-0.3-7.2-2.7-8.1-4.8c-0.1-0.1-0.1-0.3-0.2-0.4
			c-1.1-2.5-1.4-4.5-1.4-5.4c0.8-0.5,1.7-0.9,2.5-1.3c8-3.6,15.8-1.6,18-0.9c0.1,1,0,3.5-1.5,7.8C134.4,71.9,133.1,73.2,131.2,74.1z
			"/>
	</g>
	<g>
		<path class="st15" d="M101.8,84.7c0.1,0.3,1.8,4.5,4.6,7.6c3.4,3.8,8.3,6,13.7-2c1.2-1.7,2.3-3.8,3.5-6.5c0,0-1.9,0.6-4.6,1.4
			c-4.3,1.2-10.8,2.5-15.2,0.5h0C103,85.6,102.4,85.2,101.8,84.7z"/>
		<path class="st16" d="M106.4,92.5c3.4,3.8,8.3,6,13.7-2.1C117.2,89.6,110.3,88.4,106.4,92.5z"/>
		<path class="st3" d="M103.8,86.1c7.1,7.9,12.3,3.8,15.2-0.7C114.7,86.6,108.3,87.9,103.8,86.1z"/>
	</g>
	<g>
		<path class="st10" d="M128.4,189c0,0-3.7,0.7-5.7-0.7c-2-1.4-3.1-2-8.6-2.2c-5.4-0.3-8.3-2.6-8.3-2.6s-2,5,6.5,5.8
			c5.2,0.5-9.1,6.7-13.6,8.1c0,0-1.9,2.8,3,3.3c4.9,0.5,1,2.5,10.5,2.9c9.5,0.4,19.8-1.9,19.7-8.7C131.9,188,128.4,189,128.4,189z"
			/>
		<g>
			<g>
				<path class="st11" d="M161.4,147.1L161.4,147.1C161.4,147.1,161.4,147.1,161.4,147.1C161.4,147.1,161.4,147.1,161.4,147.1z"/>
			</g>
			<g>
				<path class="st8" d="M143.8,140c0.6,7.6,12.1,36.8,12.1,36.8c-4.4,0.9-29.6,8.6-29.6,8.6l1.3,18.4c1.4-0.1,42.3-5.3,44.9-16.2
					c7.6-32-23.7-68.7-23.7-68.7C142.3,120.2,143.8,140,143.8,140z"/>
			</g>
		</g>
	</g>
</g>
</svg>
